<?xml version="1.0" standalone="no"?><!DOCTYPE svg PUBLIC "-//W3C//DTD SVG 1.1//EN" "http://www.w3.org/Graphics/SVG/1.1/DTD/svg11.dtd"><svg t="1658461626905" class="icon" viewBox="0 0 1024 1024" version="1.1" xmlns="http://www.w3.org/2000/svg" p-id="16326" xmlns:xlink="http://www.w3.org/1999/xlink" width="200" height="200"><defs><style type="text/css">@font-face { font-family: feedback-iconfont; src: url("//at.alicdn.com/t/font_1031158_u69w8yhxdu.woff2?t=1630033759944") format("woff2"), url("//at.alicdn.com/t/font_1031158_u69w8yhxdu.woff?t=1630033759944") format("woff"), url("//at.alicdn.com/t/font_1031158_u69w8yhxdu.ttf?t=1630033759944") format("truetype"); }
</style></defs><path d="M248.896 102.4v9.216c0 51.456 40.448 93.184 90.368 93.184h217.472c50.048 0 90.368-41.728 90.368-93.184V102.4h158.08c50.112 0 90.816 41.984 90.816 93.44l0.064 332.544A288 288 0 0 0 619.008 1024H90.88C40.704 1024 0 982.016 0 930.56V195.84C0 144.256 40.832 102.4 90.88 102.4h158.016z m87.104 569.6h-160a48 48 0 1 0 0 96h160a48 48 0 1 0 0-96z m384-320h-544a48 48 0 0 0 0 96h544a48 48 0 1 0 0-96zM522.688 0C563.84 0 597.12 34.048 597.12 76.8c0 42.368-33.088 76.8-74.496 76.8H373.12c-41.152 0-74.496-34.048-74.496-76.8 0-42.368 33.088-76.8 74.496-76.8h149.504z" fill="#fff" p-id="16327"></path><path d="M682.88 817.536l47.36 59.904a48 48 0 0 0 68.672 7.488l111.04-92.096a50.816 50.816 0 0 0 7.168-70.272 48 48 0 0 0-68.672-7.424l-73.088 60.608-16.64-21.056a48 48 0 0 0-68.608-7.424 50.816 50.816 0 0 0-7.232 70.272M800 576c123.52 0 224 100.48 224 224 0 20.352-3.008 40-8.128 58.816A224.192 224.192 0 0 1 800 1024C676.48 1024 576 923.52 576 800A224.192 224.192 0 0 1 800 576z" fill="#fff" p-id="16328"></path></svg>