<?xml version="1.0" standalone="no"?><!DOCTYPE svg PUBLIC "-//W3C//DTD SVG 1.1//EN" "http://www.w3.org/Graphics/SVG/1.1/DTD/svg11.dtd"><svg t="1659754938287" class="icon" viewBox="0 0 1092 1024" version="1.1" xmlns="http://www.w3.org/2000/svg" p-id="13026" xmlns:xlink="http://www.w3.org/1999/xlink" width="213.28125" height="200"><defs><style type="text/css">@font-face { font-family: feedback-iconfont; src: url("//at.alicdn.com/t/font_1031158_u69w8yhxdu.woff2?t=1630033759944") format("woff2"), url("//at.alicdn.com/t/font_1031158_u69w8yhxdu.woff?t=1630033759944") format("woff"), url("//at.alicdn.com/t/font_1031158_u69w8yhxdu.ttf?t=1630033759944") format("truetype"); }
</style></defs><path d="M717.752863 776.534323l49.356603 60.893623a50.790197 50.790197 0 0 0 71.406648 7.57757l115.506738-93.524959a50.790197 50.790197 0 0 0-63.965611-78.984218l-76.117029 61.644554-17.339664-21.435648a50.790197 50.790197 0 1 0-78.847685 63.829078m111.410755-286.514054A263.508279 263.508279 0 0 1 1092.535364 752.982417c0 23.893238-3.549852 46.967279-9.557295 68.949058a263.508279 263.508279 0 0 1-253.814451 193.944824 263.508279 263.508279 0 0 1-263.371747-262.893882c0-129.023484 93.524959-236.338255 216.472734-258.524832 15.496471-2.867189 31.129475-4.369049 46.899013-4.437316z" fill="#0DB22E" p-id="13027"></path><path d="M788.203782 76.325924V48.20017A48.810471 48.810471 0 0 0 738.778913 0.004096c-27.306557 0-49.356603 21.57218-49.356603 48.196074v28.125754h-414.377009V48.20017A48.810471 48.810471 0 0 0 225.756965 0.004096c-27.306557 0-49.424869 21.57218-49.424869 48.196074v28.125754H49.697936c-27.306557 0-49.424869 21.57218-49.424869 48.196074v724.852567c0 26.623894 22.118312 48.196074 49.424869 48.196074h466.873865a337.235984 337.235984 0 0 1-42.052098-163.156681c0-190.941103 159.265496-346.315415 354.985247-346.315414a359.08123 359.08123 0 0 1 158.514566 36.863852c0.136533-1.365328 0.477865-2.867189 0.477864-4.369049V124.521998a48.810471 48.810471 0 0 0-49.424869-48.196074l-132.709869-0.682664-18.15886 0.682664z" fill="#5176EA" p-id="13028"></path></svg>