<?xml version="1.0" standalone="no"?><!DOCTYPE svg PUBLIC "-//W3C//DTD SVG 1.1//EN" "http://www.w3.org/Graphics/SVG/1.1/DTD/svg11.dtd"><svg t="1658461659638" class="icon" viewBox="0 0 1024 1024" version="1.1" xmlns="http://www.w3.org/2000/svg" p-id="16477" xmlns:xlink="http://www.w3.org/1999/xlink" width="200" height="200"><defs><style type="text/css">@font-face { font-family: feedback-iconfont; src: url("//at.alicdn.com/t/font_1031158_u69w8yhxdu.woff2?t=1630033759944") format("woff2"), url("//at.alicdn.com/t/font_1031158_u69w8yhxdu.woff?t=1630033759944") format("woff"), url("//at.alicdn.com/t/font_1031158_u69w8yhxdu.ttf?t=1630033759944") format("truetype"); }
</style></defs><path d="M527.785899 17.898131l328.11426 189.432067a133.114426 133.114426 0 0 1 66.557213 115.259174v216.694925A288.115935 288.115935 0 0 0 528.361875 704.013399H354.609151l109.883398-143.353997 3.199866-5.119785a31.99866 31.99866 0 0 0-3.199866-33.790585l-109.819401-143.353997h220.086784v78.460714l0.511978 5.759759a31.99866 31.99866 0 0 0 63.485342-5.759759V346.396375l-0.511979-5.759759a31.99866 31.99866 0 0 0-31.486681-26.238901H289.779865l-5.439772 0.447981a31.99866 31.99866 0 0 0-19.903166 51.005864l134.266377 175.352657-134.266377 175.352657-3.007874 4.607807a31.99866 31.99866 0 0 0 28.350812 46.846039h223.990621a286.707994 286.707994 0 0 0 60.797454 211.191156l-46.718044 26.942872a133.114426 133.114426 0 0 1-133.178423 0l-328.11426-189.432068A133.114426 133.114426 0 0 1 0 701.453507V322.589372c0-47.550009 25.406936-91.516168 66.557213-115.323171L394.671473 17.834133a133.114426 133.114426 0 0 1 133.114426 0z" fill="#5176EA" p-id="16478"></path><path d="M799.966501 1024A224.054618 224.054618 0 0 1 575.975881 800.00938C575.975881 676.366557 676.323679 576.018759 799.966501 576.018759s223.99062 100.347798 223.990621 223.990621-100.347798 223.99062-223.990621 223.99062z m18.559223-313.202885c0-21.24711-18.303234-38.782376-41.278271-38.782376-22.911041 0-41.278271 17.599263-41.278272 38.782376v116.475123c0 11.967499 5.951751 22.591054 14.975373 29.566762a35.198526 35.198526 0 0 0 7.039705 5.055788l106.427544 60.093484c19.455185 11.519518 44.798124 6.015748 57.213604-12.479478a37.630424 37.630424 0 0 0-12.863461-53.565757c-0.511979-0.447981-1.023957-0.447981-1.471939-0.959959l-88.700285-48.95795v-95.228013z" fill="#F4B600" p-id="16479"></path></svg>