<?xml version="1.0" standalone="no"?><!DOCTYPE svg PUBLIC "-//W3C//DTD SVG 1.1//EN" "http://www.w3.org/Graphics/SVG/1.1/DTD/svg11.dtd"><svg t="1658461670865" class="icon" viewBox="0 0 1024 1024" version="1.1" xmlns="http://www.w3.org/2000/svg" p-id="16779" xmlns:xlink="http://www.w3.org/1999/xlink" width="200" height="200"><defs><style type="text/css">@font-face { font-family: feedback-iconfont; src: url("//at.alicdn.com/t/font_1031158_u69w8yhxdu.woff2?t=1630033759944") format("woff2"), url("//at.alicdn.com/t/font_1031158_u69w8yhxdu.woff?t=1630033759944") format("woff"), url("//at.alicdn.com/t/font_1031158_u69w8yhxdu.ttf?t=1630033759944") format("truetype"); }
</style></defs><path d="M527.785899 17.898131l328.11426 189.432067a133.114426 133.114426 0 0 1 66.557213 115.259174v216.694925A288.115935 288.115935 0 0 0 528.361875 704.013399H354.609151l109.883398-143.353997 3.199866-5.119785a31.99866 31.99866 0 0 0-3.199866-33.790585l-109.819401-143.353997h220.086784v78.460714l0.511978 5.759759a31.99866 31.99866 0 0 0 63.485342-5.759759V346.396375l-0.511979-5.759759a31.99866 31.99866 0 0 0-31.486681-26.238901H289.779865l-5.439772 0.447981a31.99866 31.99866 0 0 0-19.903166 51.005864l134.266377 175.352657-134.266377 175.352657-3.007874 4.607807a31.99866 31.99866 0 0 0 28.350812 46.846039h223.990621a286.707994 286.707994 0 0 0 60.797454 211.191156l-46.718044 26.942872a133.114426 133.114426 0 0 1-133.178423 0l-328.11426-189.432068A133.114426 133.114426 0 0 1 0 701.453507V322.589372c0-47.550009 25.406936-91.516168 66.557213-115.323171L394.671473 17.834133a133.114426 133.114426 0 0 1 133.114426 0z" fill="#5176EA" p-id="16780"></path><path d="M799.966501 576.018759c123.514828 0 223.99062 100.475793 223.990621 223.990621 0 20.351148-3.007874 39.998325-8.12766 58.813537A224.182612 224.182612 0 0 1 799.966501 1024C676.451674 1024 575.975881 923.524207 575.975881 800.00938A224.182612 224.182612 0 0 1 799.966501 576.018759z m0 319.986601a31.99866 31.99866 0 1 0 31.99866 32.190652 31.99866 31.99866 0 0 0-31.99866-32.190652z m0-255.989281c-17.66326 0-31.99866 16.95929-31.99866 37.758419v116.475123c0 20.799129 14.3354 37.758419 31.99866 37.758419s31.99866-16.95929 31.99866-37.758419v-116.475123c0-20.799129-14.3354-37.758419-31.99866-37.758419z" fill="#FF6262" p-id="16781"></path></svg>