<?xml version="1.0" standalone="no"?><!DOCTYPE svg PUBLIC "-//W3C//DTD SVG 1.1//EN" "http://www.w3.org/Graphics/SVG/1.1/DTD/svg11.dtd"><svg t="1658461609821" class="icon" viewBox="0 0 1024 1024" version="1.1" xmlns="http://www.w3.org/2000/svg" p-id="16024" xmlns:xlink="http://www.w3.org/1999/xlink" width="200" height="200"><defs><style type="text/css">@font-face { font-family: feedback-iconfont; src: url("//at.alicdn.com/t/font_1031158_u69w8yhxdu.woff2?t=1630033759944") format("woff2"), url("//at.alicdn.com/t/font_1031158_u69w8yhxdu.woff?t=1630033759944") format("woff"), url("//at.alicdn.com/t/font_1031158_u69w8yhxdu.ttf?t=1630033759944") format("truetype"); }
</style></defs><path d="M993.882353 903.529412a120.470588 120.470588 0 0 1-120.470588 120.470588H150.588235a120.470588 120.470588 0 0 1-120.470588-120.470588V237.206588A180.705882 180.705882 0 0 1 200.222118 56.801882L210.823529 56.500706h284.370824a60.235294 60.235294 0 0 1 7.047529 120.109176l-7.047529 0.361412H210.823529a60.235294 60.235294 0 0 0-59.813647 53.248L150.588235 237.206588V542.117647L331.294118 542.117647a120.470588 120.470588 0 0 0 111.435294 120.169412L451.764706 662.588235h120.470588a120.470588 120.470588 0 0 0 120.169412-111.435294L692.705882 542.117647h180.705883V462.185412a60.235294 60.235294 0 0 1 120.048941-7.04753l0.421647 7.04753V903.529412z" fill="#5176EA" p-id="16025"></path><path d="M867.448471 109.507765a45.176471 45.176471 0 0 0-58.849883-3.252706l-4.999529 4.457412L519.830588 405.504 329.487059 296.779294a45.176471 45.176471 0 0 0-58.24753 11.685647l-3.373176 5.12a45.176471 45.176471 0 0 0 11.685647 58.24753l5.12 3.433411 220.882824 126.192942a45.176471 45.176471 0 0 0 49.874823-3.373177l5.059765-4.517647 308.224-320.210824a45.176471 45.176471 0 0 0-1.204706-63.849411z" fill="#FF6262" p-id="16026"></path><path d="M849.257412 64.391529a45.176471 45.176471 0 0 1 55.175529 40.96v5.903059l-10.36047 163.71953a45.176471 45.176471 0 0 1-90.172236 0.421647V269.251765l6.505412-103.30353-107.580235 24.696471a45.176471 45.176471 0 0 1-52.404706-28.009412l-1.746824-5.903059a45.176471 45.176471 0 0 1 28.069647-52.404706l5.842824-1.746823L849.317647 64.451765z" fill="#FF6262" p-id="16027"></path></svg>