<?xml version="1.0" standalone="no"?><!DOCTYPE svg PUBLIC "-//W3C//DTD SVG 1.1//EN" "http://www.w3.org/Graphics/SVG/1.1/DTD/svg11.dtd"><svg t="1658460033269" class="icon" viewBox="0 0 1024 1024" version="1.1" xmlns="http://www.w3.org/2000/svg" p-id="15568" xmlns:xlink="http://www.w3.org/1999/xlink" width="200" height="200"><defs><style type="text/css">@font-face { font-family: feedback-iconfont; src: url("//at.alicdn.com/t/font_1031158_u69w8yhxdu.woff2?t=1630033759944") format("woff2"), url("//at.alicdn.com/t/font_1031158_u69w8yhxdu.woff?t=1630033759944") format("woff"), url("//at.alicdn.com/t/font_1031158_u69w8yhxdu.ttf?t=1630033759944") format("truetype"); }
</style></defs><path d="M602.496 61.44v552.192H48V61.504h554.496z" fill="#5176EA" p-id="15569"></path><path d="M330.048 446.4c-32 0-58.048 25.984-58.048 58.048a58.048 58.048 0 1 0 116.096 0.64v0.064a58.24 58.24 0 0 0-58.048-58.752z m0-331.2c-32 0-58.048 25.984-58.048 58.048v178.56a58.048 58.048 0 0 0 116.096 0v-178.56c0-32-25.984-58.048-58.048-58.048z" fill="#FFFFFF" p-id="15570"></path><path d="M709.12 424.896h131.904v425.984h-437.76v-123.52H299.328v233.6h645.888V315.072h-236.16z" fill="#5176EA" p-id="15571"></path><path d="M1023.744 192.832C1016.704 96.448 954.624 20.48 892.288 20.48c-41.472 0-76.16 27.52-96.768 48.32L726.4 0v234.432h249.088l-89.984-89.664c7.04 0 20.864-13.76 34.688-13.76 48.256-20.8 103.552 61.824 103.552 61.824z" fill="#ED1C24" p-id="15572"></path></svg>