<?xml version="1.0" standalone="no"?><!DOCTYPE svg PUBLIC "-//W3C//DTD SVG 1.1//EN" "http://www.w3.org/Graphics/SVG/1.1/DTD/svg11.dtd"><svg t="1659695460695" class="icon" viewBox="0 0 1088 1024" version="1.1" xmlns="http://www.w3.org/2000/svg" p-id="6708" xmlns:xlink="http://www.w3.org/1999/xlink" width="212.5" height="200"><defs><style type="text/css">@font-face { font-family: feedback-iconfont; src: url("//at.alicdn.com/t/font_1031158_u69w8yhxdu.woff2?t=1630033759944") format("woff2"), url("//at.alicdn.com/t/font_1031158_u69w8yhxdu.woff?t=1630033759944") format("woff"), url("//at.alicdn.com/t/font_1031158_u69w8yhxdu.ttf?t=1630033759944") format("truetype"); }
</style></defs><path d="M819.328 473.472a247.04 247.04 0 0 1 246.912 246.464c0 22.4-3.328 44.032-8.96 64.704a247.04 247.04 0 0 1-237.952 181.76 247.04 247.04 0 0 1-246.912-246.4c0-120.96 87.68-221.632 202.944-242.368 14.528-2.688 29.184-4.096 43.968-4.16z m2.432 321.408a42.56 42.56 0 0 0-42.56 42.56 42.56 42.56 0 0 0 85.12 0.512 42.688 42.688 0 0 0-42.56-43.072z m0-242.944a42.56 42.56 0 0 0-42.56 42.56v131.008a42.56 42.56 0 0 0 85.12 0V594.496a42.56 42.56 0 0 0-42.56-42.56z" fill="#fff" p-id="6709"></path><path d="M780.928 59.264a45.76 45.76 0 0 0-46.336-45.248c-25.6 0-46.336 20.288-46.336 45.248v26.368H299.904V59.264A45.76 45.76 0 0 0 253.568 14.08c-25.6 0-46.336 20.224-46.336 45.184v26.368H88.576c-25.6 0-46.336 20.224-46.336 45.184v679.552c0 24.96 20.736 45.184 46.336 45.184h437.696a316.16 316.16 0 0 1-39.424-152.96c0-179.072 149.312-324.736 332.8-324.736a336.64 336.64 0 0 1 148.608 34.624c0.128-1.344 0.448-2.688 0.448-4.096V130.816a45.76 45.76 0 0 0-46.336-45.184l-124.416-0.64-17.024 0.64V59.264z" fill="#fff" p-id="6710"></path></svg>