<?xml version="1.0" encoding="UTF-8"?>
<svg width="16px" height="16px" viewBox="0 0 16 16" version="1.1" xmlns="http://www.w3.org/2000/svg" xmlns:xlink="http://www.w3.org/1999/xlink">
    <title>财政代编预算编审-灰</title>
    <g id="0824设计侧修改" stroke="none" stroke-width="1" fill="none" fill-rule="evenodd">
        <g id="左侧图标修改" transform="translate(-16.000000, -704.000000)">
            <g id="编组-4" transform="translate(0.000000, 108.000000)">
                <g id="15" transform="translate(0.000000, 584.000000)">
                    <g id="财政代编预算编审-灰" transform="translate(16.000000, 12.000000)">
                        <rect id="矩形" x="0" y="0" width="16" height="16"></rect>
                        <g id="编组-3" transform="translate(2.000000, 1.000000)" fill="#555555" fill-rule="nonzero" stroke="#555555">
                            <path d="M10.7998997,0 C11.4179915,0 11.9349518,0.456513996 11.9942886,1.05466666 L12,1.16666666 L12,4.27777778 C12.0002699,4.47921373 11.8423767,4.64759117 11.6360345,4.66579188 C11.4296923,4.6839926 11.2432086,4.54599143 11.2062959,4.34777778 L11.199896,4.27777778 L11.199896,1.16666666 C11.1999604,0.978839312 11.0619356,0.817808915 10.871899,0.784 L10.7998997,0.777777779 L1.19998885,0.777777779 C1.0067968,0.777715161 0.84116707,0.911907157 0.806392509,1.09666666 L0.79999257,1.16666666 L0.79999257,12.8333333 C0.799928163,13.0211607 0.937952934,13.1821911 1.12798952,13.216 L1.19998885,13.2222222 L2.92240525,13.2222222 C3.12959462,13.2218514 3.30278128,13.3753601 3.32150184,13.5759725 C3.34022241,13.7765849 3.19827962,13.9578901 2.99440458,13.9937778 L2.92240525,14 L1.19998885,14 C0.581897062,14 0.0649367559,13.543486 0.00559994485,12.9453333 L-1.67865721e-13,12.8333333 L-1.67865721e-13,1.16666666 C-1.67865721e-13,0.56573851 0.469552891,0.0631335436 1.08478992,0.00544444141 L1.19998885,0 L10.7998997,0 Z M5.24302822,5.05555555 C5.46394007,5.05555555 5.6430245,5.22966704 5.6430245,5.44444444 C5.6430245,5.65922184 5.46394007,5.83333333 5.24302822,5.83333333 L1.99998142,5.83333333 C1.77906957,5.83333333 1.59998513,5.65922184 1.59998513,5.44444444 C1.59998513,5.22966704 1.77906957,5.05555555 1.99998142,5.05555555 L5.24302822,5.05555555 Z M7.1999331,3.11111111 C7.1999331,3.3258885 7.02084868,3.49999998 6.79993684,3.49999999 L1.99998142,3.49999999 C1.77906957,3.49999999 1.59998514,3.32588851 1.59998514,3.11111111 C1.59998514,2.89633371 1.77906957,2.72222223 1.99998142,2.72222223 L6.79993684,2.72222223 C7.02084868,2.72222224 7.1999331,2.89633372 7.1999331,3.11111111 Z" id="形状结合" stroke-width="0.2"></path>
                            <path d="M11.6620455,11.2613336 L10.778023,11.2613336 C10.2809776,11.2541914 9.83428792,10.9645793 9.63623892,10.5210559 C9.43818992,10.0775324 9.52548402,9.56229134 9.85937148,9.20404746 C10.5224929,8.42180031 10.4456839,7.27406442 9.68484873,6.58275863 C8.9240135,5.89145284 7.74164549,5.89508245 6.98531073,6.59104562 C6.22897597,7.28700879 6.15961522,8.43519339 6.82694888,9.21253732 C6.83652111,9.22020559 6.83680264,9.22294425 6.83877339,9.22513519 C7.16051815,9.5870007 7.23758516,10.09743 7.03639316,10.5340079 C6.83520116,10.9705859 6.39219643,11.2542256 5.90041442,11.2613336 L5.01779954,11.2613336 C4.83134254,11.2616352 4.68026651,11.4085958 4.67995653,11.5899736 L4.67995653,13.67136 C4.68011176,13.8528003 4.83127833,13.999849 5.01779954,14 L11.6620455,14 C11.8485667,13.999849 11.9997333,13.8528003 11.9998885,13.67136 L11.9998885,11.5899736 C11.9995785,11.4085958 11.8485025,11.2616352 11.6620455,11.2613336 Z M7.37238118,6.98896929 C7.91256874,6.49182284 8.75709471,6.48915417 9.30059119,6.98287623 C9.84408768,7.47659829 9.89905324,8.29638137 9.42608781,8.85459363 C9.42383552,8.85733229 9.42327246,8.86089256 9.42102017,8.86363123 C8.79621911,9.55593886 8.8216859,10.5986699 9.47957963,11.2613336 L7.19970235,11.2613336 C7.85476797,10.5996253 7.8830912,9.56121143 7.26501866,8.86664376 C6.78270434,8.30622889 6.83219361,7.48611574 7.37238118,6.98896929 Z M11.4368168,13.4522667 L5.24302822,13.4522667 L5.24302822,11.8090669 L5.87000855,11.8090669 C5.87366852,11.8090669 5.87676541,11.810984 5.88042537,11.810984 C5.89393909,11.810984 5.90745282,11.8093408 5.92096653,11.8090669 L10.7583154,11.8090669 C10.7721107,11.8090669 10.7853429,11.810984 10.7991381,11.810984 C10.8027981,11.810984 10.8056135,11.8090669 10.8092734,11.8090669 L11.4368168,11.8090669 L11.4368168,13.4522667 Z" id="形状" stroke-width="0.3"></path>
                        </g>
                    </g>
                </g>
            </g>
        </g>
    </g>
</svg>