<?xml version="1.0" encoding="UTF-8"?>
<svg width="16px" height="16px" viewBox="0 0 16 16" version="1.1" xmlns="http://www.w3.org/2000/svg" xmlns:xlink="http://www.w3.org/1999/xlink">
    <title>财政区划-灰</title>
    <g id="0824设计侧修改" stroke="none" stroke-width="1" fill="none" fill-rule="evenodd">
        <g id="左侧图标修改" transform="translate(-16.000000, -264.000000)">
            <g id="编组-4" transform="translate(0.000000, 108.000000)">
                <g id="4" transform="translate(0.000000, 144.000000)">
                    <g id="财政区划-灰" transform="translate(16.000000, 12.000000)">
                        <rect id="矩形" x="0" y="0" width="16" height="16"></rect>
                        <g id="编组-18" transform="translate(2.000000, 1.000000)" fill="#555555" fill-rule="nonzero">
                            <path d="M6.00022267,14 C5.84680472,14 5.69984413,13.9400292 5.59140503,13.8334389 L1.75751503,10.064911 C0.624137163,8.95107442 0,7.4701905 0,5.89475412 C0,4.31931775 0.624137163,2.83843382 1.75751503,1.72459724 C4.09708305,-0.574865746 7.90336228,-0.574865746 10.242485,1.72459724 C11.3758628,2.83843382 12,4.31931775 12,5.89475412 C12,7.4701905 11.3760855,8.95107442 10.2427076,10.064911 L6.4090403,13.8334389 C6.3006376,13.940062 6.15357657,14 6.00022267,14 Z M6,1.1362709 C4.75974171,1.1362709 3.51948341,1.60027828 2.5751503,2.52851191 C1.66043198,3.42763564 1.15653529,4.62333013 1.15653529,5.89497299 C1.15653529,7.16661586 1.66043198,8.36209147 2.5751503,9.26143408 L6,12.628114 L9.4248497,9.26143408 C10.339568,8.36231034 10.8436874,7.16661586 10.8436874,5.89497299 C10.8436874,4.62333013 10.3397907,3.42785451 9.4248497,2.52851191 C8.48073926,1.60027828 7.24048096,1.1362709 6,1.1362709 Z M2.19864293,2.16947955 L2.2258147,2.16947955 L2.19864293,2.16947955 Z" id="形状"></path>
                            <path d="M6.42610247,3.60221529 L7.05256002,4.6794706 L8.1050087,4.88442404 C8.28587138,4.92211194 8.43073014,5.05696825 8.48088323,5.23434456 C8.53037305,5.41213431 8.482825,5.60278943 8.35559173,5.73673045 L7.55372606,6.50155672 L7.72913417,7.77376776 C7.75673599,7.95953074 7.67768424,8.14506097 7.52444469,8.25416303 C7.37120514,8.36326509 7.16960653,8.37754967 7.00244341,8.29115023 L6.00011133,7.78126605 L4.99777925,8.29115023 C4.83061613,8.37754967 4.62901753,8.36326509 4.47577798,8.25416303 C4.32253843,8.14506097 4.24348668,7.95953074 4.27108849,7.77376776 L4.4464966,6.50155672 L3.64463094,5.73673045 C3.51739767,5.60278943 3.46984962,5.41213431 3.51933943,5.23434456 C3.56949253,5.05696825 3.71435128,4.92211195 3.89521396,4.88442404 L4.94766265,4.6794706 L5.5741202,3.60221529 C5.65667437,3.44413706 5.82117302,3.34563193 5.99986075,3.34722865 C6.17888886,3.3455375 6.34350728,3.44405637 6.42610247,3.60221529 Z M5.27342057,5.12436954 L3.99544717,5.37431277 L4.97272095,6.31909817 L4.77225453,7.84625129 L6.00011133,7.22139322 L7.22796814,7.84625129 L7.02750172,6.31909817 L8.0047755,5.37431277 L6.72680209,5.12436954 L6.00011133,3.84715965 L5.27342057,5.12436954 Z" id="形状" stroke="#555555" stroke-width="0.3"></path>
                        </g>
                    </g>
                </g>
            </g>
        </g>
    </g>
</svg>