<?xml version="1.0" encoding="UTF-8"?>
<svg width="16px" height="16px" viewBox="0 0 16 16" version="1.1" xmlns="http://www.w3.org/2000/svg" xmlns:xlink="http://www.w3.org/1999/xlink">
    <title>单位账户管理-灰</title>
    <g id="0824设计侧修改" stroke="none" stroke-width="1" fill="none" fill-rule="evenodd">
        <g id="左侧图标修改" transform="translate(-16.000000, -1184.000000)">
            <g id="编组-4" transform="translate(0.000000, 108.000000)">
                <g id="18备份-10" transform="translate(0.000000, 1064.000000)">
                    <g id="单位账户管理-灰" transform="translate(16.000000, 12.000000)">
                        <rect id="矩形" x="0" y="0" width="16" height="16"></rect>
                        <path d="M14.1701399,3.01531559 C14.6277582,3.01531559 15,3.38288985 15,3.83214728 L15,3.83214728 L15,13.1831683 C15,13.6341275 14.6277582,14 14.1701399,14 L14.1701399,14 L11.9367359,14 C11.5969373,14 11.3220248,13.726021 11.3220248,13.3873762 C11.3220248,13.0487314 11.5969373,12.7747525 11.9367359,12.7747525 L11.9367359,12.7747525 L13.7705777,12.7747525 L13.7705777,4.24056312 L9.70670048,4.24056312 C9.36690181,4.24056312 9.09198932,3.96658416 9.09198932,3.62793936 C9.09198932,3.28929455 9.36690181,3.01531559 9.70670048,3.01531559 L9.70670048,3.01531559 Z M5.74864366,3 C7.59960724,3 9.10394204,4.50092822 9.10394204,6.3439047 C9.10394204,7.40068069 8.60875806,8.34514233 7.83866158,8.95776609 C8.30481754,9.19430693 8.73511535,9.50912748 9.11418723,9.89882426 C10.0055184,10.8177599 10.4972873,12.0413057 10.4972873,13.3397277 C10.4972873,13.6783725 10.2223748,13.9523515 9.88257617,13.9523515 C9.5427775,13.9523515 9.26786501,13.6783725 9.26786501,13.3397277 C9.26786501,11.326578 7.68839886,9.68780941 5.74864366,9.68780941 C3.80888847,9.68780941 2.22942231,11.3248762 2.22942231,13.3397277 C2.22942231,13.6783725 1.95450982,13.9523515 1.61471115,13.9523515 C1.27491249,13.9523515 1,13.6783725 1,13.3397277 C1,12.0413057 1.49176892,10.8194616 2.3831001,9.89882426 C2.76046444,9.50912748 3.19246978,9.1926052 3.65862574,8.95776609 C2.88852927,8.34514233 2.39334528,7.40068069 2.39334528,6.3439047 C2.39334528,4.49922649 3.89768008,3 5.74864366,3 Z M12.4609014,10.0264542 C12.8007001,10.0264542 13.0756126,10.3004332 13.0756126,10.639078 C13.0756126,10.9777228 12.8007001,11.2517017 12.4609014,11.2517017 L12.4609014,11.2517017 L11.4364294,11.2517017 C11.0966307,11.2517017 10.8217182,10.9777228 10.8217182,10.639078 C10.8217182,10.3004332 11.0966307,10.0264542 11.4364294,10.0264542 L11.4364294,10.0264542 Z M12.4609014,7.63892327 C12.8007001,7.63892327 13.0756126,7.91290223 13.0756126,8.25154703 C13.0756126,8.5884901 12.8007001,8.86417079 12.4609014,8.86417079 L12.4609014,8.86417079 L10.5519283,8.86417079 C10.2121296,8.86417079 9.93721716,8.59019183 9.93721716,8.25154703 C9.93721716,7.91290223 10.2121296,7.63892327 10.5519283,7.63892327 L10.5519283,7.63892327 Z M5.74864366,4.22524752 C4.57556988,4.22524752 3.62276759,5.17651609 3.62276759,6.3439047 C3.62276759,7.51299505 4.57386235,8.46256188 5.74693613,8.46256188 C6.92000991,8.46256188 7.8728122,7.51129332 7.8728122,6.3439047 C7.8728122,5.17651609 6.92171745,4.22524752 5.74864366,4.22524752 Z M12.4609014,5.25479579 C12.8007001,5.25479579 13.0756126,5.52877475 13.0756126,5.86741955 C13.0756126,6.20606436 12.8007001,6.48004332 12.4609014,6.48004332 L12.4609014,6.48004332 L10.5519283,6.48004332 C10.2121296,6.48004332 9.93721716,6.20606436 9.93721716,5.86741955 C9.93721716,5.52877475 10.2121296,5.25479579 10.5519283,5.25479579 L10.5519283,5.25479579 Z" id="形状结合" stroke="#555555" stroke-width="0.2" fill="#555555" fill-rule="nonzero"></path>
                    </g>
                </g>
            </g>
        </g>
    </g>
</svg>