<?xml version="1.0" encoding="UTF-8"?>
<svg width="16px" height="16px" viewBox="0 0 16 16" version="1.1" xmlns="http://www.w3.org/2000/svg" xmlns:xlink="http://www.w3.org/1999/xlink">
    <title>工作流配置-灰</title>
    <g id="0824设计侧修改" stroke="none" stroke-width="1" fill="none" fill-rule="evenodd">
        <g id="左侧图标修改" transform="translate(-16.000000, -944.000000)">
            <g id="编组-4" transform="translate(0.000000, 108.000000)">
                <g id="18备份-3" transform="translate(0.000000, 824.000000)">
                    <g id="工作流配置-灰" transform="translate(16.000000, 12.000000)">
                        <rect id="矩形" x="0" y="0" width="16" height="16"></rect>
                        <path d="M11.36875,1.0109375 L4.56875,1.0109375 C4.2578125,1.0109375 4.00625,1.2625 4.00625,1.5734375 L4.00625,4.075 C4.00625,4.3859375 4.2578125,4.6375 4.56875,4.6375 L11.36875,4.6375 C11.6796875,4.6375 11.93125,4.3859375 11.93125,4.075 L11.93125,1.5734375 C11.93125,1.2625 11.6796875,1.0109375 11.36875,1.0109375 L11.36875,1.0109375 Z M10.80625,3.5125 L5.13125,3.5125 L5.13125,2.1359375 L10.80625,2.1359375 L10.80625,3.5125 L10.80625,3.5125 Z M10.11875,6.184375 L5.81875,6.184375 C4.81875,6.184375 4.00625,6.9984375 4.00625,7.996875 C4.00625,8.996875 4.8203125,9.809375 5.81875,9.809375 L10.11875,9.809375 C11.11875,9.809375 11.93125,8.9953125 11.93125,7.996875 C11.93125,6.996875 11.11875,6.184375 10.11875,6.184375 L10.11875,6.184375 Z M10.11875,8.684375 L5.81875,8.684375 C5.4390625,8.684375 5.13125,8.375 5.13125,7.996875 C5.13125,7.6171875 5.440625,7.309375 5.81875,7.309375 L10.11875,7.309375 C10.4984375,7.309375 10.80625,7.61875 10.80625,7.996875 C10.80625,8.3765625 10.4984375,8.684375 10.11875,8.684375 L10.11875,8.684375 Z M11.34375,11.3703125 L4.5421875,11.3703125 C4.23125,11.3703125 3.9796875,11.621875 3.9796875,11.9328125 L3.9796875,14.434375 C3.9796875,14.7453125 4.23125,14.996875 4.5421875,14.996875 L11.34375,14.996875 C11.6546875,14.996875 11.90625,14.7453125 11.90625,14.434375 L11.90625,11.9328125 C11.90625,11.621875 11.653125,11.3703125 11.34375,11.3703125 Z M10.78125,13.871875 L5.1046875,13.871875 L5.1046875,12.4953125 L10.78125,12.4953125 L10.78125,13.871875 Z M2.81875,2.6171875 C2.28125,2.8890625 1.8265625,3.3046875 1.50625,3.815625 C1.175,4.3421875 1,4.9515625 1,5.575 C1,6.31875 1.240625,7.0203125 1.6953125,7.60625 C1.696875,7.6078125 1.6984375,7.6109375 1.7,7.6125 L1.046875,8.0296875 C0.9765625,8.075 0.9953125,8.1828125 1.0765625,8.2 L2.8875,8.5984375 C2.9375,8.609375 2.9875,8.578125 2.9984375,8.528125 L3.4046875,6.721875 C3.4234375,6.640625 3.3328125,6.578125 3.2625,6.621875 L2.64375,7.0140625 C2.6265625,6.9796875 2.60625,6.946875 2.5828125,6.9171875 C2.2828125,6.53125 2.1234375,6.0671875 2.1234375,5.575 C2.1234375,4.7453125 2.584375,3.996875 3.325,3.6203125 C3.6015625,3.4796875 3.7125,3.1421875 3.571875,2.8640625 C3.43125,2.5859375 3.0953125,2.4765625 2.81875,2.6171875 L2.81875,2.6171875 Z M14.7734375,13.0859375 L14.20625,12.61875 C14.221875,12.603125 14.2390625,12.5859375 14.253125,12.5671875 C14.7046875,12.0078125 14.953125,11.3046875 14.953125,10.584375 C14.953125,10.0203125 14.8015625,9.465625 14.5171875,8.98125 C14.240625,8.5125 13.8453125,8.1203125 13.3734375,7.846875 C13.29375,7.8015625 13.2125,7.7578125 13.1296875,7.71875 C12.8484375,7.5875 12.5140625,7.709375 12.38125,7.990625 C12.25,8.271875 12.371875,8.60625 12.653125,8.7390625 C12.70625,8.7640625 12.759375,8.7921875 12.8109375,8.8203125 C13.4375,9.1875 13.828125,9.8625 13.828125,10.5859375 C13.828125,11.05625 13.671875,11.496875 13.378125,11.8625 C13.365625,11.878125 13.3546875,11.89375 13.34375,11.909375 L12.7453125,11.4171875 C12.68125,11.3640625 12.584375,11.415625 12.5921875,11.4984375 L12.7765625,13.34375 C12.78125,13.3953125 12.828125,13.4328125 12.878125,13.428125 L14.7203125,13.2515625 C14.80625,13.24375 14.8375,13.1390625 14.7734375,13.0859375 Z" id="形状" fill="#555555" fill-rule="nonzero"></path>
                    </g>
                </g>
            </g>
        </g>
    </g>
</svg>