<?xml version="1.0" encoding="UTF-8"?>
<svg width="16px" height="16px" viewBox="0 0 16 16" version="1.1" xmlns="http://www.w3.org/2000/svg" xmlns:xlink="http://www.w3.org/1999/xlink">
    <title>监控管理-灰</title>
    <g id="0824设计侧修改" stroke="none" stroke-width="1" fill="none" fill-rule="evenodd">
        <g id="左侧图标修改" transform="translate(-16.000000, -1064.000000)">
            <g id="编组-4" transform="translate(0.000000, 108.000000)">
                <g id="18备份-7" transform="translate(0.000000, 944.000000)">
                    <g id="监控管理-灰" transform="translate(16.000000, 12.000000)">
                        <rect id="矩形" x="0" y="0" width="16" height="16"></rect>
                        <path d="M14,1.56692505 C14.552275,1.56692505 15,2.01465005 15,2.56692505 L15,10.816925 C15,11.3692 14.552275,11.816925 14,11.816925 L8.375,11.816925 L8.375,13.816925 L14.625,13.816925 C14.8321,13.816925 15,13.984825 15,14.191925 C15,14.399025 14.8321,14.566925 14.625,14.566925 L1.375,14.566925 C1.1679,14.566925 1,14.399025 1,14.191925 C1,13.984825 1.1679,13.816925 1.375,13.816925 L7.625,13.8169 L7.625,11.816925 L2,11.816925 C1.447725,11.816925 1,11.3692 1,10.816925 L1,2.56692505 C1,2.01465005 1.447725,1.56692505 2,1.56692505 L14,1.56692505 Z M3.88205,5.76632505 L3.3354,6.85962505 C3.2732766,6.98387719 3.14755464,7.06360659 3.008675,7.06682505 L3,7.06692505 L1.75,7.06690005 L1.75,10.816925 C1.75,10.955 1.861925,11.066925 2,11.066925 L14,11.066925 C14.138075,11.066925 14.25,10.955 14.25,10.816925 L14.25,7.06690005 L7,7.06692505 C6.90398175,7.06692664 6.81162084,7.03009681 6.74195,6.96402505 L6.734825,6.95710005 L6.163875,6.38612505 L5.35575,8.81050005 C5.2383,9.16287505 4.73735,9.14720005 4.63905,8.79370005 L4.6362,8.78287505 L3.88205,5.76632505 Z M14,2.31692505 L2,2.31692505 C1.861925,2.31692505 1.75,2.42885005 1.75,2.56692505 L1.75,6.31690005 L2.76825,6.31692505 L3.6646,4.52422505 C3.818725,4.21592505 4.270225,4.26222505 4.36115,4.59092505 L4.3638,4.60097505 L5.051475,7.35165005 L5.644225,5.57335005 C5.731525,5.31152505 6.06135,5.23125005 6.259225,5.42092505 L6.265175,5.42675005 L7.155325,6.31692505 L14.25,6.31690005 L14.25,2.56692505 C14.25,2.42885005 14.138075,2.31692505 14,2.31692505 Z" id="形状" stroke="#555555" stroke-width="0.4" fill="#555555" fill-rule="nonzero"></path>
                    </g>
                </g>
            </g>
        </g>
    </g>
</svg>