<?xml version="1.0" encoding="UTF-8"?>
<svg width="16px" height="16px" viewBox="0 0 16 16" version="1.1" xmlns="http://www.w3.org/2000/svg" xmlns:xlink="http://www.w3.org/1999/xlink">
    <title>绩效管理-灰</title>
    <g id="0824设计侧修改" stroke="none" stroke-width="1" fill="none" fill-rule="evenodd">
        <g id="左侧图标修改" transform="translate(-16.000000, -1224.000000)">
            <g id="编组-4" transform="translate(0.000000, 108.000000)">
                <g id="18备份-11" transform="translate(0.000000, 1104.000000)">
                    <g id="绩效管理-灰" transform="translate(16.000000, 12.000000)">
                        <rect id="矩形" x="0" y="0" width="16" height="16"></rect>
                        <path d="M12.1832811,1 C13.653842,1 14.8459671,2.20538721 14.8459671,3.69230769 L14.8459671,5.96892309 C14.8459671,6.26630718 14.6075421,6.50738463 14.3134299,6.50738463 C14.0193177,6.50738463 13.7808927,6.26630718 13.7808927,5.96892309 L13.7808927,3.69230769 C13.7808927,2.8001554 13.0656177,2.07692308 12.1832811,2.07692308 L3.66268598,2.07692308 C2.78034947,2.07692308 2.0650744,2.8001554 2.0650744,3.69230769 L2.0650744,12.3076923 C2.0650744,13.1998446 2.78034947,13.9230769 3.66268598,13.9230769 L5.88762639,13.9230769 C6.18173856,13.9230769 6.42016359,14.1641544 6.42016359,14.4615385 C6.42016359,14.7589226 6.18173856,15 5.88762639,15 L3.66268598,15 C2.19212512,15 1,13.7946128 1,12.3076923 L1,3.69230769 C1,2.20538721 2.19212512,1 3.66268598,1 L12.1832811,1 Z M14.5754382,8.79692308 L14.5818287,8.81307692 C14.6009084,8.85528286 14.6145121,8.89980565 14.6223015,8.94553845 L14.9918823,11.0670769 C15.0427637,11.3600003 14.8491626,11.6391679 14.5594621,11.6906154 C14.2697616,11.7420628 13.9936654,11.5463079 13.942784,11.2533846 L13.841,10.674 L12.0394961,13.5073846 L9.69100706,11.3729231 L8.35966405,13.3006154 C8.2525817,13.4627843 8.0671577,13.5537462 7.87490768,13.5384183 C7.68265765,13.5230903 7.51362476,13.4038678 7.4330028,13.2267334 C7.35238084,13.049599 7.37276871,12.8422336 7.48630307,12.6846154 L7.48630307,12.6846154 L9.50674919,9.75861539 L11.8211558,11.8618462 L13.05,9.93 L12.2557062,10.2227692 C12.0768644,10.2885611 11.8768944,10.2528828 11.731123,10.1291742 C11.5853516,10.0054656 11.5159249,9.81252083 11.5489953,9.62302037 C11.5820657,9.43351991 11.712609,9.27625337 11.8914507,9.21046154 L11.8914507,9.21153846 L13.8937906,8.47492308 C14.1699478,8.37383592 14.4749117,8.51789626 14.5754382,8.79692308 Z M6.3488036,7.97307693 C6.64291578,7.97307693 6.8813408,8.21415437 6.8813408,8.51153847 C6.8813408,8.80892256 6.64291578,9.05000001 6.3488036,9.05000001 L4.72243501,9.05000001 C4.42832284,9.05000001 4.18989781,8.80892256 4.18989781,8.51153847 C4.18989781,8.21415437 4.42832284,7.97307693 4.72243501,7.97307693 L6.3488036,7.97307693 Z M10.047807,4.46876923 C10.3419191,4.46876923 10.5803442,4.70984667 10.5803442,5.00723077 C10.5803442,5.30461486 10.3419191,5.5456923 10.047807,5.5456923 L4.72243501,5.5456923 C4.42832284,5.5456923 4.18989781,5.30461486 4.18989781,5.00723077 C4.18989781,4.70984667 4.42832284,4.46876923 4.72243501,4.46876923 L10.047807,4.46876923 Z" id="形状结合" fill="#555555" fill-rule="nonzero"></path>
                    </g>
                </g>
            </g>
        </g>
    </g>
</svg>