<?xml version="1.0" encoding="UTF-8"?>
<svg width="16px" height="16px" viewBox="0 0 16 16" version="1.1" xmlns="http://www.w3.org/2000/svg" xmlns:xlink="http://www.w3.org/1999/xlink">
    <title>会计核算-灰</title>
    <g id="0824设计侧修改" stroke="none" stroke-width="1" fill="none" fill-rule="evenodd">
        <g id="左侧图标修改" transform="translate(-16.000000, -464.000000)">
            <g id="编组-4" transform="translate(0.000000, 108.000000)">
                <g id="9" transform="translate(0.000000, 344.000000)">
                    <g id="会计核算-灰" transform="translate(16.000000, 12.000000)">
                        <rect id="矩形" x="0" y="0" width="16" height="16"></rect>
                        <g id="编组-6" transform="translate(1.000000, 1.000000)" fill-rule="nonzero">
                            <path d="M3.10690185,8.70394273 L3.84864924,9.44918534 L4.59214717,8.70394273 C4.79715218,8.49802742 5.12953096,8.49802743 5.33453596,8.70394275 C5.53954097,8.90985807 5.53954097,9.24371277 5.33453598,9.4496281 L4.59164924,10.1951853 L5.33453598,10.9405291 C5.48463344,11.0913608 5.52952323,11.3181447 5.44828194,11.5151755 C5.36704064,11.7122062 5.17565917,11.8407017 4.96334157,11.8407695 L4.96334157,11.8412397 C4.82406127,11.841402 4.69046509,11.7857763 4.59214717,11.6866842 L3.84864924,10.9401853 L3.10736955,11.6866842 C3.00903206,11.7857469 2.87544859,11.8413674 2.73617514,11.8412399 C2.52356676,11.8415522 2.33175474,11.7130523 2.25035088,11.5157728 C2.16894702,11.3184934 2.21402026,11.091377 2.36451304,10.9405291 L3.10664924,10.1951853 L2.36451304,9.4496281 C2.23189805,9.31642424 2.180106,9.12227538 2.22864646,8.94031552 C2.27718691,8.75835566 2.41868542,8.61622884 2.59984086,8.56747284 C2.78099631,8.51871684 2.97428686,8.57073887 3.10690185,8.70394273 Z M11.9000468,10.6348638 C12.1864633,10.6398216 12.4160659,10.8744523 12.4160659,11.1621833 C12.4160659,11.4499144 12.1864633,11.6845451 11.9000468,11.6895028 L8.74996103,11.6895028 C8.56024449,11.6927867 8.3835232,11.5930046 8.28770858,11.4285013 C8.19189396,11.2639979 8.19189396,11.0603687 8.28770858,10.8958654 C8.3835232,10.731362 8.56024449,10.6315799 8.74996103,10.6348638 L11.9000468,10.6348638 Z M11.9000468,8.87697556 C12.1864633,8.88193331 12.4160659,9.116564 12.4160659,9.40429506 C12.4160659,9.69202612 12.1864633,9.92665681 11.9000468,9.93161456 L8.74996103,9.93161456 C8.56024449,9.93489848 8.3835232,9.83511635 8.28770858,9.67061301 C8.19189396,9.50610967 8.19189396,9.30248045 8.28770858,9.13797711 C8.3835232,8.97347377 8.56024449,8.87369165 8.74996103,8.87697556 L11.9000468,8.87697556 Z M3.84975836,1.40618534 C4.13974444,1.40618534 4.37482461,1.64230937 4.37482461,1.93358313 L4.37464924,2.98818534 L5.42480123,2.98822214 C5.61238934,2.98822214 5.7857279,3.08874358 5.87952196,3.25192103 C5.97331602,3.41509848 5.97331602,3.61614139 5.87952196,3.77931883 C5.7857279,3.94249628 5.61238934,4.04301773 5.42480123,4.04301773 L4.37464924,4.04218534 L4.37482461,5.09765673 C4.37473856,5.38889468 4.13970879,5.62496809 3.84975836,5.62505453 C3.55980792,5.62496809 3.32477815,5.38889468 3.3246921,5.09765673 L3.32464924,4.04218534 L2.27471549,4.04301773 C1.9847294,4.04301773 1.74964924,3.80689369 1.74964924,3.51561993 C1.74964924,3.22434618 1.9847294,2.98822214 2.27471549,2.98822214 L3.32464924,2.98818534 L3.3246921,1.93358313 C3.3246921,1.64230937 3.55977227,1.40618534 3.84975836,1.40618534 Z M11.7249727,2.98822214 C11.9125608,2.98822214 12.0858994,3.08874358 12.1796934,3.25192103 C12.2734875,3.41509848 12.2734875,3.61614139 12.1796934,3.77931883 C12.0858994,3.94249628 11.9125608,4.04301773 11.7249727,4.04301773 L8.57488697,4.04301773 C8.28490089,4.04301773 8.04982073,3.80689369 8.04982073,3.51561993 C8.04982073,3.22434618 8.28490089,2.98822214 8.57488697,2.98822214 L11.7249727,2.98822214 Z" id="形状结合" fill="#555555"></path>
                            <path d="M7.00868607,0.5 L2,0.5 C1.58578644,0.5 1.21078644,0.667893219 0.939339828,0.939339828 C0.667893219,1.21078644 0.5,1.58578644 0.5,2 L0.5,6.97400093 L7.00868607,6.97400093 L7.00868607,0.5 Z" id="矩形" stroke="#555555"></path>
                            <path d="M13.5,0.5 L8.52874851,0.5 C8.11453495,0.5 7.73953495,0.667893219 7.46808834,0.939339828 C7.19664173,1.21078644 7.02874851,1.58578644 7.02874851,2 L7.02874851,6.97400093 L13.5,6.97400093 L13.5,0.5 Z" id="矩形备份-4" stroke="#555555" transform="translate(10.264374, 3.737000) scale(-1, 1) translate(-10.264374, -3.737000) "></path>
                            <path d="M7.00868607,7.00384207 L2,7.00384207 C1.58578644,7.00384207 1.21078644,7.17173529 0.939339828,7.4431819 C0.667893219,7.7146285 0.5,8.0896285 0.5,8.50384207 L0.5,13.5 L7.00868607,13.5 L7.00868607,7.00384207 Z" id="矩形" stroke="#555555" transform="translate(3.754343, 10.251921) scale(1, -1) translate(-3.754343, -10.251921) "></path>
                            <path d="M13.5,7.00384207 L8.52874851,7.00384207 C8.11453495,7.00384207 7.73953495,7.17173529 7.46808834,7.4431819 C7.19664173,7.7146285 7.02874851,8.0896285 7.02874851,8.50384207 L7.02874851,13.5 L13.5,13.5 L13.5,7.00384207 Z" id="矩形备份-5" stroke="#555555" transform="translate(10.264374, 10.251921) scale(-1, -1) translate(-10.264374, -10.251921) "></path>
                        </g>
                    </g>
                </g>
            </g>
        </g>
    </g>
</svg>