<?xml version="1.0" encoding="UTF-8"?>
<svg width="6px" height="6px" viewBox="0 0 6 6" version="1.1" xmlns="http://www.w3.org/2000/svg" xmlns:xlink="http://www.w3.org/1999/xlink">
    <title>四级</title>
    <g id="页面-1" stroke="none" stroke-width="1" fill="none" fill-rule="evenodd">
        <g id="用户管理-财政用户" transform="translate(-72.000000, -405.000000)">
            <g id="四级" transform="translate(72.000000, 405.000000)">
                <g id="五角星2" fill="#999999" fill-rule="nonzero">
                    <path d="M5.98546024,2.26869156 C5.96768561,2.21214307 5.93536811,2.16234664 5.89254741,2.12436632 C5.84891878,2.08638599 5.79640284,2.06106577 5.74065514,2.0526257 L4.0359068,1.79351546 L3.27402164,0.177241528 C3.24897557,0.12406907 3.21019457,0.0793366841 3.16171831,0.0481084148 C3.11324205,0.0168801455 3.0583023,0 3.00093873,0 C2.94438309,0 2.8886354,0.0168801455 2.84015914,0.0481084148 C2.79168289,0.0793366841 2.75290188,0.12406907 2.72785582,0.177241528 L1.96516272,1.79267146 L0.260414371,2.05178169 C0.203858739,2.06022176 0.151342795,2.08469797 0.107714164,2.12352231 C0.0640855332,2.16150264 0.031768029,2.21214307 0.0148013393,2.26869156 C-0.00297328796,2.32524005 -0.00458916317,2.38516457 0.00914577612,2.44340107 C0.0228807154,2.50163757 0.0511585316,2.55312201 0.0923633494,2.59447837 L1.32689201,3.85204921 L1.03522653,5.62868453 C1.02553128,5.68692103 1.03199478,5.74684555 1.05300116,5.80170602 C1.07400754,5.8565665 1.11036473,5.9038309 1.15560924,5.93927921 C1.20166168,5.97388351 1.2557935,5.99498369 1.31234913,5.99920373 C1.36890476,6.00342376 1.4254604,5.99076365 1.47555253,5.96375542 L3.00013079,5.12396818 L4.52551699,5.96291141 C4.57560912,5.99076365 4.63216475,6.00257976 4.68872038,5.99835972 C4.74527602,5.99413968 4.79940783,5.9730395 4.84546028,5.9384352 C4.89151272,5.9038309 4.92706198,5.85572249 4.94806835,5.80086202 C4.96907473,5.74600154 4.97553823,5.68607703 4.96584298,5.62784052 L4.67498544,3.85204921 L5.90870617,2.59363436 C5.94910305,2.55227801 5.9781888,2.49994956 5.9911158,2.44255706 C6.00485074,2.38516457 6.00242693,2.32439604 5.98546024,2.26869156 Z" id="路径"></path>
                </g>
                <rect id="矩形" x="0" y="0" width="6" height="6"></rect>
            </g>
        </g>
    </g>
</svg>