<?xml version="1.0" encoding="UTF-8"?>
<svg width="16px" height="16px" viewBox="0 0 16 16" version="1.1" xmlns="http://www.w3.org/2000/svg" xmlns:xlink="http://www.w3.org/1999/xlink">
    <title>银行账户管理-灰</title>
    <g id="0824设计侧修改" stroke="none" stroke-width="1" fill="none" fill-rule="evenodd">
        <g id="左侧图标修改" transform="translate(-16.000000, -144.000000)">
            <g id="编组-4" transform="translate(0.000000, 108.000000)">
                <g id="1" transform="translate(0.000000, 24.000000)">
                    <g id="银行账户管理-灰" transform="translate(16.000000, 12.000000)">
                        <rect id="矩形" x="0" y="0" width="16" height="16"></rect>
                        <path d="M8.34358334,1.1119872 L14.76025,5.77865925 C14.9642781,5.92743387 15.0494192,6.19059081 14.9712037,6.43068196 C14.8929883,6.67077312 14.6691766,6.83332714 14.4166667,6.83332714 L13.249,6.833 L13.25,11.4999992 C14.2160985,11.5009638 14.9990354,12.2839016 15,13.2500012 L15,14.4166692 C15,14.7388357 14.7388328,14.9999992 14.4166667,14.9999992 L1.58333334,14.9999992 C1.26116723,14.9999992 1,14.7388357 1,14.4166692 L1,13.2500012 C1.00096465,12.2839016 1.78390154,11.5009638 2.75,11.4999992 L2.75,6.833 L1.58333334,6.83332714 C1.33093078,6.83302892 1.10735097,6.67043321 1.02928878,6.43040495 C0.951226577,6.19037669 1.03639175,5.92737045 1.24033334,5.77865925 L7.657,1.1119872 C7.8615065,0.962670935 8.13907684,0.962670935 8.34358334,1.1119872 Z M13.25,12.6666672 L2.75,12.6666672 C2.42796718,12.6669887 2.16698821,12.927968 2.16666666,13.2500012 L2.16666666,13.8333352 L13.8333333,13.8333352 L13.8333333,13.2500012 C13.8330118,12.927968 13.5720328,12.6669887 13.25,12.6666672 Z M5.666,6.833 L3.916,6.833 L3.916,11.499 L5.666,11.499 L5.666,6.833 Z M9.166,6.833 L6.833,6.833 L6.833,11.499 L9.166,11.499 L9.166,6.833 Z M12.083,6.833 L10.333,6.833 L10.333,11.499 L12.083,11.499 L12.083,6.833 Z M8,2.30490524 L3.37708333,5.66665913 L12.6229167,5.66665913 L8,2.30490524 Z" id="形状结合" stroke="#FFFFFF" stroke-width="0.2" fill="#555555" fill-rule="nonzero"></path>
                    </g>
                </g>
            </g>
        </g>
    </g>
</svg>