<?xml version="1.0" encoding="UTF-8"?>
<svg width="16px" height="16px" viewBox="0 0 16 16" version="1.1" xmlns="http://www.w3.org/2000/svg" xmlns:xlink="http://www.w3.org/1999/xlink">
    <title>预算编制管理-灰</title>
    <g id="0824设计侧修改" stroke="none" stroke-width="1" fill="none" fill-rule="evenodd">
        <g id="左侧图标修改" transform="translate(-16.000000, -344.000000)">
            <g id="编组-4" transform="translate(0.000000, 108.000000)">
                <g id="6" transform="translate(0.000000, 224.000000)">
                    <g id="预算编制管理-灰" transform="translate(16.000000, 12.000000)">
                        <rect id="矩形" x="0" y="0" width="16" height="16"></rect>
                        <path d="M8.89790607,1.11828576 C10.0951142,1.43906361 11.0302401,2.37415139 11.3510311,3.5713106 C11.6265989,4.59970193 11.4128694,5.68727086 10.7915733,6.52900667 C11.2625507,6.82602874 11.6826274,7.2040107 12.0451563,7.65561239 C12.4434375,8.15168589 12.7720313,8.73603703 13.0220313,9.39241647 C13.2662963,10.0332693 13.3869942,10.6165576 13.4457527,11.0017141 L14.34375,11.0001633 C14.7061869,11.0001633 15,11.2939645 15,11.6563865 L15,14.3437768 C15,14.7061989 14.7061869,15 14.34375,15 L11.65625,15 C11.2938131,15 11,14.7061989 11,14.3437768 L11,11.6563865 C11,11.2939645 11.2938131,11.0001633 11.65625,11.0001633 L12.4319171,11.00188 C12.3731936,10.6702643 12.2667906,10.2126948 12.0770313,9.72099681 C11.6388966,8.58584375 10.9626737,7.75778862 10.0644686,7.2565808 C9.60503319,7.59966581 9.06751263,7.82115394 8.50098102,7.90268398 L8.5,11 L9.34375,11.0001633 C9.70618687,11.0001633 10,11.2939645 10,11.6563865 L10,14.3437768 C10,14.7061989 9.70618687,15 9.34375,15 L6.65625,15 C6.29381313,15 6,14.7061989 6,14.3437768 L6,11.6563865 C6,11.2939645 6.29381313,11.0001633 6.65625,11.0001633 L7.5,11 L7.50023707,7.90182921 C6.92744697,7.81870491 6.39166848,7.59433515 5.93685022,7.25807585 C5.03771294,7.75706789 4.36080612,8.58499472 3.92234375,9.72099681 C3.73290291,10.2126948 3.62685901,10.6702643 3.56841111,11.00188 L4.34375,11.0001633 C4.70618687,11.0001633 5,11.2939645 5,11.6563865 L5,14.3437768 C5,14.7061989 4.70618687,15 4.34375,15 L1.65625,15 C1.29381313,15 1,14.7061989 1,14.3437768 L1,11.6563865 C1,11.2939645 1.29381313,11.0001633 1.65625,11.0001633 L2.55376665,11.0017141 C2.61260937,10.6165576 2.73335015,10.0332693 2.97734375,9.39241647 C3.22734375,8.73619327 3.55546875,8.15168589 3.95421875,7.65561239 C4.31681521,7.20392644 4.73698105,6.82588768 5.2084294,6.52645621 C5.04361074,6.30601712 4.90401839,6.06069519 4.79463509,5.79665328 C4.25761751,4.50033894 4.55452541,3.00818234 5.546875,2.01615517 C6.42329215,1.1397738 7.70069798,0.797507921 8.89790607,1.11828576 Z M4,12.0001225 L2,12.0001225 L2,14.0000408 L4,14.0000408 L4,12.0001225 Z M9,12.0001225 L7,12.0001225 L7,14.0000408 L9,14.0000408 L9,12.0001225 Z M14,12.0001225 L12,12.0001225 L12,14.0000408 L14,14.0000408 L14,12.0001225 Z M8,2.00053081 C6.63875,2.00053081 5.53125,3.10798559 5.53125,4.46918001 C5.53125,5.83037442 6.63875,6.9378292 8,6.9378292 C9.36125,6.9378292 10.46875,5.83037442 10.46875,4.46918001 C10.46875,3.10798559 9.36125,2.00053081 8,2.00053081 Z" id="形状结合" fill="#555555" fill-rule="nonzero"></path>
                    </g>
                </g>
            </g>
        </g>
    </g>
</svg>