<?xml version="1.0" encoding="UTF-8"?>
<svg width="16px" height="16px" viewBox="0 0 16 16" version="1.1" xmlns="http://www.w3.org/2000/svg" xmlns:xlink="http://www.w3.org/1999/xlink">
    <title>预算调整和调剂-灰</title>
    <g id="0824设计侧修改" stroke="none" stroke-width="1" fill="none" fill-rule="evenodd">
        <g id="左侧图标修改" transform="translate(-16.000000, -424.000000)">
            <g id="编组-4" transform="translate(0.000000, 108.000000)">
                <g id="8" transform="translate(0.000000, 304.000000)">
                    <g id="预算调整和调剂-灰" transform="translate(16.000000, 12.000000)">
                        <rect id="矩形" x="0" y="0" width="16" height="16"></rect>
                        <g id="jihuatiaozheng" transform="translate(1.000000, 1.000000)" fill="#555555" fill-rule="nonzero" stroke="#FFFFFF" stroke-width="0.1">
                            <path d="M11.3994128,6.76859181 L11.193686,7.5103232 C10.2053643,7.2352647 9.10324682,7.42665227 8.24569478,8.12196473 C7.5421495,8.69240685 7.13642615,9.49401333 7.04919964,10.3288956 C6.96197314,11.1637779 7.19324348,12.0319359 7.7636856,12.7354812 C8.31146571,13.4113384 9.10533938,13.841837 9.97058931,13.9322363 C10.8358392,14.0226355 11.7015525,13.7655265 12.3771947,13.2174964 C12.4960045,13.1226096 12.5719458,12.9846594 12.5885296,12.8338977 C12.6051134,12.6831361 12.5609741,12.531977 12.4658673,12.4138296 C12.3663619,12.2927163 12.2271821,12.2221464 12.0819963,12.206176 C11.9368106,12.1902055 11.7856189,12.2288346 11.661775,12.3257319 C11.2054913,12.6951602 10.6418796,12.8449571 10.0999605,12.7880776 C9.55804145,12.731198 9.03781506,12.467642 8.66765036,12.010883 C8.29748565,11.5541241 8.14742009,10.9905838 8.20404132,10.4486377 C8.26066256,9.90669161 8.52397059,9.38633966 8.98055305,9.01595727 C9.53487179,8.56629064 10.2467373,8.44095212 10.8864127,8.61608683 L10.6392473,9.50344427 L10.6254276,9.59109669 C10.6202988,9.69596634 10.6620534,9.80502243 10.7432707,9.88366136 C10.7940317,9.93281087 10.8561712,9.96616935 10.9224949,9.98201766 C10.9888185,9.99786597 11.0593263,9.99620411 11.1268238,9.97531293 L13.6347519,9.19759307 L13.7100987,9.16451976 C13.7952979,9.11650061 13.8623653,9.03188648 13.8898746,8.93060224 C13.9242614,8.80399659 13.8921523,8.66859067 13.804579,8.57090564 L12.0710374,6.6293391 L11.3994128,6.76859181 Z M7.91466406,0.655388674 L7.91396959,1.797 L4.31898819,1.797 L4.31925782,0.655376865 C4.31925782,0.488215208 4.25149738,0.336868039 4.14194358,0.227314237 C4.03238978,0.117760435 3.88104261,0.05 3.71386915,0.05 C3.54669568,0.05 3.39534851,0.117760435 3.28579471,0.227314237 C3.17624091,0.336868039 3.10848047,0.488215208 3.10848047,0.655388674 L3.10797801,1.79697319 L1.74772996,1.79770312 C1.27889535,1.79770313 0.854469571,1.98772502 0.547245733,2.29494886 C0.240021895,2.6021727 0.05,3.02659848 0.05,3.49540625 L0.05,12.2339219 C0.05,12.6841807 0.228864637,13.1159982 0.547245733,13.4343793 C0.865626829,13.7527604 1.2974438,13.9316858 1.74770313,13.9316858 L4.60519774,13.9316858 C4.76087543,13.9337874 4.91027256,13.8737194 5.02063943,13.7648644 C5.13100149,13.6560141 5.19312433,13.5074669 5.19310938,13.3524567 C5.19310938,13.196528 5.13116886,13.0469904 5.02091404,12.9367356 C4.91065922,12.8264807 4.7611216,12.7645402 4.60519774,12.7645402 L2.14967485,12.7645402 C1.90465418,12.7645402 1.66966892,12.6672061 1.49641314,12.4939504 C1.32315737,12.3206946 1.22582329,12.0857093 1.22582329,11.8406887 L1.22582329,3.89737796 C1.22582329,3.6422634 1.3292289,3.41130051 1.49641315,3.24411626 C1.6635974,3.07693201 1.89456029,2.9735264 2.14967485,2.9735264 L3.51442331,2.97487237 C3.57687577,2.99665505 3.64399139,3.00848047 3.71386915,3.00848047 C3.78375372,3.00848047 3.85087562,2.99665274 3.91333327,2.97486599 L10.0842362,2.97352641 C10.3393616,2.9735264 10.5703245,3.07693201 10.7375087,3.24411626 C10.904693,3.41130051 11.0080986,3.6422634 11.0080986,3.89737796 L11.0080986,4.61393624 C11.0080986,4.77628356 11.0739028,4.92326147 11.1802939,5.02965255 C11.286685,5.13604363 11.4336629,5.20184788 11.5960102,5.20184788 C11.7583575,5.20184788 11.9053354,5.13604363 12.0117265,5.02965255 C12.1181176,4.92326147 12.1839219,4.77628356 12.1839219,4.61393624 L12.1839219,3.49540625 C12.1839219,3.02659848 11.9939,2.60217269 11.6866761,2.29494885 C11.3794523,1.98772502 10.9550265,1.79770313 10.4862188,1.79770313 L9.12497979,1.79697318 L9.12544141,0.655368456 C9.1254414,0.451250261 9.07663314,0.296846431 8.95813375,0.196706108 C8.84075265,0.0975108129 8.65493967,0.0623073786 7.91466406,0.655388674 Z M5.00065321,7.56512343 L3.25518658,7.73243108 C3.15584097,7.84999005 3.15955147,8.05314783 3.73786241,8.77590077 L5.48332905,8.60859312 C5.58267466,8.49103415 5.57896415,8.28787636 5.00065321,7.56512343 Z M8.49605946,4.76879843 L3.25518658,4.93610608 C3.15584097,5.05366505 3.15955147,5.25682284 3.73786241,5.97957578 L8.9787353,5.81226813 C9.07808091,5.69470915 9.07437041,5.49155137 8.49605946,4.76879843 Z" id="形状结合"></path>
                        </g>
                    </g>
                </g>
            </g>
        </g>
    </g>
</svg>