<?xml version="1.0" encoding="UTF-8"?>
<svg width="16px" height="16px" viewBox="0 0 16 16" version="1.1" xmlns="http://www.w3.org/2000/svg" xmlns:xlink="http://www.w3.org/1999/xlink">
    <title>支出标准库管理-灰</title>
    <g id="0824设计侧修改" stroke="none" stroke-width="1" fill="none" fill-rule="evenodd">
        <g id="左侧图标修改" transform="translate(-166.000000, -224.000000)">
            <g id="编组-4" transform="translate(0.000000, 108.000000)">
                <g id="3" transform="translate(0.000000, 104.000000)">
                    <g id="支出标准库管理-灰" transform="translate(166.000000, 12.000000)">
                        <rect id="矩形" x="0" y="0" width="16" height="16"></rect>
                        <path d="M7.29540877,1.17699494 C7.64914457,0.939655005 8.10739322,0.939655005 8.45308958,1.18517907 L8.45308958,1.18517907 L13.9842312,5.11356417 C14.2495331,5.30179929 14.4103221,5.60461231 14.4103221,5.93197773 L14.4103221,5.93197773 L14.4103221,8.55090113 C14.4103221,8.83734588 14.177178,9.07468581 13.8877578,9.07468581 C13.5983376,9.07468581 13.3651936,8.83734588 13.3651936,8.55090113 L13.3651936,8.55090113 L13.3651936,5.948346 L7.87424917,2.03632918 L2.44762039,5.75192675 L2.44762039,13.9524306 L5.34182241,13.9524306 C5.63124261,13.9524306 5.86438666,14.1897706 5.86438666,14.4762153 C5.86438666,14.7626601 5.63124261,15 5.34182241,15 L5.34182241,15 L2.41546259,15 C1.85270109,15 1.40249189,14.5416884 1.41042532,13.9933513 L1.41042532,13.9933513 L1.41042532,5.73555848 C1.41042532,5.40000892 1.57132034,5.08901176 1.84466164,4.90077664 L1.84466164,4.90077664 Z M11.7733824,8.96010791 L14.2495331,11.4317169 C14.4424799,11.6281361 14.4505193,11.9391333 14.265612,12.1437367 L11.9100531,14.7053711 C11.8135797,14.8117649 11.676909,14.8690538 11.5482778,14.8690538 C11.4276861,14.8690538 11.2990549,14.819949 11.2025815,14.7299235 C11.0015952,14.5335043 10.9855163,14.214323 11.1784631,14.0097196 L12.7013221,12.348 L7.68130237,12.3483401 C7.40796107,12.3483401 7.18285647,12.1191843 7.18285647,11.8409237 C7.18285647,11.562663 7.40796107,11.3335072 7.68130237,11.3335072 L12.7203221,11.333 L11.0739503,9.68849598 C10.872964,9.49207673 10.872964,9.1647113 11.0659108,8.96829205 C11.2588576,8.76368866 11.5804356,8.76368866 11.7733824,8.96010791 Z" id="形状结合" fill="#555555" fill-rule="nonzero"></path>
                    </g>
                </g>
            </g>
        </g>
    </g>
</svg>