<?xml version="1.0" encoding="UTF-8"?>
<svg width="16px" height="16px" viewBox="0 0 16 16" version="1.1" xmlns="http://www.w3.org/2000/svg" xmlns:xlink="http://www.w3.org/1999/xlink">
    <title>综合查询-灰</title>
    <g id="0824设计侧修改" stroke="none" stroke-width="1" fill="none" fill-rule="evenodd">
        <g id="左侧图标修改" transform="translate(-16.000000, -1104.000000)">
            <g id="编组-4" transform="translate(0.000000, 108.000000)">
                <g id="18备份-8" transform="translate(0.000000, 984.000000)">
                    <g id="综合查询-灰" transform="translate(16.000000, 12.000000)">
                        <rect id="矩形" x="0" y="0" width="16" height="16"></rect>
                        <g id="查询" transform="translate(1.000000, 1.000000)" fill="#555555" fill-rule="nonzero">
                            <path d="M12.4396071,12.9281811 C12.2973089,12.9056433 12.1634538,12.829797 12.0736166,12.7062766 L10.1570892,10.0711746 C9.97741472,9.82413374 10.033703,9.46874363 10.2809233,9.28931632 C10.5281437,9.109889 10.8838894,9.16623358 11.0635638,9.41327439 L12.9800913,12.0483764 C13.1597657,12.2954172 13.1034775,12.6508073 12.8562571,12.8302346 C12.7326469,12.9199483 12.5819054,12.950719 12.4396071,12.9281811 Z M8.82241121,10.6506747 C7.79589795,10.6506747 6.84142071,10.2548726 6.12106053,9.53523238 C4.62631316,8.04197901 4.62631316,5.6131934 6.12106053,4.11994003 C7.6158079,2.62668666 10.038019,2.62668666 11.5327664,4.11994003 C13.0275138,5.6131934 13.0275138,8.03298351 11.5327664,9.52623688 C10.8034017,10.2458771 9.84892446,10.6506747 8.82241121,10.6506747 Z M8.82241121,4.12893553 C8.12906453,4.12893553 7.43571786,4.3898051 6.91345673,4.92053973 C5.85992996,5.97301349 5.85992996,7.68215892 6.91345673,8.73463268 C7.42671336,9.24737631 8.10205103,9.52623688 8.82241121,9.52623688 C9.54277139,9.52623688 10.2181091,9.24737631 10.7313657,8.73463268 C11.7848924,7.68215892 11.7848924,5.97301349 10.7313657,4.92053973 C10.2091046,4.3898051 9.51575788,4.12893553 8.82241121,4.12893553 Z" id="形状"></path>
                            <path d="M0.674557307,1.36446238 C0.326216075,1.36446238 0.0475430891,1.0857894 0.0475430891,0.737448164 C0.0475430891,0.389106931 0.326216075,0.110433945 0.674557307,0.110433945 L13.396656,0.110433945 C13.7449972,0.110433945 14.0236702,0.389106931 14.0236702,0.737448164 C14.0236702,1.0857894 13.7449972,1.36446238 13.4066086,1.36446238 L0.674557307,1.36446238 Z M3.27890778,6.97725859 L0.631316647,6.97725859 C0.282975415,6.97725859 0.00430242889,6.6985856 0.00430242889,6.35024437 C0.00430242889,6.00190314 0.282975415,5.72323015 0.631316647,5.72323015 L3.27890778,5.72323015 C3.62724901,5.72323015 3.90592199,6.00190314 3.90592199,6.35024437 C3.90592199,6.6985856 3.62724901,6.97725859 3.27890778,6.97725859 Z M6.40859242,12.9720453 L0.631316647,12.9729932 C0.282975415,12.9729932 0.00430242889,12.6943202 0.00430242889,12.345979 C0.00430242889,11.9976377 0.282975415,11.7189648 0.631316647,11.7189648 L6.40859242,11.7180169 C6.75693366,11.7180169 7.03560664,11.9966899 7.03560664,12.3450311 C7.03560664,12.6933723 6.75693366,12.9720453 6.40859242,12.9720453 Z" id="形状"></path>
                        </g>
                    </g>
                </g>
            </g>
        </g>
    </g>
</svg>