<?xml version="1.0" standalone="no"?><!DOCTYPE svg PUBLIC "-//W3C//DTD SVG 1.1//EN" "http://www.w3.org/Graphics/SVG/1.1/DTD/svg11.dtd"><svg t="1624706741524" class="icon" viewBox="0 0 1024 1024" version="1.1" xmlns="http://www.w3.org/2000/svg" p-id="960" xmlns:xlink="http://www.w3.org/1999/xlink" width="200" height="200"><defs><style type="text/css"></style></defs><path d="M683.964543 581.217315H546.534441V485.221004h137.670996a32.099143 32.099143 0 1 0 0-64.017615H599.53115l87.384346-81.241546a30.111766 30.111766 0 0 0 0-45.227873 36.13412 36.13412 0 0 0-48.660615 0L516.723792 407.713317 395.192703 294.73397a36.13412 36.13412 0 0 0-48.660615 0 30.111766 30.111766 0 0 0 0 45.227873l87.384347 81.241546H340.148394a32.099143 32.099143 0 1 0 0 64.017615h137.670996v95.996311H340.148394a32.099143 32.099143 0 1 0 0 63.957392h137.670996v127.975007a34.508084 34.508084 0 0 0 68.835498 0v-127.975007h137.670996a32.099143 32.099143 0 1 0 0-63.957392z" p-id="961" fill="#555555"></path><path d="M856.023176 1023.920505H167.72842a133.214455 133.214455 0 0 1-137.670996-127.975007V128.095454A133.214455 133.214455 0 0 1 167.72842 0.120447h33.845625a32.099143 32.099143 0 1 1 0 64.017615h-33.845625a66.607227 66.607227 0 0 0-68.835498 64.017616v767.850043a66.607227 66.607227 0 0 0 68.835498 64.017616h688.234533a66.607227 66.607227 0 0 0 68.835498-64.017616V128.155678a66.607227 66.607227 0 0 0-68.835498-63.957392h-32.821826a32.099143 32.099143 0 1 1 0-64.017615h32.821826a133.214455 133.214455 0 0 1 137.670996 127.975007v767.850043a133.214455 133.214455 0 0 1-137.610773 127.914784z" p-id="962" fill="#555555"></path><path d="M718.35218 32.038919a33.303614 33.303614 0 0 1-34.447861 31.978696H339.787053a33.303614 33.303614 0 0 1-34.387637-31.978696 33.303614 33.303614 0 0 1 34.387637-31.978695h344.117266a33.303614 33.303614 0 0 1 34.447861 31.978695z" p-id="963" fill="#555555"></path></svg>