<?xml version="1.0" standalone="no"?><!DOCTYPE svg PUBLIC "-//W3C//DTD SVG 1.1//EN" "http://www.w3.org/Graphics/SVG/1.1/DTD/svg11.dtd"><svg class="icon" width="200px" height="200.00px" viewBox="0 0 1024 1024" version="1.1" xmlns="http://www.w3.org/2000/svg"><path fill="#555555" d="M80.992 663.539c-33.423 76.896-41.615 153.136-41.834 209.060-0.109 48.278 39.103 87.381 87.381 87.381h773.106c48.278 0 87.49-39.103 87.381-87.381-0.109-55.924-8.411-132.164-41.725-209.060-64.771-149.203-181.971-311.842-304.742-390.377h-254.935c-122.771 78.534-239.971 241.172-304.634 390.377zM574.15 659.497c-12.998-15.947-35.28-22.719-55.378-27.307-24.903-5.68-47.295-11.36-69.796-23.921-14.418-8.083-25.777-19.442-33.642-33.751-7.755-14.199-11.687-30.583-11.687-48.497 0-32.003 11.469-58.218 34.188-78.097 13.435-11.796 31.785-19.988 52.538-23.702v-17.476c0-11.796 9.612-21.299 21.299-21.299h11.578c11.796 0 21.299 9.612 21.299 21.299v17.695c19.223 3.714 36.372 11.25 49.152 21.954 13.653 11.25 23.593 25.668 29.71 42.707 4.478 12.561-3.714 26.214-17.039 28.18l-11.25 1.638c-10.158 1.53-20.098-4.478-23.375-14.199-2.731-7.973-6.335-14.527-10.814-19.552-10.158-11.469-26.214-17.914-44.018-17.914-18.896 0-36.81 7.427-47.841 19.77-9.066 10.158-13.435 21.845-13.435 35.717 0 13.545 3.823 25.122 11.36 34.079 15.729 18.896 41.506 24.139 66.41 29.164 14.527 2.949 29.6 6.007 42.598 11.687 13.872 6.116 25.45 13.762 34.298 22.61 8.847 8.847 15.838 19.552 20.644 31.785 4.697 12.124 7.209 25.45 7.209 39.649 0 31.021-10.049 57.235-29.819 78.097-16.275 17.039-38.338 28.399-63.789 32.877v12.889c0 11.796-9.612 21.299-21.299 21.299h-11.578c-11.796 0-21.299-9.612-21.299-21.299v-13.435c-13.981-2.622-27.415-7.209-39.43-13.326-14.199-7.318-26.542-19.223-36.81-35.39-6.881-10.814-11.796-23.265-14.854-37.246-2.512-11.796 5.353-23.265 17.258-25.341l11.578-1.966c11.031-1.966 21.627 4.915 24.357 15.729 3.277 12.78 7.646 22.719 13.107 29.71 12.234 15.729 32.441 25.122 54.067 25.122 3.714 0 7.318-0.327 10.923-0.765 15.51-2.293 29.273-9.612 38.994-20.644 10.158-11.578 15.292-26.214 15.292-43.363 0-14.746-3.604-26.542-10.704-35.171zM517.68 50.45h-0.219l-166.571 0.437c-30.475 0.109-48.606 34.079-31.676 59.42l74.711 112.066h247.507l74.711-112.066c16.93-25.341-1.201-59.31-31.676-59.42l-166.789-0.437z" /></svg>