<?xml version="1.0" encoding="UTF-8"?>
<svg width="16px" height="16px" viewBox="0 0 16 16" version="1.1" xmlns="http://www.w3.org/2000/svg" xmlns:xlink="http://www.w3.org/1999/xlink">
    <title>转移支付接收管理-灰</title>
    <g id="0824设计侧修改" stroke="none" stroke-width="1" fill="none" fill-rule="evenodd">
        <g id="左侧图标修改" transform="translate(-17.000000, -785.000000)">
            <g id="编组-4" transform="translate(0.000000, 108.000000)">
                <g id="17" transform="translate(0.000000, 664.000000)">
                    <g id="转移支付接收管理-灰" transform="translate(17.000000, 13.000000)">
                        <rect id="矩形" x="0" y="0" width="16" height="16"></rect>
                        <g id="任务下达与接收" transform="translate(0.000000, 1.000000)" fill="#555555" fill-rule="nonzero">
                            <path d="M2.0850909,10.9323016 C2.0850909,11.2083383 2.30810361,11.431351 2.58414033,11.431351 L5.96208115,11.431351 C6.23811787,11.431351 6.46113058,11.2083383 6.46113058,10.9323016 C6.46113058,10.6562649 6.23811787,10.4332521 5.96208115,10.4332521 L2.58414033,10.4332521 C2.30810361,10.4332521 2.0850909,10.6562649 2.0850909,10.9323016 Z M2.58414033,8.43705442 C2.30810361,8.43705442 2.0850909,8.66006713 2.0850909,8.93610385 C2.0850909,9.21214057 2.30810361,9.43515328 2.58414033,9.43515328 L5.96208115,9.43515328 C6.23811787,9.43515328 6.46113058,9.21214057 6.46113058,8.93610385 C6.46113058,8.66006713 6.23811787,8.43705442 5.96208115,8.43705442 L2.58414033,8.43705442 Z" id="形状"></path>
                            <path d="M8.02218437,0.0155952947 L8.022,0.0175952947 L8.08945998,0.0236281502 C8.32204862,0.0658442136 8.49842286,0.26941454 8.49842286,0.514179278 C8.49842286,0.781720735 8.28769613,1.00004433 8.02316547,1.01222724 L8.02218437,1.01369415 L0.998098859,1.01525368 L0.998098859,12.9893209 L0.999658389,12.9908805 L11.9444362,12.9908805 L11.9459957,12.9893209 L11.9442177,6.0387277 C11.9441357,6.03500789 11.9440946,6.03127805 11.9440946,6.02753859 L11.945,6.01559529 L11.9459957,5.99948311 L11.947,5.99859529 L11.9521274,5.93791748 C11.9943435,5.70532885 12.1979138,5.5289546 12.4426786,5.5289546 L12.4455106,5.5289546 C12.7112453,5.5289546 12.9284247,5.73684487 12.9432836,5.99886028 L12.9440946,5.99948311 L12.9440946,12.9908805 C12.9440946,13.5398348 12.4949501,13.9889793 11.9459957,13.9889793 L11.9459957,13.9889793 L0.998098859,13.9889793 C0.449144487,13.9889793 0,13.5398348 0,12.9908805 L0,12.9908805 L0,1.01369415 C0,0.464739781 0.449144487,0.0155952947 0.998098859,0.0155952947 L0.998098859,0.0155952947 L8.02218437,0.0155952947 Z" id="形状结合" transform="translate(6.472047, 7.002287) scale(1, -1) translate(-6.472047, -7.002287) "></path>
                            <path d="M13.8718483,10.1169847 L12.6488219,8.8584049 C12.5013983,8.70654922 12.2619823,8.70654922 12.1145587,8.8584049 L10.2652766,10.7644973 L9.76639507,10.2506177 C9.66142944,10.1424965 9.50339131,10.107266 9.3642234,10.1631489 C9.22505549,10.2178169 9.13070437,10.3526648 9.12244865,10.5057353 L8.98328074,13.3363251 C8.97738379,13.4456612 9.01748302,13.5525676 9.09296392,13.6303177 C9.16372726,13.7032084 9.26043717,13.7445131 9.35950585,13.7445131 L9.37837607,13.7445131 L12.1263525,13.6011614 C12.2749556,13.5938723 12.4058677,13.4954698 12.4589403,13.3521181 C12.5120128,13.2087663 12.4789899,13.045977 12.3740242,12.9378558 L12.0202075,12.5734022 L13.8718483,10.6673097 C13.9426117,10.594419 13.9827109,10.4960165 13.9827109,10.3927547 C13.9827109,10.2894928 13.9426117,10.1898755 13.8718483,10.1169847 Z M11.2205818,12.2988471 C11.1498184,12.3717378 11.1097192,12.4701403 11.1097192,12.5734022 C11.1097192,12.676664 11.1498184,12.7750665 11.2205818,12.8479572 L11.2406314,12.8686096 L9.75813934,12.9463597 L9.83362024,11.419299 L9.99873471,11.5893774 C10.069498,11.6622681 10.1650286,11.7035729 10.2652766,11.7035729 C10.3655247,11.7035729 10.4610552,11.6622681 10.5318186,11.5893774 L12.38228,9.68328493 L13.0710432,10.3927547 L11.2205818,12.2988471 Z" id="形状" transform="translate(11.482711, 11.244513) rotate(-315.000000) translate(-11.482711, -11.244513) "></path>
                            <path d="M6.03665253,2.10296412 L6.914,3.025 L7.79209808,2.10296412 C7.92279115,1.96567863 8.13442481,1.96567863 8.26437531,2.10296412 C8.39506837,2.24024961 8.39506837,2.4625585 8.26437531,2.59906396 L7.248,3.666 L7.248,3.669 L8.41520929,3.66926677 C8.60011028,3.66926677 8.7493677,3.82605304 8.7493677,4.02028081 C8.7493677,4.21450858 8.60011028,4.37129485 8.41520929,4.37129485 L7.248,4.371 L7.248,4.979 L8.41520929,4.97971919 C8.60011028,4.97971919 8.7493677,5.13650546 8.7493677,5.33073323 C8.7493677,5.524961 8.60011028,5.68174727 8.41520929,5.68174727 L7.248,5.681 L7.24853372,6.64898596 C7.24853372,6.84321373 7.0992763,7 6.91437531,7 C6.72947432,7 6.58021689,6.84321373 6.58021689,6.64898596 L6.58,5.681 L5.33415842,5.68174727 C5.14925743,5.68174727 5,5.524961 5,5.33073323 C5,5.13650546 5.14925743,4.97971919 5.33415842,4.97971919 L6.58,4.979 L6.58,4.371 L5.33415842,4.37129485 C5.14925743,4.37129485 5,4.21450858 5,4.02028081 C5,3.82605304 5.14925743,3.66926677 5.33415842,3.66926677 L6.58,3.669 L6.58,3.666 L5.56437531,2.59906396 C5.43368224,2.46177847 5.43368224,2.23946958 5.56437531,2.10296412 C5.69506837,1.96567863 5.90670204,1.96567863 6.03665253,2.10296412 Z" id="形状结合" stroke="#FFFFFF" stroke-width="0.3"></path>
                        </g>
                    </g>
                </g>
            </g>
        </g>
    </g>
</svg>