<?xml version="1.0" standalone="no"?><!DOCTYPE svg PUBLIC "-//W3C//DTD SVG 1.1//EN" "http://www.w3.org/Graphics/SVG/1.1/DTD/svg11.dtd"><svg t="1635412928188" class="icon" viewBox="0 0 1024 1024" version="1.1" xmlns="http://www.w3.org/2000/svg" p-id="2997" xmlns:xlink="http://www.w3.org/1999/xlink" width="200" height="200"><defs><style type="text/css">* { text-shadow: transparent 0px 0px 0px, rgba(0, 0, 0, 0.68) 0px 0px 0px !important; }
</style></defs><path d="M141.45408 0h682.666667v1024H141.45408z" fill="#5176EA" p-id="2998"></path><path d="M141.45408 170.666667m42.666667 0l597.333333 0q42.666667 0 42.666667 42.666666l0 597.333334q0 42.666667-42.666667 42.666666l-597.333333 0q-42.666667 0-42.666667-42.666666l0-597.333334q0-42.666667 42.666667-42.666666Z" fill="#5176EA" p-id="2999"></path><path d="M464.120747 528.533333h160c1.472 0 2.666667 2.133333 2.666666 4.736v33.194667c0 2.602667-1.194667 4.736-2.666666 4.736h-160c-1.472 0-2.666667-2.133333-2.666667-4.736v-33.194667c0-2.602667 1.194667-4.736 2.666667-4.736zM461.45408 455.744c0-2.624 1.194667-4.757333 2.666667-4.757333h160c1.472 0 2.666667 2.133333 2.666666 4.757333v33.173333c0 2.602667-1.194667 4.736-2.666666 4.736h-160c-1.472 0-2.666667-2.133333-2.666667-4.736v-33.173333z m162.837333 192.256H334.73408c-1.642667 0-2.986667-2.133333-2.986667-4.736v-33.194667c0-2.602667 1.344-4.736 2.986667-4.736h289.557333c1.642667 0 2.986667 2.133333 2.986667 4.736v33.194667c0 2.602667-1.344 4.736-2.986667 4.736z m0-229.333333H334.73408c-1.642667 0-2.986667-2.133333-2.986667-4.736v-33.194667c0-2.602667 1.344-4.736 2.986667-4.736h289.557333c1.642667 0 2.986667 2.133333 2.986667 4.736v33.194667c0 2.602667-1.344 4.736-2.986667 4.736zM335.11808 508.650667l76.608-59.712c2.837333-2.24 7.061333-0.234667 7.061333 3.349333v119.424c0 3.584-4.16 5.589333-7.04 3.349333l-76.629333-59.733333a4.202667 4.202667 0 0 1 0-6.677333z" fill="#FFFFFF" p-id="3000"></path></svg>