<?xml version="1.0" encoding="UTF-8"?>
<svg width="14px" height="14px" viewBox="0 0 14 14" version="1.1" xmlns="http://www.w3.org/2000/svg" xmlns:xlink="http://www.w3.org/1999/xlink">
    <!-- Generator: Sketch 59.1 (86144) - https://sketch.com -->
    <title>上传icon</title>
    <desc>Created with Sketch.</desc>
    <g id="组件" stroke="none" stroke-width="1" fill="none" fill-rule="evenodd">
        <g id="icon14*14/上传-normal" fill-rule="nonzero">
            <g id="上传icon">
                <rect id="矩形" opacity="0" x="0" y="0" width="14" height="14"></rect>
                <path d="M7.5,2.15 L7.5,9.5 C7.5,9.8 7.3,10 7,10 C6.7,10 6.5,9.8 6.5,9.5 L6.5,2.3 L4.6,4.2 C4.4,4.4 4.1,4.4 3.9,4.2 C3.7,4 3.7,3.7 3.9,3.5 L6.35,1.05 C6.75,0.65 7.35,0.65 7.75,1.05 L10.2,3.5 C10.4,3.7 10.4,4 10.2,4.2 C10,4.4 9.7,4.4 9.5,4.2 L7.5,2.15 Z M12,8.5 C12,8.2 12.2,8 12.5,8 C12.8,8 13,8.2 13,8.5 L13,11 C13,11.85 12.35,12.5 11.5,12.5 L2.5,12.5 C1.65,12.5 1,11.85 1,11 L1,8.5 C1,8.2 1.2,8 1.5,8 C1.8,8 2,8.2 2,8.5 L2,11 C2,11.3 2.2,11.5 2.5,11.5 L11.5,11.5 C11.8,11.5 12,11.3 12,11 L12,8.5 Z" id="形状" fill="#0D1C28"></path>
            </g>
        </g>
    </g>
</svg>