<?xml version="1.0" encoding="UTF-8"?>
<svg width="14px" height="14px" viewBox="0 0 14 14" version="1.1" xmlns="http://www.w3.org/2000/svg" xmlns:xlink="http://www.w3.org/1999/xlink">
    <title>编组 16</title>
    <g id="页面-1" stroke="none" stroke-width="1" fill="none" fill-rule="evenodd">
        <g id="三公经费监控总览2" transform="translate(-1746.000000, -1030.000000)" fill="#6B9BFB">
            <g id="编组-13备份" transform="translate(1265.000000, 892.000000)">
                <g id="编组-12备份" transform="translate(481.000000, 135.000000)">
                    <g id="编组-16" transform="translate(0.000000, 3.000000)">
                        <path d="M14,7 C14,10.86596 10.86596,14 7,14 C3.134005,14 0,10.86596 0,7 C0,3.134005 3.134005,0 7,0 C10.86596,0 14,3.134005 14,7 Z" id="路径" fill-rule="nonzero" opacity="0.3"></path>
                        <g id="编组-30" transform="translate(1.800000, 3.999977)">
                            <path d="M2.20566632,3.63733394 L3.52668412,5.0986715 L2.71191548,6 L0.407379321,3.45066425 L8.02025113e-13,3 L0.407369321,2.54933575 L2.71190548,-5.75552056e-15 L3.52668412,0.901328498 L2.20566632,2.36266606 L8.07999082,2.36266606 L6.75897302,0.901328498 L7.57375166,-5.31143135e-15 L9.87828782,2.54933575 L10.2856571,3 L9.87827782,3.45066425 L7.57374166,6 L6.75897302,5.0986715 L8.07999082,3.63733394 L2.20566632,3.63733394 Z" id="形状结合"></path>
                        </g>
                    </g>
                </g>
            </g>
        </g>
    </g>
</svg>