<?xml version="1.0" encoding="UTF-8"?>
<svg width="14px" height="14px" viewBox="0 0 14 14" version="1.1" xmlns="http://www.w3.org/2000/svg" xmlns:xlink="http://www.w3.org/1999/xlink">
    <title>编组 30</title>
    <g id="页面-1" stroke="none" stroke-width="1" fill="none" fill-rule="evenodd">
        <g id="三公经费监控总览2" transform="translate(-1420.000000, -1030.000000)" fill="#00AE41">
            <g id="编组-13备份" transform="translate(1265.000000, 892.000000)">
                <g id="编组-15" transform="translate(155.000000, 135.000000)">
                    <g id="编组-30" transform="translate(0.000000, 3.000000)">
                        <path d="M14,7 C14,10.86596 10.86596,14 7,14 C3.134005,14 0,10.86596 0,7 C0,3.134005 3.134005,0 7,0 C10.86596,0 14,3.134005 14,7 Z" id="路径" fill-opacity="0.3" fill-rule="nonzero"></path>
                        <polygon id="路径" transform="translate(7.000006, 6.999977) scale(1, -1) translate(-7.000006, -6.999977) " points="6.47424167 10.0246767 6.47423 10.0246883 3.5 7.33605833 4.55155167 6.38548167 6.25644833 7.92667167 6.25644833 3.5 7.74356333 3.5 7.74356333 7.92667167 9.44846 6.38548167 10.5000117 7.33604667 7.52579333 10.0246883 7.52578167 10.0246767 7.00001167 10.4999533"></polygon>
                    </g>
                </g>
            </g>
        </g>
    </g>
</svg>