<?xml version="1.0" encoding="UTF-8"?>
<svg width="47px" height="9px" viewBox="0 0 47 9" version="1.1" xmlns="http://www.w3.org/2000/svg" xmlns:xlink="http://www.w3.org/1999/xlink">
    <title>直线 3</title>
    <g id="页面-1" stroke="none" stroke-width="1" fill="none" fill-rule="evenodd">
        <path d="M5,0 C7.31637876,0 9.22398135,1.7501788 9.47256844,4.00029704 L11.5,4 L11.5,5 L9.47245735,5.00070744 C9.2234136,7.25034205 7.31603406,9 5,9 C2.51471863,9 0.5,6.98528137 0.5,4.5 C0.5,2.01471863 2.51471863,0 5,0 Z M5,1 C3.06700338,1 1.5,2.56700338 1.5,4.5 C1.5,6.43299662 3.06700338,8 5,8 C6.93299662,8 8.5,6.43299662 8.5,4.5 C8.5,2.56700338 6.93299662,1 5,1 Z M15.5,4 L15.5,5 L12.5,5 L12.5,4 L15.5,4 Z M19.5,4 L19.5,5 L16.5,5 L16.5,4 L19.5,4 Z M23.5,4 L23.5,5 L20.5,5 L20.5,4 L23.5,4 Z M27.5,4 L27.5,5 L24.5,5 L24.5,4 L27.5,4 Z M31.5,4 L31.5,5 L28.5,5 L28.5,4 L31.5,4 Z M35.5,4 L35.5,5 L32.5,5 L32.5,4 L35.5,4 Z M39.5,4 L39.5,5 L36.5,5 L36.5,4 L39.5,4 Z M43.5,4 L43.5,5 L40.5,5 L40.5,4 L43.5,4 Z M46.75,4 L46.75,5 L44.5,5 L44.5,4 L46.75,4 Z" id="直线-3" fill="#475C91" fill-rule="nonzero"></path>
    </g>
</svg>