<?xml version="1.0" encoding="UTF-8"?>
<svg width="47px" height="100px" viewBox="0 0 47 100" version="1.1" xmlns="http://www.w3.org/2000/svg" xmlns:xlink="http://www.w3.org/1999/xlink">
    <title>编组 14</title>
    <g id="页面-1" stroke="none" stroke-width="1" fill="none" fill-rule="evenodd">
        <g id="编组-14" transform="translate(23.500000, 49.918730) scale(-1, 1) translate(-23.500000, -49.918730) translate(0.000000, 0.612740)" fill="#475C91" fill-rule="nonzero">
            <path d="M4.5,44.80599 C6.81616561,44.80599 8.72363028,46.5558467 8.97249977,48.8056659 L11,48.80599 L11,49.80599 L8.97245735,49.8066974 C8.7234136,52.056332 6.81603406,53.80599 4.5,53.80599 C2.01471863,53.80599 0,51.7912714 0,49.30599 C0,46.8207086 2.01471863,44.80599 4.5,44.80599 Z M38,44.80599 L47,49.30599 L38,53.80599 L38,49.8057445 L36,49.80599 L36,48.80599 L38,48.8057445 L38,44.80599 Z M4.5,45.80599 C2.56700338,45.80599 1,47.3729934 1,49.30599 C1,51.2389866 2.56700338,52.80599 4.5,52.80599 C6.43299662,52.80599 8,51.2389866 8,49.30599 C8,47.3729934 6.43299662,45.80599 4.5,45.80599 Z M15,48.80599 L15,49.80599 L12,49.80599 L12,48.80599 L15,48.80599 Z M19,48.80599 L19,49.80599 L16,49.80599 L16,48.80599 L19,48.80599 Z M23,48.80599 L23,49.80599 L20,49.80599 L20,48.80599 L23,48.80599 Z M27,48.80599 L27,49.80599 L24,49.80599 L24,48.80599 L27,48.80599 Z M31,48.80599 L31,49.80599 L28,49.80599 L28,48.80599 L31,48.80599 Z M35,48.80599 L35,49.80599 L32,49.80599 L32,48.80599 L35,48.80599 Z" id="直线-3备份"></path>
            <path d="M9.04487626,24.2150227 L9.55146794,24.1200043 C9.72294688,24.0859129 9.89454109,24.0500478 10.0662509,24.0124089 L10.2803682,24.9892168 C9.92414118,25.0673021 9.56829236,25.1380462 9.21282471,25.2014466 L9.13381885,25.2152736 C9.08408142,27.4964146 7.31300578,29.4138827 4.98963411,29.5977284 C2.51209703,29.7937731 0.344730822,27.944258 0.148686201,25.4667209 C-0.047358419,22.9891838 1.80215666,20.8218176 4.27969374,20.625773 C6.57297702,20.4443081 8.60050857,22.0154612 9.04487626,24.2150227 Z M4.35857601,21.6226569 C2.43160272,21.7751361 0.993090992,23.4608653 1.14557014,25.3878386 C1.29804929,27.3148119 2.98377856,28.7533236 4.91075185,28.6008445 C6.83772514,28.4483653 8.27623687,26.7626361 8.12375772,24.8356628 C7.97127857,22.9086895 6.2855493,21.4701778 4.35857601,21.6226569 Z M13.8512067,22.9022314 L14.195505,23.8410917 C13.7658797,23.9986436 13.3367777,24.1456946 12.908201,24.2822397 L12.2657302,24.4791773 L11.9832738,23.5198972 C12.6043837,23.3370137 13.2270256,23.1311307 13.8512067,22.9022314 Z M17.4465454,21.3376698 L17.8958989,22.2310238 C17.4873918,22.4365013 17.0793492,22.6326272 16.6717709,22.8193979 L16.0607516,23.0925371 L15.6612519,22.1758038 C16.2549662,21.9170714 16.8500643,21.6376974 17.4465454,21.3376698 Z M20.8997111,19.3796566 L21.4330549,20.2255552 C21.0468577,20.4690547 20.6610758,20.7043111 20.2757082,20.9313222 L19.6979674,21.2656545 L19.203887,20.3962383 C19.7679469,20.0756888 20.3332229,19.7368306 20.8997111,19.3796566 Z M24.1680165,17.1257455 L24.7671401,17.9264021 C24.4023645,18.1993601 24.0379622,18.4650567 23.673932,18.7234905 L23.1281657,19.1056941 L22.5598625,18.2828749 C23.0948559,17.9133667 23.6309086,17.5276582 24.1680165,17.1257455 Z M27.2582563,14.6444795 L27.9090696,15.4037173 C27.563887,15.6996054 27.2190414,15.9890668 26.8745317,16.2721011 L26.3580191,16.691832 L25.7315749,15.9123657 C26.2395448,15.5041187 26.7484398,15.0814906 27.2582563,14.6444795 Z M30.2036933,11.9694384 L30.895799,12.6912346 C30.5684122,13.0051545 30.2413305,13.313357 29.914553,13.6158418 L29.4246147,14.0652806 L28.7519756,13.3253099 C29.2350702,12.8861732 29.718977,12.4342163 30.2036933,11.9694384 Z M33.008525,9.14637779 L33.7339184,9.83471234 C33.4220689,10.1633514 33.1104972,10.4868567 32.7992027,10.8052284 L32.3324687,11.2789356 L31.6228512,10.5743485 C32.0840222,10.109885 32.5459142,9.63389484 33.008525,9.14637779 Z M41.3990465,0 L39.1914323,9.81715027 L36.076,7.2722597 L35.7699826,7.6205182 L35.1011714,8.36291391 L34.3615272,7.68991586 C34.6746547,7.34577963 34.988107,6.99639589 35.3018834,6.64176465 L32.2207578,4.12419878 L41.3990465,0 Z" id="路径-12"></path>
            <path d="M9.04487626,93.2150227 L9.55146794,93.1200043 C9.72294688,93.0859129 9.89454109,93.0500478 10.0662509,93.0124089 L10.2803682,93.9892168 C9.92414118,94.0673021 9.56829236,94.1380462 9.21282471,94.2014466 L9.13381885,94.2152736 C9.08408142,96.4964146 7.31300578,98.4138827 4.98963411,98.5977284 C2.51209703,98.7937731 0.344730822,96.944258 0.148686201,94.4667209 C-0.047358419,91.9891838 1.80215666,89.8218176 4.27969374,89.625773 C6.57297702,89.4443081 8.60050857,91.0154612 9.04487626,93.2150227 Z M4.35857601,90.6226569 C2.43160272,90.7751361 0.993090992,92.4608653 1.14557014,94.3878386 C1.29804929,96.3148119 2.98377856,97.7533236 4.91075185,97.6008445 C6.83772514,97.4483653 8.27623687,95.7626361 8.12375772,93.8356628 C7.97127857,91.9086895 6.2855493,90.4701778 4.35857601,90.6226569 Z M13.8512067,91.9022314 L14.195505,92.8410917 C13.7658797,92.9986436 13.3367777,93.1456946 12.908201,93.2822397 L12.2657302,93.4791773 L11.9832738,92.5198972 C12.6043837,92.3370137 13.2270256,92.1311307 13.8512067,91.9022314 Z M17.4465454,90.3376698 L17.8958989,91.2310238 C17.4873918,91.4365013 17.0793492,91.6326272 16.6717709,91.8193979 L16.0607516,92.0925371 L15.6612519,91.1758038 C16.2549662,90.9170714 16.8500643,90.6376974 17.4465454,90.3376698 Z M20.8997111,88.3796566 L21.4330549,89.2255552 C21.0468577,89.4690547 20.6610758,89.7043111 20.2757082,89.9313222 L19.6979674,90.2656545 L19.203887,89.3962383 C19.7679469,89.0756888 20.3332229,88.7368306 20.8997111,88.3796566 Z M24.1680165,86.1257455 L24.7671401,86.9264021 C24.4023645,87.1993601 24.0379622,87.4650567 23.673932,87.7234905 L23.1281657,88.1056941 L22.5598625,87.2828749 C23.0948559,86.9133667 23.6309086,86.5276582 24.1680165,86.1257455 Z M27.2582563,83.6444795 L27.9090696,84.4037173 C27.563887,84.6996054 27.2190414,84.9890668 26.8745317,85.2721011 L26.3580191,85.691832 L25.7315749,84.9123657 C26.2395448,84.5041187 26.7484398,84.0814906 27.2582563,83.6444795 Z M30.2036933,80.9694384 L30.895799,81.6912346 C30.5684122,82.0051545 30.2413305,82.313357 29.914553,82.6158418 L29.4246147,83.0652806 L28.7519756,82.3253099 C29.2350702,81.8861732 29.718977,81.4342163 30.2036933,80.9694384 Z M33.008525,78.1463778 L33.7339184,78.8347123 C33.4220689,79.1633514 33.1104972,79.4868567 32.7992027,79.8052284 L32.3324687,80.2789356 L31.6228512,79.5743485 C32.0840222,79.109885 32.5459142,78.6338948 33.008525,78.1463778 Z M41.3990465,69 L39.1914323,78.8171503 L36.076,76.2722597 L35.7699826,76.6205182 L35.1011714,77.3629139 L34.3615272,76.6899159 C34.6746547,76.3457796 34.988107,75.9963959 35.3018834,75.6417646 L32.2207578,73.1241988 L41.3990465,69 Z" id="路径-12备份" transform="translate(20.766741, 83.805990) scale(1, -1) translate(-20.766741, -83.805990) "></path>
        </g>
    </g>
</svg>