<?xml version="1.0" encoding="UTF-8"?>
<svg width="221px" height="16px" viewBox="0 0 221 16" version="1.1" xmlns="http://www.w3.org/2000/svg" xmlns:xlink="http://www.w3.org/1999/xlink">
    <title>上边框</title>
    <g id="页面-1" stroke="none" stroke-width="1" fill="none" fill-rule="evenodd">
        <g id="监控预警总览" transform="translate(-584.000000, -164.000000)">
            <g id="编组-52" transform="translate(583.926152, 164.000000)">
                <g id="上边框" transform="translate(0.073848, 0.000000)">
                    <polygon id="路径-43" fill="#5D80FF" points="3.66586475 15.5610923 3.66586475 6.67061976 62.0483794 6.67061976 66.5902572 1.15090787e-13 -1.07855632e-16 1.13686838e-13 0 15.5610923"></polygon>
                    <polygon id="路径-44" fill="#5D80FF" points="72.2711887 7.50870235e-14 69.6798773 -4.4408921e-16 64.9847748 6.669841 67.8229564 6.669841"></polygon>
                    <polygon id="路径-44备份" fill="#5D80FF" points="78.2711887 7.50870235e-14 75.6798773 -4.4408921e-16 70.9847748 6.669841 73.8229564 6.669841"></polygon>
                    <line x1="59.5" y1="0.5" x2="209.5" y2="0.5" id="直线-6" stroke="#5D80FF" stroke-linecap="square"></line>
                    <polyline id="路径-45" stroke="#5D80FF" points="116.342067 10.1982502 185.960159 10.1982502 191.529478 0.621364013 205.926152 0.621364013"></polyline>
                    <polygon id="路径-46" fill="#5D80FF" points="205.926152 0 205.926152 3.58978797 216.042994 3.58978797 216.042994 14.2882256 220.12469 14.2882256 220.12469 0"></polygon>
                </g>
            </g>
        </g>
    </g>
</svg>