<?xml version="1.0" encoding="UTF-8"?>
<svg width="13px" height="50px" viewBox="0 0 13 50" version="1.1" xmlns="http://www.w3.org/2000/svg" xmlns:xlink="http://www.w3.org/1999/xlink">
    <title>编组 18备份</title>
    <g id="页面-1" stroke="none" stroke-width="1"  fill-rule="evenodd">
        <g id="编组-18备份" transform="translate(1.000000, 4.528153)" fill-rule="nonzero">
            <path d="M4.39661754,36.7657745 C6.44113332,35.352771 9.24400645,35.8647129 10.6570099,37.9092287 C12.0700133,39.9537445 11.5580714,42.7566176 9.51355564,44.1696211 C7.46903986,45.5826245 4.66616673,45.0706826 3.25316329,43.0261668 C1.84015985,40.981651 2.35210176,38.1787779 4.39661754,36.7657745 Z M3.49153148,33.9831955 C3.68160875,34.3727542 3.88075974,34.7610157 4.08898819,35.1479812 L4.4081394,35.7274578 L3.53691878,36.2183495 C3.31318992,35.8212818 3.09874339,35.4227564 2.89358293,35.0227746 L2.59280725,34.4217098 L3.49153148,33.9831955 Z M1.98534393,30.3230108 C2.1239108,30.7346056 2.2721827,31.1447924 2.43016342,31.553575 L2.67441656,32.1656963 L1.74969535,32.5463413 C1.57646169,32.1254957 1.41322117,31.7030981 1.25997755,31.2791525 L1.03761027,30.6420733 L1.98534393,30.3230108 Z M0.985375006,26.5026048 C1.06607545,26.9309602 1.15684216,27.3578213 1.25767738,27.7831942 L1.41648186,28.4201378 L0.4490462,28.6732549 C0.334226657,28.2344045 0.229821462,27.7939683 0.135832859,27.3519523 L0.00266268039,26.6877439 L0.985375006,26.5026048 Z M0.532054492,22.6336689 C0.552794549,23.0711091 0.583598985,23.5070174 0.624467474,23.9414003 L0.693318207,24.5918311 L-0.299830296,24.7086903 C-0.352576368,24.2604181 -0.394897954,23.8105965 -0.426795378,23.3592317 L-0.466823435,22.681028 L0.532054492,22.6336689 Z M-0.380596122,18.5854816 L0.615539953,18.6733048 C0.576868767,19.1119332 0.547906641,19.5490531 0.528651114,19.9846694 L0.507047464,20.6369666 L-0.492710672,20.6149742 C-0.477901242,19.9417506 -0.440526957,19.2652477 -0.380596122,18.5854816 Z M0.224848542,14.5829858 L1.20286681,14.791505 C1.11058619,15.2243291 1.02739778,15.6557242 0.953298422,16.0856928 L0.84896579,16.7295761 L-0.13972223,16.5795894 C-0.0392150684,15.9170623 0.0823120779,15.251525 0.224848542,14.5829858 Z M1.29592636,10.6449498 L2.24562979,10.9581005 C2.10644175,11.3802211 1.97558549,11.8010275 1.85305826,12.2205205 L1.67551384,12.848775 L0.710837835,12.5853358 C0.886724302,11.9412652 1.08175691,11.2944691 1.29592636,10.6449498 Z M2.74664221,6.86093569 L3.66325129,7.26072038 C3.4852225,7.6688971 3.31471699,8.07588942 3.15173278,8.48169703 L2.9128972,9.08951987 L1.97942738,8.73086391 C2.21797301,8.1100039 2.47371351,7.48669484 2.74664221,6.86093569 Z M4.78302358,4.87437807 L4.49336793,5.46073493 L3.59395941,5.02362589 C3.8188097,4.56096726 4.05291218,4.09698543 4.29626485,3.63167937 C2.46230217,2.29212061 1.89689106,-0.24389728 3.06037401,-2.2541548 C4.30530933,-4.40514517 7.05825103,-5.13964791 9.2092414,-3.89471258 C11.3602318,-2.64977726 12.0947345,0.103164439 10.8497992,2.2541548 C9.69282733,4.2531625 7.23342311,5.02878059 5.16515108,4.12915503 L5.392791,3.69688751 C5.18276653,4.09044556 4.97951114,4.48294263 4.78302358,4.87437807 Z M3.92586569,-1.75323151 C2.95758266,-0.0802390083 3.52886257,2.06093787 5.20185508,3.0292209 C6.87484758,3.99750393 9.01602446,3.42622402 9.98430749,1.75323151 C10.9525905,0.0802390083 10.3813106,-2.06093787 8.70831811,-3.0292209 C7.0353256,-3.99750393 4.89414872,-3.42622402 3.92586569,-1.75323151 Z" id="路径-14"></path>
        </g>
    </g>
</svg>