<?xml version="1.0" encoding="UTF-8"?>
<svg width="1872px" height="441px" viewBox="0 0 1872 441" version="1.1" xmlns="http://www.w3.org/2000/svg" xmlns:xlink="http://www.w3.org/1999/xlink">
    <title>统计分析查询（按区划）</title>
    <g id="页面-1" stroke="none" stroke-width="1" fill="none" fill-rule="evenodd">
        <g id="预算执行主题分析" transform="translate(-24.000000, -622.000000)">
            <g id="统计分析查询（按区划）" transform="translate(24.000000, 622.000000)">
                <rect id="矩形备份-9" fill="#FFFFFF" x="0" y="0" width="1872" height="441"></rect>
                <g id="编组-12" transform="translate(24.000000, 62.000000)">
                    <g id="编组-13" transform="translate(86.000000, 31.000000)">
                        <g id="编组-7" stroke-linecap="square">
                            <g id="横线">
                                <line x1="1.03571429" y1="49.2339854" x2="694.964286" y2="49.2339854" id="直线-3" stroke="#F1F1F1" stroke-dasharray="4"></line>
                                <line x1="1.03571429" y1="98.1060056" x2="694.964286" y2="98.1060056" id="直线-3备份-2" stroke="#F1F1F1" stroke-dasharray="4"></line>
                                <line x1="1.03571429" y1="0.405913789" x2="694.964286" y2="0.405913789" id="直线-3备份-35" stroke="#F1F1F1" stroke-dasharray="4"></line>
                                <line x1="1.03571429" y1="146.978026" x2="694.964286" y2="146.978026" id="直线-3备份-4" stroke="#F1F1F1" stroke-dasharray="4"></line>
                                <line x1="1.03571429" y1="293.594086" x2="694.964286" y2="293.594086" id="直线-3备份-13" stroke="#D7D7D7"></line>
                                <line x1="1.03571429" y1="195.850046" x2="694.964286" y2="195.850046" id="直线-3备份-6" stroke="#F1F1F1" stroke-dasharray="4"></line>
                                <line x1="1.03571429" y1="244.722066" x2="694.964286" y2="244.722066" id="直线-3备份-8" stroke="#F1F1F1" stroke-dasharray="4"></line>
                            </g>
                        </g>
                        <g id="Group-1000004343" transform="translate(53.000000, 84.000000)">
                            <g id="编组">
                                <rect id="矩形" fill="#D0DFFD" fill-rule="nonzero" opacity="0.528041295" x="0" y="0" width="52" height="209" rx="5"></rect>
                                <rect id="矩形" fill="#6395FA" fill-rule="nonzero" x="4.33333333" y="104" width="43.3333333" height="101" rx="5"></rect>
                                <text id="55%" font-family="PingFangSC-Medium, PingFang SC" font-size="14" font-weight="400" fill="#595959">
                                    <tspan x="10.67" y="94">55%</tspan>
                                </text>
                            </g>
                            <g id="编组" transform="translate(105.800000, 23.000000)" fill-rule="nonzero">
                                <rect id="矩形" fill="#E6EEFE" x="0" y="0" width="52" height="186" rx="5"></rect>
                                <rect id="矩形" fill="#6395FA" x="4.33333333" y="81" width="43.3333333" height="100" rx="5"></rect>
                            </g>
                            <text id="63%" font-family="PingFangSC-Medium, PingFang SC" font-size="14" font-weight="400" fill="#595959">
                                <tspan x="116.17" y="94">63%</tspan>
                            </text>
                            <g id="编组" transform="translate(211.600000, 84.000000)" fill-rule="nonzero">
                                <rect id="矩形" fill="#E6EEFE" x="0" y="0" width="52" height="125" rx="5"></rect>
                                <rect id="矩形" fill="#6395FA" x="4.24489796" y="24" width="42.4489796" height="97" rx="5"></rect>
                            </g>
                            <g id="编组" transform="translate(317.000000, 84.000000)" fill-rule="nonzero">
                                <rect id="矩形" fill="#E6EEFE" x="0" y="0" width="52" height="125" rx="5"></rect>
                                <rect id="矩形" fill="#6395FA" x="4.24489796" y="71" width="42.4489796" height="50" rx="5"></rect>
                            </g>
                            <g id="编组" transform="translate(423.200000, 84.000000)" fill-rule="nonzero">
                                <rect id="矩形" fill="#E6EEFE" x="0" y="0" width="52" height="125" rx="5"></rect>
                                <rect id="矩形" fill="#6395FA" x="4.24489796" y="52" width="42.4489796" height="69" rx="5"></rect>
                            </g>
                            <g id="编组备份" transform="translate(529.000000, 84.000000)" fill-rule="nonzero">
                                <rect id="矩形" fill="#E6EEFE" x="0" y="0" width="52" height="125" rx="5"></rect>
                                <rect id="矩形" fill="#6395FA" x="4.24489796" y="31" width="42.4489796" height="90" rx="5"></rect>
                            </g>
                            <text id="80%" font-family="PingFangSC-Medium, PingFang SC" font-size="14" font-weight="400" fill="#595959">
                                <tspan x="222.17" y="102">80%</tspan>
                            </text>
                            <text id="40%" font-family="PingFangSC-Medium, PingFang SC" font-size="14" font-weight="400" fill="#595959">
                                <tspan x="328.17" y="147">40%</tspan>
                            </text>
                            <text id="65%" font-family="PingFangSC-Medium, PingFang SC" font-size="14" font-weight="400" fill="#595959">
                                <tspan x="434.17" y="127">65%</tspan>
                            </text>
                            <text id="83%" font-family="PingFangSC-Medium, PingFang SC" font-size="14" font-weight="400" fill="#595959">
                                <tspan x="540.17" y="107">83%</tspan>
                            </text>
                        </g>
                        <text id="疑似挪用三公经费" font-family="PingFangSC-Regular, PingFang SC" font-size="12" font-weight="normal" line-spacing="16" fill="#8A9299">
                            <tspan x="54.636" y="313">疑似挪用</tspan>
                            <tspan x="54.636" y="329">三公经费</tspan>
                        </text>
                        <text id="同户名转账的工资业务" font-family="PingFangSC-Regular, PingFang SC" font-size="12" font-weight="normal" line-spacing="16" fill="#8A9299">
                            <tspan x="572.136" y="313">同户名转账的</tspan>
                            <tspan x="584.136" y="329">工资业务</tspan>
                        </text>
                        <text id="向个人账户大额转账单笔" font-family="PingFangSC-Regular, PingFang SC" font-size="12" font-weight="normal" line-spacing="16" fill="#8A9299">
                            <tspan x="256.536" y="313">向个人账户大</tspan>
                            <tspan x="262.536" y="329">额转账单笔</tspan>
                        </text>
                        <text id="同户转款相关特殊提醒规则" font-family="PingFangSC-Regular, PingFang SC" font-size="12" font-weight="normal" line-spacing="16" fill="#8A9299">
                            <tspan x="351.736" y="313">同户转款相关特</tspan>
                            <tspan x="363.736" y="329">殊提醒规则</tspan>
                        </text>
                        <text id="禁止使用39999部门经济分类" font-family="PingFangSC-Regular, PingFang SC" font-size="12" font-weight="normal" line-spacing="16" fill="#8A9299">
                            <tspan x="459.936" y="313">禁止使用39999</tspan>
                            <tspan x="465.936" y="329">部门经济分类</tspan>
                        </text>
                        <text id="规范使用支付摘要" font-family="PingFangSC-Regular, PingFang SC" font-size="12" font-weight="normal" line-spacing="16" fill="#8A9299">
                            <tspan x="160.836" y="313">规范使用</tspan>
                            <tspan x="160.836" y="329">支付摘要</tspan>
                        </text>
                    </g>
                    <text id="累计违规数量" fill="#8C8C8C" fill-rule="nonzero" transform="translate(10.500000, 151.500000) rotate(-90.000000) translate(-10.500000, -151.500000) " font-family="PingFangSC-Regular, PingFang SC" font-size="12" font-weight="normal" line-spacing="21" letter-spacing="5.6">
                        <tspan x="-42.5" y="154">累计违规数量</tspan>
                    </text>
                    <text id="已处理违规情况" fill="#8C8C8C" fill-rule="nonzero" transform="translate(808.000000, 151.500000) rotate(-90.000000) translate(-808.000000, -151.500000) " font-family="PingFangSC-Regular, PingFang SC" font-size="12" font-weight="normal" line-spacing="21" letter-spacing="5.6">
                        <tspan x="746" y="154">已处理违规情况</tspan>
                    </text>
                    <text id="1200-1000-800-600-40" font-family="PingFangSC-Regular, PingFang SC" font-size="12" font-weight="normal" line-spacing="48" fill="#8A9299">
                        <tspan x="37.088" y="21">1200</tspan>
                        <tspan x="37.088" y="69">1000</tspan>
                        <tspan x="41.9" y="117">800</tspan>
                        <tspan x="41.9" y="165">600</tspan>
                        <tspan x="41.9" y="213">400</tspan>
                        <tspan x="41.9" y="261">200</tspan>
                        <tspan x="56.3" y="309">0</tspan>
                    </text>
                    <g id="编组-16" transform="translate(360.000000, 0.000000)">
                        <g id="图例一">
                            <polygon id="路径" fill-opacity="0" fill="#FFFFFF" fill-rule="nonzero" points="0.137254625 1.07793221 31.191301 1.07793221 31.191301 16.9220678 12.5119216 16.9220678 0.137254625 16.9220678"></polygon>
                            <text id="违规数量" fill="#8C8C8C" fill-rule="nonzero" font-family="PingFangSC-Regular, PingFang SC" font-size="12" font-weight="normal">
                                <tspan x="11.9899404" y="13">违规数量</tspan>
                            </text>
                            <rect id="矩形" fill="#FFFFFF" x="0" y="3.34138015" width="7.68025879" height="11.3172397"></rect>
                            <rect id="矩形" fill="#E6EEFE" x="0.768025879" y="4.47310412" width="6.14420703" height="9.05379176"></rect>
                        </g>
                        <g id="图例一" transform="translate(76.000000, 0.000000)">
                            <polygon id="路径" fill-opacity="0" fill="#FFFFFF" fill-rule="nonzero" points="0.137254625 1.07793221 31.191301 1.07793221 31.191301 16.9220678 12.5119216 16.9220678 0.137254625 16.9220678"></polygon>
                            <text id="已处理违规" fill="#8C8C8C" fill-rule="nonzero" font-family="PingFangSC-Regular, PingFang SC" font-size="12" font-weight="normal">
                                <tspan x="11.9899404" y="13">已处理违规</tspan>
                            </text>
                            <rect id="矩形" fill="#FFFFFF" x="0" y="3.34138015" width="7.68025879" height="11.3172397"></rect>
                            <rect id="矩形" fill="#6395FA" x="0.768025879" y="4.47310412" width="6.14420703" height="9.05379176"></rect>
                        </g>
                    </g>
                </g>
                <g id="编组-13备份" transform="translate(891.489940, 74.000000)">
                    <text id="省本级-西安市-铜川市-咸阳市-渭南市" font-family="PingFangSC-Regular, PingFang SC" font-size="12" font-weight="normal" line-spacing="52" fill="#8C8C8C">
                        <tspan x="0" y="13">省本级</tspan>
                        <tspan x="0" y="65">西安市</tspan>
                        <tspan x="0" y="117">铜川市</tspan>
                        <tspan x="0" y="169">咸阳市</tspan>
                        <tspan x="0" y="221">渭南市</tspan>
                        <tspan x="0" y="273">延安市</tspan>
                    </text>
                    <g id="编组-10备份-2" transform="translate(44.000000, 21.000000)">
                        <rect id="矩形备份-56" fill="#71DBB0" x="0" y="155.4" width="12" height="12"></rect>
                        <rect id="矩形备份-53" fill="#FE805D" x="0" y="103.6" width="12" height="12"></rect>
                        <rect id="矩形备份-55" fill="#25A5A1" x="0" y="51.8" width="12" height="12"></rect>
                        <rect id="矩形备份-54" fill="#4CAF51" x="0" y="259" width="12" height="12"></rect>
                        <rect id="矩形备份-57" fill="#FF457A" x="0" y="207.2" width="12" height="12"></rect>
                        <rect id="矩形备份-52" fill="#F98B8B" x="0" y="0" width="12" height="12"></rect>
                    </g>
                    <g id="编组-10备份-3" transform="translate(877.000000, 20.000000)">
                        <rect id="矩形备份-56" fill="#9E00FF" x="0" y="156" width="12" height="12"></rect>
                        <rect id="矩形备份-53" fill="#6BEEEB" x="0" y="104" width="12" height="12"></rect>
                        <rect id="矩形备份-55" fill="#DC48FD" x="0" y="52" width="12" height="12"></rect>
                        <rect id="矩形备份-54" fill="#FFC800" x="0" y="260" width="12" height="12"></rect>
                        <rect id="矩形备份-57" fill="#4EACFF" x="0" y="208" width="12" height="12"></rect>
                        <rect id="矩形备份-52" fill="#475FFF" x="0" y="0" width="12" height="12"></rect>
                    </g>
                    <text id="宝鸡市-汉中市-榆林市-安康市-商洛市" font-family="PingFangSC-Regular, PingFang SC" font-size="12" font-weight="normal" line-spacing="52" fill="#8C8C8C">
                        <tspan x="897" y="13">宝鸡市</tspan>
                        <tspan x="897" y="65">汉中市</tspan>
                        <tspan x="897" y="117">榆林市</tspan>
                        <tspan x="897" y="169">安康市</tspan>
                        <tspan x="897" y="221">商洛市</tspan>
                        <tspan x="897" y="273">杨凌示范区</tspan>
                    </text>
                    <g id="Group-1000004343" transform="translate(72.000000, 25.000000)" fill="#F1F1F1">
                        <path d="M1.19364599,210 L4.77458396,210 L4.77458396,209 L0,209 L0,210 L1.19364599,210 Z M8.35552194,209 L8.35552194,210 L19.0983359,210 L19.0983359,209 L8.35552194,209 Z M21.4856278,209 L21.4856278,210 L32.2284418,210 L32.2284418,209 L21.4856278,209 Z M34.6157337,209 L34.6157337,210 L45.3585477,210 L45.3585477,209 L34.6157337,209 Z M47.7458396,209 L47.7458396,210 L58.4886536,210 L58.4886536,209 L47.7458396,209 Z M62.0695915,209 L62.0695915,210 L72.8124054,210 L72.8124054,209 L62.0695915,209 Z M74.0060514,209 L74.0060514,210 L84.7488654,210 L84.7488654,209 L74.0060514,209 Z M87.1361573,209 L87.1361573,210 L97.8789713,210 L97.8789713,209 L87.1361573,209 Z M100.266263,209 L100.266263,210 L111.009077,210 L111.009077,209 L100.266263,209 Z M113.396369,209 L113.396369,210 L124.139183,210 L124.139183,209 L113.396369,209 Z M127.720121,209 L127.720121,210 L138.462935,210 L138.462935,209 L127.720121,209 Z M140.850227,209 L140.850227,210 L151.593041,210 L151.593041,209 L140.850227,209 Z M152.786687,209 L152.786687,210 L163.529501,210 L163.529501,209 L152.786687,209 Z M165.916793,209 L165.916793,210 L176.659607,210 L176.659607,209 L165.916793,209 Z M179.046899,209 L179.046899,210 L189.789713,210 L189.789713,209 L179.046899,209 Z M193.370651,209 L193.370651,210 L204.113464,210 L204.113464,209 L193.370651,209 Z M206.500756,209 L206.500756,210 L217.24357,210 L217.24357,209 L206.500756,209 Z M218.437216,209 L218.437216,210 L229.18003,210 L229.18003,209 L218.437216,209 Z M231.567322,209 L231.567322,210 L242.310136,210 L242.310136,209 L231.567322,209 Z M244.697428,209 L244.697428,210 L255.440242,210 L255.440242,209 L244.697428,209 Z M259.02118,209 L259.02118,210 L269.763994,210 L269.763994,209 L259.02118,209 Z M272.151286,209 L272.151286,210 L282.8941,210 L282.8941,209 L272.151286,209 Z M285.281392,209 L285.281392,210 L296.024206,210 L296.024206,209 L285.281392,209 Z M297.217852,209 L297.217852,210 L307.960666,210 L307.960666,209 L297.217852,209 Z M310.347958,209 L310.347958,210 L321.090772,210 L321.090772,209 L310.347958,209 Z M324.67171,209 L324.67171,210 L335.414523,210 L335.414523,209 L324.67171,209 Z M337.801815,209 L337.801815,210 L348.544629,210 L348.544629,209 L337.801815,209 Z M350.931921,209 L350.931921,210 L361.674735,210 L361.674735,209 L350.931921,209 Z M362.868381,209 L362.868381,210 L373.611195,210 L373.611195,209 L362.868381,209 Z M375.998487,209 L375.998487,210 L386.741301,210 L386.741301,209 L375.998487,209 Z M390.322239,209 L390.322239,210 L401.065053,210 L401.065053,209 L390.322239,209 Z M403.452345,209 L403.452345,210 L414.195159,210 L414.195159,209 L403.452345,209 Z M416.582451,209 L416.582451,210 L427.325265,210 L427.325265,209 L416.582451,209 Z M428.518911,209 L428.518911,210 L439.261725,210 L439.261725,209 L428.518911,209 Z M441.649017,209 L441.649017,210 L452.391831,210 L452.391831,209 L441.649017,209 Z M455.972769,209 L455.972769,210 L466.715582,210 L466.715582,209 L455.972769,209 Z M469.102874,209 L469.102874,210 L479.845688,210 L479.845688,209 L469.102874,209 Z M482.23298,209 L482.23298,210 L492.975794,210 L492.975794,209 L482.23298,209 Z M495.363086,209 L495.363086,210 L506.1059,210 L506.1059,209 L495.363086,209 Z M507.299546,209 L507.299546,210 L518.04236,210 L518.04236,209 L507.299546,209 Z M521.623298,209 L521.623298,210 L532.366112,210 L532.366112,209 L521.623298,209 Z M534.753404,209 L534.753404,210 L545.496218,210 L545.496218,209 L534.753404,209 Z M547.88351,209 L547.88351,210 L558.626324,210 L558.626324,209 L547.88351,209 Z M561.013616,209 L561.013616,210 L571.75643,210 L571.75643,209 L561.013616,209 Z M572.950076,209 L572.950076,210 L583.69289,210 L583.69289,209 L572.950076,209 Z M587.273828,209 L587.273828,210 L598.016641,210 L598.016641,209 L587.273828,209 Z M600.403933,209 L600.403933,210 L611.146747,210 L611.146747,209 L600.403933,209 Z M613.534039,209 L613.534039,210 L624.276853,210 L624.276853,209 L613.534039,209 Z M626.664145,209 L626.664145,210 L637.406959,210 L637.406959,209 L626.664145,209 Z M639.794251,209 L639.794251,210 L650.537065,210 L650.537065,209 L639.794251,209 Z M652.924357,209 L652.924357,210 L663.667171,210 L663.667171,209 L652.924357,209 Z M666.054463,209 L666.054463,210 L676.797277,210 L676.797277,209 L666.054463,209 Z M679.184569,209 L679.184569,210 L689.927383,210 L689.927383,209 L679.184569,209 Z M692.314675,209 L692.314675,210 L703.057489,210 L703.057489,209 L692.314675,209 Z M705.444781,209 L705.444781,210 L716.187595,210 L716.187595,209 L705.444781,209 Z M718.574887,209 L718.574887,210 L729.3177,210 L729.3177,209 L718.574887,209 Z M731.704992,209 L731.704992,210 L742.447806,210 L742.447806,209 L731.704992,209 Z M744.835098,209 L744.835098,210 L755.577912,210 L755.577912,209 L744.835098,209 Z M757.965204,209 L757.965204,210 L768.708018,210 L768.708018,209 L757.965204,209 Z M771.09531,209 L771.09531,210 L781.838124,210 L781.838124,209 L771.09531,209 Z M785.419062,209 L785.419062,210 L789,210 L789,209 L785.419062,209 Z" id="形状"></path>
                        <path d="M1.19364599,158 L4.77458396,158 L4.77458396,157 L0,157 L0,158 L1.19364599,158 Z M8.35552194,157 L8.35552194,158 L19.0983359,158 L19.0983359,157 L8.35552194,157 Z M21.4856278,157 L21.4856278,158 L32.2284418,158 L32.2284418,157 L21.4856278,157 Z M34.6157337,157 L34.6157337,158 L45.3585477,158 L45.3585477,157 L34.6157337,157 Z M47.7458396,157 L47.7458396,158 L58.4886536,158 L58.4886536,157 L47.7458396,157 Z M62.0695915,157 L62.0695915,158 L72.8124054,158 L72.8124054,157 L62.0695915,157 Z M74.0060514,157 L74.0060514,158 L84.7488654,158 L84.7488654,157 L74.0060514,157 Z M87.1361573,157 L87.1361573,158 L97.8789713,158 L97.8789713,157 L87.1361573,157 Z M100.266263,157 L100.266263,158 L111.009077,158 L111.009077,157 L100.266263,157 Z M113.396369,157 L113.396369,158 L124.139183,158 L124.139183,157 L113.396369,157 Z M127.720121,157 L127.720121,158 L138.462935,158 L138.462935,157 L127.720121,157 Z M140.850227,157 L140.850227,158 L151.593041,158 L151.593041,157 L140.850227,157 Z M152.786687,157 L152.786687,158 L163.529501,158 L163.529501,157 L152.786687,157 Z M165.916793,157 L165.916793,158 L176.659607,158 L176.659607,157 L165.916793,157 Z M179.046899,157 L179.046899,158 L189.789713,158 L189.789713,157 L179.046899,157 Z M193.370651,157 L193.370651,158 L204.113464,158 L204.113464,157 L193.370651,157 Z M206.500756,157 L206.500756,158 L217.24357,158 L217.24357,157 L206.500756,157 Z M218.437216,157 L218.437216,158 L229.18003,158 L229.18003,157 L218.437216,157 Z M231.567322,157 L231.567322,158 L242.310136,158 L242.310136,157 L231.567322,157 Z M244.697428,157 L244.697428,158 L255.440242,158 L255.440242,157 L244.697428,157 Z M259.02118,157 L259.02118,158 L269.763994,158 L269.763994,157 L259.02118,157 Z M272.151286,157 L272.151286,158 L282.8941,158 L282.8941,157 L272.151286,157 Z M285.281392,157 L285.281392,158 L296.024206,158 L296.024206,157 L285.281392,157 Z M297.217852,157 L297.217852,158 L307.960666,158 L307.960666,157 L297.217852,157 Z M310.347958,157 L310.347958,158 L321.090772,158 L321.090772,157 L310.347958,157 Z M324.67171,157 L324.67171,158 L335.414523,158 L335.414523,157 L324.67171,157 Z M337.801815,157 L337.801815,158 L348.544629,158 L348.544629,157 L337.801815,157 Z M350.931921,157 L350.931921,158 L361.674735,158 L361.674735,157 L350.931921,157 Z M362.868381,157 L362.868381,158 L373.611195,158 L373.611195,157 L362.868381,157 Z M375.998487,157 L375.998487,158 L386.741301,158 L386.741301,157 L375.998487,157 Z M390.322239,157 L390.322239,158 L401.065053,158 L401.065053,157 L390.322239,157 Z M403.452345,157 L403.452345,158 L414.195159,158 L414.195159,157 L403.452345,157 Z M416.582451,157 L416.582451,158 L427.325265,158 L427.325265,157 L416.582451,157 Z M428.518911,157 L428.518911,158 L439.261725,158 L439.261725,157 L428.518911,157 Z M441.649017,157 L441.649017,158 L452.391831,158 L452.391831,157 L441.649017,157 Z M455.972769,157 L455.972769,158 L466.715582,158 L466.715582,157 L455.972769,157 Z M469.102874,157 L469.102874,158 L479.845688,158 L479.845688,157 L469.102874,157 Z M482.23298,157 L482.23298,158 L492.975794,158 L492.975794,157 L482.23298,157 Z M495.363086,157 L495.363086,158 L506.1059,158 L506.1059,157 L495.363086,157 Z M507.299546,157 L507.299546,158 L518.04236,158 L518.04236,157 L507.299546,157 Z M521.623298,157 L521.623298,158 L532.366112,158 L532.366112,157 L521.623298,157 Z M534.753404,157 L534.753404,158 L545.496218,158 L545.496218,157 L534.753404,157 Z M547.88351,157 L547.88351,158 L558.626324,158 L558.626324,157 L547.88351,157 Z M561.013616,157 L561.013616,158 L571.75643,158 L571.75643,157 L561.013616,157 Z M572.950076,157 L572.950076,158 L583.69289,158 L583.69289,157 L572.950076,157 Z M587.273828,157 L587.273828,158 L598.016641,158 L598.016641,157 L587.273828,157 Z M600.403933,157 L600.403933,158 L611.146747,158 L611.146747,157 L600.403933,157 Z M613.534039,157 L613.534039,158 L624.276853,158 L624.276853,157 L613.534039,157 Z M626.664145,157 L626.664145,158 L637.406959,158 L637.406959,157 L626.664145,157 Z M639.794251,157 L639.794251,158 L650.537065,158 L650.537065,157 L639.794251,157 Z M652.924357,157 L652.924357,158 L663.667171,158 L663.667171,157 L652.924357,157 Z M666.054463,157 L666.054463,158 L676.797277,158 L676.797277,157 L666.054463,157 Z M679.184569,157 L679.184569,158 L689.927383,158 L689.927383,157 L679.184569,157 Z M692.314675,157 L692.314675,158 L703.057489,158 L703.057489,157 L692.314675,157 Z M705.444781,157 L705.444781,158 L716.187595,158 L716.187595,157 L705.444781,157 Z M718.574887,157 L718.574887,158 L729.3177,158 L729.3177,157 L718.574887,157 Z M731.704992,157 L731.704992,158 L742.447806,158 L742.447806,157 L731.704992,157 Z M744.835098,157 L744.835098,158 L755.577912,158 L755.577912,157 L744.835098,157 Z M757.965204,157 L757.965204,158 L768.708018,158 L768.708018,157 L757.965204,157 Z M771.09531,157 L771.09531,158 L781.838124,158 L781.838124,157 L771.09531,157 Z M785.419062,157 L785.419062,158 L789,158 L789,157 L785.419062,157 Z" id="形状"></path>
                        <path d="M1.19364599,105 L4.77458396,105 L4.77458396,104 L0,104 L0,105 L1.19364599,105 Z M8.35552194,104 L8.35552194,105 L19.0983359,105 L19.0983359,104 L8.35552194,104 Z M21.4856278,104 L21.4856278,105 L32.2284418,105 L32.2284418,104 L21.4856278,104 Z M34.6157337,104 L34.6157337,105 L45.3585477,105 L45.3585477,104 L34.6157337,104 Z M47.7458396,104 L47.7458396,105 L58.4886536,105 L58.4886536,104 L47.7458396,104 Z M62.0695915,104 L62.0695915,105 L72.8124054,105 L72.8124054,104 L62.0695915,104 Z M74.0060514,104 L74.0060514,105 L84.7488654,105 L84.7488654,104 L74.0060514,104 Z M87.1361573,104 L87.1361573,105 L97.8789713,105 L97.8789713,104 L87.1361573,104 Z M100.266263,104 L100.266263,105 L111.009077,105 L111.009077,104 L100.266263,104 Z M113.396369,104 L113.396369,105 L124.139183,105 L124.139183,104 L113.396369,104 Z M127.720121,104 L127.720121,105 L138.462935,105 L138.462935,104 L127.720121,104 Z M140.850227,104 L140.850227,105 L151.593041,105 L151.593041,104 L140.850227,104 Z M152.786687,104 L152.786687,105 L163.529501,105 L163.529501,104 L152.786687,104 Z M165.916793,104 L165.916793,105 L176.659607,105 L176.659607,104 L165.916793,104 Z M179.046899,104 L179.046899,105 L189.789713,105 L189.789713,104 L179.046899,104 Z M193.370651,104 L193.370651,105 L204.113464,105 L204.113464,104 L193.370651,104 Z M206.500756,104 L206.500756,105 L217.24357,105 L217.24357,104 L206.500756,104 Z M218.437216,104 L218.437216,105 L229.18003,105 L229.18003,104 L218.437216,104 Z M231.567322,104 L231.567322,105 L242.310136,105 L242.310136,104 L231.567322,104 Z M244.697428,104 L244.697428,105 L255.440242,105 L255.440242,104 L244.697428,104 Z M259.02118,104 L259.02118,105 L269.763994,105 L269.763994,104 L259.02118,104 Z M272.151286,104 L272.151286,105 L282.8941,105 L282.8941,104 L272.151286,104 Z M285.281392,104 L285.281392,105 L296.024206,105 L296.024206,104 L285.281392,104 Z M297.217852,104 L297.217852,105 L307.960666,105 L307.960666,104 L297.217852,104 Z M310.347958,104 L310.347958,105 L321.090772,105 L321.090772,104 L310.347958,104 Z M324.67171,104 L324.67171,105 L335.414523,105 L335.414523,104 L324.67171,104 Z M337.801815,104 L337.801815,105 L348.544629,105 L348.544629,104 L337.801815,104 Z M350.931921,104 L350.931921,105 L361.674735,105 L361.674735,104 L350.931921,104 Z M362.868381,104 L362.868381,105 L373.611195,105 L373.611195,104 L362.868381,104 Z M375.998487,104 L375.998487,105 L386.741301,105 L386.741301,104 L375.998487,104 Z M390.322239,104 L390.322239,105 L401.065053,105 L401.065053,104 L390.322239,104 Z M403.452345,104 L403.452345,105 L414.195159,105 L414.195159,104 L403.452345,104 Z M416.582451,104 L416.582451,105 L427.325265,105 L427.325265,104 L416.582451,104 Z M428.518911,104 L428.518911,105 L439.261725,105 L439.261725,104 L428.518911,104 Z M441.649017,104 L441.649017,105 L452.391831,105 L452.391831,104 L441.649017,104 Z M455.972769,104 L455.972769,105 L466.715582,105 L466.715582,104 L455.972769,104 Z M469.102874,104 L469.102874,105 L479.845688,105 L479.845688,104 L469.102874,104 Z M482.23298,104 L482.23298,105 L492.975794,105 L492.975794,104 L482.23298,104 Z M495.363086,104 L495.363086,105 L506.1059,105 L506.1059,104 L495.363086,104 Z M507.299546,104 L507.299546,105 L518.04236,105 L518.04236,104 L507.299546,104 Z M521.623298,104 L521.623298,105 L532.366112,105 L532.366112,104 L521.623298,104 Z M534.753404,104 L534.753404,105 L545.496218,105 L545.496218,104 L534.753404,104 Z M547.88351,104 L547.88351,105 L558.626324,105 L558.626324,104 L547.88351,104 Z M561.013616,104 L561.013616,105 L571.75643,105 L571.75643,104 L561.013616,104 Z M572.950076,104 L572.950076,105 L583.69289,105 L583.69289,104 L572.950076,104 Z M587.273828,104 L587.273828,105 L598.016641,105 L598.016641,104 L587.273828,104 Z M600.403933,104 L600.403933,105 L611.146747,105 L611.146747,104 L600.403933,104 Z M613.534039,104 L613.534039,105 L624.276853,105 L624.276853,104 L613.534039,104 Z M626.664145,104 L626.664145,105 L637.406959,105 L637.406959,104 L626.664145,104 Z M639.794251,104 L639.794251,105 L650.537065,105 L650.537065,104 L639.794251,104 Z M652.924357,104 L652.924357,105 L663.667171,105 L663.667171,104 L652.924357,104 Z M666.054463,104 L666.054463,105 L676.797277,105 L676.797277,104 L666.054463,104 Z M679.184569,104 L679.184569,105 L689.927383,105 L689.927383,104 L679.184569,104 Z M692.314675,104 L692.314675,105 L703.057489,105 L703.057489,104 L692.314675,104 Z M705.444781,104 L705.444781,105 L716.187595,105 L716.187595,104 L705.444781,104 Z M718.574887,104 L718.574887,105 L729.3177,105 L729.3177,104 L718.574887,104 Z M731.704992,104 L731.704992,105 L742.447806,105 L742.447806,104 L731.704992,104 Z M744.835098,104 L744.835098,105 L755.577912,105 L755.577912,104 L744.835098,104 Z M757.965204,104 L757.965204,105 L768.708018,105 L768.708018,104 L757.965204,104 Z M771.09531,104 L771.09531,105 L781.838124,105 L781.838124,104 L771.09531,104 Z M785.419062,104 L785.419062,105 L789,105 L789,104 L785.419062,104 Z" id="形状"></path>
                        <path d="M1.19364599,53 L4.77458396,53 L4.77458396,52 L0,52 L0,53 L1.19364599,53 Z M8.35552194,52 L8.35552194,53 L19.0983359,53 L19.0983359,52 L8.35552194,52 Z M21.4856278,52 L21.4856278,53 L32.2284418,53 L32.2284418,52 L21.4856278,52 Z M34.6157337,52 L34.6157337,53 L45.3585477,53 L45.3585477,52 L34.6157337,52 Z M47.7458396,52 L47.7458396,53 L58.4886536,53 L58.4886536,52 L47.7458396,52 Z M62.0695915,52 L62.0695915,53 L72.8124054,53 L72.8124054,52 L62.0695915,52 Z M74.0060514,52 L74.0060514,53 L84.7488654,53 L84.7488654,52 L74.0060514,52 Z M87.1361573,52 L87.1361573,53 L97.8789713,53 L97.8789713,52 L87.1361573,52 Z M100.266263,52 L100.266263,53 L111.009077,53 L111.009077,52 L100.266263,52 Z M113.396369,52 L113.396369,53 L124.139183,53 L124.139183,52 L113.396369,52 Z M127.720121,52 L127.720121,53 L138.462935,53 L138.462935,52 L127.720121,52 Z M140.850227,52 L140.850227,53 L151.593041,53 L151.593041,52 L140.850227,52 Z M152.786687,52 L152.786687,53 L163.529501,53 L163.529501,52 L152.786687,52 Z M165.916793,52 L165.916793,53 L176.659607,53 L176.659607,52 L165.916793,52 Z M179.046899,52 L179.046899,53 L189.789713,53 L189.789713,52 L179.046899,52 Z M193.370651,52 L193.370651,53 L204.113464,53 L204.113464,52 L193.370651,52 Z M206.500756,52 L206.500756,53 L217.24357,53 L217.24357,52 L206.500756,52 Z M218.437216,52 L218.437216,53 L229.18003,53 L229.18003,52 L218.437216,52 Z M231.567322,52 L231.567322,53 L242.310136,53 L242.310136,52 L231.567322,52 Z M244.697428,52 L244.697428,53 L255.440242,53 L255.440242,52 L244.697428,52 Z M259.02118,52 L259.02118,53 L269.763994,53 L269.763994,52 L259.02118,52 Z M272.151286,52 L272.151286,53 L282.8941,53 L282.8941,52 L272.151286,52 Z M285.281392,52 L285.281392,53 L296.024206,53 L296.024206,52 L285.281392,52 Z M297.217852,52 L297.217852,53 L307.960666,53 L307.960666,52 L297.217852,52 Z M310.347958,52 L310.347958,53 L321.090772,53 L321.090772,52 L310.347958,52 Z M324.67171,52 L324.67171,53 L335.414523,53 L335.414523,52 L324.67171,52 Z M337.801815,52 L337.801815,53 L348.544629,53 L348.544629,52 L337.801815,52 Z M350.931921,52 L350.931921,53 L361.674735,53 L361.674735,52 L350.931921,52 Z M362.868381,52 L362.868381,53 L373.611195,53 L373.611195,52 L362.868381,52 Z M375.998487,52 L375.998487,53 L386.741301,53 L386.741301,52 L375.998487,52 Z M390.322239,52 L390.322239,53 L401.065053,53 L401.065053,52 L390.322239,52 Z M403.452345,52 L403.452345,53 L414.195159,53 L414.195159,52 L403.452345,52 Z M416.582451,52 L416.582451,53 L427.325265,53 L427.325265,52 L416.582451,52 Z M428.518911,52 L428.518911,53 L439.261725,53 L439.261725,52 L428.518911,52 Z M441.649017,52 L441.649017,53 L452.391831,53 L452.391831,52 L441.649017,52 Z M455.972769,52 L455.972769,53 L466.715582,53 L466.715582,52 L455.972769,52 Z M469.102874,52 L469.102874,53 L479.845688,53 L479.845688,52 L469.102874,52 Z M482.23298,52 L482.23298,53 L492.975794,53 L492.975794,52 L482.23298,52 Z M495.363086,52 L495.363086,53 L506.1059,53 L506.1059,52 L495.363086,52 Z M507.299546,52 L507.299546,53 L518.04236,53 L518.04236,52 L507.299546,52 Z M521.623298,52 L521.623298,53 L532.366112,53 L532.366112,52 L521.623298,52 Z M534.753404,52 L534.753404,53 L545.496218,53 L545.496218,52 L534.753404,52 Z M547.88351,52 L547.88351,53 L558.626324,53 L558.626324,52 L547.88351,52 Z M561.013616,52 L561.013616,53 L571.75643,53 L571.75643,52 L561.013616,52 Z M572.950076,52 L572.950076,53 L583.69289,53 L583.69289,52 L572.950076,52 Z M587.273828,52 L587.273828,53 L598.016641,53 L598.016641,52 L587.273828,52 Z M600.403933,52 L600.403933,53 L611.146747,53 L611.146747,52 L600.403933,52 Z M613.534039,52 L613.534039,53 L624.276853,53 L624.276853,52 L613.534039,52 Z M626.664145,52 L626.664145,53 L637.406959,53 L637.406959,52 L626.664145,52 Z M639.794251,52 L639.794251,53 L650.537065,53 L650.537065,52 L639.794251,52 Z M652.924357,52 L652.924357,53 L663.667171,53 L663.667171,52 L652.924357,52 Z M666.054463,52 L666.054463,53 L676.797277,53 L676.797277,52 L666.054463,52 Z M679.184569,52 L679.184569,53 L689.927383,53 L689.927383,52 L679.184569,52 Z M692.314675,52 L692.314675,53 L703.057489,53 L703.057489,52 L692.314675,52 Z M705.444781,52 L705.444781,53 L716.187595,53 L716.187595,52 L705.444781,52 Z M718.574887,52 L718.574887,53 L729.3177,53 L729.3177,52 L718.574887,52 Z M731.704992,52 L731.704992,53 L742.447806,53 L742.447806,52 L731.704992,52 Z M744.835098,52 L744.835098,53 L755.577912,53 L755.577912,52 L744.835098,52 Z M757.965204,52 L757.965204,53 L768.708018,53 L768.708018,52 L757.965204,52 Z M771.09531,52 L771.09531,53 L781.838124,53 L781.838124,52 L771.09531,52 Z M785.419062,52 L785.419062,53 L789,53 L789,52 L785.419062,52 Z" id="形状"></path>
                        <path d="M1.19364599,262 L4.77458396,262 L4.77458396,261 L0,261 L0,262 L1.19364599,262 Z M8.35552194,261 L8.35552194,262 L19.0983359,262 L19.0983359,261 L8.35552194,261 Z M21.4856278,261 L21.4856278,262 L32.2284418,262 L32.2284418,261 L21.4856278,261 Z M34.6157337,261 L34.6157337,262 L45.3585477,262 L45.3585477,261 L34.6157337,261 Z M47.7458396,261 L47.7458396,262 L58.4886536,262 L58.4886536,261 L47.7458396,261 Z M62.0695915,261 L62.0695915,262 L72.8124054,262 L72.8124054,261 L62.0695915,261 Z M74.0060514,261 L74.0060514,262 L84.7488654,262 L84.7488654,261 L74.0060514,261 Z M87.1361573,261 L87.1361573,262 L97.8789713,262 L97.8789713,261 L87.1361573,261 Z M100.266263,261 L100.266263,262 L111.009077,262 L111.009077,261 L100.266263,261 Z M113.396369,261 L113.396369,262 L124.139183,262 L124.139183,261 L113.396369,261 Z M127.720121,261 L127.720121,262 L138.462935,262 L138.462935,261 L127.720121,261 Z M140.850227,261 L140.850227,262 L151.593041,262 L151.593041,261 L140.850227,261 Z M152.786687,261 L152.786687,262 L163.529501,262 L163.529501,261 L152.786687,261 Z M165.916793,261 L165.916793,262 L176.659607,262 L176.659607,261 L165.916793,261 Z M179.046899,261 L179.046899,262 L189.789713,262 L189.789713,261 L179.046899,261 Z M193.370651,261 L193.370651,262 L204.113464,262 L204.113464,261 L193.370651,261 Z M206.500756,261 L206.500756,262 L217.24357,262 L217.24357,261 L206.500756,261 Z M218.437216,261 L218.437216,262 L229.18003,262 L229.18003,261 L218.437216,261 Z M231.567322,261 L231.567322,262 L242.310136,262 L242.310136,261 L231.567322,261 Z M244.697428,261 L244.697428,262 L255.440242,262 L255.440242,261 L244.697428,261 Z M259.02118,261 L259.02118,262 L269.763994,262 L269.763994,261 L259.02118,261 Z M272.151286,261 L272.151286,262 L282.8941,262 L282.8941,261 L272.151286,261 Z M285.281392,261 L285.281392,262 L296.024206,262 L296.024206,261 L285.281392,261 Z M297.217852,261 L297.217852,262 L307.960666,262 L307.960666,261 L297.217852,261 Z M310.347958,261 L310.347958,262 L321.090772,262 L321.090772,261 L310.347958,261 Z M324.67171,261 L324.67171,262 L335.414523,262 L335.414523,261 L324.67171,261 Z M337.801815,261 L337.801815,262 L348.544629,262 L348.544629,261 L337.801815,261 Z M350.931921,261 L350.931921,262 L361.674735,262 L361.674735,261 L350.931921,261 Z M362.868381,261 L362.868381,262 L373.611195,262 L373.611195,261 L362.868381,261 Z M375.998487,261 L375.998487,262 L386.741301,262 L386.741301,261 L375.998487,261 Z M390.322239,261 L390.322239,262 L401.065053,262 L401.065053,261 L390.322239,261 Z M403.452345,261 L403.452345,262 L414.195159,262 L414.195159,261 L403.452345,261 Z M416.582451,261 L416.582451,262 L427.325265,262 L427.325265,261 L416.582451,261 Z M428.518911,261 L428.518911,262 L439.261725,262 L439.261725,261 L428.518911,261 Z M441.649017,261 L441.649017,262 L452.391831,262 L452.391831,261 L441.649017,261 Z M455.972769,261 L455.972769,262 L466.715582,262 L466.715582,261 L455.972769,261 Z M469.102874,261 L469.102874,262 L479.845688,262 L479.845688,261 L469.102874,261 Z M482.23298,261 L482.23298,262 L492.975794,262 L492.975794,261 L482.23298,261 Z M495.363086,261 L495.363086,262 L506.1059,262 L506.1059,261 L495.363086,261 Z M507.299546,261 L507.299546,262 L518.04236,262 L518.04236,261 L507.299546,261 Z M521.623298,261 L521.623298,262 L532.366112,262 L532.366112,261 L521.623298,261 Z M534.753404,261 L534.753404,262 L545.496218,262 L545.496218,261 L534.753404,261 Z M547.88351,261 L547.88351,262 L558.626324,262 L558.626324,261 L547.88351,261 Z M561.013616,261 L561.013616,262 L571.75643,262 L571.75643,261 L561.013616,261 Z M572.950076,261 L572.950076,262 L583.69289,262 L583.69289,261 L572.950076,261 Z M587.273828,261 L587.273828,262 L598.016641,262 L598.016641,261 L587.273828,261 Z M600.403933,261 L600.403933,262 L611.146747,262 L611.146747,261 L600.403933,261 Z M613.534039,261 L613.534039,262 L624.276853,262 L624.276853,261 L613.534039,261 Z M626.664145,261 L626.664145,262 L637.406959,262 L637.406959,261 L626.664145,261 Z M639.794251,261 L639.794251,262 L650.537065,262 L650.537065,261 L639.794251,261 Z M652.924357,261 L652.924357,262 L663.667171,262 L663.667171,261 L652.924357,261 Z M666.054463,261 L666.054463,262 L676.797277,262 L676.797277,261 L666.054463,261 Z M679.184569,261 L679.184569,262 L689.927383,262 L689.927383,261 L679.184569,261 Z M692.314675,261 L692.314675,262 L703.057489,262 L703.057489,261 L692.314675,261 Z M705.444781,261 L705.444781,262 L716.187595,262 L716.187595,261 L705.444781,261 Z M718.574887,261 L718.574887,262 L729.3177,262 L729.3177,261 L718.574887,261 Z M731.704992,261 L731.704992,262 L742.447806,262 L742.447806,261 L731.704992,261 Z M744.835098,261 L744.835098,262 L755.577912,262 L755.577912,261 L744.835098,261 Z M757.965204,261 L757.965204,262 L768.708018,262 L768.708018,261 L757.965204,261 Z M771.09531,261 L771.09531,262 L781.838124,262 L781.838124,261 L771.09531,261 Z M785.419062,261 L785.419062,262 L789,262 L789,261 L785.419062,261 Z" id="形状备份-2"></path>
                        <path d="M1.19364599,1 L4.77458396,1 L4.77458396,0 L0,0 L0,1 L1.19364599,1 Z M8.35552194,0 L8.35552194,1 L19.0983359,1 L19.0983359,0 L8.35552194,0 Z M21.4856278,0 L21.4856278,1 L32.2284418,1 L32.2284418,0 L21.4856278,0 Z M34.6157337,0 L34.6157337,1 L45.3585477,1 L45.3585477,0 L34.6157337,0 Z M47.7458396,0 L47.7458396,1 L58.4886536,1 L58.4886536,0 L47.7458396,0 Z M62.0695915,0 L62.0695915,1 L72.8124054,1 L72.8124054,0 L62.0695915,0 Z M74.0060514,0 L74.0060514,1 L84.7488654,1 L84.7488654,0 L74.0060514,0 Z M87.1361573,0 L87.1361573,1 L97.8789713,1 L97.8789713,0 L87.1361573,0 Z M100.266263,0 L100.266263,1 L111.009077,1 L111.009077,0 L100.266263,0 Z M113.396369,0 L113.396369,1 L124.139183,1 L124.139183,0 L113.396369,0 Z M127.720121,0 L127.720121,1 L138.462935,1 L138.462935,0 L127.720121,0 Z M140.850227,0 L140.850227,1 L151.593041,1 L151.593041,0 L140.850227,0 Z M152.786687,0 L152.786687,1 L163.529501,1 L163.529501,0 L152.786687,0 Z M165.916793,0 L165.916793,1 L176.659607,1 L176.659607,0 L165.916793,0 Z M179.046899,0 L179.046899,1 L189.789713,1 L189.789713,0 L179.046899,0 Z M193.370651,0 L193.370651,1 L204.113464,1 L204.113464,0 L193.370651,0 Z M206.500756,0 L206.500756,1 L217.24357,1 L217.24357,0 L206.500756,0 Z M218.437216,0 L218.437216,1 L229.18003,1 L229.18003,0 L218.437216,0 Z M231.567322,0 L231.567322,1 L242.310136,1 L242.310136,0 L231.567322,0 Z M244.697428,0 L244.697428,1 L255.440242,1 L255.440242,0 L244.697428,0 Z M259.02118,0 L259.02118,1 L269.763994,1 L269.763994,0 L259.02118,0 Z M272.151286,0 L272.151286,1 L282.8941,1 L282.8941,0 L272.151286,0 Z M285.281392,0 L285.281392,1 L296.024206,1 L296.024206,0 L285.281392,0 Z M297.217852,0 L297.217852,1 L307.960666,1 L307.960666,0 L297.217852,0 Z M310.347958,0 L310.347958,1 L321.090772,1 L321.090772,0 L310.347958,0 Z M324.67171,0 L324.67171,1 L335.414523,1 L335.414523,0 L324.67171,0 Z M337.801815,0 L337.801815,1 L348.544629,1 L348.544629,0 L337.801815,0 Z M350.931921,0 L350.931921,1 L361.674735,1 L361.674735,0 L350.931921,0 Z M362.868381,0 L362.868381,1 L373.611195,1 L373.611195,0 L362.868381,0 Z M375.998487,0 L375.998487,1 L386.741301,1 L386.741301,0 L375.998487,0 Z M390.322239,0 L390.322239,1 L401.065053,1 L401.065053,0 L390.322239,0 Z M403.452345,0 L403.452345,1 L414.195159,1 L414.195159,0 L403.452345,0 Z M416.582451,0 L416.582451,1 L427.325265,1 L427.325265,0 L416.582451,0 Z M428.518911,0 L428.518911,1 L439.261725,1 L439.261725,0 L428.518911,0 Z M441.649017,0 L441.649017,1 L452.391831,1 L452.391831,0 L441.649017,0 Z M455.972769,0 L455.972769,1 L466.715582,1 L466.715582,0 L455.972769,0 Z M469.102874,0 L469.102874,1 L479.845688,1 L479.845688,0 L469.102874,0 Z M482.23298,0 L482.23298,1 L492.975794,1 L492.975794,0 L482.23298,0 Z M495.363086,0 L495.363086,1 L506.1059,1 L506.1059,0 L495.363086,0 Z M507.299546,0 L507.299546,1 L518.04236,1 L518.04236,0 L507.299546,0 Z M521.623298,0 L521.623298,1 L532.366112,1 L532.366112,0 L521.623298,0 Z M534.753404,0 L534.753404,1 L545.496218,1 L545.496218,0 L534.753404,0 Z M547.88351,0 L547.88351,1 L558.626324,1 L558.626324,0 L547.88351,0 Z M561.013616,0 L561.013616,1 L571.75643,1 L571.75643,0 L561.013616,0 Z M572.950076,0 L572.950076,1 L583.69289,1 L583.69289,0 L572.950076,0 Z M587.273828,0 L587.273828,1 L598.016641,1 L598.016641,0 L587.273828,0 Z M600.403933,0 L600.403933,1 L611.146747,1 L611.146747,0 L600.403933,0 Z M613.534039,0 L613.534039,1 L624.276853,1 L624.276853,0 L613.534039,0 Z M626.664145,0 L626.664145,1 L637.406959,1 L637.406959,0 L626.664145,0 Z M639.794251,0 L639.794251,1 L650.537065,1 L650.537065,0 L639.794251,0 Z M652.924357,0 L652.924357,1 L663.667171,1 L663.667171,0 L652.924357,0 Z M666.054463,0 L666.054463,1 L676.797277,1 L676.797277,0 L666.054463,0 Z M679.184569,0 L679.184569,1 L689.927383,1 L689.927383,0 L679.184569,0 Z M692.314675,0 L692.314675,1 L703.057489,1 L703.057489,0 L692.314675,0 Z M705.444781,0 L705.444781,1 L716.187595,1 L716.187595,0 L705.444781,0 Z M718.574887,0 L718.574887,1 L729.3177,1 L729.3177,0 L718.574887,0 Z M731.704992,0 L731.704992,1 L742.447806,1 L742.447806,0 L731.704992,0 Z M744.835098,0 L744.835098,1 L755.577912,1 L755.577912,0 L744.835098,0 Z M757.965204,0 L757.965204,1 L768.708018,1 L768.708018,0 L757.965204,0 Z M771.09531,0 L771.09531,1 L781.838124,1 L781.838124,0 L771.09531,0 Z M785.419062,0 L785.419062,1 L789,1 L789,0 L785.419062,0 Z" id="形状备份"></path>
                    </g>
                    <text id="规范使用支付摘要" font-family="PingFangSC-Regular, PingFang SC" font-size="12" font-weight="normal" line-spacing="16" fill="#8C8C8C">
                        <tspan x="206.636" y="333">规范使用支付摘</tspan>
                        <tspan x="242.636" y="349">要</tspan>
                    </text>
                    <text id="禁止使用39999部门经济分类" font-family="PingFangSC-Regular, PingFang SC" font-size="12" font-weight="normal" line-spacing="16" fill="#8C8C8C">
                        <tspan x="541.136" y="333">禁止使用39999</tspan>
                        <tspan x="547.136" y="349">部门经济分类</tspan>
                    </text>
                    <text id="向个人账户大额转账单笔" font-family="PingFangSC-Regular, PingFang SC" font-size="12" font-weight="normal" line-spacing="16" fill="#8C8C8C">
                        <tspan x="318.136" y="333">向个人账户大额</tspan>
                        <tspan x="336.136" y="349">转账单笔</tspan>
                    </text>
                    <text id="同户名转账的工资业务" font-family="PingFangSC-Regular, PingFang SC" font-size="12" font-weight="normal" line-spacing="16" fill="#8C8C8C">
                        <tspan x="652.636" y="333">同户名转账的工</tspan>
                        <tspan x="676.636" y="349">资业务</tspan>
                    </text>
                    <text id="疑似挪用三公经费" font-family="PingFangSC-Regular, PingFang SC" font-size="12" font-weight="normal" line-spacing="16" fill="#8C8C8C">
                        <tspan x="95.136" y="333">疑似挪用三公经</tspan>
                        <tspan x="131.136" y="349">费</tspan>
                    </text>
                    <text id="疑似挪用三公经费备份" font-family="PingFangSC-Regular, PingFang SC" font-size="12" font-weight="normal" line-spacing="16" fill="#8C8C8C">
                        <tspan x="764.136" y="333">疑似挪用三公经</tspan>
                        <tspan x="800.136" y="349">费</tspan>
                    </text>
                    <text id="同户转款相关特殊提醒规则" font-family="PingFangSC-Regular, PingFang SC" font-size="12" font-weight="normal" line-spacing="16" fill="#8C8C8C">
                        <tspan x="429.636" y="333">同户转款相关特</tspan>
                        <tspan x="441.636" y="349">殊提醒规则</tspan>
                    </text>
                    <g id="编组-19" transform="translate(112.000000, 14.000000)" opacity="0.4">
                        <circle id="椭圆形" fill="#4CAF51" cx="14.5" cy="271.5" r="8.5"></circle>
                        <circle id="椭圆形备份-25" fill="#FF457A" cx="14.5" cy="220.5" r="13.5"></circle>
                        <circle id="椭圆形备份-27" fill="#71DBB0" cx="14.5" cy="168.5" r="13.5"></circle>
                        <circle id="椭圆形备份-32" fill="#FE805D" cx="14.5" cy="116.5" r="14.5"></circle>
                        <circle id="椭圆形备份-38" fill="#F98B8B" cx="14.5" cy="12.5" r="9.5"></circle>
                        <circle id="椭圆形备份-29" fill="#25A5A1" cx="14.5" cy="63.5" r="12.5"></circle>
                        <circle id="椭圆形备份-37" fill="#FFC800" cx="38.5" cy="271.5" r="15.5"></circle>
                        <circle id="椭圆形备份-26" fill="#4EACFF" cx="38.5" cy="220.5" r="9.5"></circle>
                        <circle id="椭圆形备份-30" fill="#9E00FF" cx="38.5" cy="168.5" r="11.5"></circle>
                        <circle id="椭圆形备份-28" fill="#6BEEEB" cx="38.5" cy="116.5" r="9.5"></circle>
                        <circle id="椭圆形备份-36" fill="#DC48FD" cx="38.5" cy="63.5" r="9.5"></circle>
                        <circle id="椭圆形备份-31" fill="#475FFF" cx="38.5" cy="12.5" r="12.5"></circle>
                    </g>
                    <g id="编组-19备份" transform="translate(222.333333, 10.000000)" opacity="0.4">
                        <circle id="椭圆形" fill="#4CAF51" cx="16.5" cy="275.5" r="8.5"></circle>
                        <circle id="椭圆形备份-25" fill="#FF457A" cx="16.5" cy="224.5" r="4.5"></circle>
                        <circle id="椭圆形备份-27" fill="#71DBB0" cx="16.5" cy="172.5" r="8.5"></circle>
                        <circle id="椭圆形备份-32" fill="#FE805D" cx="16.5" cy="120.5" r="9.5"></circle>
                        <circle id="椭圆形备份-38" fill="#F98B8B" cx="16.5" cy="16.5" r="16.5"></circle>
                        <circle id="椭圆形备份-29" fill="#25A5A1" cx="16.5" cy="67.5" r="12.5"></circle>
                        <circle id="椭圆形备份-37" fill="#FFC800" cx="37.5" cy="275.5" r="8.5"></circle>
                        <circle id="椭圆形备份-26" fill="#4EACFF" cx="37.5" cy="224.5" r="9.5"></circle>
                        <circle id="椭圆形备份-30" fill="#9E00FF" cx="37.5" cy="172.5" r="11.5"></circle>
                        <circle id="椭圆形备份-28" fill="#6BEEEB" cx="37.5" cy="120.5" r="9.5"></circle>
                        <circle id="椭圆形备份-36" fill="#DC48FD" cx="37.5" cy="67.5" r="9.5"></circle>
                        <circle id="椭圆形备份-31" fill="#475FFF" cx="37.5" cy="16.5" r="8.5"></circle>
                    </g>
                    <g id="编组-19备份-2" transform="translate(333.666667, 14.000000)" opacity="0.4">
                        <circle id="椭圆形" fill="#4CAF51" cx="14.5" cy="271.5" r="14.5"></circle>
                        <circle id="椭圆形备份-25" fill="#FF457A" cx="14.5" cy="220.5" r="12.5"></circle>
                        <circle id="椭圆形备份-27" fill="#71DBB0" cx="14.5" cy="168.5" r="14.5"></circle>
                        <circle id="椭圆形备份-32" fill="#FE805D" cx="14.5" cy="116.5" r="11.5"></circle>
                        <circle id="椭圆形备份-38" fill="#F98B8B" cx="14.5" cy="12.5" r="9.5"></circle>
                        <circle id="椭圆形备份-29" fill="#25A5A1" cx="14.5" cy="63.5" r="6.5"></circle>
                        <circle id="椭圆形备份-37" fill="#FFC800" cx="38.5" cy="271.5" r="15.5"></circle>
                        <circle id="椭圆形备份-26" fill="#4EACFF" cx="38.5" cy="220.5" r="9.5"></circle>
                        <circle id="椭圆形备份-30" fill="#9E00FF" cx="38.5" cy="168.5" r="11.5"></circle>
                        <circle id="椭圆形备份-28" fill="#6BEEEB" cx="38.5" cy="116.5" r="4.5"></circle>
                        <circle id="椭圆形备份-36" fill="#DC48FD" cx="38.5" cy="63.5" r="9.5"></circle>
                        <circle id="椭圆形备份-31" fill="#475FFF" cx="38.5" cy="12.5" r="12.5"></circle>
                    </g>
                    <g id="编组-19备份-3" transform="translate(446.000000, 12.000000)" opacity="0.4">
                        <circle id="椭圆形备份-37" fill="#FFC800" cx="38.5" cy="273.5" r="8.5"></circle>
                        <circle id="椭圆形备份-26" fill="#4EACFF" cx="38.5" cy="222.5" r="17.5"></circle>
                        <circle id="椭圆形备份-30" fill="#9E00FF" cx="38.5" cy="170.5" r="16.5"></circle>
                        <circle id="椭圆形备份-28" fill="#6BEEEB" cx="38.5" cy="118.5" r="12.5"></circle>
                        <circle id="椭圆形备份-36" fill="#DC48FD" cx="38.5" cy="65.5" r="13.5"></circle>
                        <circle id="椭圆形备份-31" fill="#475FFF" cx="38.5" cy="14.5" r="8.5"></circle>
                        <circle id="椭圆形" fill="#4CAF51" cx="14.5" cy="273.5" r="8.5"></circle>
                        <circle id="椭圆形备份-25" fill="#FF457A" cx="14.5" cy="222.5" r="4.5"></circle>
                        <circle id="椭圆形备份-27" fill="#71DBB0" cx="14.5" cy="170.5" r="12.5"></circle>
                        <circle id="椭圆形备份-32" fill="#FE805D" cx="14.5" cy="118.5" r="13.5"></circle>
                        <circle id="椭圆形备份-38" fill="#F98B8B" cx="14.5" cy="14.5" r="14.5"></circle>
                        <circle id="椭圆形备份-29" fill="#25A5A1" cx="14.5" cy="65.5" r="7.5"></circle>
                    </g>
                    <g id="编组-19备份-4" transform="translate(560.333333, 14.000000)" opacity="0.4">
                        <circle id="椭圆形" fill="#4CAF51" cx="12.5" cy="271.5" r="8.5"></circle>
                        <circle id="椭圆形备份-25" fill="#FF457A" cx="12.5" cy="220.5" r="4.5"></circle>
                        <circle id="椭圆形备份-27" fill="#71DBB0" cx="12.5" cy="168.5" r="8.5"></circle>
                        <circle id="椭圆形备份-32" fill="#FE805D" cx="12.5" cy="116.5" r="9.5"></circle>
                        <circle id="椭圆形备份-38" fill="#F98B8B" cx="12.5" cy="12.5" r="9.5"></circle>
                        <circle id="椭圆形备份-29" fill="#25A5A1" cx="12.5" cy="63.5" r="12.5"></circle>
                        <circle id="椭圆形备份-37" fill="#FFC800" cx="34.5" cy="271.5" r="15.5"></circle>
                        <circle id="椭圆形备份-26" fill="#4EACFF" cx="34.5" cy="220.5" r="9.5"></circle>
                        <circle id="椭圆形备份-30" fill="#9E00FF" cx="34.5" cy="168.5" r="11.5"></circle>
                        <circle id="椭圆形备份-28" fill="#6BEEEB" cx="34.5" cy="116.5" r="9.5"></circle>
                        <circle id="椭圆形备份-36" fill="#DC48FD" cx="34.5" cy="63.5" r="9.5"></circle>
                        <circle id="椭圆形备份-31" fill="#475FFF" cx="34.5" cy="12.5" r="12.5"></circle>
                    </g>
                    <g id="编组-19备份-5" transform="translate(668.666667, 14.000000)" opacity="0.4">
                        <circle id="椭圆形备份-37" fill="#FFC800" cx="36.5" cy="271.5" r="8.5"></circle>
                        <circle id="椭圆形备份-26" fill="#4EACFF" cx="36.5" cy="220.5" r="9.5"></circle>
                        <circle id="椭圆形备份-30" fill="#9E00FF" cx="36.5" cy="168.5" r="11.5"></circle>
                        <circle id="椭圆形备份-28" fill="#6BEEEB" cx="36.5" cy="116.5" r="9.5"></circle>
                        <circle id="椭圆形备份-36" fill="#DC48FD" cx="36.5" cy="63.5" r="9.5"></circle>
                        <circle id="椭圆形备份-31" fill="#475FFF" cx="36.5" cy="12.5" r="12.5"></circle>
                        <circle id="椭圆形" fill="#4CAF51" cx="15.5" cy="271.5" r="15.5"></circle>
                        <circle id="椭圆形备份-25" fill="#FF457A" cx="15.5" cy="220.5" r="15.5"></circle>
                        <circle id="椭圆形备份-27" fill="#71DBB0" cx="15.5" cy="168.5" r="8.5"></circle>
                        <circle id="椭圆形备份-32" fill="#FE805D" cx="15.5" cy="116.5" r="9.5"></circle>
                        <circle id="椭圆形备份-38" fill="#F98B8B" cx="15.5" cy="12.5" r="9.5"></circle>
                        <circle id="椭圆形备份-29" fill="#25A5A1" cx="15.5" cy="63.5" r="12.5"></circle>
                    </g>
                    <g id="编组-19备份-7" transform="translate(778.000000, 14.000000)" opacity="0.4">
                        <circle id="椭圆形备份-37" fill="#FFC800" cx="40.5" cy="271.5" r="8.5"></circle>
                        <circle id="椭圆形备份-26" fill="#4EACFF" cx="40.5" cy="220.5" r="9.5"></circle>
                        <circle id="椭圆形备份-30" fill="#9E00FF" cx="40.5" cy="168.5" r="11.5"></circle>
                        <circle id="椭圆形备份-28" fill="#6BEEEB" cx="40.5" cy="116.5" r="14.5"></circle>
                        <circle id="椭圆形备份-36" fill="#DC48FD" cx="40.5" cy="63.5" r="9.5"></circle>
                        <circle id="椭圆形备份-31" fill="#475FFF" cx="40.5" cy="12.5" r="12.5"></circle>
                        <circle id="椭圆形" fill="#4CAF51" cx="16.5" cy="271.5" r="15.5"></circle>
                        <circle id="椭圆形备份-25" fill="#FF457A" cx="16.5" cy="220.5" r="11.5"></circle>
                        <circle id="椭圆形备份-27" fill="#71DBB0" cx="16.5" cy="168.5" r="16.5"></circle>
                        <circle id="椭圆形备份-32" fill="#FE805D" cx="16.5" cy="116.5" r="9.5"></circle>
                        <circle id="椭圆形备份-38" fill="#F98B8B" cx="16.5" cy="12.5" r="9.5"></circle>
                        <circle id="椭圆形备份-29" fill="#25A5A1" cx="16.5" cy="63.5" r="12.5"></circle>
                    </g>
                </g>
                <g id="编组-15" transform="translate(842.000000, 78.000000)">
                    <line x1="24.5" y1="0.5234375" x2="24.5" y2="334.476563" id="直线" stroke="#D8D8D8" stroke-linecap="square"></line>
                    <rect id="矩形" stroke="#979797" fill="#D8D8D8" opacity="0" x="25.5" y="122.5" width="23" height="108"></rect>
                    <rect id="矩形备份-6" stroke="#979797" fill="#D8D8D8" opacity="0" x="0.5" y="122.5" width="23" height="108"></rect>
                </g>
                <g id="编组-9" transform="translate(24.000000, 16.000000)"></g>
                <g id="编组-14" transform="translate(24.000000, 16.000000)" fill="#595959" font-family="PingFangSC-Medium, PingFang SC" font-size="16" font-weight="400" line-spacing="26">
                    <text id="统计分析查询（按区划）">
                        <tspan x="0" y="17">统计分析查询（按区划）</tspan>
                    </text>
                </g>
            </g>
        </g>
    </g>
</svg>