<?xml version="1.0" encoding="UTF-8"?>
<svg width="928px" height="442px" viewBox="0 0 928 442" version="1.1" xmlns="http://www.w3.org/2000/svg" xmlns:xlink="http://www.w3.org/1999/xlink">
    <title>统计分析查询（按区划汇总）备份</title>
    <defs>
        <linearGradient x1="50%" y1="0%" x2="50%" y2="100%" id="linearGradient-1">
            <stop stop-color="#6395FA" offset="0%"></stop>
            <stop stop-color="#FFFFFF" stop-opacity="0" offset="100%"></stop>
        </linearGradient>
    </defs>
    <g id="页面-1" stroke="none" stroke-width="1" fill="none" fill-rule="evenodd">
        <g id="统计分析查询（按区划汇总）备份">
            <rect id="矩形备份-9" fill="#FFFFFF" x="0" y="0" width="928" height="442"></rect>
            <g id="编组-13" transform="translate(32.000000, 76.507700)" fill="#8A9299">
                <text id="40K-35K-30K-25K-20K" font-family="PingFangSC-Regular, PingFang SC" font-size="12" font-weight="normal" line-spacing="38">
                    <tspan x="0.32" y="25.4922996">40K</tspan>
                    <tspan x="0.32" y="63.4922996">35K</tspan>
                    <tspan x="0.32" y="101.4923">30K</tspan>
                    <tspan x="0.32" y="139.4923">25K</tspan>
                    <tspan x="0.32" y="177.4923">20K</tspan>
                    <tspan x="2.708" y="215.4923">15K</tspan>
                    <tspan x="2.708" y="253.4923">10K</tspan>
                    <tspan x="0.32" y="291.4923">50K</tspan>
                </text>
                <g id="省本级-西安市-铜川市-宝鸡市-咸阳市" transform="translate(19.290746, 314.549721)" fill-rule="nonzero">
                    <path d="M4.836,0.096 L4.836,3.168 L5.688,3.168 L5.688,0.096 L4.836,0.096 Z M2.1,5.376 L2.1,11.112 L2.94,11.112 L2.94,10.548 L8.568,10.548 L8.568,11.088 L9.408,11.088 L9.408,4.692 L4.632,4.692 C6.396,4.116 7.884,3.408 9.084,2.556 C9.516,2.928 9.912,3.3 10.248,3.672 L10.848,3.06 C9.984,2.196 8.928,1.32 7.668,0.444 L7.092,0.996 C7.584,1.344 8.04,1.692 8.472,2.04 C6.528,3.372 3.708,4.344 0,4.944 L0.36,5.724 C0.96,5.616 1.536,5.496 2.1,5.376 Z M2.94,9.78 L2.94,8.748 L8.568,8.748 L8.568,9.78 L2.94,9.78 Z M2.94,8.052 L2.94,7.092 L8.568,7.092 L8.568,8.052 L2.94,8.052 Z M2.94,6.396 L2.94,5.424 L8.568,5.424 L8.568,6.396 L2.94,6.396 Z M2.928,0.78 C2.244,1.62 1.392,2.364 0.372,3.012 L0.876,3.66 C1.932,2.988 2.82,2.208 3.54,1.32 L2.928,0.78 Z" id="形状"></path>
                    <path d="M12.276,2.328 L12.276,3.156 L16.2,3.156 C15.312,5.28 13.872,7.02 11.856,8.364 L12.348,9.168 C14.484,7.596 15.996,5.592 16.884,3.156 L16.968,3.156 L16.968,7.836 L14.496,7.836 L14.496,8.664 L16.968,8.664 L16.968,11.124 L17.856,11.124 L17.856,8.664 L20.424,8.664 L20.424,7.836 L17.856,7.836 L17.856,3.156 L17.952,3.156 C18.768,5.328 20.232,7.284 22.344,9.012 L22.932,8.268 C20.868,6.768 19.428,5.064 18.624,3.156 L22.536,3.156 L22.536,2.328 L17.856,2.328 L17.856,0.156 L16.968,0.156 L16.968,2.328 L12.276,2.328 Z" id="路径"></path>
                    <path d="M27.588,8.592 C26.532,9.012 25.296,9.348 23.892,9.6 L24,10.44 C25.344,10.188 26.532,9.84 27.588,9.408 L27.588,8.592 Z M26.124,0.108 C25.62,1.476 25.02,2.7 24.336,3.768 C24.228,3.924 24.108,4.032 23.976,4.08 L24.192,4.872 C24.888,4.788 25.584,4.692 26.28,4.584 C25.608,5.664 25.032,6.42 24.552,6.876 C24.444,6.972 24.312,7.056 24.156,7.116 L24.384,7.896 C25.548,7.752 26.772,7.5 28.044,7.116 L28.044,6.336 C27.18,6.6 26.304,6.816 25.44,6.972 C26.184,6.144 27.108,4.752 28.236,2.808 L27.48,2.532 C27.228,2.976 26.988,3.396 26.76,3.804 C26.184,3.9 25.608,3.972 25.032,4.032 C25.68,3.144 26.316,1.944 26.94,0.432 L26.124,0.108 Z M29.4,1.428 L29.4,2.076 C29.376,5.952 28.584,8.76 27.024,10.512 L27.66,11.076 C28.872,9.708 29.664,7.752 30.024,5.22 C30.396,6.444 30.948,7.548 31.668,8.52 C30.984,9.24 30.132,9.852 29.124,10.344 L29.604,11.136 C30.636,10.632 31.524,10.008 32.244,9.24 C32.844,9.936 33.576,10.56 34.416,11.112 L34.956,10.392 C34.116,9.864 33.384,9.276 32.76,8.604 C33.624,7.464 34.176,6.06 34.428,4.404 L34.428,3.924 L32.904,3.924 C33.096,3.156 33.288,2.232 33.48,1.152 L33.48,0.612 L28.212,0.612 L28.212,1.428 L29.4,1.428 Z M32.172,7.92 C31.164,6.636 30.504,5.112 30.204,3.36 C30.228,2.952 30.24,2.52 30.24,2.076 L30.24,1.428 L32.592,1.428 C32.34,2.856 32.112,3.936 31.896,4.68 L33.564,4.68 C33.324,5.916 32.868,6.996 32.172,7.92 Z" id="形状"></path>
                    <path d="M68.028,0.636 L68.028,1.476 L71.604,1.476 L71.604,3.312 L68.748,3.312 L68.748,11.052 L69.612,11.052 L69.612,10.512 L77.172,10.512 L77.172,11.052 L78.036,11.052 L78.036,3.312 L75.108,3.312 L75.108,1.476 L78.732,1.476 L78.732,0.636 L68.028,0.636 Z M69.612,9.696 L69.612,4.128 L71.604,4.128 L71.604,4.368 C71.58,6 70.98,7.188 69.804,7.932 L70.476,8.52 C71.772,7.644 72.432,6.264 72.456,4.368 L72.456,4.128 L74.256,4.128 L74.256,6.612 C74.256,7.392 74.64,7.788 75.432,7.788 L77.172,7.788 L77.172,9.696 L69.612,9.696 Z M72.456,1.476 L74.256,1.476 L74.256,3.312 L72.456,3.312 L72.456,1.476 Z M75.108,4.128 L77.172,4.128 L77.172,6.996 L75.66,6.996 C75.288,6.996 75.108,6.804 75.108,6.432 L75.108,4.128 Z" id="形状"></path>
                    <path d="M90.36,1.296 L85.896,1.296 C85.728,0.828 85.548,0.408 85.356,0.024 L84.396,0.192 C84.6,0.528 84.78,0.888 84.948,1.296 L80.388,1.296 L80.388,3.864 L81.276,3.864 L81.276,2.136 L89.472,2.136 L89.472,3.876 L90.36,3.876 L90.36,1.296 Z M80.1,4.632 L80.1,5.472 L82.992,5.472 C82.608,6.132 82.2,6.804 81.768,7.476 C82.884,7.836 84,8.256 85.128,8.736 C83.856,9.708 82.188,10.2 80.148,10.212 L80.652,11.016 C82.884,10.944 84.66,10.32 86.004,9.12 C87.276,9.696 88.548,10.368 89.82,11.112 L90.396,10.356 C89.124,9.636 87.864,9.012 86.628,8.484 C87.264,7.74 87.828,6.744 88.32,5.472 L90.684,5.472 L90.684,4.632 L84.48,4.632 C84.768,4.104 85.068,3.54 85.38,2.94 L84.492,2.676 C84.168,3.324 83.82,3.972 83.46,4.632 L80.1,4.632 Z M84.012,5.472 L87.372,5.472 C86.964,6.528 86.436,7.416 85.788,8.124 C84.84,7.728 83.916,7.392 83.004,7.128 C83.316,6.648 83.652,6.096 84.012,5.472 Z" id="形状"></path>
                    <path d="M92.064,1.5 L92.064,2.328 L96.936,2.328 L96.936,3.9 L93.192,3.9 L93.192,9.432 L94.044,9.432 L94.044,4.728 L96.936,4.728 L96.936,11.1 L97.824,11.1 L97.824,4.728 L100.86,4.728 L100.86,8.064 C100.86,8.4 100.692,8.568 100.356,8.568 L99.216,8.52 L99.432,9.348 L100.632,9.348 C101.352,9.348 101.724,8.976 101.724,8.256 L101.724,3.9 L97.824,3.9 L97.824,2.328 L102.696,2.328 L102.696,1.5 L97.788,1.5 C97.596,0.948 97.404,0.444 97.212,0 L96.288,0.144 C96.504,0.552 96.72,0.996 96.912,1.5 L92.064,1.5 Z" id="路径"></path>
                    <path d="M141.972,4.692 L141.972,8.712 L144.744,8.712 L144.744,4.692 L141.972,4.692 Z M144,8.004 L142.716,8.004 L142.716,5.4 L144,5.4 L144,8.004 Z M145.416,11.064 C146.076,11.064 146.412,10.704 146.412,9.984 L146.412,0.6 L140.34,0.6 L140.34,11.124 L141.144,11.124 L141.144,1.392 L145.596,1.392 L145.596,9.804 C145.596,10.116 145.44,10.272 145.14,10.272 L143.892,10.236 L144.108,11.064 L145.416,11.064 Z M141.756,2.712 L141.756,3.504 L144.96,3.504 L144.96,2.712 L141.756,2.712 Z M137.232,0.144 C136.932,1.596 136.452,2.928 135.804,4.128 L136.488,4.56 C136.872,3.888 137.208,3.132 137.496,2.304 L139.824,2.304 L139.824,1.476 L137.76,1.476 C137.856,1.104 137.964,0.72 138.06,0.312 L137.232,0.144 Z M136.968,3.9 L136.968,4.68 L137.664,4.68 L137.664,6.168 L136.188,6.168 L136.188,6.972 L137.664,6.972 L137.664,9.708 C137.664,9.876 137.556,9.996 137.352,10.08 L137.7,10.824 C138.564,10.548 139.332,10.2 139.992,9.78 L139.836,9.012 C139.38,9.324 138.936,9.588 138.48,9.78 L138.48,6.972 L139.836,6.972 L139.836,6.168 L138.48,6.168 L138.48,4.68 L139.572,4.68 L139.572,3.9 L136.968,3.9 Z" id="形状"></path>
                    <path d="M153.168,0.66 L153.168,10.224 L154.044,10.224 L154.044,0.66 L153.168,0.66 Z M156.756,0.18 L156.756,11.088 L157.632,11.088 L157.632,0.18 L156.756,0.18 Z M149.604,0.228 L149.604,4.872 C149.58,7.488 148.98,9.372 147.804,10.548 L148.464,11.136 C149.784,9.816 150.456,7.728 150.48,4.872 L150.48,0.228 L149.604,0.228 Z" id="形状"></path>
                    <path d="M160.032,1.5 L160.032,2.328 L164.904,2.328 L164.904,3.9 L161.16,3.9 L161.16,9.432 L162.012,9.432 L162.012,4.728 L164.904,4.728 L164.904,11.1 L165.792,11.1 L165.792,4.728 L168.828,4.728 L168.828,8.064 C168.828,8.4 168.66,8.568 168.324,8.568 L167.184,8.52 L167.4,9.348 L168.6,9.348 C169.32,9.348 169.692,8.976 169.692,8.256 L169.692,3.9 L165.792,3.9 L165.792,2.328 L170.664,2.328 L170.664,1.5 L165.756,1.5 C165.564,0.948 165.372,0.444 165.18,0 L164.256,0.144 C164.472,0.552 164.688,0.996 164.88,1.5 L160.032,1.5 Z" id="路径"></path>
                    <path d="M208.884,4.572 L208.884,6.636 L205.716,6.636 L205.716,7.452 L208.884,7.452 L208.884,9.984 L204.336,9.984 L204.336,10.788 L214.332,10.788 L214.332,9.984 L209.76,9.984 L209.76,7.452 L212.868,7.452 L212.868,6.636 L209.76,6.636 L209.76,4.572 L213.264,4.572 L213.264,3.756 L205.44,3.756 L205.44,4.572 L208.884,4.572 Z M211.848,7.788 L211.188,8.184 C211.74,8.832 212.184,9.432 212.508,9.96 L213.18,9.504 C212.868,9 212.424,8.436 211.848,7.788 Z M214.14,1.356 L209.856,1.356 C209.7,0.912 209.544,0.516 209.376,0.168 L208.452,0.312 C208.62,0.624 208.788,0.972 208.944,1.356 L204.432,1.356 L204.432,3.756 L205.308,3.756 L205.308,2.184 L213.276,2.184 L213.276,3.684 L214.14,3.684 L214.14,1.356 Z" id="形状"></path>
                    <path d="M216.72,3.312 L216.132,3.864 C216.876,4.884 217.56,5.88 218.16,6.84 C217.608,8.172 216.852,9.324 215.868,10.308 L216.396,10.932 C217.344,9.996 218.112,8.928 218.688,7.704 C219.144,8.472 219.54,9.228 219.9,9.972 L220.524,9.36 C220.092,8.496 219.6,7.644 219.072,6.78 C219.624,5.316 219.936,3.66 220.02,1.812 L220.02,1.176 L216.216,1.176 L216.216,1.992 L219.216,1.992 C219.12,3.408 218.892,4.704 218.508,5.88 C217.956,5.028 217.356,4.176 216.72,3.312 Z M220.644,8.052 L220.644,8.844 L224.688,8.844 L224.688,8.052 L220.644,8.052 Z M223.044,2.412 L222.48,2.76 C222.936,3.276 223.296,3.744 223.56,4.164 L224.112,3.768 C223.872,3.384 223.512,2.928 223.044,2.412 Z M221.94,5.988 L221.94,1.956 L224.952,1.956 C224.88,3.336 224.796,4.14 224.688,4.356 C224.568,4.56 224.376,4.668 224.1,4.668 C223.86,4.668 223.584,4.656 223.272,4.644 L223.524,5.376 L224.1,5.376 C224.7,5.376 225.108,5.184 225.336,4.812 C225.552,4.44 225.708,3.216 225.816,1.152 L223.08,1.152 C223.224,0.84 223.344,0.504 223.428,0.144 L222.576,0.024 C222.492,0.408 222.372,0.792 222.216,1.152 L221.112,1.152 L221.112,6.78 L225.72,6.78 C225.72,8.604 225.624,9.648 225.432,9.936 C225.252,10.176 224.964,10.308 224.556,10.308 C224.196,10.308 223.74,10.296 223.2,10.284 L223.452,11.088 L224.544,11.088 C225.252,11.088 225.756,10.884 226.056,10.5 C226.368,10.08 226.536,8.58 226.548,5.988 L221.94,5.988 Z" id="形状"></path>
                    <path d="M228,1.5 L228,2.328 L232.872,2.328 L232.872,3.9 L229.128,3.9 L229.128,9.432 L229.98,9.432 L229.98,4.728 L232.872,4.728 L232.872,11.1 L233.76,11.1 L233.76,4.728 L236.796,4.728 L236.796,8.064 C236.796,8.4 236.628,8.568 236.292,8.568 L235.152,8.52 L235.368,9.348 L236.568,9.348 C237.288,9.348 237.66,8.976 237.66,8.256 L237.66,3.9 L233.76,3.9 L233.76,2.328 L238.632,2.328 L238.632,1.5 L233.724,1.5 C233.532,0.948 233.34,0.444 233.148,0 L232.224,0.144 C232.44,0.552 232.656,0.996 232.848,1.5 L228,1.5 Z" id="路径"></path>
                    <path d="M278.4,3.828 L278.4,4.584 L282.072,4.584 L282.072,3.828 L278.4,3.828 Z M278.64,5.7 L278.64,8.82 L281.844,8.82 L281.844,5.7 L278.64,5.7 Z M281.088,8.1 L279.384,8.1 L279.384,6.42 L281.088,6.42 L281.088,8.1 Z M285.276,3.708 C284.952,4.968 284.532,6.084 284.016,7.044 L283.86,6.36 C283.668,5.472 283.548,4.236 283.476,2.664 L286.404,2.664 L286.404,1.836 L285.66,1.836 C285.468,1.26 285.264,0.756 285.06,0.3 L284.256,0.432 C284.496,0.864 284.712,1.332 284.904,1.836 L283.44,1.836 C283.416,1.308 283.416,0.756 283.416,0.156 L282.564,0.156 C282.564,0.732 282.564,1.284 282.588,1.836 L276.888,1.836 L276.888,5.244 C276.852,7.5 276.456,9.264 275.7,10.536 L276.36,11.124 C277.248,9.648 277.716,7.692 277.764,5.244 L277.764,2.664 L282.624,2.664 C282.696,4.236 282.84,5.544 283.068,6.576 C283.176,7.08 283.296,7.548 283.44,7.98 C282.684,9.072 281.748,9.9 280.644,10.452 L281.112,11.148 C282.12,10.644 283.02,9.9 283.788,8.904 C283.932,9.264 284.112,9.576 284.304,9.864 C284.784,10.584 285.252,10.944 285.684,10.944 C286.188,10.944 286.584,10.14 286.848,8.532 L286.104,8.112 C285.936,9.36 285.756,9.996 285.552,10.008 C285.36,10.008 285.096,9.72 284.772,9.144 C284.616,8.868 284.472,8.532 284.328,8.124 C285.024,7.02 285.6,5.652 286.032,4.032 L285.276,3.708 Z" id="形状"></path>
                    <path d="M288.324,0.612 L288.324,11.16 L289.164,11.16 L289.164,1.416 L291.324,1.416 C291,2.424 290.544,3.564 289.968,4.824 C290.82,5.82 291.252,6.72 291.252,7.524 C291.252,7.788 291.168,7.968 291.024,8.076 C290.868,8.184 290.556,8.256 290.088,8.28 C289.968,8.28 289.812,8.256 289.632,8.232 L289.908,9.096 C290.772,9.084 291.384,8.94 291.744,8.652 C291.984,8.412 292.116,8.04 292.116,7.524 C292.044,6.684 291.624,5.736 290.832,4.692 C291.36,3.516 291.816,2.376 292.2,1.284 L292.2,0.612 L288.324,0.612 Z M298.284,0.792 L292.896,0.792 L292.896,11.064 L293.736,11.064 L293.736,10.152 L297.444,10.152 L297.444,11.088 L298.284,11.088 L298.284,0.792 Z M293.736,9.324 L293.736,5.844 L297.444,5.844 L297.444,9.324 L293.736,9.324 Z M293.736,5.028 L293.736,1.632 L297.444,1.632 L297.444,5.028 L293.736,5.028 Z" id="形状"></path>
                    <path d="M299.964,1.5 L299.964,2.328 L304.836,2.328 L304.836,3.9 L301.092,3.9 L301.092,9.432 L301.944,9.432 L301.944,4.728 L304.836,4.728 L304.836,11.1 L305.724,11.1 L305.724,4.728 L308.76,4.728 L308.76,8.064 C308.76,8.4 308.592,8.568 308.256,8.568 L307.116,8.52 L307.332,9.348 L308.532,9.348 C309.252,9.348 309.624,8.976 309.624,8.256 L309.624,3.9 L305.724,3.9 L305.724,2.328 L310.596,2.328 L310.596,1.5 L305.688,1.5 C305.496,0.948 305.304,0.444 305.112,0 L304.188,0.144 C304.404,0.552 304.62,0.996 304.812,1.5 L299.964,1.5 Z" id="路径"></path>
                    <path d="M344.784,0.324 L344.16,0.924 C345.012,1.524 345.684,2.1 346.164,2.64 L346.776,2.028 C346.236,1.452 345.576,0.888 344.784,0.324 Z M344.46,3.192 L343.848,3.792 C344.748,4.404 345.456,4.98 345.96,5.532 L346.584,4.92 C346.008,4.344 345.3,3.768 344.46,3.192 Z M345.936,6.396 C345.384,7.836 344.748,9.252 344.004,10.644 L344.796,10.992 C345.492,9.648 346.116,8.208 346.692,6.684 L345.936,6.396 Z M347.376,0.576 L347.376,4.428 L354.156,4.428 L354.156,0.576 L347.376,0.576 Z M353.34,3.732 L351.168,3.732 L351.168,2.808 L353.34,2.808 L353.34,3.732 Z M350.376,3.732 L348.192,3.732 L348.192,2.808 L350.376,2.808 L350.376,3.732 Z M348.192,2.172 L348.192,1.272 L350.376,1.272 L350.376,2.172 L348.192,2.172 Z M351.168,1.272 L353.34,1.272 L353.34,2.172 L351.168,2.172 L351.168,1.272 Z M348.672,7.524 L352.896,7.524 L352.896,8.472 L348.672,8.472 L348.672,7.524 Z M352.896,6.852 L348.672,6.852 L348.672,5.904 L352.896,5.904 L352.896,6.852 Z M348.672,9.144 L352.896,9.144 L352.896,9.828 C352.896,10.152 352.728,10.32 352.392,10.32 L351.156,10.284 L351.372,11.052 L352.644,11.052 C353.364,11.052 353.724,10.704 353.724,10.008 L353.724,5.196 L347.844,5.196 L347.844,11.1 L348.672,11.1 L348.672,9.144 Z" id="形状"></path>
                    <path d="M355.908,1.248 L355.908,2.064 L360.756,2.064 C360.684,2.46 360.6,2.868 360.516,3.276 L356.568,3.276 L356.568,11.112 L357.42,11.112 L357.42,4.092 L365.1,4.092 L365.1,9.708 C365.1,10.044 364.932,10.224 364.596,10.224 L363.48,10.2 L363.708,11.04 L364.884,11.04 C365.592,11.04 365.952,10.656 365.952,9.9 L365.952,3.276 L361.404,3.276 C361.488,2.892 361.572,2.496 361.644,2.064 L366.588,2.064 L366.588,1.248 L361.776,1.248 C361.824,0.9 361.86,0.54 361.896,0.168 L361.02,0.048 L360.876,1.248 L355.908,1.248 Z M359.904,4.476 L359.136,4.764 C359.388,5.136 359.604,5.544 359.784,5.976 L358.464,5.976 L358.464,6.732 L360.828,6.732 L360.828,7.992 L358.08,7.992 L358.08,8.76 L360.828,8.76 L360.828,10.932 L361.668,10.932 L361.668,8.76 L364.428,8.76 L364.428,7.992 L361.668,7.992 L361.668,6.732 L364.068,6.732 L364.068,5.976 L362.7,5.976 C362.94,5.592 363.168,5.172 363.384,4.704 L362.592,4.416 C362.376,4.968 362.136,5.484 361.872,5.976 L360.612,5.976 C360.396,5.4 360.156,4.896 359.904,4.476 Z" id="形状"></path>
                    <path d="M367.932,1.5 L367.932,2.328 L372.804,2.328 L372.804,3.9 L369.06,3.9 L369.06,9.432 L369.912,9.432 L369.912,4.728 L372.804,4.728 L372.804,11.1 L373.692,11.1 L373.692,4.728 L376.728,4.728 L376.728,8.064 C376.728,8.4 376.56,8.568 376.224,8.568 L375.084,8.52 L375.3,9.348 L376.5,9.348 C377.22,9.348 377.592,8.976 377.592,8.256 L377.592,3.9 L373.692,3.9 L373.692,2.328 L378.564,2.328 L378.564,1.5 L373.656,1.5 C373.464,0.948 373.272,0.444 373.08,0 L372.156,0.144 C372.372,0.552 372.588,0.996 372.78,1.5 L367.932,1.5 Z" id="路径"></path>
                    <path d="M416.04,0.78 L416.04,1.572 L418.368,1.572 C417.768,2.58 417.096,3.516 416.352,4.38 L416.352,5.004 L418.608,5.004 C418.536,6.18 418.272,7.188 417.84,8.052 C417.408,7.476 417.036,6.756 416.7,5.892 L415.968,6.168 C416.352,7.224 416.82,8.1 417.372,8.796 C416.928,9.384 416.364,9.876 415.668,10.272 L416.1,11.028 C416.832,10.596 417.456,10.056 417.96,9.408 C418.248,9.672 418.584,9.9 418.944,10.068 C420.144,10.632 422.088,10.92 424.788,10.92 L426.588,10.92 L426.756,10.056 C425.94,10.104 425.16,10.128 424.392,10.128 C422.148,10.104 420.504,9.876 419.46,9.432 C419.1,9.264 418.752,9.024 418.416,8.712 C419.016,7.644 419.328,6.324 419.376,4.764 L419.376,4.272 L417.456,4.272 C418.056,3.528 418.668,2.604 419.316,1.476 L419.316,0.78 L416.04,0.78 Z M420.564,3.396 L420.564,8.592 L426.3,8.592 L426.3,7.776 L423.804,7.776 L423.804,4.872 L425.892,4.872 L425.892,4.08 L423.804,4.08 L423.804,1.608 C424.668,1.464 425.448,1.26 426.12,0.996 L425.7,0.264 C424.212,0.804 422.328,1.08 420.06,1.08 L420.324,1.86 C421.272,1.86 422.16,1.812 422.976,1.716 L422.976,7.776 L421.392,7.776 L421.392,3.396 L420.564,3.396 Z" id="形状"></path>
                    <path d="M438.192,1.296 L433.728,1.296 C433.56,0.828 433.38,0.408 433.188,0.024 L432.228,0.192 C432.432,0.528 432.612,0.888 432.78,1.296 L428.22,1.296 L428.22,3.864 L429.108,3.864 L429.108,2.136 L437.304,2.136 L437.304,3.876 L438.192,3.876 L438.192,1.296 Z M427.932,4.632 L427.932,5.472 L430.824,5.472 C430.44,6.132 430.032,6.804 429.6,7.476 C430.716,7.836 431.832,8.256 432.96,8.736 C431.688,9.708 430.02,10.2 427.98,10.212 L428.484,11.016 C430.716,10.944 432.492,10.32 433.836,9.12 C435.108,9.696 436.38,10.368 437.652,11.112 L438.228,10.356 C436.956,9.636 435.696,9.012 434.46,8.484 C435.096,7.74 435.66,6.744 436.152,5.472 L438.516,5.472 L438.516,4.632 L432.312,4.632 C432.6,4.104 432.9,3.54 433.212,2.94 L432.324,2.676 C432,3.324 431.652,3.972 431.292,4.632 L427.932,4.632 Z M431.844,5.472 L435.204,5.472 C434.796,6.528 434.268,7.416 433.62,8.124 C432.672,7.728 431.748,7.392 430.836,7.128 C431.148,6.648 431.484,6.096 431.844,5.472 Z" id="形状"></path>
                    <path d="M439.896,1.5 L439.896,2.328 L444.768,2.328 L444.768,3.9 L441.024,3.9 L441.024,9.432 L441.876,9.432 L441.876,4.728 L444.768,4.728 L444.768,11.1 L445.656,11.1 L445.656,4.728 L448.692,4.728 L448.692,8.064 C448.692,8.4 448.524,8.568 448.188,8.568 L447.048,8.52 L447.264,9.348 L448.464,9.348 C449.184,9.348 449.556,8.976 449.556,8.256 L449.556,3.9 L445.656,3.9 L445.656,2.328 L450.528,2.328 L450.528,1.5 L445.62,1.5 C445.428,0.948 445.236,0.444 445.044,0 L444.12,0.144 C444.336,0.552 444.552,0.996 444.744,1.5 L439.896,1.5 Z" id="路径"></path>
                    <path d="M484.788,0.3 L484.188,0.9 C485.076,1.572 485.784,2.22 486.3,2.82 L486.912,2.208 C486.336,1.572 485.628,0.936 484.788,0.3 Z M484.5,3.108 L483.876,3.708 C484.776,4.356 485.484,4.968 486,5.544 L486.612,4.932 C486.036,4.32 485.34,3.708 484.5,3.108 Z M486.168,6.444 C485.58,7.884 484.896,9.3 484.104,10.68 L484.968,11.052 C485.7,9.708 486.36,8.28 486.948,6.756 L486.168,6.444 Z M494.16,11.064 L494.76,10.368 C493.488,9.528 492.432,8.604 491.58,7.584 C492.744,5.976 493.536,4.02 493.956,1.716 L493.956,0.96 L487.428,0.96 L487.428,1.788 L488.388,1.788 C488.58,3.9 489.3,5.82 490.524,7.548 C489.588,8.7 488.4,9.648 486.972,10.392 L487.536,11.088 C488.904,10.344 490.08,9.396 491.064,8.244 C491.892,9.252 492.924,10.2 494.16,11.064 Z M491.04,6.876 C489.984,5.364 489.372,3.66 489.204,1.788 L493.068,1.788 C492.708,3.756 492.024,5.448 491.04,6.876 Z" id="形状"></path>
                    <path d="M500.736,0.072 L500.736,2.232 L496.44,2.232 L496.44,7.872 L497.304,7.872 L497.304,7.116 L500.736,7.116 L500.736,11.208 L501.624,11.208 L501.624,7.116 L505.068,7.116 L505.068,7.872 L505.932,7.872 L505.932,2.232 L501.624,2.232 L501.624,0.072 L500.736,0.072 Z M497.304,6.276 L497.304,3.072 L500.736,3.072 L500.736,6.276 L497.304,6.276 Z M501.624,6.276 L501.624,3.072 L505.068,3.072 L505.068,6.276 L501.624,6.276 Z" id="形状"></path>
                    <path d="M507.864,1.5 L507.864,2.328 L512.736,2.328 L512.736,3.9 L508.992,3.9 L508.992,9.432 L509.844,9.432 L509.844,4.728 L512.736,4.728 L512.736,11.1 L513.624,11.1 L513.624,4.728 L516.66,4.728 L516.66,8.064 C516.66,8.4 516.492,8.568 516.156,8.568 L515.016,8.52 L515.232,9.348 L516.432,9.348 C517.152,9.348 517.524,8.976 517.524,8.256 L517.524,3.9 L513.624,3.9 L513.624,2.328 L518.496,2.328 L518.496,1.5 L513.588,1.5 C513.396,0.948 513.204,0.444 513.012,0 L512.088,0.144 C512.304,0.552 512.52,0.996 512.712,1.5 L507.864,1.5 Z" id="路径"></path>
                    <path d="M557.916,11.076 C558.48,11.076 558.768,10.764 558.768,10.152 L558.768,4.56 L555.972,4.56 L555.972,11.124 L556.704,11.124 L556.704,8.748 L558.048,8.748 L558.048,9.996 C558.048,10.26 557.916,10.392 557.676,10.392 L557.172,10.368 L557.376,11.076 L557.916,11.076 Z M556.704,8.1 L556.704,7.044 L558.048,7.044 L558.048,8.1 L556.704,8.1 Z M556.704,6.396 L556.704,5.268 L558.048,5.268 L558.048,6.396 L556.704,6.396 Z M554.232,4.944 C554.52,5.412 554.868,6.024 555.264,6.768 L555.744,6.036 C555.24,5.292 554.736,4.632 554.232,4.032 L554.232,3.288 L555.336,3.288 C555.288,3.324 555.228,3.36 555.168,3.408 L555.624,4.092 C556.128,3.708 556.632,3.3 557.124,2.868 L557.124,3.552 L560.7,3.552 L560.7,2.88 C561.18,3.312 561.672,3.72 562.2,4.092 L562.656,3.408 C561.504,2.616 560.364,1.56 559.248,0.228 L558.612,0.228 C557.676,1.356 556.608,2.364 555.408,3.24 L555.408,2.484 L554.232,2.484 L554.232,0.12 L553.404,0.12 L553.404,2.484 L552,2.484 L552,3.288 L553.392,3.288 C553.032,4.776 552.456,6.096 551.64,7.248 L552.012,8.184 C552.576,7.26 553.044,6.24 553.404,5.112 L553.404,11.088 L554.232,11.088 L554.232,4.944 Z M560.652,2.832 L557.16,2.832 C557.76,2.28 558.348,1.668 558.924,1.008 C559.464,1.668 560.04,2.28 560.652,2.832 Z M559.572,4.8 L559.572,9.204 L560.256,9.204 L560.256,4.8 L559.572,4.8 Z M560.964,11.052 C561.564,11.052 561.864,10.728 561.864,10.104 L561.864,4.356 L561.096,4.356 L561.096,9.924 C561.096,10.224 560.964,10.38 560.712,10.38 C560.424,10.38 560.124,10.356 559.812,10.332 L559.968,11.052 L560.964,11.052 Z" id="形状"></path>
                    <path d="M568.776,2.484 L568.776,3.312 L570.768,3.312 C570.096,5.352 569.16,6.984 567.972,8.208 L568.464,9.024 C569.472,7.824 570.3,6.228 570.972,4.248 L570.972,11.076 L571.836,11.076 L571.836,4.224 C572.46,6.144 573.228,7.716 574.14,8.94 L574.704,8.172 C573.552,6.888 572.664,5.268 572.04,3.312 L574.368,3.312 L574.368,2.484 L571.836,2.484 L571.836,0.132 L570.972,0.132 L570.972,2.484 L568.776,2.484 Z M563.952,2.484 L563.952,3.312 L565.776,3.312 C565.344,4.824 564.648,6.156 563.664,7.332 L564.036,8.268 C564.78,7.236 565.368,6.084 565.812,4.8 L565.812,11.076 L566.688,11.076 L566.688,4.824 C567.096,5.304 567.576,5.964 568.14,6.792 L568.644,6.036 C567.972,5.28 567.324,4.608 566.688,4.008 L566.688,3.312 L568.32,3.312 L568.32,2.484 L566.688,2.484 L566.688,0.132 L565.812,0.132 L565.812,2.484 L563.952,2.484 Z" id="形状"></path>
                    <path d="M575.832,1.5 L575.832,2.328 L580.704,2.328 L580.704,3.9 L576.96,3.9 L576.96,9.432 L577.812,9.432 L577.812,4.728 L580.704,4.728 L580.704,11.1 L581.592,11.1 L581.592,4.728 L584.628,4.728 L584.628,8.064 C584.628,8.4 584.46,8.568 584.124,8.568 L582.984,8.52 L583.2,9.348 L584.4,9.348 C585.12,9.348 585.492,8.976 585.492,8.256 L585.492,3.9 L581.592,3.9 L581.592,2.328 L586.464,2.328 L586.464,1.5 L581.556,1.5 C581.364,0.948 581.172,0.444 580.98,0 L580.056,0.144 C580.272,0.552 580.488,0.996 580.68,1.5 L575.832,1.5 Z" id="路径"></path>
                    <path d="M630.096,1.296 L625.632,1.296 C625.464,0.828 625.284,0.408 625.092,0.024 L624.132,0.192 C624.336,0.528 624.516,0.888 624.684,1.296 L620.124,1.296 L620.124,3.864 L621.012,3.864 L621.012,2.136 L629.208,2.136 L629.208,3.876 L630.096,3.876 L630.096,1.296 Z M619.836,4.632 L619.836,5.472 L622.728,5.472 C622.344,6.132 621.936,6.804 621.504,7.476 C622.62,7.836 623.736,8.256 624.864,8.736 C623.592,9.708 621.924,10.2 619.884,10.212 L620.388,11.016 C622.62,10.944 624.396,10.32 625.74,9.12 C627.012,9.696 628.284,10.368 629.556,11.112 L630.132,10.356 C628.86,9.636 627.6,9.012 626.364,8.484 C627,7.74 627.564,6.744 628.056,5.472 L630.42,5.472 L630.42,4.632 L624.216,4.632 C624.504,4.104 624.804,3.54 625.116,2.94 L624.228,2.676 C623.904,3.324 623.556,3.972 623.196,4.632 L619.836,4.632 Z M623.748,5.472 L627.108,5.472 C626.7,6.528 626.172,7.416 625.524,8.124 C624.576,7.728 623.652,7.392 622.74,7.128 C623.052,6.648 623.388,6.096 623.748,5.472 Z" id="形状"></path>
                    <path d="M641.22,6.636 L641.22,4.992 L642.396,4.992 L642.396,4.272 L641.22,4.272 L641.22,2.616 L638.244,2.616 L638.244,1.728 L642.264,1.728 L642.264,0.96 L638.088,0.96 C637.956,0.624 637.812,0.312 637.668,0.048 L636.78,0.192 C636.924,0.42 637.068,0.672 637.212,0.96 L632.628,0.96 L632.628,4.824 C632.592,7.26 632.232,9.156 631.56,10.512 L632.208,11.088 C632.988,9.552 633.408,7.524 633.468,4.992 L637.416,4.992 L637.416,5.928 L634.38,5.928 L634.38,6.636 L637.416,6.636 L637.416,7.716 C636.3,8.532 634.98,9.216 633.468,9.792 L633.804,10.572 C635.184,9.972 636.384,9.3 637.416,8.556 L637.416,9.936 C637.416,10.2 637.284,10.344 637.032,10.344 C636.648,10.344 636.252,10.32 635.82,10.284 L635.988,11.064 L637.32,11.064 C637.932,11.064 638.244,10.752 638.244,10.14 L638.244,8.208 C639.324,9.288 640.608,10.14 642.096,10.764 L642.528,10.008 C641.592,9.66 640.752,9.24 639.996,8.748 C640.632,8.364 641.196,7.932 641.676,7.452 L641.052,6.912 C640.596,7.44 640.032,7.908 639.384,8.316 C638.976,8.004 638.604,7.668 638.244,7.296 L638.244,6.636 L641.22,6.636 Z M633.468,4.272 L633.468,1.728 L637.416,1.728 L637.416,2.616 L634.428,2.616 L634.428,3.324 L637.416,3.324 L637.416,4.272 L633.468,4.272 Z M638.244,3.324 L640.392,3.324 L640.392,4.272 L638.244,4.272 L638.244,3.324 Z M640.392,4.992 L640.392,5.928 L638.244,5.928 L638.244,4.992 L640.392,4.992 Z M634.464,7.14 L634.044,7.752 C634.608,7.968 635.16,8.268 635.688,8.64 L636.096,8.028 C635.604,7.668 635.064,7.38 634.464,7.14 Z" id="形状"></path>
                    <path d="M643.8,1.5 L643.8,2.328 L648.672,2.328 L648.672,3.9 L644.928,3.9 L644.928,9.432 L645.78,9.432 L645.78,4.728 L648.672,4.728 L648.672,11.1 L649.56,11.1 L649.56,4.728 L652.596,4.728 L652.596,8.064 C652.596,8.4 652.428,8.568 652.092,8.568 L650.952,8.52 L651.168,9.348 L652.368,9.348 C653.088,9.348 653.46,8.976 653.46,8.256 L653.46,3.9 L649.56,3.9 L649.56,2.328 L654.432,2.328 L654.432,1.5 L649.524,1.5 C649.332,0.948 649.14,0.444 648.948,0 L648.024,0.144 C648.24,0.552 648.456,0.996 648.648,1.5 L643.8,1.5 Z" id="路径"></path>
                    <path d="M686.856,6.708 L686.856,9.66 L691.308,9.66 L691.308,6.708 L686.856,6.708 Z M690.48,8.892 L687.684,8.892 L687.684,7.488 L690.48,7.488 L690.48,8.892 Z M690.252,4.368 L689.664,4.92 C690.696,5.676 691.5,6.396 692.088,7.068 L692.736,6.432 C692.064,5.748 691.236,5.064 690.252,4.368 Z M689.16,0 L688.212,0.156 C688.368,0.444 688.512,0.756 688.656,1.104 L683.772,1.104 L683.772,1.944 L686.268,1.944 C686.508,2.4 686.724,2.88 686.904,3.396 L684.372,3.396 L684.372,11.04 L685.2,11.04 L685.2,4.164 L692.952,4.164 L692.952,9.684 C692.952,10.092 692.784,10.308 692.448,10.308 L691.284,10.272 L691.5,11.064 L692.724,11.064 C693.42,11.064 693.78,10.668 693.78,9.876 L693.78,3.396 L691.116,3.396 C691.356,2.964 691.596,2.484 691.812,1.944 L694.404,1.944 L694.404,1.104 L689.58,1.104 C689.448,0.696 689.304,0.336 689.16,0 Z M687.804,3.396 C687.624,2.868 687.432,2.376 687.228,1.944 L690.864,1.944 C690.66,2.436 690.432,2.916 690.18,3.396 L687.804,3.396 Z M687.84,4.38 C687.168,5.148 686.34,5.808 685.356,6.36 L685.908,7.08 C686.916,6.468 687.768,5.748 688.452,4.92 L687.84,4.38 Z" id="形状"></path>
                    <path d="M705.108,6.636 L699.912,6.636 L699.912,11.088 L700.74,11.088 L700.74,10.56 L704.28,10.56 L704.28,11.088 L705.108,11.088 L705.108,6.636 Z M700.74,9.768 L700.74,7.416 L704.28,7.416 L704.28,9.768 L700.74,9.768 Z M701.244,0.036 C700.8,1.356 699.936,2.472 698.652,3.384 L699.168,4.056 C699.672,3.684 700.128,3.276 700.536,2.832 C700.896,3.384 701.34,3.9 701.856,4.368 C700.908,4.992 699.768,5.532 698.424,5.988 L698.952,6.696 C700.332,6.192 701.52,5.592 702.516,4.896 C703.5,5.616 704.688,6.156 706.104,6.54 L706.596,5.808 C705.276,5.472 704.148,4.992 703.188,4.368 C704.064,3.624 704.736,2.76 705.216,1.776 L705.216,1.152 L701.688,1.152 C701.832,0.852 701.964,0.528 702.084,0.192 L701.244,0.036 Z M701.028,2.232 C701.1,2.136 701.172,2.028 701.244,1.92 L704.268,1.92 C703.836,2.64 703.248,3.288 702.516,3.876 C701.928,3.396 701.436,2.856 701.028,2.232 Z M696.552,0.36 L695.94,0.96 C696.828,1.596 697.536,2.196 698.04,2.772 L698.664,2.148 C698.088,1.548 697.38,0.96 696.552,0.36 Z M696.336,3.3 L695.724,3.9 C696.564,4.512 697.212,5.088 697.68,5.64 L698.292,5.028 C697.764,4.452 697.116,3.876 696.336,3.3 Z M697.608,6.516 C697.104,7.956 696.516,9.348 695.844,10.716 L696.708,11.088 C697.32,9.768 697.884,8.34 698.388,6.828 L697.608,6.516 Z" id="形状"></path>
                    <path d="M707.772,1.5 L707.772,2.328 L712.644,2.328 L712.644,3.9 L708.9,3.9 L708.9,9.432 L709.752,9.432 L709.752,4.728 L712.644,4.728 L712.644,11.1 L713.532,11.1 L713.532,4.728 L716.568,4.728 L716.568,8.064 C716.568,8.4 716.4,8.568 716.064,8.568 L714.924,8.52 L715.14,9.348 L716.34,9.348 C717.06,9.348 717.432,8.976 717.432,8.256 L717.432,3.9 L713.532,3.9 L713.532,2.328 L718.404,2.328 L718.404,1.5 L713.496,1.5 C713.304,0.948 713.112,0.444 712.92,0 L711.996,0.144 C712.212,0.552 712.428,0.996 712.62,1.5 L707.772,1.5 Z" id="路径"></path>
                    <path d="M742.344,5.004 C742.68,5.46 743.076,6.036 743.532,6.756 L744.024,6.024 C743.46,5.292 742.896,4.632 742.344,4.032 L742.344,3.3 L743.82,3.3 L743.82,2.472 L742.344,2.472 L742.344,0.132 L741.504,0.132 L741.504,2.472 L739.752,2.472 L739.752,3.3 L741.456,3.3 C741.072,4.86 740.436,6.264 739.548,7.488 L739.92,8.436 C740.58,7.416 741.108,6.288 741.504,5.04 L741.504,11.076 L742.344,11.076 L742.344,5.004 Z M745.872,4.992 C745.368,6.228 744.504,7.236 743.28,8.004 L743.784,8.616 C745.152,7.752 746.112,6.54 746.664,4.992 L747.672,4.992 C747.432,6.264 747.06,7.272 746.544,8.028 C745.992,8.784 745.176,9.468 744.096,10.092 L744.624,10.776 C745.8,10.08 746.676,9.276 747.276,8.388 C747.804,7.56 748.2,6.432 748.476,4.992 L749.28,4.992 C749.208,7.596 749.1,9.096 748.956,9.504 C748.788,9.936 748.488,10.164 748.044,10.176 C747.612,10.176 747.168,10.152 746.712,10.128 L746.952,10.956 C747.348,10.98 747.756,10.992 748.176,10.992 C749.04,10.968 749.568,10.548 749.76,9.732 C749.952,8.916 750.084,7.08 750.144,4.236 L745.584,4.236 C746.904,3.348 748.128,2.4 749.244,1.368 L749.244,0.612 L744.228,0.612 L744.228,1.404 L748.032,1.404 C746.856,2.388 745.56,3.324 744.156,4.2 L744.156,4.992 L745.872,4.992 Z" id="形状"></path>
                    <path d="M752.388,0.408 L751.68,0.84 C752.412,1.884 752.988,2.832 753.408,3.672 L754.116,3.18 C753.708,2.388 753.132,1.464 752.388,0.408 Z M753.408,5.424 C752.916,7.128 752.328,8.796 751.656,10.428 L752.484,10.788 C753.108,9.204 753.672,7.524 754.188,5.724 L753.408,5.424 Z M755.268,1.116 L755.268,1.884 L757.968,1.884 L757.968,3.084 L754.716,3.084 L754.716,3.852 L762.072,3.852 L762.072,3.084 L758.832,3.084 L758.832,1.884 L761.556,1.884 L761.556,1.116 L758.832,1.116 L758.832,0.144 L757.968,0.144 L757.968,1.116 L755.268,1.116 Z M757.62,5.136 C756.936,6.504 755.916,7.596 754.56,8.412 L755.208,8.976 C755.664,8.688 756.096,8.364 756.504,7.98 C756.864,8.436 757.308,8.856 757.812,9.24 C756.852,9.72 755.64,10.104 754.164,10.392 L754.584,11.148 C756.18,10.788 757.5,10.32 758.556,9.732 C759.528,10.332 760.716,10.788 762.132,11.124 L762.624,10.392 C761.328,10.128 760.224,9.744 759.288,9.264 C760.128,8.664 760.704,7.956 761.016,7.14 L761.016,6.456 L757.788,6.456 C758.004,6.144 758.208,5.808 758.4,5.436 L757.62,5.136 Z M758.544,8.82 C757.932,8.412 757.428,7.956 757.032,7.44 C757.104,7.356 757.176,7.272 757.248,7.176 L760.128,7.176 C759.804,7.788 759.276,8.34 758.544,8.82 Z M756.564,3.984 C756.012,4.74 755.364,5.388 754.596,5.94 L755.292,6.432 C756.06,5.844 756.72,5.148 757.284,4.332 L756.564,3.984 Z M760.152,3.972 L759.48,4.392 C760.44,5.136 761.208,5.808 761.76,6.432 L762.48,5.928 C761.94,5.364 761.16,4.716 760.152,3.972 Z" id="形状"></path>
                    <path d="M768.432,10.98 C769.176,10.98 769.548,10.608 769.548,9.888 L769.548,4.68 L774.18,4.68 L774.18,3.828 L763.956,3.828 L763.956,4.68 L768.672,4.68 L768.672,9.672 C768.672,10.008 768.492,10.188 768.132,10.188 C767.676,10.188 767.208,10.164 766.704,10.14 L766.884,10.98 L768.432,10.98 Z M765.804,6 C765.384,7.464 764.712,8.796 763.788,9.996 L764.544,10.464 C765.456,9.264 766.152,7.836 766.656,6.18 L765.804,6 Z M772.14,5.88 L771.36,6.144 C772.128,7.368 772.836,8.772 773.484,10.368 L774.276,10.008 C773.676,8.544 772.956,7.176 772.14,5.88 Z M765.06,0.78 L765.06,1.62 L773.112,1.62 L773.112,0.78 L765.06,0.78 Z" id="形状"></path>
                    <path d="M775.788,1.188 L775.788,1.992 L778.62,1.992 L778.62,3.132 L779.496,3.132 L779.496,1.992 L782.64,1.992 L782.64,3.132 L783.516,3.132 L783.516,1.992 L786.348,1.992 L786.348,1.188 L783.516,1.188 L783.516,0.108 L782.64,0.108 L782.64,1.188 L779.496,1.188 L779.496,0.108 L778.62,0.108 L778.62,1.188 L775.788,1.188 Z M777.348,3.012 L776.748,3.576 C777.564,4.14 778.2,4.68 778.656,5.184 L779.244,4.596 C778.74,4.068 778.104,3.54 777.348,3.012 Z M776.592,5.052 L776.004,5.616 C776.808,6.168 777.444,6.696 777.9,7.2 L778.488,6.612 C777.972,6.084 777.336,5.568 776.592,5.052 Z M777.996,7.644 C777.54,8.676 776.916,9.732 776.148,10.788 L776.952,11.208 C777.684,10.176 778.272,9.096 778.728,7.992 L777.996,7.644 Z M784.464,4.32 L784.464,6.564 C784.464,6.852 784.296,7.008 783.984,7.008 C783.552,7.008 783.084,6.984 782.568,6.948 L782.772,7.764 C783.264,7.788 783.768,7.8 784.296,7.8 C784.968,7.776 785.304,7.452 785.316,6.828 L785.316,3.552 L780.12,3.552 L780.12,9.78 C780.12,10.524 780.504,10.908 781.284,10.908 L784.5,10.908 C785.124,10.908 785.544,10.8 785.772,10.584 C786.012,10.32 786.18,9.612 786.276,8.46 L785.448,8.196 C785.388,8.964 785.292,9.48 785.16,9.744 C785.052,9.972 784.752,10.092 784.272,10.092 L781.62,10.092 C781.2,10.092 780.996,9.888 780.996,9.492 L780.996,4.32 L784.464,4.32 Z" id="形状"></path>
                    <path d="M791.016,2.544 L790.392,3.144 C791.544,4.02 792.588,4.884 793.536,5.724 C792.552,6.78 791.388,7.596 790.044,8.148 L790.548,8.928 C791.928,8.328 793.14,7.464 794.196,6.336 C795.132,7.2 795.948,8.052 796.656,8.892 L797.328,8.22 C796.56,7.38 795.708,6.528 794.772,5.664 C795.492,4.752 796.116,3.684 796.656,2.46 L795.876,2.04 C795.372,3.18 794.784,4.188 794.1,5.064 C793.152,4.224 792.12,3.384 791.016,2.544 Z M788.484,0.612 L788.484,10.62 L798.36,10.62 L798.36,9.792 L789.312,9.792 L789.312,1.44 L798.012,1.44 L798.012,0.612 L788.484,0.612 Z" id="形状"></path>
                </g>
            </g>
            <g id="编组-13" transform="translate(67.000000, 109.000000)">
                <g id="编组-7">
                    <g id="横线" stroke-linecap="square">
                        <line x1="1.1264881" y1="0.5" x2="755.873512" y2="0.5" id="直线-3" stroke="#F1F1F1" stroke-dasharray="4"></line>
                        <line x1="1.1264881" y1="53.5" x2="755.873512" y2="53.5" id="直线-3备份-2" stroke="#F1F1F1" stroke-dasharray="4"></line>
                        <line x1="1.1264881" y1="106.5" x2="755.873512" y2="106.5" id="直线-3备份-4" stroke="#F1F1F1" stroke-dasharray="4"></line>
                        <line x1="1.1264881" y1="265.5" x2="755.873512" y2="265.5" id="直线-3备份-13" stroke="#D7D7D7"></line>
                        <line x1="1.1264881" y1="159.5" x2="755.873512" y2="159.5" id="直线-3备份-6" stroke="#F1F1F1" stroke-dasharray="4"></line>
                        <line x1="1.1264881" y1="212.5" x2="755.873512" y2="212.5" id="直线-3备份-8" stroke="#F1F1F1" stroke-dasharray="4"></line>
                    </g>
                    <g id="蓝色" transform="translate(0.000000, 28.000000)">
                        <polygon id="路径-3备份-3" fill="url(#linearGradient-1)" opacity="0.25" points="754.593739 237.5 0 239 0 46.9318387 69.8189311 38.7866436 137.611537 50 203.354583 33.9460705 276.440276 50 343.900277 18.1121571 415.720914 -1.73472348e-14 485.848347 38.7866436 555.719754 50 617.811347 24.4417913 684.056334 18.1121571 757 18.1121571"></polygon>
                        <polyline id="路径-3备份-2" stroke="#6395FA" stroke-width="2" points="0 46.9318387 69.8189311 38.7866436 137.611537 50 203.354583 33.9460705 276.440276 50 343.900277 18.1121571 415.720914 -1.73472348e-14 485.848347 38.7866436 555.719754 50 617.811347 24.4417913 684.056334 18.1121571 757 18.1121571"></polyline>
                    </g>
                    <polyline id="路径-2" stroke="#FF2121" stroke-width="2" points="0 145.370632 67.2660045 172 138.488384 142.5 200.164987 169.572503 272.320041 158.685316 343.900277 113 415.720914 158.685316 485.803472 145.370632 555.719754 159.934867 620.915926 142.5 683.935997 124.277603 757 124.277603"></polyline>
                    <polyline id="路径-3" stroke="#FFCE21" stroke-width="2" points="0 209.931839 69.8189311 201.786644 137.611537 213 203.354583 196.94607 276.440276 213 343.900277 181.112157 415.720914 163 485.848347 201.786644 555.719754 213 617.811347 187.441791 684.056334 181.112157 757 196.94607"></polyline>
                    <polyline id="路径-4" stroke="#FE752B" stroke-width="2" points="0 157 66.1690312 147.597342 136.10948 111.546052 205.875487 98.3506465 274.529694 105.231019 344.041388 85.3229791 416.415948 66.2971177 487.175867 28 555.568034 130.00496 620.746407 56.0495557 685.491549 75.0569948 757 75.0569948"></polyline>
                </g>
                <text id="橙色预警" font-family="PingFangSC-Regular, PingFang SC" font-size="14" font-weight="normal" fill="#FE752B">
                    <tspan x="781" y="80">橙色预警</tspan>
                </text>
                <rect id="矩形" stroke="#979797" fill="#D8D8D8" opacity="0" x="837.5" y="68.5" width="23" height="88"></rect>
                <rect id="矩形备份-7" stroke="#979797" fill="#D8D8D8" opacity="0" x="757.5" y="68.5" width="23" height="88"></rect>
                <text id="蓝色预警" font-family="PingFangSC-Regular, PingFang SC" font-size="14" font-weight="normal" fill="#6395FA">
                    <tspan x="781" y="50">蓝色预警</tspan>
                </text>
                <text id="红色预警" font-family="PingFangSC-Regular, PingFang SC" font-size="14" font-weight="normal" fill="#FF2121">
                    <tspan x="781" y="128">红色预警</tspan>
                </text>
                <text id="黄色预警" font-family="PingFangSC-Regular, PingFang SC" font-size="14" font-weight="normal" fill="#FFCE21">
                    <tspan x="781" y="201">黄色预警</tspan>
                </text>
            </g>
            <g id="编组-9" transform="translate(24.000000, 16.000000)"></g>
            <g id="编组-14" transform="translate(24.000000, 16.000000)">
                <text id="统计分析查询（按区划汇总）" font-family="PingFangSC-Medium, PingFang SC" font-size="16" font-weight="400" line-spacing="26" fill="#595959">
                    <tspan x="0" y="17">统计分析查询（按区划汇总）</tspan>
                </text>
                <g id="图例一" transform="translate(820.000000, 5.000000)">
                    <polygon id="路径" fill-opacity="0" fill="#FFFFFF" fill-rule="nonzero" points="0.137254625 1.07793221 31.191301 1.07793221 31.191301 16.9220678 12.5119216 16.9220678 0.137254625 16.9220678"></polygon>
                    <text id="红色预警" fill="#8C8C8C" fill-rule="nonzero" font-family="PingFangSC-Regular, PingFang SC" font-size="12" font-weight="normal">
                        <tspan x="11.9899404" y="13">红色预警</tspan>
                    </text>
                    <rect id="矩形" fill="#FFFFFF" x="0" y="3.34138015" width="7.68025879" height="11.3172397"></rect>
                    <rect id="矩形" fill="#FF2121" x="0.768025879" y="4.47310412" width="6.14420703" height="9.05379176"></rect>
                </g>
                <g id="图例一" transform="translate(668.000000, 5.000000)">
                    <polygon id="路径" fill-opacity="0" fill="#FFFFFF" fill-rule="nonzero" points="0.137254625 1.07793221 31.191301 1.07793221 31.191301 16.9220678 12.5119216 16.9220678 0.137254625 16.9220678"></polygon>
                    <text id="黄色预警" fill="#8C8C8C" fill-rule="nonzero" font-family="PingFangSC-Regular, PingFang SC" font-size="12" font-weight="normal">
                        <tspan x="11.9899404" y="13">黄色预警</tspan>
                    </text>
                    <rect id="矩形" fill="#FFFFFF" x="0" y="3.34138015" width="7.68025879" height="11.3172397"></rect>
                    <rect id="矩形" fill="#FFCE21" x="0.768025879" y="4.47310412" width="6.14420703" height="9.05379176"></rect>
                </g>
                <g id="图例一" transform="translate(744.000000, 5.000000)">
                    <polygon id="路径" fill-opacity="0" fill="#FFFFFF" fill-rule="nonzero" points="0.137254625 1.07793221 31.191301 1.07793221 31.191301 16.9220678 12.5119216 16.9220678 0.137254625 16.9220678"></polygon>
                    <text id="橙色预警" fill="#8C8C8C" fill-rule="nonzero" font-family="PingFangSC-Regular, PingFang SC" font-size="12" font-weight="normal">
                        <tspan x="11.9899404" y="13">橙色预警</tspan>
                    </text>
                    <rect id="矩形" fill="#FFFFFF" x="0" y="3.34138015" width="7.68025879" height="11.3172397"></rect>
                    <rect id="矩形" fill="#FE752B" x="0.768025879" y="4.47310412" width="6.14420703" height="9.05379176"></rect>
                </g>
                <g id="图例一" transform="translate(592.000000, 5.000000)">
                    <polygon id="路径" fill-opacity="0" fill="#FFFFFF" fill-rule="nonzero" points="0.137254625 1.07793221 31.191301 1.07793221 31.191301 16.9220678 12.5119216 16.9220678 0.137254625 16.9220678"></polygon>
                    <text id="蓝色预警" fill="#8C8C8C" fill-rule="nonzero" font-family="PingFangSC-Regular, PingFang SC" font-size="12" font-weight="normal">
                        <tspan x="11.9899404" y="13">蓝色预警</tspan>
                    </text>
                    <rect id="矩形" fill="#FFFFFF" x="0" y="3.34138015" width="7.68025879" height="11.3172397"></rect>
                    <rect id="矩形" fill="#6395FA" x="0.768025879" y="4.47310412" width="6.14420703" height="9.05379176"></rect>
                </g>
            </g>
        </g>
    </g>
</svg>