<?xml version="1.0" encoding="UTF-8"?>
<svg width="39px" height="32px" viewBox="0 0 39 32" version="1.1" xmlns="http://www.w3.org/2000/svg" xmlns:xlink="http://www.w3.org/1999/xlink">
    <title>编组</title>
    <defs>
        <linearGradient x1="0%" y1="0%" x2="0%" y2="100%" id="linearGradient-1">
            <stop stop-color="#FFFFFF" offset="0%"></stop>
            <stop stop-color="#FFFFFF" stop-opacity="0.500600934" offset="100%"></stop>
        </linearGradient>
    </defs>
    <g id="页面-1" stroke="none" stroke-width="1" fill="none" fill-rule="evenodd" opacity="0.600000024">
        <g id="三保支出监控总览2" transform="translate(-552.000000, -294.000000)" fill="url(#linearGradient-1)">
            <g id="Clipped" transform="translate(348.000000, 241.000000)">
                <g id="编组" transform="translate(-17.500000, 0.000000)">
                    <g transform="translate(222.000000, 53.000000)" id="形状">
                        <path d="M0,15.8142857 C1.645,6.81771429 9.49725,0 18.93325,0 C28.36925,0 36.21975,6.81771429 37.8665,15.8142857 C36.2215,24.8108571 28.36925,31.6285714 18.93325,31.6285714 C9.49725,31.6285714 1.64675,24.8108571 0,15.8142857 Z M27.6838625,15.8142857 C27.6838625,20.66646 23.7663125,24.6 18.9338625,24.6 C14.101325,24.6 10.1838625,20.66646 10.1838625,15.8142857 C10.1838625,10.9620236 14.101325,7.02857143 18.9338625,7.02857143 C23.7663125,7.02857143 27.6838625,10.9620236 27.6838625,15.8142857 Z M18.9338625,21.0857143 C16.034375,21.0857143 13.6838625,18.7256079 13.6838625,15.8142857 C13.6838625,12.9029636 16.034375,10.5428571 18.9338625,10.5428571 C21.83335,10.5428571 24.1838625,12.9029636 24.1838625,15.8142857 C24.1838625,18.7256079 21.83335,21.0857143 18.9338625,21.0857143 Z"></path>
                    </g>
                </g>
            </g>
        </g>
    </g>
</svg>