<?xml version="1.0" encoding="UTF-8"?>
<svg width="46px" height="49px" viewBox="0 0 46 49" version="1.1" xmlns="http://www.w3.org/2000/svg" xmlns:xlink="http://www.w3.org/1999/xlink">
    <title>编组 21</title>
    <defs>
        <rect id="path-1" x="0" y="0" width="46" height="49" rx="2"></rect>
    </defs>
    <g id="页面-1" stroke="none" stroke-width="1" fill="none" fill-rule="evenodd">
        <g id="编组-21">
            <mask id="mask-2" fill="white">
                <use xlink:href="#path-1"></use>
            </mask>
            <use id="矩形备份-5" fill-opacity="0" fill="#FFFFFF" fill-rule="nonzero" xlink:href="#path-1"></use>
            <path d="M45.0589,4 C45.0589,4 5.80388,4 5.80388,4 C4.25533,4 3,5.2554 3,6.80395 C3,6.80395 3,51.6667 3,51.6667 C3,53.2152 4.25533,54.4706 5.80388,54.4706 C5.80388,54.4706 45.0589,54.4706 45.0589,54.4706 C46.6074,54.4706 47.8628,53.2152 47.8628,51.6667 C47.8628,51.6667 47.8628,6.80395 47.8628,6.80395 C47.8628,5.2554 46.6074,4 45.0589,4 C45.0589,4 45.0589,4 45.0589,4 Z M28.2353,43.4316 C28.2353,43.4316 14.2157,43.4316 14.2157,43.4316 C14.2157,43.4316 14.2157,37.8237 14.2157,37.8237 C14.2157,37.8237 28.2353,37.8237 28.2353,37.8237 C28.2353,37.8237 28.2353,43.4316 28.2353,43.4316 C28.2353,43.4316 28.2353,43.4316 28.2353,43.4316 Z M14.2157,32.2159 C14.2157,32.2159 36.6471,32.2159 36.6471,32.2159 C36.6471,32.2159 36.6471,26.608 36.6471,26.608 C36.6471,26.608 14.2157,26.608 14.2157,26.608 C14.2157,26.608 14.2157,32.2159 14.2157,32.2159 C14.2157,32.2159 14.2157,32.2159 14.2157,32.2159 C14.2157,32.2159 14.2157,32.2159 14.2157,32.2159 Z M36.6471,21.0002 C36.6471,21.0002 14.2157,21.0002 14.2157,21.0002 C14.2157,21.0002 14.2157,15.3924 14.2157,15.3924 C14.2157,15.3924 36.6471,15.3924 36.6471,15.3924 C36.6471,15.3924 36.6471,21.0002 36.6471,21.0002 C36.6471,21.0002 36.6471,21.0002 36.6471,21.0002 Z" id="形状" fill="#F7F9FB" mask="url(#mask-2)"></path>
        </g>
    </g>
</svg>