<?xml version="1.0" encoding="UTF-8"?>
<svg width="36px" height="32px" viewBox="0 0 36 32" version="1.1" xmlns="http://www.w3.org/2000/svg" xmlns:xlink="http://www.w3.org/1999/xlink">
    <title>编组</title>
    <defs>
        <linearGradient x1="0%" y1="0%" x2="0%" y2="100%" id="linearGradient-1">
            <stop stop-color="#FFFFFF" offset="0%"></stop>
            <stop stop-color="#FFFFFF" stop-opacity="0.500600934" offset="100%"></stop>
        </linearGradient>
    </defs>
    <g id="页面-1" stroke="none" stroke-width="1" fill="none" fill-rule="evenodd" opacity="0.600000024">
        <g id="三保支出监控总览2" transform="translate(-254.000000, -294.000000)" fill="url(#linearGradient-1)">
            <g id="Clipped" transform="translate(48.000000, 241.000000)">
                <g id="编组" transform="translate(-7.875000, 0.000000)">
                    <g transform="translate(214.000000, 53.000000)" id="形状">
                        <path d="M35,7.02857143 C35,7.02857143 0,7.02857143 0,7.02857143 C0,7.02857143 0,1.75714286 0,1.75714286 C0,0.786699214 0.78350125,0 1.75,0 C1.75,0 33.25,0 33.25,0 C34.216525,0 35,0.786699214 35,1.75714286 C35,1.75714286 35,7.02857143 35,7.02857143 C35,7.02857143 35,7.02857143 35,7.02857143 Z M35,10.5428571 C35,10.5428571 35,29.8714286 35,29.8714286 C35,30.8418986 34.216525,31.6285714 33.25,31.6285714 C33.25,31.6285714 1.75,31.6285714 1.75,31.6285714 C0.78350125,31.6285714 0,30.8418986 0,29.8714286 C0,29.8714286 0,10.5428571 0,10.5428571 C0,10.5428571 35,10.5428571 35,10.5428571 C35,10.5428571 35,10.5428571 35,10.5428571 Z M15.75,14.9357143 C15.75,14.9357143 15.75,19.3285714 15.75,19.3285714 C15.75,19.3285714 26.25,19.3285714 26.25,19.3285714 C26.25,19.3285714 26.25,22.8428571 26.25,22.8428571 C26.25,22.8428571 7.875,22.8428571 7.875,22.8428571 C7.875,22.8428571 15.75,14.9357143 15.75,14.9357143 C15.75,14.9357143 15.75,14.9357143 15.75,14.9357143 Z"></path>
                    </g>
                </g>
            </g>
        </g>
    </g>
</svg>