<?xml version="1.0" encoding="UTF-8"?>
<svg width="57px" height="48px" viewBox="0 0 57 48" version="1.1" xmlns="http://www.w3.org/2000/svg" xmlns:xlink="http://www.w3.org/1999/xlink">
    <title>编组 22</title>
    <defs>
        <rect id="path-1" x="0" y="0" width="57" height="48" rx="2"></rect>
    </defs>
    <g id="页面-1" stroke="none" stroke-width="1" fill="none" fill-rule="evenodd">
        <g id="编组-22">
            <mask id="mask-2" fill="white">
                <use xlink:href="#path-1"></use>
            </mask>
            <use id="矩形备份-10" fill-opacity="0" fill="#FFFFFF" fill-rule="nonzero" xlink:href="#path-1"></use>
            <path d="M52.1707,0.499123102 C52.1707,0.499123102 59.8321,13.8458001 59.8321,13.8458001 C60.2134,14.4698001 59.9014,15.1978001 59.1734,15.1978001 C59.1734,15.1978001 56.3307,15.1978001 56.3307,15.1978001 C56.3307,15.1978001 56.3307,49.4832001 56.3307,49.4832001 C56.3307,49.8992001 56.1574,50.6272001 55.7414,50.6272001 C55.7414,50.6272001 47.2827,50.6272001 47.2827,50.6272001 C46.832,50.6272001 46.312,49.8992001 46.312,49.4832001 C46.312,49.4832001 46.312,15.1978001 46.312,15.1978001 C46.312,15.1978001 43.8507,15.1978001 43.8507,15.1978001 C43.1227,15.1978001 42.8107,14.5045001 43.192,13.8805001 C43.192,13.8805001 50.8534,0.464456102 50.8534,0.464456102 C51.2001,-0.194210898 51.7894,-0.124877898 52.1707,0.499123102 C52.1707,0.499123102 52.1707,0.499123102 52.1707,0.499123102 Z M39.3787,24.4538001 C39.7947,24.4538001 40.1414,24.8005001 40.1414,25.2165001 C40.1414,25.2165001 40.1414,49.8645001 40.1414,49.8645001 C40.1414,50.2805001 39.7947,50.6272001 39.3787,50.6272001 C39.3787,50.6272001 29.36,50.6272001 29.36,50.6272001 C28.944,50.6272001 28.5974,50.2805001 28.5974,49.8645001 C28.5974,49.8645001 28.5974,25.2165001 28.5974,25.2165001 C28.5974,24.8005001 28.944,24.4538001 29.36,24.4538001 C29.36,24.4538001 39.3787,24.4538001 39.3787,24.4538001 C39.3787,24.4538001 39.3787,24.4538001 39.3787,24.4538001 Z M10.328,14.5738001 C10.328,11.5231001 12.78934,9.0618001 15.84001,9.0618001 C18.8907,9.0618001 21.352,11.5231001 21.352,14.5738001 C21.352,17.6245001 18.856,20.0858001 15.84001,20.0858001 C12.82401,20.0858001 10.328,17.6245001 10.328,14.5738001 C10.328,14.5738001 10.328,14.5738001 10.328,14.5738001 Z M13.58667,50.6618001 C15.04268,50.8005001 16.01334,49.8298001 16.01334,48.3045001 C16.01334,48.3045001 16.08268,48.3045001 16.08268,48.3045001 C16.08268,49.8298001 17.2613,50.8005001 18.7173,50.6618001 C20,50.5578001 20.8667,49.3445001 20.8667,48.0618001 C20.8667,48.0618001 20.8667,35.3392001 20.8667,35.3392001 C20.8667,36.3792001 22.1147,37.2112001 23.1894,37.2112001 C24.368,37.2112001 25.512,36.2405001 25.512,35.2352001 C25.512,35.2352001 25.512,26.1872001 25.512,26.1872001 C25.512,23.8298001 23.3627,22.1311001 21.0053,22.1311001 C21.0053,22.1311001 19.1333,22.1311001 19.1333,22.1311001 C19.1333,22.1311001 16.04801,27.5392001 16.04801,27.5392001 C16.04801,27.5392001 12.96267,22.1311001 12.96267,22.1311001 C12.96267,22.1311001 11.09067,22.1311001 11.09067,22.1311001 C8.73334,22.1311001 7,23.8298001 7,26.1872001 C7,26.1872001 7,35.2352001 7,35.2352001 C7,36.2058001 8.144,37.2112001 9.32267,37.2112001 C10.39734,37.2112001 11.64534,36.3792001 11.64534,35.3392001 C11.64534,35.3392001 11.64534,48.0618001 11.64534,48.0618001 C11.64534,49.3445001 12.30401,50.5578001 13.58667,50.6618001 C13.58667,50.6618001 13.58667,50.6618001 13.58667,50.6618001 Z" id="形状" fill="#F7F9FB" mask="url(#mask-2)"></path>
        </g>
    </g>
</svg>