<?xml version="1.0" encoding="UTF-8"?>
<svg width="276px" height="138px" viewBox="0 0 276 138" version="1.1" xmlns="http://www.w3.org/2000/svg" xmlns:xlink="http://www.w3.org/1999/xlink">
    <title>Clipped</title>
    <defs>
        <rect id="path-1" x="0" y="0" width="276" height="138"></rect>
        <linearGradient x1="0%" y1="100%" x2="100%" y2="100%" id="linearGradient-3">
            <stop stop-color="#21ACA5" offset="0%"></stop>
            <stop stop-color="#42D9AC" offset="100%"></stop>
        </linearGradient>
        <linearGradient x1="0%" y1="0%" x2="0%" y2="100%" id="linearGradient-4">
            <stop stop-color="#FFFFFF" offset="0%"></stop>
            <stop stop-color="#FFFFFF" stop-opacity="9.99999975e-05" offset="100%"></stop>
        </linearGradient>
        <linearGradient x1="0%" y1="0%" x2="0%" y2="100%" id="linearGradient-5">
            <stop stop-color="#FFFFFF" offset="0%"></stop>
            <stop stop-color="#FFFFFF" stop-opacity="9.99999975e-05" offset="100%"></stop>
        </linearGradient>
        <linearGradient x1="100%" y1="100%" x2="100%" y2="0%" id="linearGradient-6">
            <stop stop-color="#FFFFFF" stop-opacity="9.99999975e-05" offset="0%"></stop>
            <stop stop-color="#FFFFFF" offset="100%"></stop>
        </linearGradient>
    </defs>
    <g id="页面-1" stroke="none" stroke-width="1" fill="none" fill-rule="evenodd">
        <g id="三保支出监控总览2" transform="translate(-348.000000, -403.000000)">
            <g id="Clipped" transform="translate(348.000000, 403.000000)">
                <mask id="mask-2" fill="white">
                    <use xlink:href="#path-1"></use>
                </mask>
                <g id="矩形"></g>
                <g id="编组" mask="url(#mask-2)">
                    <g transform="translate(-7.406533, 0.000000)">
                        <rect id="矩形" fill="url(#linearGradient-3)" fill-rule="nonzero" x="7" y="0" width="276" height="138"></rect>
                        <g id="编组" opacity="0.0500000007" stroke-width="1" fill="none" fill-rule="evenodd" transform="translate(0.000000, 88.815519)">
                            <path d="M0,0.359480625 C0,0.359480625 26.9896375,10.9425201 61.6412125,12.9740408 C96.292875,15.0054737 106.12175,-2.71552289 129.586625,0.359480625 C153.050625,3.43447711 162.9635,20.4245023 215.023375,9.0383044 C267.084125,-2.34783196 286.2335,26.1018308 286.2335,30.6661851 C286.2335,35.2305394 269.983875,52.7637501 269.983875,52.7637501 C269.983875,52.7637501 0,49.1127587 0,49.1127587 C0,49.1127587 0,0.359480625 0,0.359480625 C0,0.359480625 0,0.359480625 0,0.359480625 Z" id="路径" fill="url(#linearGradient-4)"></path>
                        </g>
                        <g id="编组" opacity="0.0500000007" stroke-width="1" fill="none" fill-rule="evenodd" transform="translate(3.271118, 87.341665)">
                            <path d="M0,21.8983525 C0,21.8983525 28.5826625,2.27262187 64.8064375,0.515479896 C101.030125,-1.24166384 119.949375,17.4826525 146.04275,17.4826525 C172.13525,17.4826525 173.88525,5.78690759 203.63525,0.515479896 C233.38525,-4.75594955 282.961875,32.1400354 282.961875,32.1400354 C282.961875,32.1400354 282.961875,50.5866089 282.961875,50.5866089 C282.961875,50.5866089 0,50.5866089 0,50.5866089 C0,50.5866089 0,21.8983525 0,21.8983525 C0,21.8983525 0,21.8983525 0,21.8983525 Z" id="路径" fill="url(#linearGradient-5)"></path>
                        </g>
                        <g id="编组" opacity="0.149999991" stroke-width="1" fill="none" fill-rule="evenodd" transform="translate(178.000000, 0.000000)">
                            <path d="M0,0 C0,0 0,0 0,0 L101.5,0 C103.432997,0 105,1.76527727 105,3.94285714 L105,134.057143 C105,136.234723 103.432997,138 101.5,138 L0,138 C0,138 0,138 0,138 L0,0 Z" id="路径" fill="url(#linearGradient-6)" fill-rule="nonzero"></path>
                        </g>
                        <g id="编组" opacity="0.200000003" stroke-width="1" fill="none" fill-rule="evenodd" transform="translate(122.031533, 45.685714)">
                            <ellipse id="椭圆形" fill="#FFFFFF" fill-rule="nonzero" cx="2.1875" cy="2.19642857" rx="2.1875" ry="2.19642857"></ellipse>
                        </g>
                        <g id="编组" opacity="0.200000003" stroke-width="1" fill="none" fill-rule="evenodd" transform="translate(47.656533, 45.685714)">
                            <ellipse id="椭圆形" fill="#FFFFFF" fill-rule="nonzero" cx="0.875" cy="0.878571429" rx="1" ry="1"></ellipse>
                        </g>
                        <g id="编组" opacity="0.200000003" stroke-width="1" fill="none" fill-rule="evenodd" transform="translate(77.406533, 18.450000)">
                            <ellipse id="椭圆形" fill="#FFFFFF" fill-rule="nonzero" cx="1.3125" cy="1.31785714" rx="1.3125" ry="1.31785714"></ellipse>
                        </g>
                        <g id="编组" opacity="0.200000003" stroke-width="1" fill="none" fill-rule="evenodd" transform="translate(17.906533, 5.271429)">
                            <ellipse id="椭圆形" fill="#FFFFFF" fill-rule="nonzero" cx="1.75" cy="1.75714286" rx="1.75" ry="1.75714286"></ellipse>
                        </g>
                        <g id="编组" opacity="0.200000003" stroke-width="1" fill="none" fill-rule="evenodd" transform="translate(141.281533, 14.935714)">
                            <ellipse id="椭圆形" fill="#FFFFFF" fill-rule="nonzero" cx="3.5" cy="3.51428571" rx="3.5" ry="3.51428571"></ellipse>
                        </g>
                        <g id="编组" opacity="0.200000003" stroke-width="1" fill="none" fill-rule="evenodd" transform="translate(148.281533, 84.342857)">
                            <ellipse id="椭圆形" fill="#FFFFFF" fill-rule="nonzero" cx="2.1875" cy="2.19642857" rx="2.1875" ry="2.19642857"></ellipse>
                        </g>
                        <g id="编组" opacity="0.200000003" stroke-width="1" fill="none" fill-rule="evenodd" transform="translate(112.406533, 54.471429)">
                            <ellipse id="椭圆形" fill="#FFFFFF" fill-rule="nonzero" cx="1.3125" cy="1.31785714" rx="1.3125" ry="1.31785714"></ellipse>
                        </g>
                        <g id="编组" opacity="0.200000003" stroke-width="1" fill="none" fill-rule="evenodd" transform="translate(17.906533, 84.342857)">
                            <ellipse id="椭圆形" fill="#FFFFFF" fill-rule="nonzero" cx="1.3125" cy="1.31785714" rx="1.3125" ry="1.31785714"></ellipse>
                        </g>
                    </g>
                </g>
            </g>
        </g>
    </g>
</svg>