<?xml version="1.0" encoding="UTF-8"?>
<svg width="59px" height="48px" viewBox="0 0 59 48" version="1.1" xmlns="http://www.w3.org/2000/svg" xmlns:xlink="http://www.w3.org/1999/xlink">
    <title>编组 20</title>
    <defs>
        <rect id="path-1" x="0" y="0" width="59" height="48" rx="2"></rect>
    </defs>
    <g id="页面-1" stroke="none" stroke-width="1" fill="none" fill-rule="evenodd">
        <g id="编组-20">
            <mask id="mask-2" fill="white">
                <use xlink:href="#path-1"></use>
            </mask>
            <use id="矩形备份-4" fill-opacity="0" fill="#FFFFFF" fill-rule="nonzero" xlink:href="#path-1"></use>
            <path d="M33.4629987,21.9694003 C33.4629987,21.9694003 27.6657987,21.9694003 27.6657987,21.9694003 C27.6657987,21.9694003 27.6658987,21.9694003 27.6658987,21.9694003 C26.0402987,21.9694003 25.2305987,22.4343003 25.2305987,23.4780003 C25.2305987,24.5217003 26.0433987,25.3345003 27.6658987,25.3345003 C27.6658987,25.3345003 33.4661987,25.3345003 33.4661987,25.3345003 C33.4661987,25.3345003 33.4661987,25.6824003 33.4661987,25.6824003 C33.4661987,25.9575003 33.4583987,26.2479003 33.4505987,26.5389003 C33.4155987,27.8440003 33.3802987,29.1613003 34.0448987,29.1613003 C34.0448987,29.1613003 35.7843987,29.1613003 35.7843987,29.1613003 C37.2929987,29.1613003 38.3366987,28.0006003 38.3366987,25.6824003 C38.3366987,25.6824003 38.3366987,25.2175003 38.3366987,25.2175003 C38.3366987,25.2175003 43.7858987,25.2175003 43.7858987,25.2175003 C45.2912987,25.2175003 46.1040987,24.5217003 46.1040987,23.5950003 C46.1040987,22.6684003 45.4083987,21.8556003 43.7858987,21.8556003 C43.7858987,21.8556003 38.3366987,21.8556003 38.3366987,21.8556003 C38.3366987,21.8556003 38.3366987,19.0724003 38.3366987,19.0724003 C38.3366987,19.0724003 43.7858987,19.0724003 43.7858987,19.0724003 C45.2912987,19.0724003 46.1040987,18.3767003 46.1040987,17.3330003 C46.1040987,16.2893003 45.4083987,15.4765003 43.7858987,15.4765003 C43.7858987,15.4765003 39.8420987,15.4765003 39.8420987,15.4765003 C39.8420987,15.4765003 42.1602987,12.1145703 43.3209987,10.3751103 C44.2507987,7.7058293 39.9590987,5.8525103 38.9153987,7.8228473 C37.7546987,9.9102103 36.0152987,13.9679003 36.0152987,13.9679003 C36.0152987,13.9679003 33.5799987,10.1410803 32.4192987,8.2877603 C31.2617987,6.6653143 26.6221987,7.5919723 27.6657987,9.6793303 C28.7094987,11.3017703 31.8404987,15.4764803 31.8404987,15.4764803 C31.8404987,15.4764803 27.6657987,15.4764803 27.6657987,15.4764803 C26.0433987,15.4764803 25.2305987,16.0552403 25.2305987,17.0989003 C25.2305987,18.2596003 26.0433987,19.1863003 27.6657987,19.1863003 C27.6657987,19.1863003 33.4629987,19.1863003 33.4629987,19.1863003 C33.4629987,19.1863003 33.4629987,21.9694003 33.4629987,21.9694003 C33.4629987,21.9694003 33.4629987,21.9694003 33.4629987,21.9694003 Z M53.7356987,30.3947003 C58.9539987,33.5258003 60.7693987,35.2652003 60.7693987,35.2652003 C60.7693987,35.2652003 60.6523987,35.2652003 60.6523987,35.2652003 C60.6523987,35.2652003 60.6523987,46.9765003 60.6523987,46.9765003 C60.6523987,46.9765003 41.6764987,49.8767003 28.6873987,46.9765003 C15.6983887,44.0795003 2.9402187,21.3463003 6.6531777,19.4930003 C9.1162087,18.2636003 10.5563087,19.6353003 14.1243987,23.0338003 C15.9351387,24.7586003 18.2938987,27.0053003 21.6124987,29.6989003 C31.4704987,37.7005003 46.0883987,35.0027003 46.0883987,35.0027003 C46.0883987,35.0027003 43.8776987,33.4087003 43.2988987,29.0032003 C42.7200987,24.7114003 48.5172987,27.2637003 53.7356987,30.3947003 C53.7356987,30.3947003 53.7356987,30.3947003 53.7356987,30.3947003 Z" id="形状" fill="#F7F9FB" mask="url(#mask-2)"></path>
        </g>
    </g>
</svg>