<?xml version="1.0" encoding="UTF-8"?>
<svg width="499px" height="82px" viewBox="0 0 499 82" version="1.1" xmlns="http://www.w3.org/2000/svg" xmlns:xlink="http://www.w3.org/1999/xlink">
    <title>编组 58</title>
    <defs>
        <linearGradient x1="1.5445765%" y1="50%" x2="98.1901608%" y2="49.8693162%" id="linearGradient-1">
            <stop stop-color="#FFFFFF" offset="0%"></stop>
            <stop stop-color="#6395FA" offset="53.8786858%"></stop>
            <stop stop-color="#FFFFFF" offset="100%"></stop>
        </linearGradient>
        <linearGradient x1="5.10248425%" y1="50%" x2="96.1651464%" y2="50%" id="linearGradient-2">
            <stop stop-color="#FFFFFF" offset="0%"></stop>
            <stop stop-color="#6395FA" offset="54.9197597%"></stop>
            <stop stop-color="#FFFFFF" offset="100%"></stop>
        </linearGradient>
    </defs>
    <g id="页面-1" stroke="none" stroke-width="1" fill="none" fill-rule="evenodd">
        <g id="编组-58">
            <g id="编组-56" transform="translate(0.000000, 5.000000)">
                <path d="M19.2961277,0 C23.4735856,0.826962418 27.8536681,1.63066378 32.4256415,2.40953329 L35.8904334,2.98900491 C37.0572454,3.18059377 38.2358829,3.37060609 39.4261781,3.55901733 L43.0318692,4.11942328 L46.7065006,4.6700755 C47.3246282,4.76102988 47.9455865,4.85157172 48.5693544,4.94169795 L52.3455092,5.47744346 L56.1880886,6.0030671 L60.0960862,6.51842159 L64.0684956,7.02335968 C64.7358756,7.10663981 65.4058975,7.18947979 66.0785404,7.27187655 L70.1456809,7.76091391 C70.8287236,7.84152552 71.5143453,7.92168777 72.2025251,8.00139759 L76.3621326,8.47420289 C77.0604607,8.55209075 77.7613049,8.62952004 78.4646442,8.7064877 L82.7144545,9.16272961 L87.023142,9.60774517 C87.7461071,9.68097072 88.4714835,9.75372237 89.1992503,9.82599705 L93.594367,10.253897 L98.0458453,10.6702024 L102.552679,11.0747661 L107.113862,11.4674407 L111.728387,11.8480791 L116.395249,12.2165339 L121.113441,12.5726579 L125.881957,12.9163039 L130.69979,13.2473245 L135.565935,13.5655726 L140.479384,13.8709007 L145.439133,14.1631618 L150.444174,14.4422085 L155.4935,14.7078936 L160.586107,14.9600697 L165.720988,15.1985897 L170.897135,15.4233063 L176.113544,15.6340722 C176.986244,15.6680291 177.860581,15.7013986 178.736531,15.7341776 L184.011445,15.9237414 L189.324103,16.0989863 L194.6735,16.2597651 C195.568072,16.2853479 196.464133,16.3103218 197.361662,16.3346837 L202.764281,16.4734873 L208.201123,16.5974566 C209.11006,16.6168737 210.02038,16.6356667 210.932064,16.6538324 L216.418354,16.7552742 L221.936352,16.8415136 L227.485051,16.9124033 L233.063445,16.9677961 C233.995596,16.9757286 234.928943,16.9830093 235.863463,16.9896351 L241.484513,17.0215064 C242.423648,17.0255003 243.363914,17.0288331 244.305293,17.0315019 L249.966734,17.0395203 L255.557098,17.0317021 L261.121466,17.008342 C262.046641,17.0031614 262.970691,16.9973391 263.893599,16.990878 L269.417155,16.9444709 C270.335406,16.9354669 271.252474,16.92583 272.168337,16.9155633 L280.378043,16.8062363 L285.813438,16.7146923 L291.217507,16.6083863 L296.589283,16.4874601 L301.927797,16.3520554 L307.232079,16.202314 L312.501161,16.0383777 L317.734075,15.8603884 L322.929851,15.6684878 L328.08752,15.4628177 C328.943903,15.4273998 329.798657,15.391414 330.651763,15.3548634 L335.750456,15.1288049 C336.596888,15.0900066 337.441632,15.0506494 338.284666,15.0107362 L343.322204,14.7646083 L348.317761,14.5052781 L353.270367,14.2328875 L358.179055,13.947578 L363.042854,13.6494916 L367.860798,13.3387701 L372.631916,13.0155552 L377.355239,12.6799887 L382.0298,12.3322124 C382.804776,12.2732401 383.57768,12.2137649 384.348492,12.1537899 L388.948092,11.7879648 L393.496508,11.4102845 L397.99277,11.0208906 L402.435909,10.619925 L406.824957,10.2075295 L411.158946,9.7838458 L415.436906,9.3490158 C416.145176,9.27562315 416.851072,9.20177198 417.554572,9.12746523 L421.746672,8.67618159 C422.440512,8.60006439 423.131916,8.52349753 423.820864,8.44648396 L427.924925,7.9790657 C429.96206,7.74269996 431.976732,7.50236703 433.968394,7.25814667 L437.920879,6.76454634 L441.811039,6.26072133 L445.637903,5.74681341 C446.270386,5.66032973 446.900191,5.57343183 447.527298,5.48612268 L451.257404,4.95735627 L454.921794,4.41886145 C456.132197,4.23775753 457.331486,4.05505584 458.519499,3.87078001 L462.04955,3.31325373 L465.510978,2.74642441 L468.902815,2.17043384 L472.224091,1.58542382 C474.41454,1.19244216 476.557302,0.793542055 478.651087,0.388912566 L498,38.0960982 C485.09261,41.3460737 469.28887,44.3191658 451.106118,46.9396554 L446.868102,47.5380901 C446.154806,47.6367745 445.43805,47.7349287 444.717863,47.8325484 L440.355804,48.4118177 C439.622011,48.507282 438.884845,48.6022033 438.144337,48.696577 L433.661414,49.2562157 C432.153892,49.4405491 430.633235,49.6226583 429.099679,49.8025088 L424.460547,50.3352495 C423.680987,50.4228987 422.898261,50.5099747 422.112398,50.5964731 L417.359819,51.1084975 C416.561527,51.1926682 415.760158,51.2762527 414.955741,51.3592466 L410.092893,51.8500895 C409.2764,51.9307041 408.456918,52.0107196 407.634476,52.0901316 L402.664538,52.5593276 C399.327881,52.8672514 395.944805,53.165382 392.517195,53.4534438 L387.342615,53.8779504 L382.102647,54.2871469 L376.798703,54.6808265 C375.909459,54.7451352 375.017609,54.8087888 374.123181,54.8717829 L368.725923,55.2417995 C367.821304,55.3021385 366.914166,55.3618095 366.004539,55.4208081 L360.517146,55.7666964 L354.971428,56.0962407 C353.113292,56.2033419 351.245671,56.3076845 349.368799,56.4092343 L343.710672,56.7054702 C341.815537,56.8013996 339.911387,56.8945016 337.998459,56.9847418 L332.233573,57.2468422 L326.417428,57.4915646 C325.443877,57.5308921 324.468249,57.5694868 323.490574,57.6073445 L317.600187,57.8256123 C316.61444,57.8605048 315.626704,57.8946516 314.637008,57.9280485 L308.67556,58.1193964 C306.680731,58.1801563 304.6783,58.2378821 302.668503,58.2925392 L296.617251,58.4472701 C295.605105,58.4715127 294.591175,58.4949796 293.575493,58.5176664 L287.460597,58.6443918 L281.305037,58.7521882 C277.188089,58.8176969 273.044975,58.8704486 268.877577,58.9101674 L262.608504,58.9599365 L256.304419,58.9899497 L249.966734,59 L246.752169,58.9974166 L240.348551,58.9768303 C239.284177,58.971695 238.221271,58.9657104 237.159865,58.9588812 L230.809659,58.9078052 C229.754371,58.8976151 228.700644,58.8865892 227.648507,58.8747321 L221.355019,58.7936503 C220.309368,58.7784861 219.265369,58.7624996 218.223052,58.7456952 L211.989589,58.6350914 C207.847735,58.5548608 203.733782,58.4616885 199.649691,58.3558612 L193.546194,58.1876649 L187.488957,58.0007011 L181.47945,57.7951851 L175.519142,57.5713317 C174.529939,57.5325066 173.542847,57.4929264 172.557896,57.4525957 L166.674142,57.2016395 L160.843259,56.9328836 C159.875933,56.8866196 158.910871,56.8396228 157.948104,56.7918979 L152.199284,56.4968456 L146.507009,56.1845312 L140.872749,55.8551698 L135.297972,55.5089763 C134.373881,55.4498867 133.45233,55.3901046 132.533349,55.3296347 L127.050553,54.9585964 L121.630913,54.5712636 L116.2759,54.1678515 L110.986982,53.748575 L105.765628,53.3136492 C104.901114,53.2398695 104.039477,53.1654466 103.180747,53.0903851 L98.0634946,52.6323885 C94.6755758,52.3219964 91.3351488,52.0015298 88.0441725,51.6712754 L83.145041,51.168589 C82.3347821,51.0835964 81.527675,50.998001 80.7237505,50.9118073 L75.938638,50.3875016 C75.1475659,50.2989327 74.3597375,50.2097744 73.5751834,50.1200313 L68.9073957,49.5745903 L64.3196612,49.0153278 C63.5617915,48.9209775 62.8073186,48.8260603 62.056273,48.7305807 L57.591373,48.1509892 C34.7377504,45.1219315 15.2366655,41.5609668 0,37.6015599 L19.2961277,0 Z" id="路径" fill="url(#linearGradient-1)" opacity="0.137997582"></path>
                <path d="M20.2961277,0 C24.4735856,0.838420264 28.8536681,1.65325718 33.4256415,2.4429182 L36.8904334,3.0304186 C38.0572454,3.22466198 39.2358829,3.41730698 40.4261781,3.60832873 L44.0318692,4.17649929 L47.7065006,4.73478099 C48.3246282,4.82699557 48.9455865,4.9187919 49.5693544,5.01016686 L53.3455092,5.55333531 L57.1880886,6.08624164 L61.0960862,6.60873654 L65.0684956,7.12067072 C65.7358756,7.20510473 66.4058975,7.28909248 67.0785404,7.37263088 L71.1456809,7.86844402 C71.8287236,7.95017253 72.5143453,8.03144545 73.2025251,8.11225968 L77.3621326,8.59161586 C78.0604607,8.67058288 78.7613049,8.74908498 79.4646442,8.82711906 L83.7144545,9.28968235 L88.023142,9.74086375 C88.7461071,9.81510386 89.4714835,9.88886351 90.1992503,9.96213959 L94.594367,10.3959682 L99.0458453,10.8180417 L103.552679,11.2282107 L108.113862,11.626326 L112.728387,12.0122383 L117.395249,12.3857982 L122.113441,12.7468564 L126.881957,13.0952637 L131.69979,13.4308707 L136.565935,13.7535282 L141.479384,14.0630868 L146.439133,14.3593972 L151.444174,14.6423102 L156.4935,14.9116764 L161.586107,15.1673466 L166.720988,15.4091714 L171.897135,15.6370015 L177.113544,15.8506876 C177.986244,15.885115 178.860581,15.9189468 179.736531,15.95218 L185.011445,16.1443702 L190.324103,16.3220432 L195.6735,16.4850497 C196.568072,16.5109869 197.464133,16.5363068 198.361662,16.5610063 L203.764281,16.701733 L209.201123,16.82742 C210.11006,16.8471062 211.02038,16.8661595 211.932064,16.8845769 L217.418354,16.9874242 L222.936352,17.0748585 L228.485051,17.1467304 L234.063445,17.2028907 C234.995596,17.2109331 235.928943,17.2183147 236.863463,17.2250323 L242.484513,17.2573452 C243.423648,17.2613944 244.363914,17.2647734 245.305293,17.2674791 L250.966734,17.2756087 L256.557098,17.2676821 L262.121466,17.2439984 C263.046641,17.238746 263.970691,17.232843 264.893599,17.2262924 L270.417155,17.1792424 C271.335406,17.1701135 272.252474,17.1603431 273.168337,17.1499341 L281.378043,17.0390924 L286.813438,16.9462801 L292.217507,16.8385012 L297.589283,16.7158994 L302.927797,16.5786186 L308.232079,16.4268026 L313.501161,16.2605949 L318.734075,16.0801395 L323.929851,15.88558 L329.08752,15.6770603 C329.943903,15.6411516 330.798657,15.6046673 331.651763,15.5676102 L336.750456,15.3384196 C337.596888,15.2990838 338.441632,15.2591813 339.284666,15.218715 L344.322204,14.969177 L349.317761,14.7062537 L354.270367,14.430089 L359.179055,14.1408265 L364.042854,13.83861 L368.860798,13.5235833 L373.631916,13.1958901 L378.355239,12.8556742 L383.0298,12.5030794 C383.804776,12.44329 384.57768,12.3829908 385.348492,12.3221848 L389.948092,11.9512911 L394.496508,11.5683778 L398.99277,11.1735888 L403.435909,10.7670677 L407.824957,10.3489582 L412.158946,9.91940431 L416.436906,9.4785496 C417.145176,9.40414007 417.851072,9.32926566 418.554572,9.25392937 L422.746672,8.79639304 C423.440512,8.71922121 424.131916,8.64159349 424.820864,8.56351287 L428.924925,8.08961837 C430.96206,7.8499777 432.976732,7.60631488 434.968394,7.35871077 L438.920879,6.85827144 L442.811039,6.34746575 L446.637903,5.82643747 C447.270386,5.73875552 447.900191,5.65065363 448.527298,5.56213477 L452.257404,5.02604213 L455.921794,4.48008628 C457.132197,4.29647311 458.331486,4.11124002 459.519499,3.92441098 L463.04955,3.35915999 L466.510978,2.78447706 L469.902815,2.20050594 L473.224091,1.6073904 C475.41454,1.20896385 477.557302,0.804536851 479.651087,0.394301082 L499,38.6239326 C498.507377,38.7496897 498.010534,38.875038 497.509502,38.9999731 L479.651087,3.71749359 C477.557302,4.12772936 475.41454,4.53215636 473.224091,4.93058291 L473.224091,4.93058291 L469.902815,5.52369845 L466.510978,6.10766956 L463.04955,6.68235249 L459.519499,7.24760349 C458.331486,7.43443252 457.132197,7.61966561 455.921794,7.80327879 L455.921794,7.80327879 L452.257404,8.34923464 L448.527298,8.88532728 C447.900191,8.97384613 447.270386,9.06194803 446.637903,9.14962997 L446.637903,9.14962997 L442.811039,9.67065826 L438.920879,10.1814639 L434.968394,10.6819033 C432.976732,10.9295074 430.96206,11.1731702 428.924925,11.4128109 L428.924925,11.4128109 L424.820864,11.8867054 C424.131916,11.964786 423.440512,12.0424137 422.746672,12.1195855 L422.746672,12.1195855 L418.554572,12.5771219 C417.851072,12.6524582 417.145176,12.7273326 416.436906,12.8017421 L416.436906,12.8017421 L412.158946,13.2425968 L407.824957,13.6721508 L403.435909,14.0902602 L398.99277,14.4967813 L394.496508,14.8915703 L389.948092,15.2744836 L385.348492,15.6453773 C384.57768,15.7061833 383.804776,15.7664825 383.0298,15.8262719 L383.0298,15.8262719 L378.355239,16.1788667 L373.631916,16.5190826 L368.860798,16.8467758 L364.042854,17.1618025 L359.179055,17.464019 L354.270367,17.7532815 L349.317761,18.0294462 L344.322204,18.2923695 L339.284666,18.5419075 C338.441632,18.5823738 337.596888,18.6222763 336.750456,18.6616121 L336.750456,18.6616121 L331.651763,18.8908027 C330.798657,18.9278598 329.943903,18.9643441 329.08752,19.0002528 L329.08752,19.0002528 L323.929851,19.2087725 L318.734075,19.403332 L313.501161,19.5837874 L308.232079,19.7499951 L302.927797,19.9018112 L297.589283,20.0390919 L292.217507,20.1616937 L286.813438,20.2694726 L281.378043,20.3622849 L273.168337,20.4731266 C272.252474,20.4835356 271.335406,20.493306 270.417155,20.5024349 L270.417155,20.5024349 L264.893599,20.5494849 C263.970691,20.5560355 263.046641,20.5619385 262.121466,20.5671909 L262.121466,20.5671909 L256.557098,20.5908746 L250.966734,20.5988012 L245.305293,20.5906716 C244.363914,20.5879659 243.423648,20.5845869 242.484513,20.5805377 L242.484513,20.5805377 L236.863463,20.5482248 C235.928943,20.5415072 234.995596,20.5341257 234.063445,20.5260832 L234.063445,20.5260832 L228.485051,20.4699229 L222.936352,20.398051 L217.418354,20.3106167 L211.932064,20.2077694 C211.02038,20.189352 210.11006,20.1702987 209.201123,20.1506125 L209.201123,20.1506125 L203.764281,20.0249255 L198.361662,19.8841988 C197.464133,19.8594993 196.568072,19.8341794 195.6735,19.8082422 L195.6735,19.8082422 L190.324103,19.6452357 L185.011445,19.4675627 L179.736531,19.2753725 C178.860581,19.2421393 177.986244,19.2083075 177.113544,19.1738801 L177.113544,19.1738801 L171.897135,18.960194 L166.720988,18.7323639 L161.586107,18.4905391 L156.4935,18.2348689 L151.444174,17.9655027 L146.439133,17.6825897 L141.479384,17.3862793 L136.565935,17.0767207 L131.69979,16.7540632 L126.881957,16.4184562 L122.113441,16.0700489 L117.395249,15.7089907 L112.728387,15.3354308 L108.113862,14.9495185 L103.552679,14.5514032 L99.0458453,14.1412342 L94.594367,13.7191607 L90.1992503,13.2853321 C89.4714835,13.212056 88.7461071,13.1382964 88.023142,13.0640563 L88.023142,13.0640563 L83.7144545,12.6128749 L79.4646442,12.1503116 C78.7613049,12.0722775 78.0604607,11.9937754 77.3621326,11.9148084 L77.3621326,11.9148084 L73.2025251,11.4354522 C72.5143453,11.354638 71.8287236,11.273365 71.1456809,11.1916365 L71.1456809,11.1916365 L67.0785404,10.6958234 C66.4058975,10.612285 65.7358756,10.5282972 65.0684956,10.4438632 L65.0684956,10.4438632 L61.0960862,9.93192905 L57.1880886,9.40943414 L53.3455092,8.87652781 L49.5693544,8.33335936 C48.9455865,8.2419844 48.3246282,8.15018808 47.7065006,8.0579735 L47.7065006,8.0579735 L44.0318692,7.4996918 L40.4261781,6.93152123 C39.2358829,6.74049949 38.0572454,6.54785448 36.8904334,6.3536111 L36.8904334,6.3536111 L33.4256415,5.7661107 C28.8536681,4.97644969 24.4735856,4.16161277 20.2961277,3.32319251 L20.2961277,3.32319251 L2.48537266,38.5091305 C1.9858456,38.3806898 1.49071122,38.2518255 1,38.1225423 L20.2961277,0 Z" id="形状结合" fill="url(#linearGradient-2)" opacity="0.377464658"></path>
                <path d="M20.2961277,38 C24.4735856,38.8384203 28.8536681,39.6532572 33.4256415,40.4429182 L36.8904334,41.0304186 C38.0572454,41.224662 39.2358829,41.417307 40.4261781,41.6083287 L44.0318692,42.1764993 L47.7065006,42.734781 C48.3246282,42.8269956 48.9455865,42.9187919 49.5693544,43.0101669 L53.3455092,43.5533353 L57.1880886,44.0862416 L61.0960862,44.6087365 L65.0684956,45.1206707 C65.7358756,45.2051047 66.4058975,45.2890925 67.0785404,45.3726309 L71.1456809,45.868444 C71.8287236,45.9501725 72.5143453,46.0314454 73.2025251,46.1122597 L77.3621326,46.5916159 C78.0604607,46.6705829 78.7613049,46.749085 79.4646442,46.8271191 L83.7144545,47.2896823 L88.023142,47.7408637 C88.7461071,47.8151039 89.4714835,47.8888635 90.1992503,47.9621396 L94.594367,48.3959682 L99.0458453,48.8180417 L103.552679,49.2282107 L108.113862,49.626326 L112.728387,50.0122383 L117.395249,50.3857982 L122.113441,50.7468564 L126.881957,51.0952637 L131.69979,51.4308707 L136.565935,51.7535282 L141.479384,52.0630868 L146.439133,52.3593972 L151.444174,52.6423102 L156.4935,52.9116764 L161.586107,53.1673466 L166.720988,53.4091714 L171.897135,53.6370015 L177.113544,53.8506876 C177.986244,53.885115 178.860581,53.9189468 179.736531,53.95218 L185.011445,54.1443702 L190.324103,54.3220432 L195.6735,54.4850497 C196.568072,54.5109869 197.464133,54.5363068 198.361662,54.5610063 L203.764281,54.701733 L209.201123,54.82742 C210.11006,54.8471062 211.02038,54.8661595 211.932064,54.8845769 L217.418354,54.9874242 L222.936352,55.0748585 L228.485051,55.1467304 L234.063445,55.2028907 C234.995596,55.2109331 235.928943,55.2183147 236.863463,55.2250323 L242.484513,55.2573452 C243.423648,55.2613944 244.363914,55.2647734 245.305293,55.2674791 L250.966734,55.2756087 L256.557098,55.2676821 L262.121466,55.2439984 C263.046641,55.238746 263.970691,55.232843 264.893599,55.2262924 L270.417155,55.1792424 C271.335406,55.1701135 272.252474,55.1603431 273.168337,55.1499341 L281.378043,55.0390924 L286.813438,54.9462801 L292.217507,54.8385012 L297.589283,54.7158994 L302.927797,54.5786186 L308.232079,54.4268026 L313.501161,54.2605949 L318.734075,54.0801395 L323.929851,53.88558 L329.08752,53.6770603 C329.943903,53.6411516 330.798657,53.6046673 331.651763,53.5676102 L336.750456,53.3384196 C337.596888,53.2990838 338.441632,53.2591813 339.284666,53.218715 L344.322204,52.969177 L349.317761,52.7062537 L354.270367,52.430089 L359.179055,52.1408265 L364.042854,51.83861 L368.860798,51.5235833 L373.631916,51.1958901 L378.355239,50.8556742 L383.0298,50.5030794 C383.804776,50.44329 384.57768,50.3829908 385.348492,50.3221848 L389.948092,49.9512911 L394.496508,49.5683778 L398.99277,49.1735888 L403.435909,48.7670677 L407.824957,48.3489582 L412.158946,47.9194043 L416.436906,47.4785496 C417.145176,47.4041401 417.851072,47.3292657 418.554572,47.2539294 L422.746672,46.796393 C423.440512,46.7192212 424.131916,46.6415935 424.820864,46.5635129 L428.924925,46.0896184 C430.96206,45.8499777 432.976732,45.6063149 434.968394,45.3587108 L438.920879,44.8582714 L442.811039,44.3474658 L446.637903,43.8264375 C447.270386,43.7387555 447.900191,43.6506536 448.527298,43.5621348 L452.257404,43.0260421 L455.921794,42.4800863 C457.132197,42.2964731 458.331486,42.11124 459.519499,41.924411 L463.04955,41.35916 L466.510978,40.7844771 L469.902815,40.2005059 L473.224091,39.6073904 C475.41454,39.2089639 477.557302,38.8045369 479.651087,38.3943011 L499,76.6239326 C498.507377,76.7496897 498.010534,76.875038 497.509502,76.9999731 L479.651087,41.7174936 C477.557302,42.1277294 475.41454,42.5321564 473.224091,42.9305829 L473.224091,42.9305829 L469.902815,43.5236984 L466.510978,44.1076696 L463.04955,44.6823525 L459.519499,45.2476035 C458.331486,45.4344325 457.132197,45.6196656 455.921794,45.8032788 L455.921794,45.8032788 L452.257404,46.3492346 L448.527298,46.8853273 C447.900191,46.9738461 447.270386,47.061948 446.637903,47.14963 L446.637903,47.14963 L442.811039,47.6706583 L438.920879,48.1814639 L434.968394,48.6819033 C432.976732,48.9295074 430.96206,49.1731702 428.924925,49.4128109 L428.924925,49.4128109 L424.820864,49.8867054 C424.131916,49.964786 423.440512,50.0424137 422.746672,50.1195855 L422.746672,50.1195855 L418.554572,50.5771219 C417.851072,50.6524582 417.145176,50.7273326 416.436906,50.8017421 L416.436906,50.8017421 L412.158946,51.2425968 L407.824957,51.6721508 L403.435909,52.0902602 L398.99277,52.4967813 L394.496508,52.8915703 L389.948092,53.2744836 L385.348492,53.6453773 C384.57768,53.7061833 383.804776,53.7664825 383.0298,53.8262719 L383.0298,53.8262719 L378.355239,54.1788667 L373.631916,54.5190826 L368.860798,54.8467758 L364.042854,55.1618025 L359.179055,55.464019 L354.270367,55.7532815 L349.317761,56.0294462 L344.322204,56.2923695 L339.284666,56.5419075 C338.441632,56.5823738 337.596888,56.6222763 336.750456,56.6616121 L336.750456,56.6616121 L331.651763,56.8908027 C330.798657,56.9278598 329.943903,56.9643441 329.08752,57.0002528 L329.08752,57.0002528 L323.929851,57.2087725 L318.734075,57.403332 L313.501161,57.5837874 L308.232079,57.7499951 L302.927797,57.9018112 L297.589283,58.0390919 L292.217507,58.1616937 L286.813438,58.2694726 L281.378043,58.3622849 L273.168337,58.4731266 C272.252474,58.4835356 271.335406,58.493306 270.417155,58.5024349 L270.417155,58.5024349 L264.893599,58.5494849 C263.970691,58.5560355 263.046641,58.5619385 262.121466,58.5671909 L262.121466,58.5671909 L256.557098,58.5908746 L250.966734,58.5988012 L245.305293,58.5906716 C244.363914,58.5879659 243.423648,58.5845869 242.484513,58.5805377 L242.484513,58.5805377 L236.863463,58.5482248 C235.928943,58.5415072 234.995596,58.5341257 234.063445,58.5260832 L234.063445,58.5260832 L228.485051,58.4699229 L222.936352,58.398051 L217.418354,58.3106167 L211.932064,58.2077694 C211.02038,58.189352 210.11006,58.1702987 209.201123,58.1506125 L209.201123,58.1506125 L203.764281,58.0249255 L198.361662,57.8841988 C197.464133,57.8594993 196.568072,57.8341794 195.6735,57.8082422 L195.6735,57.8082422 L190.324103,57.6452357 L185.011445,57.4675627 L179.736531,57.2753725 C178.860581,57.2421393 177.986244,57.2083075 177.113544,57.1738801 L177.113544,57.1738801 L171.897135,56.960194 L166.720988,56.7323639 L161.586107,56.4905391 L156.4935,56.2348689 L151.444174,55.9655027 L146.439133,55.6825897 L141.479384,55.3862793 L136.565935,55.0767207 L131.69979,54.7540632 L126.881957,54.4184562 L122.113441,54.0700489 L117.395249,53.7089907 L112.728387,53.3354308 L108.113862,52.9495185 L103.552679,52.5514032 L99.0458453,52.1412342 L94.594367,51.7191607 L90.1992503,51.2853321 C89.4714835,51.212056 88.7461071,51.1382964 88.023142,51.0640563 L88.023142,51.0640563 L83.7144545,50.6128749 L79.4646442,50.1503116 C78.7613049,50.0722775 78.0604607,49.9937754 77.3621326,49.9148084 L77.3621326,49.9148084 L73.2025251,49.4354522 C72.5143453,49.354638 71.8287236,49.273365 71.1456809,49.1916365 L71.1456809,49.1916365 L67.0785404,48.6958234 C66.4058975,48.612285 65.7358756,48.5282972 65.0684956,48.4438632 L65.0684956,48.4438632 L61.0960862,47.931929 L57.1880886,47.4094341 L53.3455092,46.8765278 L49.5693544,46.3333594 C48.9455865,46.2419844 48.3246282,46.1501881 47.7065006,46.0579735 L47.7065006,46.0579735 L44.0318692,45.4996918 L40.4261781,44.9315212 C39.2358829,44.7404995 38.0572454,44.5478545 36.8904334,44.3536111 L36.8904334,44.3536111 L33.4256415,43.7661107 C28.8536681,42.9764497 24.4735856,42.1616128 20.2961277,41.3231925 L20.2961277,41.3231925 L2.48537266,76.5091305 C1.9858456,76.3806898 1.49071122,76.2518255 1,76.1225423 L20.2961277,38 Z" id="形状结合备份-4" fill="url(#linearGradient-2)" opacity="0.108165923"></path>
            </g>
            <g id="编组-57" transform="translate(69.000000, 0.000000)" opacity="0.495605469">
                <circle id="椭圆形" fill="#6395FA" cx="2.5" cy="8.5" r="2.5"></circle>
                <circle id="椭圆形备份-37" fill="#6395FA" transform="translate(358.500000, 8.500000) scale(-1, 1) translate(-358.500000, -8.500000) " cx="358.5" cy="8.5" r="2.5"></circle>
                <circle id="椭圆形备份-29" fill="#6395FA" cx="18.2222222" cy="8" r="3"></circle>
                <circle id="椭圆形备份-38" fill="#6395FA" transform="translate(342.777778, 8.000000) scale(-1, 1) translate(-342.777778, -8.000000) " cx="342.777778" cy="8" r="3"></circle>
                <circle id="椭圆形备份-30" fill="#6395FA" cx="34.9444444" cy="8.5" r="3.5"></circle>
                <circle id="椭圆形备份-39" fill="#6395FA" transform="translate(326.055556, 8.500000) scale(-1, 1) translate(-326.055556, -8.500000) " cx="326.055556" cy="8.5" r="3.5"></circle>
                <circle id="椭圆形备份-31" fill="#6395FA" cx="52.6666667" cy="8" r="4"></circle>
                <circle id="椭圆形备份-40" fill="#6395FA" transform="translate(308.333333, 8.000000) scale(-1, 1) translate(-308.333333, -8.000000) " cx="308.333333" cy="8" r="4"></circle>
                <circle id="椭圆形备份-32" fill="#6395FA" cx="90.1111111" cy="8" r="5"></circle>
                <circle id="椭圆形备份-41" fill="#6395FA" transform="translate(289.111111, 8.000000) scale(-1, 1) translate(-289.111111, -8.000000) " cx="289.111111" cy="8" r="5"></circle>
                <circle id="椭圆形备份-33" fill="#6395FA" cx="133.055556" cy="8.5" r="6.5"></circle>
                <circle id="椭圆形备份-34" fill="#6395FA" cx="70.8888889" cy="8" r="4"></circle>
                <circle id="椭圆形备份-35" fill="#6395FA" cx="110.833333" cy="8.5" r="5.5"></circle>
                <circle id="椭圆形备份-36" fill="#6395FA" cx="268.388889" cy="8.5" r="5.5"></circle>
                <circle id="椭圆形备份-42" fill="#6395FA" cx="225.944444" cy="8.5" r="5.5"></circle>
                <circle id="椭圆形备份-46" fill="#6395FA" cx="247.166667" cy="8.5" r="5.5"></circle>
                <circle id="椭圆形备份-43" fill="#6395FA" cx="204.722222" cy="8.5" r="5.5"></circle>
                <circle id="椭圆形备份-44" fill="#FBB120" cx="181" cy="8" r="8"></circle>
                <circle id="椭圆形备份-45" fill="#6395FA" cx="156.277778" cy="8.5" r="6.5"></circle>
            </g>
        </g>
    </g>
</svg>