<?xml version="1.0" encoding="UTF-8"?>
<svg width="39px" height="9px" viewBox="0 0 39 9" version="1.1" xmlns="http://www.w3.org/2000/svg" xmlns:xlink="http://www.w3.org/1999/xlink">
    <title>直线 4</title>
    <g id="页面-1" stroke="none" stroke-width="1" fill="none" fill-rule="evenodd">
        <path d="M30,0 L39,4.5 L30,9 L30,5 L28,5 L28,4 L30,4 L30,0 Z M3,4 L3,5 L0,5 L0,4 L3,4 Z M7,4 L7,5 L4,5 L4,4 L7,4 Z M11,4 L11,5 L8,5 L8,4 L11,4 Z M15,4 L15,5 L12,5 L12,4 L15,4 Z M19,4 L19,5 L16,5 L16,4 L19,4 Z M23,4 L23,5 L20,5 L20,4 L23,4 Z M27,4 L27,5 L24,5 L24,4 L27,4 Z" id="直线-4" fill="#475C91" fill-rule="nonzero"></path>
    </g>
</svg>