<?xml version="1.0" encoding="UTF-8"?>
<svg width="928px" height="298px" viewBox="0 0 928 298" version="1.1" xmlns="http://www.w3.org/2000/svg" xmlns:xlink="http://www.w3.org/1999/xlink">
    <title>根据区划查看所有违规数据备份</title>
    <defs>
        <rect id="path-1" x="0" y="0" width="928" height="298"></rect>
    </defs>
    <g id="页面-1" stroke="none" stroke-width="1" fill="none" fill-rule="evenodd">
        <g id="根据区划查看所有违规数据备份">
            <mask id="mask-2" fill="white">
                <use xlink:href="#path-1"></use>
            </mask>
            <use id="矩形备份-9" fill="#FFFFFF" xlink:href="#path-1"></use>
            <g id="1000-800-600-400-200" mask="url(#mask-2)" fill="#8A9299" fill-rule="nonzero">
                <g transform="translate(42.116000, 74.264000)">
                    <path d="M2.232,0.168 C1.944,0.492 1.608,0.78 1.2,1.044 C0.792,1.284 0.384,1.452 0,1.56 L0,2.544 C0.804,2.304 1.476,1.92 2.016,1.368 L2.016,8.736 L3,8.736 L3,0.168 L2.232,0.168 Z" id="路径"></path>
                    <path d="M7.884,0 C6.852,0 6.084,0.444 5.568,1.356 C5.112,2.124 4.884,3.156 4.884,4.452 C4.884,5.748 5.112,6.78 5.568,7.548 C6.084,8.448 6.852,8.904 7.884,8.904 C8.904,8.904 9.672,8.448 10.2,7.548 C10.656,6.78 10.884,5.748 10.884,4.452 C10.884,3.156 10.656,2.124 10.2,1.356 C9.672,0.444 8.904,0 7.884,0 Z M7.884,0.84 C8.652,0.84 9.204,1.248 9.54,2.076 C9.78,2.652 9.912,3.444 9.912,4.452 C9.912,5.448 9.78,6.24 9.54,6.828 C9.204,7.644 8.652,8.064 7.884,8.064 C7.116,8.064 6.564,7.644 6.228,6.828 C5.988,6.24 5.868,5.448 5.868,4.452 C5.868,3.444 5.988,2.652 6.228,2.076 C6.564,1.248 7.116,0.84 7.884,0.84 Z" id="形状"></path>
                    <path d="M15.084,0 C14.052,0 13.284,0.444 12.768,1.356 C12.312,2.124 12.084,3.156 12.084,4.452 C12.084,5.748 12.312,6.78 12.768,7.548 C13.284,8.448 14.052,8.904 15.084,8.904 C16.104,8.904 16.872,8.448 17.4,7.548 C17.856,6.78 18.084,5.748 18.084,4.452 C18.084,3.156 17.856,2.124 17.4,1.356 C16.872,0.444 16.104,0 15.084,0 Z M15.084,0.84 C15.852,0.84 16.404,1.248 16.74,2.076 C16.98,2.652 17.112,3.444 17.112,4.452 C17.112,5.448 16.98,6.24 16.74,6.828 C16.404,7.644 15.852,8.064 15.084,8.064 C14.316,8.064 13.764,7.644 13.428,6.828 C13.188,6.24 13.068,5.448 13.068,4.452 C13.068,3.444 13.188,2.652 13.428,2.076 C13.764,1.248 14.316,0.84 15.084,0.84 Z" id="形状"></path>
                    <path d="M22.284,0 C21.252,0 20.484,0.444 19.968,1.356 C19.512,2.124 19.284,3.156 19.284,4.452 C19.284,5.748 19.512,6.78 19.968,7.548 C20.484,8.448 21.252,8.904 22.284,8.904 C23.304,8.904 24.072,8.448 24.6,7.548 C25.056,6.78 25.284,5.748 25.284,4.452 C25.284,3.156 25.056,2.124 24.6,1.356 C24.072,0.444 23.304,0 22.284,0 Z M22.284,0.84 C23.052,0.84 23.604,1.248 23.94,2.076 C24.18,2.652 24.312,3.444 24.312,4.452 C24.312,5.448 24.18,6.24 23.94,6.828 C23.604,7.644 23.052,8.064 22.284,8.064 C21.516,8.064 20.964,7.644 20.628,6.828 C20.388,6.24 20.268,5.448 20.268,4.452 C20.268,3.444 20.388,2.652 20.628,2.076 C20.964,1.248 21.516,0.84 22.284,0.84 Z" id="形状"></path>
                    <path d="M7.884,34 C6.984,34 6.288,34.228 5.784,34.696 C5.316,35.116 5.088,35.644 5.088,36.268 C5.088,36.724 5.196,37.108 5.412,37.42 C5.64,37.756 5.976,38.008 6.432,38.164 L6.432,38.188 C5.976,38.296 5.604,38.548 5.292,38.932 C4.956,39.34 4.788,39.82 4.788,40.372 C4.788,41.128 5.052,41.74 5.58,42.196 C6.12,42.664 6.888,42.904 7.884,42.904 C8.868,42.904 9.636,42.664 10.188,42.196 C10.716,41.74 10.98,41.128 10.98,40.372 C10.98,39.82 10.812,39.34 10.476,38.932 C10.164,38.548 9.78,38.296 9.336,38.188 L9.336,38.164 C9.78,38.008 10.116,37.756 10.356,37.42 C10.572,37.108 10.68,36.724 10.68,36.268 C10.68,35.644 10.44,35.116 9.984,34.696 C9.48,34.228 8.772,34 7.884,34 Z M7.884,34.804 C8.484,34.804 8.964,34.96 9.312,35.272 C9.6,35.536 9.756,35.884 9.756,36.304 C9.756,36.736 9.624,37.096 9.36,37.36 C9.036,37.672 8.544,37.84 7.884,37.84 C7.212,37.84 6.72,37.672 6.408,37.36 C6.144,37.096 6.012,36.736 6.012,36.304 C6.012,35.884 6.156,35.536 6.456,35.272 C6.792,34.96 7.272,34.804 7.884,34.804 Z M7.884,38.608 C8.568,38.608 9.108,38.776 9.492,39.124 C9.828,39.436 10.008,39.856 10.008,40.372 C10.008,40.876 9.828,41.284 9.492,41.596 C9.108,41.932 8.58,42.1 7.884,42.1 C7.188,42.1 6.648,41.932 6.288,41.608 C5.928,41.296 5.76,40.876 5.76,40.372 C5.76,39.856 5.928,39.436 6.288,39.124 C6.66,38.776 7.188,38.608 7.884,38.608 Z" id="形状"></path>
                    <path d="M15.084,34 C14.052,34 13.284,34.444 12.768,35.356 C12.312,36.124 12.084,37.156 12.084,38.452 C12.084,39.748 12.312,40.78 12.768,41.548 C13.284,42.448 14.052,42.904 15.084,42.904 C16.104,42.904 16.872,42.448 17.4,41.548 C17.856,40.78 18.084,39.748 18.084,38.452 C18.084,37.156 17.856,36.124 17.4,35.356 C16.872,34.444 16.104,34 15.084,34 Z M15.084,34.84 C15.852,34.84 16.404,35.248 16.74,36.076 C16.98,36.652 17.112,37.444 17.112,38.452 C17.112,39.448 16.98,40.24 16.74,40.828 C16.404,41.644 15.852,42.064 15.084,42.064 C14.316,42.064 13.764,41.644 13.428,40.828 C13.188,40.24 13.068,39.448 13.068,38.452 C13.068,37.444 13.188,36.652 13.428,36.076 C13.764,35.248 14.316,34.84 15.084,34.84 Z" id="形状"></path>
                    <path d="M22.284,34 C21.252,34 20.484,34.444 19.968,35.356 C19.512,36.124 19.284,37.156 19.284,38.452 C19.284,39.748 19.512,40.78 19.968,41.548 C20.484,42.448 21.252,42.904 22.284,42.904 C23.304,42.904 24.072,42.448 24.6,41.548 C25.056,40.78 25.284,39.748 25.284,38.452 C25.284,37.156 25.056,36.124 24.6,35.356 C24.072,34.444 23.304,34 22.284,34 Z M22.284,34.84 C23.052,34.84 23.604,35.248 23.94,36.076 C24.18,36.652 24.312,37.444 24.312,38.452 C24.312,39.448 24.18,40.24 23.94,40.828 C23.604,41.644 23.052,42.064 22.284,42.064 C21.516,42.064 20.964,41.644 20.628,40.828 C20.388,40.24 20.268,39.448 20.268,38.452 C20.268,37.444 20.388,36.652 20.628,36.076 C20.964,35.248 21.516,34.84 22.284,34.84 Z" id="形状"></path>
                    <path d="M8.004,68 C7.032,68 6.264,68.444 5.7,69.344 C5.16,70.196 4.896,71.312 4.896,72.68 C4.896,73.988 5.136,75.008 5.64,75.74 C6.168,76.508 6.948,76.904 7.992,76.904 C8.832,76.904 9.516,76.616 10.068,76.064 C10.608,75.512 10.884,74.804 10.884,73.964 C10.884,73.124 10.632,72.452 10.14,71.924 C9.636,71.396 8.976,71.132 8.16,71.132 C7.656,71.132 7.212,71.252 6.828,71.504 C6.42,71.744 6.12,72.092 5.904,72.536 L5.856,72.536 C5.844,72.38 5.844,72.272 5.844,72.224 C5.844,71.252 6.024,70.448 6.408,69.824 C6.792,69.152 7.32,68.828 7.992,68.828 C8.988,68.828 9.576,69.308 9.768,70.292 L10.74,70.292 C10.5,68.756 9.588,68 8.004,68 Z M7.968,71.948 C8.556,71.948 9.024,72.128 9.384,72.512 C9.732,72.872 9.912,73.352 9.912,73.964 C9.912,74.576 9.732,75.08 9.372,75.488 C9.012,75.872 8.544,76.076 7.968,76.076 C7.368,76.076 6.9,75.872 6.54,75.464 C6.18,75.08 6.012,74.588 6.012,73.988 C6.012,73.388 6.192,72.908 6.564,72.524 C6.936,72.14 7.404,71.948 7.968,71.948 Z" id="形状"></path>
                    <path d="M15.084,68 C14.052,68 13.284,68.444 12.768,69.356 C12.312,70.124 12.084,71.156 12.084,72.452 C12.084,73.748 12.312,74.78 12.768,75.548 C13.284,76.448 14.052,76.904 15.084,76.904 C16.104,76.904 16.872,76.448 17.4,75.548 C17.856,74.78 18.084,73.748 18.084,72.452 C18.084,71.156 17.856,70.124 17.4,69.356 C16.872,68.444 16.104,68 15.084,68 Z M15.084,68.84 C15.852,68.84 16.404,69.248 16.74,70.076 C16.98,70.652 17.112,71.444 17.112,72.452 C17.112,73.448 16.98,74.24 16.74,74.828 C16.404,75.644 15.852,76.064 15.084,76.064 C14.316,76.064 13.764,75.644 13.428,74.828 C13.188,74.24 13.068,73.448 13.068,72.452 C13.068,71.444 13.188,70.652 13.428,70.076 C13.764,69.248 14.316,68.84 15.084,68.84 Z" id="形状"></path>
                    <path d="M22.284,68 C21.252,68 20.484,68.444 19.968,69.356 C19.512,70.124 19.284,71.156 19.284,72.452 C19.284,73.748 19.512,74.78 19.968,75.548 C20.484,76.448 21.252,76.904 22.284,76.904 C23.304,76.904 24.072,76.448 24.6,75.548 C25.056,74.78 25.284,73.748 25.284,72.452 C25.284,71.156 25.056,70.124 24.6,69.356 C24.072,68.444 23.304,68 22.284,68 Z M22.284,68.84 C23.052,68.84 23.604,69.248 23.94,70.076 C24.18,70.652 24.312,71.444 24.312,72.452 C24.312,73.448 24.18,74.24 23.94,74.828 C23.604,75.644 23.052,76.064 22.284,76.064 C21.516,76.064 20.964,75.644 20.628,74.828 C20.388,74.24 20.268,73.448 20.268,72.452 C20.268,71.444 20.388,70.652 20.628,70.076 C20.964,69.248 21.516,68.84 22.284,68.84 Z" id="形状"></path>
                    <path d="M8.892,102.168 L4.572,107.856 L4.572,108.792 L8.88,108.792 L8.88,110.736 L9.816,110.736 L9.816,108.792 L11.208,108.792 L11.208,107.988 L9.816,107.988 L9.816,102.168 L8.892,102.168 Z M8.844,103.452 L8.88,103.452 L8.88,107.988 L5.4,107.988 L8.844,103.452 Z" id="形状"></path>
                    <path d="M15.084,102 C14.052,102 13.284,102.444 12.768,103.356 C12.312,104.124 12.084,105.156 12.084,106.452 C12.084,107.748 12.312,108.78 12.768,109.548 C13.284,110.448 14.052,110.904 15.084,110.904 C16.104,110.904 16.872,110.448 17.4,109.548 C17.856,108.78 18.084,107.748 18.084,106.452 C18.084,105.156 17.856,104.124 17.4,103.356 C16.872,102.444 16.104,102 15.084,102 Z M15.084,102.84 C15.852,102.84 16.404,103.248 16.74,104.076 C16.98,104.652 17.112,105.444 17.112,106.452 C17.112,107.448 16.98,108.24 16.74,108.828 C16.404,109.644 15.852,110.064 15.084,110.064 C14.316,110.064 13.764,109.644 13.428,108.828 C13.188,108.24 13.068,107.448 13.068,106.452 C13.068,105.444 13.188,104.652 13.428,104.076 C13.764,103.248 14.316,102.84 15.084,102.84 Z" id="形状"></path>
                    <path d="M22.284,102 C21.252,102 20.484,102.444 19.968,103.356 C19.512,104.124 19.284,105.156 19.284,106.452 C19.284,107.748 19.512,108.78 19.968,109.548 C20.484,110.448 21.252,110.904 22.284,110.904 C23.304,110.904 24.072,110.448 24.6,109.548 C25.056,108.78 25.284,107.748 25.284,106.452 C25.284,105.156 25.056,104.124 24.6,103.356 C24.072,102.444 23.304,102 22.284,102 Z M22.284,102.84 C23.052,102.84 23.604,103.248 23.94,104.076 C24.18,104.652 24.312,105.444 24.312,106.452 C24.312,107.448 24.18,108.24 23.94,108.828 C23.604,109.644 23.052,110.064 22.284,110.064 C21.516,110.064 20.964,109.644 20.628,108.828 C20.388,108.24 20.268,107.448 20.268,106.452 C20.268,105.444 20.388,104.652 20.628,104.076 C20.964,103.248 21.516,102.84 22.284,102.84 Z" id="形状"></path>
                    <path d="M8.004,136 C7.14,136 6.432,136.288 5.904,136.864 C5.376,137.428 5.1,138.196 5.1,139.156 L6.084,139.156 C6.096,138.4 6.276,137.824 6.612,137.44 C6.924,137.032 7.38,136.84 7.968,136.84 C8.52,136.84 8.964,136.984 9.276,137.272 C9.588,137.56 9.744,137.956 9.744,138.484 C9.744,139.036 9.516,139.552 9.084,140.02 C8.856,140.26 8.412,140.608 7.74,141.088 C6.828,141.712 6.216,142.228 5.88,142.612 C5.304,143.248 5.028,143.956 5.028,144.736 L10.74,144.736 L10.74,143.86 L6.24,143.86 C6.396,143.284 7.02,142.624 8.112,141.892 C9,141.292 9.588,140.824 9.888,140.512 C10.44,139.912 10.728,139.24 10.728,138.496 C10.728,137.752 10.464,137.14 9.96,136.684 C9.444,136.228 8.796,136 8.004,136 Z" id="路径"></path>
                    <path d="M15.084,136 C14.052,136 13.284,136.444 12.768,137.356 C12.312,138.124 12.084,139.156 12.084,140.452 C12.084,141.748 12.312,142.78 12.768,143.548 C13.284,144.448 14.052,144.904 15.084,144.904 C16.104,144.904 16.872,144.448 17.4,143.548 C17.856,142.78 18.084,141.748 18.084,140.452 C18.084,139.156 17.856,138.124 17.4,137.356 C16.872,136.444 16.104,136 15.084,136 Z M15.084,136.84 C15.852,136.84 16.404,137.248 16.74,138.076 C16.98,138.652 17.112,139.444 17.112,140.452 C17.112,141.448 16.98,142.24 16.74,142.828 C16.404,143.644 15.852,144.064 15.084,144.064 C14.316,144.064 13.764,143.644 13.428,142.828 C13.188,142.24 13.068,141.448 13.068,140.452 C13.068,139.444 13.188,138.652 13.428,138.076 C13.764,137.248 14.316,136.84 15.084,136.84 Z" id="形状"></path>
                    <path d="M22.284,136 C21.252,136 20.484,136.444 19.968,137.356 C19.512,138.124 19.284,139.156 19.284,140.452 C19.284,141.748 19.512,142.78 19.968,143.548 C20.484,144.448 21.252,144.904 22.284,144.904 C23.304,144.904 24.072,144.448 24.6,143.548 C25.056,142.78 25.284,141.748 25.284,140.452 C25.284,139.156 25.056,138.124 24.6,137.356 C24.072,136.444 23.304,136 22.284,136 Z M22.284,136.84 C23.052,136.84 23.604,137.248 23.94,138.076 C24.18,138.652 24.312,139.444 24.312,140.452 C24.312,141.448 24.18,142.24 23.94,142.828 C23.604,143.644 23.052,144.064 22.284,144.064 C21.516,144.064 20.964,143.644 20.628,142.828 C20.388,142.24 20.268,141.448 20.268,140.452 C20.268,139.444 20.388,138.652 20.628,138.076 C20.964,137.248 21.516,136.84 22.284,136.84 Z" id="形状"></path>
                    <path d="M22.284,170 C21.252,170 20.484,170.444 19.968,171.356 C19.512,172.124 19.284,173.156 19.284,174.452 C19.284,175.748 19.512,176.78 19.968,177.548 C20.484,178.448 21.252,178.904 22.284,178.904 C23.304,178.904 24.072,178.448 24.6,177.548 C25.056,176.78 25.284,175.748 25.284,174.452 C25.284,173.156 25.056,172.124 24.6,171.356 C24.072,170.444 23.304,170 22.284,170 Z M22.284,170.84 C23.052,170.84 23.604,171.248 23.94,172.076 C24.18,172.652 24.312,173.444 24.312,174.452 C24.312,175.448 24.18,176.24 23.94,176.828 C23.604,177.644 23.052,178.064 22.284,178.064 C21.516,178.064 20.964,177.644 20.628,176.828 C20.388,176.24 20.268,175.448 20.268,174.452 C20.268,173.444 20.388,172.652 20.628,172.076 C20.964,171.248 21.516,170.84 22.284,170.84 Z" id="形状"></path>
                </g>
            </g>
            <g id="50-40-30-20-10-0" mask="url(#mask-2)" fill="#8A9299" fill-rule="nonzero">
                <g transform="translate(872.888000, 74.264000)">
                    <path d="M0.972,0.168 L0.516,4.896 L1.452,4.896 C1.62,4.56 1.884,4.296 2.22,4.128 C2.544,3.948 2.904,3.864 3.312,3.864 C3.936,3.864 4.428,4.044 4.776,4.428 C5.136,4.8 5.328,5.328 5.328,6.012 C5.328,6.612 5.124,7.104 4.74,7.488 C4.344,7.872 3.852,8.064 3.252,8.064 C2.724,8.064 2.28,7.932 1.944,7.68 C1.56,7.392 1.344,6.972 1.296,6.432 L0.324,6.432 C0.384,7.212 0.708,7.836 1.308,8.292 C1.836,8.7 2.484,8.904 3.24,8.904 C4.08,8.904 4.8,8.64 5.376,8.124 C5.988,7.572 6.3,6.864 6.3,6 C6.3,5.076 6.036,4.356 5.532,3.828 C5.028,3.312 4.368,3.06 3.552,3.06 C3.156,3.06 2.796,3.12 2.46,3.264 C2.088,3.408 1.776,3.624 1.536,3.912 L1.488,3.912 L1.776,1.044 L5.952,1.044 L5.952,0.168 L0.972,0.168 Z" id="路径"></path>
                    <path d="M10.512,0 C9.48,0 8.712,0.444 8.196,1.356 C7.74,2.124 7.512,3.156 7.512,4.452 C7.512,5.748 7.74,6.78 8.196,7.548 C8.712,8.448 9.48,8.904 10.512,8.904 C11.532,8.904 12.3,8.448 12.828,7.548 C13.284,6.78 13.512,5.748 13.512,4.452 C13.512,3.156 13.284,2.124 12.828,1.356 C12.3,0.444 11.532,0 10.512,0 Z M10.512,0.84 C11.28,0.84 11.832,1.248 12.168,2.076 C12.408,2.652 12.54,3.444 12.54,4.452 C12.54,5.448 12.408,6.24 12.168,6.828 C11.832,7.644 11.28,8.064 10.512,8.064 C9.744,8.064 9.192,7.644 8.856,6.828 C8.616,6.24 8.496,5.448 8.496,4.452 C8.496,3.444 8.616,2.652 8.856,2.076 C9.192,1.248 9.744,0.84 10.512,0.84 Z" id="形状"></path>
                    <path d="M4.32,34.168 L0,39.856 L0,40.792 L4.308,40.792 L4.308,42.736 L5.244,42.736 L5.244,40.792 L6.636,40.792 L6.636,39.988 L5.244,39.988 L5.244,34.168 L4.32,34.168 Z M4.272,35.452 L4.308,35.452 L4.308,39.988 L0.828,39.988 L4.272,35.452 Z" id="形状"></path>
                    <path d="M10.512,34 C9.48,34 8.712,34.444 8.196,35.356 C7.74,36.124 7.512,37.156 7.512,38.452 C7.512,39.748 7.74,40.78 8.196,41.548 C8.712,42.448 9.48,42.904 10.512,42.904 C11.532,42.904 12.3,42.448 12.828,41.548 C13.284,40.78 13.512,39.748 13.512,38.452 C13.512,37.156 13.284,36.124 12.828,35.356 C12.3,34.444 11.532,34 10.512,34 Z M10.512,34.84 C11.28,34.84 11.832,35.248 12.168,36.076 C12.408,36.652 12.54,37.444 12.54,38.452 C12.54,39.448 12.408,40.24 12.168,40.828 C11.832,41.644 11.28,42.064 10.512,42.064 C9.744,42.064 9.192,41.644 8.856,40.828 C8.616,40.24 8.496,39.448 8.496,38.452 C8.496,37.444 8.616,36.652 8.856,36.076 C9.192,35.248 9.744,34.84 10.512,34.84 Z" id="形状"></path>
                    <path d="M3.396,68 C2.58,68 1.92,68.228 1.416,68.696 C0.888,69.164 0.576,69.812 0.504,70.64 L1.476,70.64 C1.536,70.064 1.728,69.62 2.064,69.308 C2.388,68.996 2.832,68.852 3.408,68.852 C3.96,68.852 4.404,68.984 4.716,69.272 C5.004,69.536 5.16,69.908 5.16,70.388 C5.16,70.868 5.004,71.24 4.704,71.504 C4.404,71.756 3.972,71.888 3.396,71.888 L2.736,71.888 L2.736,72.656 L3.432,72.656 C4.032,72.656 4.488,72.788 4.824,73.076 C5.16,73.364 5.328,73.76 5.328,74.276 C5.328,74.78 5.148,75.2 4.812,75.536 C4.44,75.884 3.948,76.064 3.336,76.064 C2.796,76.064 2.352,75.908 1.992,75.62 C1.572,75.272 1.344,74.756 1.32,74.084 L0.324,74.084 C0.396,75.044 0.732,75.776 1.344,76.28 C1.86,76.688 2.52,76.904 3.336,76.904 C4.224,76.904 4.944,76.652 5.496,76.148 C6.036,75.656 6.312,75.02 6.312,74.24 C6.312,73.736 6.168,73.316 5.88,72.98 C5.616,72.644 5.232,72.404 4.728,72.248 C5.664,71.936 6.132,71.288 6.132,70.328 C6.132,69.608 5.88,69.044 5.388,68.624 C4.884,68.204 4.212,68 3.396,68 Z" id="路径"></path>
                    <path d="M10.512,68 C9.48,68 8.712,68.444 8.196,69.356 C7.74,70.124 7.512,71.156 7.512,72.452 C7.512,73.748 7.74,74.78 8.196,75.548 C8.712,76.448 9.48,76.904 10.512,76.904 C11.532,76.904 12.3,76.448 12.828,75.548 C13.284,74.78 13.512,73.748 13.512,72.452 C13.512,71.156 13.284,70.124 12.828,69.356 C12.3,68.444 11.532,68 10.512,68 Z M10.512,68.84 C11.28,68.84 11.832,69.248 12.168,70.076 C12.408,70.652 12.54,71.444 12.54,72.452 C12.54,73.448 12.408,74.24 12.168,74.828 C11.832,75.644 11.28,76.064 10.512,76.064 C9.744,76.064 9.192,75.644 8.856,74.828 C8.616,74.24 8.496,73.448 8.496,72.452 C8.496,71.444 8.616,70.652 8.856,70.076 C9.192,69.248 9.744,68.84 10.512,68.84 Z" id="形状"></path>
                    <path d="M3.432,102 C2.568,102 1.86,102.288 1.332,102.864 C0.804,103.428 0.528,104.196 0.528,105.156 L1.512,105.156 C1.524,104.4 1.704,103.824 2.04,103.44 C2.352,103.032 2.808,102.84 3.396,102.84 C3.948,102.84 4.392,102.984 4.704,103.272 C5.016,103.56 5.172,103.956 5.172,104.484 C5.172,105.036 4.944,105.552 4.512,106.02 C4.284,106.26 3.84,106.608 3.168,107.088 C2.256,107.712 1.644,108.228 1.308,108.612 C0.732,109.248 0.456,109.956 0.456,110.736 L6.168,110.736 L6.168,109.86 L1.668,109.86 C1.824,109.284 2.448,108.624 3.54,107.892 C4.428,107.292 5.016,106.824 5.316,106.512 C5.868,105.912 6.156,105.24 6.156,104.496 C6.156,103.752 5.892,103.14 5.388,102.684 C4.872,102.228 4.224,102 3.432,102 Z" id="路径"></path>
                    <path d="M10.512,102 C9.48,102 8.712,102.444 8.196,103.356 C7.74,104.124 7.512,105.156 7.512,106.452 C7.512,107.748 7.74,108.78 8.196,109.548 C8.712,110.448 9.48,110.904 10.512,110.904 C11.532,110.904 12.3,110.448 12.828,109.548 C13.284,108.78 13.512,107.748 13.512,106.452 C13.512,105.156 13.284,104.124 12.828,103.356 C12.3,102.444 11.532,102 10.512,102 Z M10.512,102.84 C11.28,102.84 11.832,103.248 12.168,104.076 C12.408,104.652 12.54,105.444 12.54,106.452 C12.54,107.448 12.408,108.24 12.168,108.828 C11.832,109.644 11.28,110.064 10.512,110.064 C9.744,110.064 9.192,109.644 8.856,108.828 C8.616,108.24 8.496,107.448 8.496,106.452 C8.496,105.444 8.616,104.652 8.856,104.076 C9.192,103.248 9.744,102.84 10.512,102.84 Z" id="形状"></path>
                    <path d="M4.86,136.168 C4.572,136.492 4.236,136.78 3.828,137.044 C3.42,137.284 3.012,137.452 2.628,137.56 L2.628,138.544 C3.432,138.304 4.104,137.92 4.644,137.368 L4.644,144.736 L5.628,144.736 L5.628,136.168 L4.86,136.168 Z" id="路径"></path>
                    <path d="M10.512,136 C9.48,136 8.712,136.444 8.196,137.356 C7.74,138.124 7.512,139.156 7.512,140.452 C7.512,141.748 7.74,142.78 8.196,143.548 C8.712,144.448 9.48,144.904 10.512,144.904 C11.532,144.904 12.3,144.448 12.828,143.548 C13.284,142.78 13.512,141.748 13.512,140.452 C13.512,139.156 13.284,138.124 12.828,137.356 C12.3,136.444 11.532,136 10.512,136 Z M10.512,136.84 C11.28,136.84 11.832,137.248 12.168,138.076 C12.408,138.652 12.54,139.444 12.54,140.452 C12.54,141.448 12.408,142.24 12.168,142.828 C11.832,143.644 11.28,144.064 10.512,144.064 C9.744,144.064 9.192,143.644 8.856,142.828 C8.616,142.24 8.496,141.448 8.496,140.452 C8.496,139.444 8.616,138.652 8.856,138.076 C9.192,137.248 9.744,136.84 10.512,136.84 Z" id="形状"></path>
                    <path d="M10.512,170 C9.48,170 8.712,170.444 8.196,171.356 C7.74,172.124 7.512,173.156 7.512,174.452 C7.512,175.748 7.74,176.78 8.196,177.548 C8.712,178.448 9.48,178.904 10.512,178.904 C11.532,178.904 12.3,178.448 12.828,177.548 C13.284,176.78 13.512,175.748 13.512,174.452 C13.512,173.156 13.284,172.124 12.828,171.356 C12.3,170.444 11.532,170 10.512,170 Z M10.512,170.84 C11.28,170.84 11.832,171.248 12.168,172.076 C12.408,172.652 12.54,173.444 12.54,174.452 C12.54,175.448 12.408,176.24 12.168,176.828 C11.832,177.644 11.28,178.064 10.512,178.064 C9.744,178.064 9.192,177.644 8.856,176.828 C8.616,176.24 8.496,175.448 8.496,174.452 C8.496,173.444 8.616,172.652 8.856,172.076 C9.192,171.248 9.744,170.84 10.512,170.84 Z" id="形状"></path>
                </g>
            </g>
            <g id="横线" mask="url(#mask-2)" stroke="#F1F1F1" stroke-dasharray="2" stroke-linecap="square">
                <g transform="translate(84.000000, 81.000000)">
                    <line x1="1.16666667" y1="0.5" x2="782.833333" y2="0.5" id="直线-3"></line>
                    <line x1="1.16666667" y1="33.5" x2="782.833333" y2="33.5" id="直线-3备份-2"></line>
                    <line x1="1.16666667" y1="67.5" x2="782.833333" y2="67.5" id="直线-3备份-4"></line>
                    <line x1="1.16666667" y1="167.5" x2="782.833333" y2="167.5" id="直线-3备份-11"></line>
                    <line x1="1.16666667" y1="100.5" x2="782.833333" y2="100.5" id="直线-3备份-6"></line>
                    <line x1="1.16666667" y1="134.5" x2="782.833333" y2="134.5" id="直线-3备份-8"></line>
                </g>
            </g>
            <g id="编组-54" mask="url(#mask-2)" opacity="0.949999988">
                <g transform="translate(106.352693, 121.000000)">
                    <g id="编组-11" transform="translate(-0.352693, 0.000000)">
                        <polygon id="Rectangle-6" fill="#5B8FF9" points="-3.17417487e-17 1.12798659e-13 18.2978723 5.63993297e-13 18.2978723 127 -3.17417487e-17 127"></polygon>
                        <polygon id="Rectangle-6备份-4" fill="#69D9AC" points="21.7021277 10.9247312 40 10.9247312 40 127 21.7021277 127"></polygon>
                    </g>
                    <g id="编组-53" transform="translate(60.647307, 63.000000)">
                        <polygon id="Rectangle-6备份-5" fill="#5B8FF9" points="-3.18032637e-17 5.68434189e-14 18.3333333 2.84217094e-13 18.3333333 64 -3.18032637e-17 64"></polygon>
                        <polygon id="Rectangle-6备份-6" fill="#69D9AC" points="21.6666667 6 40 6 40 64 21.6666667 64"></polygon>
                    </g>
                    <g id="编组-53备份" transform="translate(120.647307, 44.000000)">
                        <polygon id="Rectangle-6备份-5" fill="#5B8FF9" points="-3.18032637e-17 7.37188088e-14 18.3333333 3.68594044e-13 18.3333333 83 -3.18032637e-17 83"></polygon>
                        <polygon id="Rectangle-6备份-6" fill="#69D9AC" points="21.6666667 8 40 8 40 83 21.6666667 83"></polygon>
                    </g>
                    <g id="编组-53备份-5" transform="translate(370.647307, 44.000000)">
                        <polygon id="Rectangle-6备份-5" fill="#5B8FF9" points="-3.18032637e-17 7.37188088e-14 18.3333333 3.68594044e-13 18.3333333 83 -3.18032637e-17 83"></polygon>
                        <polygon id="Rectangle-6备份-6" fill="#69D9AC" points="21.6666667 8 40 8 40 83 21.6666667 83"></polygon>
                    </g>
                    <g id="编组-53备份-6" transform="translate(434.647307, 89.000000)">
                        <polygon id="Rectangle-6备份-5" fill="#5B8FF9" points="-3.18032637e-17 3.37507799e-14 18.3333333 1.687539e-13 18.3333333 38 -3.18032637e-17 38"></polygon>
                        <polygon id="Rectangle-6备份-6" fill="#69D9AC" points="21.6666667 4 40 4 40 38 21.6666667 38"></polygon>
                    </g>
                    <g id="编组-53备份-7" transform="translate(499.647307, 80.000000)">
                        <polygon id="Rectangle-6备份-5" fill="#5B8FF9" points="-3.18032637e-17 4.17443857e-14 18.3333333 2.08721929e-13 18.3333333 47 -3.18032637e-17 47"></polygon>
                        <polygon id="Rectangle-6备份-6" fill="#69D9AC" points="21.6666667 5 40 5 40 47 21.6666667 47"></polygon>
                    </g>
                    <g id="编组-53备份-8" transform="translate(564.647307, 56.000000)">
                        <polygon id="Rectangle-6备份-5" fill="#5B8FF9" points="-3.18032637e-17 6.30606678e-14 18.3333333 3.15303339e-13 18.3333333 71 -3.18032637e-17 71"></polygon>
                        <polygon id="Rectangle-6备份-6" fill="#69D9AC" points="21.6666667 8 40 8 40 71 21.6666667 71"></polygon>
                    </g>
                    <g id="编组-53备份-9" transform="translate(629.647307, 36.000000)">
                        <polygon id="Rectangle-6备份-5" fill="#5B8FF9" points="-3.18032637e-17 8.08242362e-14 18.3333333 4.04121181e-13 18.3333333 91 -3.18032637e-17 91"></polygon>
                        <polygon id="Rectangle-6备份-6" fill="#69D9AC" points="21.6666667 10 40 10 40 91 21.6666667 91"></polygon>
                    </g>
                    <g id="编组-53备份-10" transform="translate(699.647307, 89.000000)">
                        <polygon id="Rectangle-6备份-5" fill="#5B8FF9" points="-3.18032637e-17 3.37507799e-14 18.3333333 1.687539e-13 18.3333333 38 -3.18032637e-17 38"></polygon>
                        <polygon id="Rectangle-6备份-6" fill="#69D9AC" points="21.6666667 4 40 4 40 38 21.6666667 38"></polygon>
                    </g>
                    <g id="编组-53备份-2" transform="translate(184.647307, 52.000000)">
                        <polygon id="Rectangle-6备份-5" fill="#5B8FF9" points="-3.18032637e-17 6.66133815e-14 18.3333333 3.33066907e-13 18.3333333 75 -3.18032637e-17 75"></polygon>
                        <polygon id="Rectangle-6备份-6" fill="#69D9AC" points="21.6666667 7 40 7 40 75 21.6666667 75"></polygon>
                    </g>
                    <g id="编组-53备份-3" transform="translate(249.647307, 95.000000)">
                        <polygon id="Rectangle-6备份-5" fill="#5B8FF9" points="-3.18032637e-17 2.84217094e-14 18.3333333 1.42108547e-13 18.3333333 32 -3.18032637e-17 32"></polygon>
                        <polygon id="Rectangle-6备份-6" fill="#69D9AC" points="21.6666667 3 40 3 40 32 21.6666667 32"></polygon>
                    </g>
                    <g id="编组-53备份-4" transform="translate(310.647307, 110.000000)">
                        <polygon id="Rectangle-6备份-5" fill="#5B8FF9" points="-3.18032637e-17 1.50990331e-14 18.3333333 7.54951657e-14 18.3333333 17 -3.18032637e-17 17"></polygon>
                        <polygon id="Rectangle-6备份-6" fill="#69D9AC" points="21.6666667 2 40 2 40 17 21.6666667 17"></polygon>
                    </g>
                </g>
            </g>
            <g id="省本级-西安市-铜川市-宝鸡市-咸阳市" mask="url(#mask-2)" fill="#8A9299" fill-rule="nonzero">
                <g transform="translate(107.290746, 260.549721)">
                    <path d="M4.836,0.096 L4.836,3.168 L5.688,3.168 L5.688,0.096 L4.836,0.096 Z M2.1,5.376 L2.1,11.112 L2.94,11.112 L2.94,10.548 L8.568,10.548 L8.568,11.088 L9.408,11.088 L9.408,4.692 L4.632,4.692 C6.396,4.116 7.884,3.408 9.084,2.556 C9.516,2.928 9.912,3.3 10.248,3.672 L10.848,3.06 C9.984,2.196 8.928,1.32 7.668,0.444 L7.092,0.996 C7.584,1.344 8.04,1.692 8.472,2.04 C6.528,3.372 3.708,4.344 0,4.944 L0.36,5.724 C0.96,5.616 1.536,5.496 2.1,5.376 Z M2.94,9.78 L2.94,8.748 L8.568,8.748 L8.568,9.78 L2.94,9.78 Z M2.94,8.052 L2.94,7.092 L8.568,7.092 L8.568,8.052 L2.94,8.052 Z M2.94,6.396 L2.94,5.424 L8.568,5.424 L8.568,6.396 L2.94,6.396 Z M2.928,0.78 C2.244,1.62 1.392,2.364 0.372,3.012 L0.876,3.66 C1.932,2.988 2.82,2.208 3.54,1.32 L2.928,0.78 Z" id="形状"></path>
                    <path d="M12.276,2.328 L12.276,3.156 L16.2,3.156 C15.312,5.28 13.872,7.02 11.856,8.364 L12.348,9.168 C14.484,7.596 15.996,5.592 16.884,3.156 L16.968,3.156 L16.968,7.836 L14.496,7.836 L14.496,8.664 L16.968,8.664 L16.968,11.124 L17.856,11.124 L17.856,8.664 L20.424,8.664 L20.424,7.836 L17.856,7.836 L17.856,3.156 L17.952,3.156 C18.768,5.328 20.232,7.284 22.344,9.012 L22.932,8.268 C20.868,6.768 19.428,5.064 18.624,3.156 L22.536,3.156 L22.536,2.328 L17.856,2.328 L17.856,0.156 L16.968,0.156 L16.968,2.328 L12.276,2.328 Z" id="路径"></path>
                    <path d="M27.588,8.592 C26.532,9.012 25.296,9.348 23.892,9.6 L24,10.44 C25.344,10.188 26.532,9.84 27.588,9.408 L27.588,8.592 Z M26.124,0.108 C25.62,1.476 25.02,2.7 24.336,3.768 C24.228,3.924 24.108,4.032 23.976,4.08 L24.192,4.872 C24.888,4.788 25.584,4.692 26.28,4.584 C25.608,5.664 25.032,6.42 24.552,6.876 C24.444,6.972 24.312,7.056 24.156,7.116 L24.384,7.896 C25.548,7.752 26.772,7.5 28.044,7.116 L28.044,6.336 C27.18,6.6 26.304,6.816 25.44,6.972 C26.184,6.144 27.108,4.752 28.236,2.808 L27.48,2.532 C27.228,2.976 26.988,3.396 26.76,3.804 C26.184,3.9 25.608,3.972 25.032,4.032 C25.68,3.144 26.316,1.944 26.94,0.432 L26.124,0.108 Z M29.4,1.428 L29.4,2.076 C29.376,5.952 28.584,8.76 27.024,10.512 L27.66,11.076 C28.872,9.708 29.664,7.752 30.024,5.22 C30.396,6.444 30.948,7.548 31.668,8.52 C30.984,9.24 30.132,9.852 29.124,10.344 L29.604,11.136 C30.636,10.632 31.524,10.008 32.244,9.24 C32.844,9.936 33.576,10.56 34.416,11.112 L34.956,10.392 C34.116,9.864 33.384,9.276 32.76,8.604 C33.624,7.464 34.176,6.06 34.428,4.404 L34.428,3.924 L32.904,3.924 C33.096,3.156 33.288,2.232 33.48,1.152 L33.48,0.612 L28.212,0.612 L28.212,1.428 L29.4,1.428 Z M32.172,7.92 C31.164,6.636 30.504,5.112 30.204,3.36 C30.228,2.952 30.24,2.52 30.24,2.076 L30.24,1.428 L32.592,1.428 C32.34,2.856 32.112,3.936 31.896,4.68 L33.564,4.68 C33.324,5.916 32.868,6.996 32.172,7.92 Z" id="形状"></path>
                    <path d="M60.036,0.636 L60.036,1.476 L63.612,1.476 L63.612,3.312 L60.756,3.312 L60.756,11.052 L61.62,11.052 L61.62,10.512 L69.18,10.512 L69.18,11.052 L70.044,11.052 L70.044,3.312 L67.116,3.312 L67.116,1.476 L70.74,1.476 L70.74,0.636 L60.036,0.636 Z M61.62,9.696 L61.62,4.128 L63.612,4.128 L63.612,4.368 C63.588,6 62.988,7.188 61.812,7.932 L62.484,8.52 C63.78,7.644 64.44,6.264 64.464,4.368 L64.464,4.128 L66.264,4.128 L66.264,6.612 C66.264,7.392 66.648,7.788 67.44,7.788 L69.18,7.788 L69.18,9.696 L61.62,9.696 Z M64.464,1.476 L66.264,1.476 L66.264,3.312 L64.464,3.312 L64.464,1.476 Z M67.116,4.128 L69.18,4.128 L69.18,6.996 L67.668,6.996 C67.296,6.996 67.116,6.804 67.116,6.432 L67.116,4.128 Z" id="形状"></path>
                    <path d="M82.368,1.296 L77.904,1.296 C77.736,0.828 77.556,0.408 77.364,0.024 L76.404,0.192 C76.608,0.528 76.788,0.888 76.956,1.296 L72.396,1.296 L72.396,3.864 L73.284,3.864 L73.284,2.136 L81.48,2.136 L81.48,3.876 L82.368,3.876 L82.368,1.296 Z M72.108,4.632 L72.108,5.472 L75,5.472 C74.616,6.132 74.208,6.804 73.776,7.476 C74.892,7.836 76.008,8.256 77.136,8.736 C75.864,9.708 74.196,10.2 72.156,10.212 L72.66,11.016 C74.892,10.944 76.668,10.32 78.012,9.12 C79.284,9.696 80.556,10.368 81.828,11.112 L82.404,10.356 C81.132,9.636 79.872,9.012 78.636,8.484 C79.272,7.74 79.836,6.744 80.328,5.472 L82.692,5.472 L82.692,4.632 L76.488,4.632 C76.776,4.104 77.076,3.54 77.388,2.94 L76.5,2.676 C76.176,3.324 75.828,3.972 75.468,4.632 L72.108,4.632 Z M76.02,5.472 L79.38,5.472 C78.972,6.528 78.444,7.416 77.796,8.124 C76.848,7.728 75.924,7.392 75.012,7.128 C75.324,6.648 75.66,6.096 76.02,5.472 Z" id="形状"></path>
                    <path d="M84.072,1.5 L84.072,2.328 L88.944,2.328 L88.944,3.9 L85.2,3.9 L85.2,9.432 L86.052,9.432 L86.052,4.728 L88.944,4.728 L88.944,11.1 L89.832,11.1 L89.832,4.728 L92.868,4.728 L92.868,8.064 C92.868,8.4 92.7,8.568 92.364,8.568 L91.224,8.52 L91.44,9.348 L92.64,9.348 C93.36,9.348 93.732,8.976 93.732,8.256 L93.732,3.9 L89.832,3.9 L89.832,2.328 L94.704,2.328 L94.704,1.5 L89.796,1.5 C89.604,0.948 89.412,0.444 89.22,0 L88.296,0.144 C88.512,0.552 88.728,0.996 88.92,1.5 L84.072,1.5 Z" id="路径"></path>
                    <path d="M129.984,4.692 L129.984,8.712 L132.756,8.712 L132.756,4.692 L129.984,4.692 Z M132.012,8.004 L130.728,8.004 L130.728,5.4 L132.012,5.4 L132.012,8.004 Z M133.428,11.064 C134.088,11.064 134.424,10.704 134.424,9.984 L134.424,0.6 L128.352,0.6 L128.352,11.124 L129.156,11.124 L129.156,1.392 L133.608,1.392 L133.608,9.804 C133.608,10.116 133.452,10.272 133.152,10.272 L131.904,10.236 L132.12,11.064 L133.428,11.064 Z M129.768,2.712 L129.768,3.504 L132.972,3.504 L132.972,2.712 L129.768,2.712 Z M125.244,0.144 C124.944,1.596 124.464,2.928 123.816,4.128 L124.5,4.56 C124.884,3.888 125.22,3.132 125.508,2.304 L127.836,2.304 L127.836,1.476 L125.772,1.476 C125.868,1.104 125.976,0.72 126.072,0.312 L125.244,0.144 Z M124.98,3.9 L124.98,4.68 L125.676,4.68 L125.676,6.168 L124.2,6.168 L124.2,6.972 L125.676,6.972 L125.676,9.708 C125.676,9.876 125.568,9.996 125.364,10.08 L125.712,10.824 C126.576,10.548 127.344,10.2 128.004,9.78 L127.848,9.012 C127.392,9.324 126.948,9.588 126.492,9.78 L126.492,6.972 L127.848,6.972 L127.848,6.168 L126.492,6.168 L126.492,4.68 L127.584,4.68 L127.584,3.9 L124.98,3.9 Z" id="形状"></path>
                    <path d="M141.18,0.66 L141.18,10.224 L142.056,10.224 L142.056,0.66 L141.18,0.66 Z M144.768,0.18 L144.768,11.088 L145.644,11.088 L145.644,0.18 L144.768,0.18 Z M137.616,0.228 L137.616,4.872 C137.592,7.488 136.992,9.372 135.816,10.548 L136.476,11.136 C137.796,9.816 138.468,7.728 138.492,4.872 L138.492,0.228 L137.616,0.228 Z" id="形状"></path>
                    <path d="M148.044,1.5 L148.044,2.328 L152.916,2.328 L152.916,3.9 L149.172,3.9 L149.172,9.432 L150.024,9.432 L150.024,4.728 L152.916,4.728 L152.916,11.1 L153.804,11.1 L153.804,4.728 L156.84,4.728 L156.84,8.064 C156.84,8.4 156.672,8.568 156.336,8.568 L155.196,8.52 L155.412,9.348 L156.612,9.348 C157.332,9.348 157.704,8.976 157.704,8.256 L157.704,3.9 L153.804,3.9 L153.804,2.328 L158.676,2.328 L158.676,1.5 L153.768,1.5 C153.576,0.948 153.384,0.444 153.192,0 L152.268,0.144 C152.484,0.552 152.7,0.996 152.892,1.5 L148.044,1.5 Z" id="路径"></path>
                    <path d="M192.9,4.572 L192.9,6.636 L189.732,6.636 L189.732,7.452 L192.9,7.452 L192.9,9.984 L188.352,9.984 L188.352,10.788 L198.348,10.788 L198.348,9.984 L193.776,9.984 L193.776,7.452 L196.884,7.452 L196.884,6.636 L193.776,6.636 L193.776,4.572 L197.28,4.572 L197.28,3.756 L189.456,3.756 L189.456,4.572 L192.9,4.572 Z M195.864,7.788 L195.204,8.184 C195.756,8.832 196.2,9.432 196.524,9.96 L197.196,9.504 C196.884,9 196.44,8.436 195.864,7.788 Z M198.156,1.356 L193.872,1.356 C193.716,0.912 193.56,0.516 193.392,0.168 L192.468,0.312 C192.636,0.624 192.804,0.972 192.96,1.356 L188.448,1.356 L188.448,3.756 L189.324,3.756 L189.324,2.184 L197.292,2.184 L197.292,3.684 L198.156,3.684 L198.156,1.356 Z" id="形状"></path>
                    <path d="M200.736,3.312 L200.148,3.864 C200.892,4.884 201.576,5.88 202.176,6.84 C201.624,8.172 200.868,9.324 199.884,10.308 L200.412,10.932 C201.36,9.996 202.128,8.928 202.704,7.704 C203.16,8.472 203.556,9.228 203.916,9.972 L204.54,9.36 C204.108,8.496 203.616,7.644 203.088,6.78 C203.64,5.316 203.952,3.66 204.036,1.812 L204.036,1.176 L200.232,1.176 L200.232,1.992 L203.232,1.992 C203.136,3.408 202.908,4.704 202.524,5.88 C201.972,5.028 201.372,4.176 200.736,3.312 Z M204.66,8.052 L204.66,8.844 L208.704,8.844 L208.704,8.052 L204.66,8.052 Z M207.06,2.412 L206.496,2.76 C206.952,3.276 207.312,3.744 207.576,4.164 L208.128,3.768 C207.888,3.384 207.528,2.928 207.06,2.412 Z M205.956,5.988 L205.956,1.956 L208.968,1.956 C208.896,3.336 208.812,4.14 208.704,4.356 C208.584,4.56 208.392,4.668 208.116,4.668 C207.876,4.668 207.6,4.656 207.288,4.644 L207.54,5.376 L208.116,5.376 C208.716,5.376 209.124,5.184 209.352,4.812 C209.568,4.44 209.724,3.216 209.832,1.152 L207.096,1.152 C207.24,0.84 207.36,0.504 207.444,0.144 L206.592,0.024 C206.508,0.408 206.388,0.792 206.232,1.152 L205.128,1.152 L205.128,6.78 L209.736,6.78 C209.736,8.604 209.64,9.648 209.448,9.936 C209.268,10.176 208.98,10.308 208.572,10.308 C208.212,10.308 207.756,10.296 207.216,10.284 L207.468,11.088 L208.56,11.088 C209.268,11.088 209.772,10.884 210.072,10.5 C210.384,10.08 210.552,8.58 210.564,5.988 L205.956,5.988 Z" id="形状"></path>
                    <path d="M212.016,1.5 L212.016,2.328 L216.888,2.328 L216.888,3.9 L213.144,3.9 L213.144,9.432 L213.996,9.432 L213.996,4.728 L216.888,4.728 L216.888,11.1 L217.776,11.1 L217.776,4.728 L220.812,4.728 L220.812,8.064 C220.812,8.4 220.644,8.568 220.308,8.568 L219.168,8.52 L219.384,9.348 L220.584,9.348 C221.304,9.348 221.676,8.976 221.676,8.256 L221.676,3.9 L217.776,3.9 L217.776,2.328 L222.648,2.328 L222.648,1.5 L217.74,1.5 C217.548,0.948 217.356,0.444 217.164,0 L216.24,0.144 C216.456,0.552 216.672,0.996 216.864,1.5 L212.016,1.5 Z" id="路径"></path>
                    <path d="M254.424,3.828 L254.424,4.584 L258.096,4.584 L258.096,3.828 L254.424,3.828 Z M254.664,5.7 L254.664,8.82 L257.868,8.82 L257.868,5.7 L254.664,5.7 Z M257.112,8.1 L255.408,8.1 L255.408,6.42 L257.112,6.42 L257.112,8.1 Z M261.3,3.708 C260.976,4.968 260.556,6.084 260.04,7.044 L259.884,6.36 C259.692,5.472 259.572,4.236 259.5,2.664 L262.428,2.664 L262.428,1.836 L261.684,1.836 C261.492,1.26 261.288,0.756 261.084,0.3 L260.28,0.432 C260.52,0.864 260.736,1.332 260.928,1.836 L259.464,1.836 C259.44,1.308 259.44,0.756 259.44,0.156 L258.588,0.156 C258.588,0.732 258.588,1.284 258.612,1.836 L252.912,1.836 L252.912,5.244 C252.876,7.5 252.48,9.264 251.724,10.536 L252.384,11.124 C253.272,9.648 253.74,7.692 253.788,5.244 L253.788,2.664 L258.648,2.664 C258.72,4.236 258.864,5.544 259.092,6.576 C259.2,7.08 259.32,7.548 259.464,7.98 C258.708,9.072 257.772,9.9 256.668,10.452 L257.136,11.148 C258.144,10.644 259.044,9.9 259.812,8.904 C259.956,9.264 260.136,9.576 260.328,9.864 C260.808,10.584 261.276,10.944 261.708,10.944 C262.212,10.944 262.608,10.14 262.872,8.532 L262.128,8.112 C261.96,9.36 261.78,9.996 261.576,10.008 C261.384,10.008 261.12,9.72 260.796,9.144 C260.64,8.868 260.496,8.532 260.352,8.124 C261.048,7.02 261.624,5.652 262.056,4.032 L261.3,3.708 Z" id="形状"></path>
                    <path d="M264.348,0.612 L264.348,11.16 L265.188,11.16 L265.188,1.416 L267.348,1.416 C267.024,2.424 266.568,3.564 265.992,4.824 C266.844,5.82 267.276,6.72 267.276,7.524 C267.276,7.788 267.192,7.968 267.048,8.076 C266.892,8.184 266.58,8.256 266.112,8.28 C265.992,8.28 265.836,8.256 265.656,8.232 L265.932,9.096 C266.796,9.084 267.408,8.94 267.768,8.652 C268.008,8.412 268.14,8.04 268.14,7.524 C268.068,6.684 267.648,5.736 266.856,4.692 C267.384,3.516 267.84,2.376 268.224,1.284 L268.224,0.612 L264.348,0.612 Z M274.308,0.792 L268.92,0.792 L268.92,11.064 L269.76,11.064 L269.76,10.152 L273.468,10.152 L273.468,11.088 L274.308,11.088 L274.308,0.792 Z M269.76,9.324 L269.76,5.844 L273.468,5.844 L273.468,9.324 L269.76,9.324 Z M269.76,5.028 L269.76,1.632 L273.468,1.632 L273.468,5.028 L269.76,5.028 Z" id="形状"></path>
                    <path d="M275.988,1.5 L275.988,2.328 L280.86,2.328 L280.86,3.9 L277.116,3.9 L277.116,9.432 L277.968,9.432 L277.968,4.728 L280.86,4.728 L280.86,11.1 L281.748,11.1 L281.748,4.728 L284.784,4.728 L284.784,8.064 C284.784,8.4 284.616,8.568 284.28,8.568 L283.14,8.52 L283.356,9.348 L284.556,9.348 C285.276,9.348 285.648,8.976 285.648,8.256 L285.648,3.9 L281.748,3.9 L281.748,2.328 L286.62,2.328 L286.62,1.5 L281.712,1.5 C281.52,0.948 281.328,0.444 281.136,0 L280.212,0.144 C280.428,0.552 280.644,0.996 280.836,1.5 L275.988,1.5 Z" id="路径"></path>
                    <path d="M312.816,0.324 L312.192,0.924 C313.044,1.524 313.716,2.1 314.196,2.64 L314.808,2.028 C314.268,1.452 313.608,0.888 312.816,0.324 Z M312.492,3.192 L311.88,3.792 C312.78,4.404 313.488,4.98 313.992,5.532 L314.616,4.92 C314.04,4.344 313.332,3.768 312.492,3.192 Z M313.968,6.396 C313.416,7.836 312.78,9.252 312.036,10.644 L312.828,10.992 C313.524,9.648 314.148,8.208 314.724,6.684 L313.968,6.396 Z M315.408,0.576 L315.408,4.428 L322.188,4.428 L322.188,0.576 L315.408,0.576 Z M321.372,3.732 L319.2,3.732 L319.2,2.808 L321.372,2.808 L321.372,3.732 Z M318.408,3.732 L316.224,3.732 L316.224,2.808 L318.408,2.808 L318.408,3.732 Z M316.224,2.172 L316.224,1.272 L318.408,1.272 L318.408,2.172 L316.224,2.172 Z M319.2,1.272 L321.372,1.272 L321.372,2.172 L319.2,2.172 L319.2,1.272 Z M316.704,7.524 L320.928,7.524 L320.928,8.472 L316.704,8.472 L316.704,7.524 Z M320.928,6.852 L316.704,6.852 L316.704,5.904 L320.928,5.904 L320.928,6.852 Z M316.704,9.144 L320.928,9.144 L320.928,9.828 C320.928,10.152 320.76,10.32 320.424,10.32 L319.188,10.284 L319.404,11.052 L320.676,11.052 C321.396,11.052 321.756,10.704 321.756,10.008 L321.756,5.196 L315.876,5.196 L315.876,11.1 L316.704,11.1 L316.704,9.144 Z" id="形状"></path>
                    <path d="M323.94,1.248 L323.94,2.064 L328.788,2.064 C328.716,2.46 328.632,2.868 328.548,3.276 L324.6,3.276 L324.6,11.112 L325.452,11.112 L325.452,4.092 L333.132,4.092 L333.132,9.708 C333.132,10.044 332.964,10.224 332.628,10.224 L331.512,10.2 L331.74,11.04 L332.916,11.04 C333.624,11.04 333.984,10.656 333.984,9.9 L333.984,3.276 L329.436,3.276 C329.52,2.892 329.604,2.496 329.676,2.064 L334.62,2.064 L334.62,1.248 L329.808,1.248 C329.856,0.9 329.892,0.54 329.928,0.168 L329.052,0.048 L328.908,1.248 L323.94,1.248 Z M327.936,4.476 L327.168,4.764 C327.42,5.136 327.636,5.544 327.816,5.976 L326.496,5.976 L326.496,6.732 L328.86,6.732 L328.86,7.992 L326.112,7.992 L326.112,8.76 L328.86,8.76 L328.86,10.932 L329.7,10.932 L329.7,8.76 L332.46,8.76 L332.46,7.992 L329.7,7.992 L329.7,6.732 L332.1,6.732 L332.1,5.976 L330.732,5.976 C330.972,5.592 331.2,5.172 331.416,4.704 L330.624,4.416 C330.408,4.968 330.168,5.484 329.904,5.976 L328.644,5.976 C328.428,5.4 328.188,4.896 327.936,4.476 Z" id="形状"></path>
                    <path d="M335.964,1.5 L335.964,2.328 L340.836,2.328 L340.836,3.9 L337.092,3.9 L337.092,9.432 L337.944,9.432 L337.944,4.728 L340.836,4.728 L340.836,11.1 L341.724,11.1 L341.724,4.728 L344.76,4.728 L344.76,8.064 C344.76,8.4 344.592,8.568 344.256,8.568 L343.116,8.52 L343.332,9.348 L344.532,9.348 C345.252,9.348 345.624,8.976 345.624,8.256 L345.624,3.9 L341.724,3.9 L341.724,2.328 L346.596,2.328 L346.596,1.5 L341.688,1.5 C341.496,0.948 341.304,0.444 341.112,0 L340.188,0.144 C340.404,0.552 340.62,0.996 340.812,1.5 L335.964,1.5 Z" id="路径"></path>
                    <path d="M372.084,0.78 L372.084,1.572 L374.412,1.572 C373.812,2.58 373.14,3.516 372.396,4.38 L372.396,5.004 L374.652,5.004 C374.58,6.18 374.316,7.188 373.884,8.052 C373.452,7.476 373.08,6.756 372.744,5.892 L372.012,6.168 C372.396,7.224 372.864,8.1 373.416,8.796 C372.972,9.384 372.408,9.876 371.712,10.272 L372.144,11.028 C372.876,10.596 373.5,10.056 374.004,9.408 C374.292,9.672 374.628,9.9 374.988,10.068 C376.188,10.632 378.132,10.92 380.832,10.92 L382.632,10.92 L382.8,10.056 C381.984,10.104 381.204,10.128 380.436,10.128 C378.192,10.104 376.548,9.876 375.504,9.432 C375.144,9.264 374.796,9.024 374.46,8.712 C375.06,7.644 375.372,6.324 375.42,4.764 L375.42,4.272 L373.5,4.272 C374.1,3.528 374.712,2.604 375.36,1.476 L375.36,0.78 L372.084,0.78 Z M376.608,3.396 L376.608,8.592 L382.344,8.592 L382.344,7.776 L379.848,7.776 L379.848,4.872 L381.936,4.872 L381.936,4.08 L379.848,4.08 L379.848,1.608 C380.712,1.464 381.492,1.26 382.164,0.996 L381.744,0.264 C380.256,0.804 378.372,1.08 376.104,1.08 L376.368,1.86 C377.316,1.86 378.204,1.812 379.02,1.716 L379.02,7.776 L377.436,7.776 L377.436,3.396 L376.608,3.396 Z" id="形状"></path>
                    <path d="M394.236,1.296 L389.772,1.296 C389.604,0.828 389.424,0.408 389.232,0.024 L388.272,0.192 C388.476,0.528 388.656,0.888 388.824,1.296 L384.264,1.296 L384.264,3.864 L385.152,3.864 L385.152,2.136 L393.348,2.136 L393.348,3.876 L394.236,3.876 L394.236,1.296 Z M383.976,4.632 L383.976,5.472 L386.868,5.472 C386.484,6.132 386.076,6.804 385.644,7.476 C386.76,7.836 387.876,8.256 389.004,8.736 C387.732,9.708 386.064,10.2 384.024,10.212 L384.528,11.016 C386.76,10.944 388.536,10.32 389.88,9.12 C391.152,9.696 392.424,10.368 393.696,11.112 L394.272,10.356 C393,9.636 391.74,9.012 390.504,8.484 C391.14,7.74 391.704,6.744 392.196,5.472 L394.56,5.472 L394.56,4.632 L388.356,4.632 C388.644,4.104 388.944,3.54 389.256,2.94 L388.368,2.676 C388.044,3.324 387.696,3.972 387.336,4.632 L383.976,4.632 Z M387.888,5.472 L391.248,5.472 C390.84,6.528 390.312,7.416 389.664,8.124 C388.716,7.728 387.792,7.392 386.88,7.128 C387.192,6.648 387.528,6.096 387.888,5.472 Z" id="形状"></path>
                    <path d="M395.94,1.5 L395.94,2.328 L400.812,2.328 L400.812,3.9 L397.068,3.9 L397.068,9.432 L397.92,9.432 L397.92,4.728 L400.812,4.728 L400.812,11.1 L401.7,11.1 L401.7,4.728 L404.736,4.728 L404.736,8.064 C404.736,8.4 404.568,8.568 404.232,8.568 L403.092,8.52 L403.308,9.348 L404.508,9.348 C405.228,9.348 405.6,8.976 405.6,8.256 L405.6,3.9 L401.7,3.9 L401.7,2.328 L406.572,2.328 L406.572,1.5 L401.664,1.5 C401.472,0.948 401.28,0.444 401.088,0 L400.164,0.144 C400.38,0.552 400.596,0.996 400.788,1.5 L395.94,1.5 Z" id="路径"></path>
                    <path d="M436.836,0.3 L436.236,0.9 C437.124,1.572 437.832,2.22 438.348,2.82 L438.96,2.208 C438.384,1.572 437.676,0.936 436.836,0.3 Z M436.548,3.108 L435.924,3.708 C436.824,4.356 437.532,4.968 438.048,5.544 L438.66,4.932 C438.084,4.32 437.388,3.708 436.548,3.108 Z M438.216,6.444 C437.628,7.884 436.944,9.3 436.152,10.68 L437.016,11.052 C437.748,9.708 438.408,8.28 438.996,6.756 L438.216,6.444 Z M446.208,11.064 L446.808,10.368 C445.536,9.528 444.48,8.604 443.628,7.584 C444.792,5.976 445.584,4.02 446.004,1.716 L446.004,0.96 L439.476,0.96 L439.476,1.788 L440.436,1.788 C440.628,3.9 441.348,5.82 442.572,7.548 C441.636,8.7 440.448,9.648 439.02,10.392 L439.584,11.088 C440.952,10.344 442.128,9.396 443.112,8.244 C443.94,9.252 444.972,10.2 446.208,11.064 Z M443.088,6.876 C442.032,5.364 441.42,3.66 441.252,1.788 L445.116,1.788 C444.756,3.756 444.072,5.448 443.088,6.876 Z" id="形状"></path>
                    <path d="M452.784,0.072 L452.784,2.232 L448.488,2.232 L448.488,7.872 L449.352,7.872 L449.352,7.116 L452.784,7.116 L452.784,11.208 L453.672,11.208 L453.672,7.116 L457.116,7.116 L457.116,7.872 L457.98,7.872 L457.98,2.232 L453.672,2.232 L453.672,0.072 L452.784,0.072 Z M449.352,6.276 L449.352,3.072 L452.784,3.072 L452.784,6.276 L449.352,6.276 Z M453.672,6.276 L453.672,3.072 L457.116,3.072 L457.116,6.276 L453.672,6.276 Z" id="形状"></path>
                    <path d="M459.912,1.5 L459.912,2.328 L464.784,2.328 L464.784,3.9 L461.04,3.9 L461.04,9.432 L461.892,9.432 L461.892,4.728 L464.784,4.728 L464.784,11.1 L465.672,11.1 L465.672,4.728 L468.708,4.728 L468.708,8.064 C468.708,8.4 468.54,8.568 468.204,8.568 L467.064,8.52 L467.28,9.348 L468.48,9.348 C469.2,9.348 469.572,8.976 469.572,8.256 L469.572,3.9 L465.672,3.9 L465.672,2.328 L470.544,2.328 L470.544,1.5 L465.636,1.5 C465.444,0.948 465.252,0.444 465.06,0 L464.136,0.144 C464.352,0.552 464.568,0.996 464.76,1.5 L459.912,1.5 Z" id="路径"></path>
                    <path d="M505.968,11.076 C506.532,11.076 506.82,10.764 506.82,10.152 L506.82,4.56 L504.024,4.56 L504.024,11.124 L504.756,11.124 L504.756,8.748 L506.1,8.748 L506.1,9.996 C506.1,10.26 505.968,10.392 505.728,10.392 L505.224,10.368 L505.428,11.076 L505.968,11.076 Z M504.756,8.1 L504.756,7.044 L506.1,7.044 L506.1,8.1 L504.756,8.1 Z M504.756,6.396 L504.756,5.268 L506.1,5.268 L506.1,6.396 L504.756,6.396 Z M502.284,4.944 C502.572,5.412 502.92,6.024 503.316,6.768 L503.796,6.036 C503.292,5.292 502.788,4.632 502.284,4.032 L502.284,3.288 L503.388,3.288 C503.34,3.324 503.28,3.36 503.22,3.408 L503.676,4.092 C504.18,3.708 504.684,3.3 505.176,2.868 L505.176,3.552 L508.752,3.552 L508.752,2.88 C509.232,3.312 509.724,3.72 510.252,4.092 L510.708,3.408 C509.556,2.616 508.416,1.56 507.3,0.228 L506.664,0.228 C505.728,1.356 504.66,2.364 503.46,3.24 L503.46,2.484 L502.284,2.484 L502.284,0.12 L501.456,0.12 L501.456,2.484 L500.052,2.484 L500.052,3.288 L501.444,3.288 C501.084,4.776 500.508,6.096 499.692,7.248 L500.064,8.184 C500.628,7.26 501.096,6.24 501.456,5.112 L501.456,11.088 L502.284,11.088 L502.284,4.944 Z M508.704,2.832 L505.212,2.832 C505.812,2.28 506.4,1.668 506.976,1.008 C507.516,1.668 508.092,2.28 508.704,2.832 Z M507.624,4.8 L507.624,9.204 L508.308,9.204 L508.308,4.8 L507.624,4.8 Z M509.016,11.052 C509.616,11.052 509.916,10.728 509.916,10.104 L509.916,4.356 L509.148,4.356 L509.148,9.924 C509.148,10.224 509.016,10.38 508.764,10.38 C508.476,10.38 508.176,10.356 507.864,10.332 L508.02,11.052 L509.016,11.052 Z" id="形状"></path>
                    <path d="M516.828,2.484 L516.828,3.312 L518.82,3.312 C518.148,5.352 517.212,6.984 516.024,8.208 L516.516,9.024 C517.524,7.824 518.352,6.228 519.024,4.248 L519.024,11.076 L519.888,11.076 L519.888,4.224 C520.512,6.144 521.28,7.716 522.192,8.94 L522.756,8.172 C521.604,6.888 520.716,5.268 520.092,3.312 L522.42,3.312 L522.42,2.484 L519.888,2.484 L519.888,0.132 L519.024,0.132 L519.024,2.484 L516.828,2.484 Z M512.004,2.484 L512.004,3.312 L513.828,3.312 C513.396,4.824 512.7,6.156 511.716,7.332 L512.088,8.268 C512.832,7.236 513.42,6.084 513.864,4.8 L513.864,11.076 L514.74,11.076 L514.74,4.824 C515.148,5.304 515.628,5.964 516.192,6.792 L516.696,6.036 C516.024,5.28 515.376,4.608 514.74,4.008 L514.74,3.312 L516.372,3.312 L516.372,2.484 L514.74,2.484 L514.74,0.132 L513.864,0.132 L513.864,2.484 L512.004,2.484 Z" id="形状"></path>
                    <path d="M523.884,1.5 L523.884,2.328 L528.756,2.328 L528.756,3.9 L525.012,3.9 L525.012,9.432 L525.864,9.432 L525.864,4.728 L528.756,4.728 L528.756,11.1 L529.644,11.1 L529.644,4.728 L532.68,4.728 L532.68,8.064 C532.68,8.4 532.512,8.568 532.176,8.568 L531.036,8.52 L531.252,9.348 L532.452,9.348 C533.172,9.348 533.544,8.976 533.544,8.256 L533.544,3.9 L529.644,3.9 L529.644,2.328 L534.516,2.328 L534.516,1.5 L529.608,1.5 C529.416,0.948 529.224,0.444 529.032,0 L528.108,0.144 C528.324,0.552 528.54,0.996 528.732,1.5 L523.884,1.5 Z" id="路径"></path>
                    <path d="M578.148,1.296 L573.684,1.296 C573.516,0.828 573.336,0.408 573.144,0.024 L572.184,0.192 C572.388,0.528 572.568,0.888 572.736,1.296 L568.176,1.296 L568.176,3.864 L569.064,3.864 L569.064,2.136 L577.26,2.136 L577.26,3.876 L578.148,3.876 L578.148,1.296 Z M567.888,4.632 L567.888,5.472 L570.78,5.472 C570.396,6.132 569.988,6.804 569.556,7.476 C570.672,7.836 571.788,8.256 572.916,8.736 C571.644,9.708 569.976,10.2 567.936,10.212 L568.44,11.016 C570.672,10.944 572.448,10.32 573.792,9.12 C575.064,9.696 576.336,10.368 577.608,11.112 L578.184,10.356 C576.912,9.636 575.652,9.012 574.416,8.484 C575.052,7.74 575.616,6.744 576.108,5.472 L578.472,5.472 L578.472,4.632 L572.268,4.632 C572.556,4.104 572.856,3.54 573.168,2.94 L572.28,2.676 C571.956,3.324 571.608,3.972 571.248,4.632 L567.888,4.632 Z M571.8,5.472 L575.16,5.472 C574.752,6.528 574.224,7.416 573.576,8.124 C572.628,7.728 571.704,7.392 570.792,7.128 C571.104,6.648 571.44,6.096 571.8,5.472 Z" id="形状"></path>
                    <path d="M589.272,6.636 L589.272,4.992 L590.448,4.992 L590.448,4.272 L589.272,4.272 L589.272,2.616 L586.296,2.616 L586.296,1.728 L590.316,1.728 L590.316,0.96 L586.14,0.96 C586.008,0.624 585.864,0.312 585.72,0.048 L584.832,0.192 C584.976,0.42 585.12,0.672 585.264,0.96 L580.68,0.96 L580.68,4.824 C580.644,7.26 580.284,9.156 579.612,10.512 L580.26,11.088 C581.04,9.552 581.46,7.524 581.52,4.992 L585.468,4.992 L585.468,5.928 L582.432,5.928 L582.432,6.636 L585.468,6.636 L585.468,7.716 C584.352,8.532 583.032,9.216 581.52,9.792 L581.856,10.572 C583.236,9.972 584.436,9.3 585.468,8.556 L585.468,9.936 C585.468,10.2 585.336,10.344 585.084,10.344 C584.7,10.344 584.304,10.32 583.872,10.284 L584.04,11.064 L585.372,11.064 C585.984,11.064 586.296,10.752 586.296,10.14 L586.296,8.208 C587.376,9.288 588.66,10.14 590.148,10.764 L590.58,10.008 C589.644,9.66 588.804,9.24 588.048,8.748 C588.684,8.364 589.248,7.932 589.728,7.452 L589.104,6.912 C588.648,7.44 588.084,7.908 587.436,8.316 C587.028,8.004 586.656,7.668 586.296,7.296 L586.296,6.636 L589.272,6.636 Z M581.52,4.272 L581.52,1.728 L585.468,1.728 L585.468,2.616 L582.48,2.616 L582.48,3.324 L585.468,3.324 L585.468,4.272 L581.52,4.272 Z M586.296,3.324 L588.444,3.324 L588.444,4.272 L586.296,4.272 L586.296,3.324 Z M588.444,4.992 L588.444,5.928 L586.296,5.928 L586.296,4.992 L588.444,4.992 Z M582.516,7.14 L582.096,7.752 C582.66,7.968 583.212,8.268 583.74,8.64 L584.148,8.028 C583.656,7.668 583.116,7.38 582.516,7.14 Z" id="形状"></path>
                    <path d="M591.852,1.5 L591.852,2.328 L596.724,2.328 L596.724,3.9 L592.98,3.9 L592.98,9.432 L593.832,9.432 L593.832,4.728 L596.724,4.728 L596.724,11.1 L597.612,11.1 L597.612,4.728 L600.648,4.728 L600.648,8.064 C600.648,8.4 600.48,8.568 600.144,8.568 L599.004,8.52 L599.22,9.348 L600.42,9.348 C601.14,9.348 601.512,8.976 601.512,8.256 L601.512,3.9 L597.612,3.9 L597.612,2.328 L602.484,2.328 L602.484,1.5 L597.576,1.5 C597.384,0.948 597.192,0.444 597,0 L596.076,0.144 C596.292,0.552 596.508,0.996 596.7,1.5 L591.852,1.5 Z" id="路径"></path>
                    <path d="M634.908,6.708 L634.908,9.66 L639.36,9.66 L639.36,6.708 L634.908,6.708 Z M638.532,8.892 L635.736,8.892 L635.736,7.488 L638.532,7.488 L638.532,8.892 Z M638.304,4.368 L637.716,4.92 C638.748,5.676 639.552,6.396 640.14,7.068 L640.788,6.432 C640.116,5.748 639.288,5.064 638.304,4.368 Z M637.212,0 L636.264,0.156 C636.42,0.444 636.564,0.756 636.708,1.104 L631.824,1.104 L631.824,1.944 L634.32,1.944 C634.56,2.4 634.776,2.88 634.956,3.396 L632.424,3.396 L632.424,11.04 L633.252,11.04 L633.252,4.164 L641.004,4.164 L641.004,9.684 C641.004,10.092 640.836,10.308 640.5,10.308 L639.336,10.272 L639.552,11.064 L640.776,11.064 C641.472,11.064 641.832,10.668 641.832,9.876 L641.832,3.396 L639.168,3.396 C639.408,2.964 639.648,2.484 639.864,1.944 L642.456,1.944 L642.456,1.104 L637.632,1.104 C637.5,0.696 637.356,0.336 637.212,0 Z M635.856,3.396 C635.676,2.868 635.484,2.376 635.28,1.944 L638.916,1.944 C638.712,2.436 638.484,2.916 638.232,3.396 L635.856,3.396 Z M635.892,4.38 C635.22,5.148 634.392,5.808 633.408,6.36 L633.96,7.08 C634.968,6.468 635.82,5.748 636.504,4.92 L635.892,4.38 Z" id="形状"></path>
                    <path d="M653.16,6.636 L647.964,6.636 L647.964,11.088 L648.792,11.088 L648.792,10.56 L652.332,10.56 L652.332,11.088 L653.16,11.088 L653.16,6.636 Z M648.792,9.768 L648.792,7.416 L652.332,7.416 L652.332,9.768 L648.792,9.768 Z M649.296,0.036 C648.852,1.356 647.988,2.472 646.704,3.384 L647.22,4.056 C647.724,3.684 648.18,3.276 648.588,2.832 C648.948,3.384 649.392,3.9 649.908,4.368 C648.96,4.992 647.82,5.532 646.476,5.988 L647.004,6.696 C648.384,6.192 649.572,5.592 650.568,4.896 C651.552,5.616 652.74,6.156 654.156,6.54 L654.648,5.808 C653.328,5.472 652.2,4.992 651.24,4.368 C652.116,3.624 652.788,2.76 653.268,1.776 L653.268,1.152 L649.74,1.152 C649.884,0.852 650.016,0.528 650.136,0.192 L649.296,0.036 Z M649.08,2.232 C649.152,2.136 649.224,2.028 649.296,1.92 L652.32,1.92 C651.888,2.64 651.3,3.288 650.568,3.876 C649.98,3.396 649.488,2.856 649.08,2.232 Z M644.604,0.36 L643.992,0.96 C644.88,1.596 645.588,2.196 646.092,2.772 L646.716,2.148 C646.14,1.548 645.432,0.96 644.604,0.36 Z M644.388,3.3 L643.776,3.9 C644.616,4.512 645.264,5.088 645.732,5.64 L646.344,5.028 C645.816,4.452 645.168,3.876 644.388,3.3 Z M645.66,6.516 C645.156,7.956 644.568,9.348 643.896,10.716 L644.76,11.088 C645.372,9.768 645.936,8.34 646.44,6.828 L645.66,6.516 Z" id="形状"></path>
                    <path d="M655.824,1.5 L655.824,2.328 L660.696,2.328 L660.696,3.9 L656.952,3.9 L656.952,9.432 L657.804,9.432 L657.804,4.728 L660.696,4.728 L660.696,11.1 L661.584,11.1 L661.584,4.728 L664.62,4.728 L664.62,8.064 C664.62,8.4 664.452,8.568 664.116,8.568 L662.976,8.52 L663.192,9.348 L664.392,9.348 C665.112,9.348 665.484,8.976 665.484,8.256 L665.484,3.9 L661.584,3.9 L661.584,2.328 L666.456,2.328 L666.456,1.5 L661.548,1.5 C661.356,0.948 661.164,0.444 660.972,0 L660.048,0.144 C660.264,0.552 660.48,0.996 660.672,1.5 L655.824,1.5 Z" id="路径"></path>
                    <path d="M694.392,5.004 C694.728,5.46 695.124,6.036 695.58,6.756 L696.072,6.024 C695.508,5.292 694.944,4.632 694.392,4.032 L694.392,3.3 L695.868,3.3 L695.868,2.472 L694.392,2.472 L694.392,0.132 L693.552,0.132 L693.552,2.472 L691.8,2.472 L691.8,3.3 L693.504,3.3 C693.12,4.86 692.484,6.264 691.596,7.488 L691.968,8.436 C692.628,7.416 693.156,6.288 693.552,5.04 L693.552,11.076 L694.392,11.076 L694.392,5.004 Z M697.92,4.992 C697.416,6.228 696.552,7.236 695.328,8.004 L695.832,8.616 C697.2,7.752 698.16,6.54 698.712,4.992 L699.72,4.992 C699.48,6.264 699.108,7.272 698.592,8.028 C698.04,8.784 697.224,9.468 696.144,10.092 L696.672,10.776 C697.848,10.08 698.724,9.276 699.324,8.388 C699.852,7.56 700.248,6.432 700.524,4.992 L701.328,4.992 C701.256,7.596 701.148,9.096 701.004,9.504 C700.836,9.936 700.536,10.164 700.092,10.176 C699.66,10.176 699.216,10.152 698.76,10.128 L699,10.956 C699.396,10.98 699.804,10.992 700.224,10.992 C701.088,10.968 701.616,10.548 701.808,9.732 C702,8.916 702.132,7.08 702.192,4.236 L697.632,4.236 C698.952,3.348 700.176,2.4 701.292,1.368 L701.292,0.612 L696.276,0.612 L696.276,1.404 L700.08,1.404 C698.904,2.388 697.608,3.324 696.204,4.2 L696.204,4.992 L697.92,4.992 Z" id="形状"></path>
                    <path d="M704.436,0.408 L703.728,0.84 C704.46,1.884 705.036,2.832 705.456,3.672 L706.164,3.18 C705.756,2.388 705.18,1.464 704.436,0.408 Z M705.456,5.424 C704.964,7.128 704.376,8.796 703.704,10.428 L704.532,10.788 C705.156,9.204 705.72,7.524 706.236,5.724 L705.456,5.424 Z M707.316,1.116 L707.316,1.884 L710.016,1.884 L710.016,3.084 L706.764,3.084 L706.764,3.852 L714.12,3.852 L714.12,3.084 L710.88,3.084 L710.88,1.884 L713.604,1.884 L713.604,1.116 L710.88,1.116 L710.88,0.144 L710.016,0.144 L710.016,1.116 L707.316,1.116 Z M709.668,5.136 C708.984,6.504 707.964,7.596 706.608,8.412 L707.256,8.976 C707.712,8.688 708.144,8.364 708.552,7.98 C708.912,8.436 709.356,8.856 709.86,9.24 C708.9,9.72 707.688,10.104 706.212,10.392 L706.632,11.148 C708.228,10.788 709.548,10.32 710.604,9.732 C711.576,10.332 712.764,10.788 714.18,11.124 L714.672,10.392 C713.376,10.128 712.272,9.744 711.336,9.264 C712.176,8.664 712.752,7.956 713.064,7.14 L713.064,6.456 L709.836,6.456 C710.052,6.144 710.256,5.808 710.448,5.436 L709.668,5.136 Z M710.592,8.82 C709.98,8.412 709.476,7.956 709.08,7.44 C709.152,7.356 709.224,7.272 709.296,7.176 L712.176,7.176 C711.852,7.788 711.324,8.34 710.592,8.82 Z M708.612,3.984 C708.06,4.74 707.412,5.388 706.644,5.94 L707.34,6.432 C708.108,5.844 708.768,5.148 709.332,4.332 L708.612,3.984 Z M712.2,3.972 L711.528,4.392 C712.488,5.136 713.256,5.808 713.808,6.432 L714.528,5.928 C713.988,5.364 713.208,4.716 712.2,3.972 Z" id="形状"></path>
                    <path d="M720.48,10.98 C721.224,10.98 721.596,10.608 721.596,9.888 L721.596,4.68 L726.228,4.68 L726.228,3.828 L716.004,3.828 L716.004,4.68 L720.72,4.68 L720.72,9.672 C720.72,10.008 720.54,10.188 720.18,10.188 C719.724,10.188 719.256,10.164 718.752,10.14 L718.932,10.98 L720.48,10.98 Z M717.852,6 C717.432,7.464 716.76,8.796 715.836,9.996 L716.592,10.464 C717.504,9.264 718.2,7.836 718.704,6.18 L717.852,6 Z M724.188,5.88 L723.408,6.144 C724.176,7.368 724.884,8.772 725.532,10.368 L726.324,10.008 C725.724,8.544 725.004,7.176 724.188,5.88 Z M717.108,0.78 L717.108,1.62 L725.16,1.62 L725.16,0.78 L717.108,0.78 Z" id="形状"></path>
                    <path d="M727.836,1.188 L727.836,1.992 L730.668,1.992 L730.668,3.132 L731.544,3.132 L731.544,1.992 L734.688,1.992 L734.688,3.132 L735.564,3.132 L735.564,1.992 L738.396,1.992 L738.396,1.188 L735.564,1.188 L735.564,0.108 L734.688,0.108 L734.688,1.188 L731.544,1.188 L731.544,0.108 L730.668,0.108 L730.668,1.188 L727.836,1.188 Z M729.396,3.012 L728.796,3.576 C729.612,4.14 730.248,4.68 730.704,5.184 L731.292,4.596 C730.788,4.068 730.152,3.54 729.396,3.012 Z M728.64,5.052 L728.052,5.616 C728.856,6.168 729.492,6.696 729.948,7.2 L730.536,6.612 C730.02,6.084 729.384,5.568 728.64,5.052 Z M730.044,7.644 C729.588,8.676 728.964,9.732 728.196,10.788 L729,11.208 C729.732,10.176 730.32,9.096 730.776,7.992 L730.044,7.644 Z M736.512,4.32 L736.512,6.564 C736.512,6.852 736.344,7.008 736.032,7.008 C735.6,7.008 735.132,6.984 734.616,6.948 L734.82,7.764 C735.312,7.788 735.816,7.8 736.344,7.8 C737.016,7.776 737.352,7.452 737.364,6.828 L737.364,3.552 L732.168,3.552 L732.168,9.78 C732.168,10.524 732.552,10.908 733.332,10.908 L736.548,10.908 C737.172,10.908 737.592,10.8 737.82,10.584 C738.06,10.32 738.228,9.612 738.324,8.46 L737.496,8.196 C737.436,8.964 737.34,9.48 737.208,9.744 C737.1,9.972 736.8,10.092 736.32,10.092 L733.668,10.092 C733.248,10.092 733.044,9.888 733.044,9.492 L733.044,4.32 L736.512,4.32 Z" id="形状"></path>
                    <path d="M743.064,2.544 L742.44,3.144 C743.592,4.02 744.636,4.884 745.584,5.724 C744.6,6.78 743.436,7.596 742.092,8.148 L742.596,8.928 C743.976,8.328 745.188,7.464 746.244,6.336 C747.18,7.2 747.996,8.052 748.704,8.892 L749.376,8.22 C748.608,7.38 747.756,6.528 746.82,5.664 C747.54,4.752 748.164,3.684 748.704,2.46 L747.924,2.04 C747.42,3.18 746.832,4.188 746.148,5.064 C745.2,4.224 744.168,3.384 743.064,2.544 Z M740.532,0.612 L740.532,10.62 L750.408,10.62 L750.408,9.792 L741.36,9.792 L741.36,1.44 L750.06,1.44 L750.06,0.612 L740.532,0.612 Z" id="形状"></path>
                </g>
            </g>
            <text id="根据区划查看所有违规数据" mask="url(#mask-2)" font-family="PingFangSC-Medium, PingFang SC" font-size="16" font-weight="400" line-spacing="26" fill="#595959">
                <tspan x="24.1639344" y="33">根据区划查看所有违规数据</tspan>
            </text>
            <g id="编组-14" mask="url(#mask-2)">
                <g transform="translate(616.000000, 13.000000)">
                    <g id="图例一" transform="translate(0.000000, 8.000000)">
                        <polygon id="路径" fill-opacity="0" fill="#FFFFFF" fill-rule="nonzero" points="0.137254625 1.07793221 31.191301 1.07793221 31.191301 16.9220678 12.5119216 16.9220678 0.137254625 16.9220678"></polygon>
                        <text id="金额" fill="#8C8C8C" fill-rule="nonzero" font-family="PingFangSC-Regular, PingFang SC" font-size="12" font-weight="normal">
                            <tspan x="11.9899404" y="13">金额</tspan>
                        </text>
                        <rect id="矩形" fill="#FFFFFF" x="0" y="3.34138015" width="7.68025879" height="11.3172397"></rect>
                        <rect id="矩形" fill="#5B8FF9" x="0.768025879" y="4.47310412" width="6.14420703" height="9.05379176"></rect>
                    </g>
                    <g id="图例备份" transform="translate(51.999940, 0.000000)">
                        <g id="图例一" transform="translate(0.000000, 8.000000)">
                            <polygon id="路径" fill-opacity="0" fill="#FFFFFF" fill-rule="nonzero" points="0.137254625 1.07793221 31.191301 1.07793221 31.191301 16.9220678 12.5119216 16.9220678 0.137254625 16.9220678"></polygon>
                            <text id="数量" fill="#8C8C8C" fill-rule="nonzero" font-family="PingFangSC-Regular, PingFang SC" font-size="12" font-weight="normal">
                                <tspan x="11.9899404" y="13">数量</tspan>
                            </text>
                            <rect id="矩形" fill="#FFFFFF" x="0" y="3.34138015" width="7.68025879" height="11.3172397"></rect>
                            <rect id="矩形" fill="#69D9AC" x="0.768025879" y="4.47310412" width="6.14420703" height="9.05379176"></rect>
                        </g>
                        <g id="搜索框/中/normal" transform="translate(65.000060, 0.000000)">
                            <path d="M168.990565,0.5 C169.408313,0.5 169.786746,0.667131187 170.060283,0.939621078 C170.332221,1.21051799 170.5,1.58537099 170.5,2.00174332 L170.5,2.00174332 L170.5,29.9982567 C170.5,30.4127449 170.331226,30.7879087 170.058591,31.059501 C169.785275,31.3317707 169.407636,31.5 168.990565,31.5 L168.990565,31.5 L2.00943455,31.5 C1.59168701,31.5 1.21325351,31.3328688 0.939716639,31.0603789 C0.667778869,30.789482 0.5,30.414629 0.5,29.9982567 L0.5,29.9982567 L0.5,2.00174332 C0.5,1.58725511 0.66877357,1.21209127 0.941409401,0.940498972 C1.21472521,0.668229292 1.59236357,0.5 2.00943455,0.5 L2.00943455,0.5 Z" id="Rectangle-5-Copy" stroke="#CFD2D4" fill="#FFFFFF"></path>
                            <rect id="矩形" stroke="#979797" fill="#D8D8D8" opacity="0" x="0.5" y="0.5" width="15" height="31"></rect>
                            <text id="按区划" font-family="PingFangSC-Regular, PingFang SC" font-size="12" font-weight="normal" line-spacing="22" fill="#2E3133">
                                <tspan x="16" y="18">按区划</tspan>
                            </text>
                            <g id="icon12*12/-箭头-向下-蓝" transform="translate(143.000000, 10.000000)">
                                <rect id="Rectangle" fill-rule="nonzero" x="0" y="0" width="12" height="12"></rect>
                                <polyline id="Shape备份" stroke="#9EA4A9" points="3 5 6 8 9 5"></polyline>
                            </g>
                        </g>
                    </g>
                </g>
            </g>
            <g id="金-额" mask="url(#mask-2)" fill="#8A9299" fill-rule="nonzero">
                <g transform="translate(25.747770, 156.426000) rotate(-90.000000) translate(-25.747770, -156.426000) translate(12.229770, 150.888000)" id="形状">
                    <path d="M2.304,3.492 L2.304,4.188 L5.028,4.188 L5.028,5.916 L0.744,5.916 L0.744,6.72 L5.028,6.72 L5.028,9.924 L3.648,9.924 C3.336,8.976 3,8.16 2.628,7.488 L1.848,7.776 C2.232,8.448 2.556,9.156 2.808,9.924 L0.324,9.924 L0.324,10.752 L10.584,10.752 L10.584,9.924 L8.1,9.924 C8.46,9.276 8.796,8.52 9.096,7.68 L8.304,7.404 C7.992,8.304 7.632,9.144 7.224,9.924 L5.892,9.924 L5.892,6.72 L10.164,6.72 L10.164,5.916 L5.892,5.916 L5.892,4.188 L8.616,4.188 L8.616,3.528 C9.168,3.852 9.756,4.152 10.392,4.416 L10.884,3.696 C8.652,2.76 6.96,1.584 5.808,0.156 L5.112,0.156 C3.792,1.608 2.088,2.796 -5.68434189e-14,3.732 L0.504,4.452 C1.128,4.164 1.728,3.84 2.304,3.492 Z M8.412,3.408 L2.436,3.408 C3.552,2.724 4.56,1.908 5.46,0.972 C6.252,1.896 7.236,2.712 8.412,3.408 Z"></path>
                    <path d="M17.316,4.884 C17.724,5.1 18.12,5.328 18.504,5.556 C17.784,6.18 16.92,6.612 15.9,6.852 L16.224,7.5 C17.352,7.2 18.336,6.684 19.152,5.94 C19.92,6.408 20.58,6.864 21.132,7.32 L21.672,6.78 C21.072,6.336 20.4,5.892 19.644,5.436 C20.04,4.98 20.4,4.44 20.712,3.816 L20.712,3.228 L18.468,3.228 C18.576,2.988 18.672,2.724 18.768,2.448 L17.988,2.34 C17.64,3.408 16.968,4.308 15.984,5.052 L16.44,5.664 C16.752,5.424 17.04,5.16 17.316,4.884 Z M19.008,5.064 C18.624,4.836 18.204,4.608 17.76,4.38 C17.88,4.224 17.988,4.068 18.096,3.9 L19.86,3.9 C19.62,4.32 19.332,4.704 19.008,5.064 Z M21.288,1.212 L19.272,1.212 C19.104,0.756 18.936,0.36 18.768,-2.65721413e-14 L17.904,0.144 C18.096,0.468 18.276,0.828 18.444,1.212 L16.248,1.212 L16.248,3.204 L17.004,3.204 L17.004,1.956 L20.532,1.956 L20.532,3.192 L21.288,3.192 L21.288,1.212 Z M20.7,7.344 L16.992,7.344 L16.992,10.992 L17.772,10.992 L17.772,10.368 L19.932,10.368 L19.932,10.992 L20.7,10.992 L20.7,7.344 Z M17.772,9.636 L17.772,8.064 L19.932,8.064 L19.932,9.636 L17.772,9.636 Z M21.696,0.564 L21.696,1.356 L23.928,1.356 C23.88,1.824 23.808,2.28 23.712,2.712 L21.996,2.712 L21.996,8.352 L22.764,8.352 L22.764,3.432 L25.764,3.432 L25.764,8.34 L26.532,8.34 L26.532,2.712 L24.516,2.712 C24.612,2.28 24.696,1.836 24.756,1.356 L26.964,1.356 L26.964,0.564 L21.696,0.564 Z M24.996,8.532 L24.48,9.036 C25.32,9.756 25.992,10.428 26.472,11.064 L27.036,10.512 C26.484,9.852 25.812,9.192 24.996,8.532 Z M23.856,4.14 L23.856,6.324 C23.832,7.368 23.64,8.22 23.292,8.88 C22.908,9.504 22.248,10.008 21.3,10.392 L21.744,11.076 C22.74,10.68 23.46,10.128 23.904,9.408 C24.348,8.64 24.588,7.608 24.612,6.324 L24.612,4.14 L23.856,4.14 Z"></path>
                </g>
            </g>
            <g id="数-量" mask="url(#mask-2)" fill="#8A9299" fill-rule="nonzero">
                <g transform="translate(899.759770, 156.558000) rotate(-90.000000) translate(-899.759770, -156.558000) translate(886.325770, 151.044000)" id="形状">
                    <path d="M7.392,2.688 L9.168,2.688 C9.12,4.308 8.868,5.724 8.4,6.936 C7.92,5.928 7.536,4.716 7.236,3.312 L7.392,2.688 Z M8.004,7.8 C7.452,8.82 6.72,9.648 5.784,10.296 L6.228,11.016 C7.128,10.368 7.872,9.564 8.448,8.604 C9.048,9.612 9.768,10.428 10.608,11.028 L11.076,10.32 C10.212,9.732 9.48,8.904 8.856,7.824 C9.528,6.408 9.9,4.692 9.96,2.688 L10.74,2.688 L10.74,1.86 L7.572,1.86 C7.668,1.332 7.764,0.756 7.836,0.144 L6.996,-2.5595608e-14 C6.756,2.28 6.276,4.092 5.568,5.436 L6.108,6.096 C6.36,5.664 6.6,5.172 6.816,4.62 C7.14,5.82 7.536,6.876 8.004,7.8 Z M2.316,5.604 C2.232,5.844 2.136,6.096 2.028,6.36 L0.276,6.36 L0.276,7.116 L1.692,7.116 C1.452,7.596 1.176,8.088 0.864,8.616 C1.452,8.832 2.004,9.06 2.532,9.288 C1.836,9.684 0.984,10.008 0,10.272 L0.408,10.992 C1.608,10.656 2.604,10.212 3.396,9.66 C4.104,9.972 4.716,10.296 5.244,10.608 L5.712,9.936 C5.184,9.648 4.632,9.384 4.056,9.12 C4.68,8.544 5.124,7.86 5.388,7.068 L5.388,6.36 L2.88,6.36 C2.952,6.144 3.036,5.928 3.12,5.7 L2.316,5.604 Z M3.264,8.784 C2.832,8.604 2.376,8.436 1.896,8.268 C2.136,7.908 2.352,7.524 2.544,7.116 L4.608,7.116 C4.32,7.74 3.864,8.304 3.264,8.784 Z M1.224,0.252 L0.54,0.48 C0.828,0.936 1.092,1.452 1.344,2.04 L1.968,1.752 C1.752,1.224 1.512,0.72 1.224,0.252 Z M4.872,0.216 C4.656,0.72 4.344,1.224 3.96,1.74 L4.572,2.052 C4.956,1.548 5.256,1.032 5.496,0.504 L4.872,0.216 Z M0.3,2.328 L0.3,3.084 L2.004,3.084 C1.644,3.744 0.996,4.344 0.072,4.884 L0.492,5.58 C1.524,4.884 2.244,4.068 2.64,3.12 L2.64,5.4 L3.444,5.4 L3.444,3.84 C3.876,4.128 4.392,4.512 4.992,4.992 L5.436,4.32 C4.764,3.912 4.092,3.54 3.444,3.216 L3.444,3.084 L5.628,3.084 L5.628,2.328 L3.444,2.328 L3.444,0.036 L2.64,0.036 L2.64,2.328 L0.3,2.328 Z"></path>
                    <path d="M17.328,5.052 L17.328,8.112 L21.048,8.112 L21.048,8.784 L17.028,8.784 L17.028,9.36 L21.048,9.36 L21.048,10.068 L16.128,10.068 L16.128,10.74 L26.856,10.74 L26.856,10.068 L21.912,10.068 L21.912,9.36 L25.98,9.36 L25.98,8.784 L21.912,8.784 L21.912,8.112 L25.68,8.112 L25.68,5.052 L17.328,5.052 Z M24.852,7.572 L21.912,7.572 L21.912,6.84 L24.852,6.84 L24.852,7.572 Z M21.048,7.572 L18.156,7.572 L18.156,6.84 L21.048,6.84 L21.048,7.572 Z M18.156,6.336 L18.156,5.592 L21.048,5.592 L21.048,6.336 L18.156,6.336 Z M21.912,5.592 L24.852,5.592 L24.852,6.336 L21.912,6.336 L21.912,5.592 Z M17.592,0.216 L17.592,3.18 L25.428,3.18 L25.428,0.216 L17.592,0.216 Z M24.588,2.664 L18.432,2.664 L18.432,1.956 L24.588,1.956 L24.588,2.664 Z M18.432,1.44 L18.432,0.744 L24.588,0.744 L24.588,1.44 L18.432,1.44 Z M16.116,3.804 L16.116,4.452 L26.868,4.452 L26.868,3.804 L16.116,3.804 Z"></path>
                </g>
            </g>
        </g>
    </g>
</svg>