<?xml version="1.0" standalone="no"?><!DOCTYPE svg PUBLIC "-//W3C//DTD SVG 1.1//EN" "http://www.w3.org/Graphics/SVG/1.1/DTD/svg11.dtd"><svg class="icon" width="14px" height="14.00px" viewBox="0 0 1024 1024" version="1.1" xmlns="http://www.w3.org/2000/svg"><path d="M239.762286 73.142857h655.579428c27.794286 0 55.515429 22.381714 55.515429 55.881143v659.748571a55.881143 55.881143 0 0 1-55.588572 55.881143h-16.603428V196.169143a55.881143 55.881143 0 0 0-55.588572-55.954286H184.32v-16.822857c0-27.867429 27.794286-50.249143 55.588571-50.249143zM128.731429 179.346286h655.579428c27.794286 0 55.515429 22.381714 55.515429 55.954285v659.675429a55.881143 55.881143 0 0 1-55.588572 55.881143H128.731429A55.808 55.808 0 0 1 73.142857 894.976v-659.748571c5.558857-27.940571 27.794286-55.881143 55.588572-55.881143z m289.28 348.16H239.762286v81.115428h178.176v174.518857h79.872V608.621714h175.323428V527.579429H497.810286V347.062857H417.938286v180.516572z" fill="#5176EA" /></svg>