<?xml version="1.0" standalone="no"?><!DOCTYPE svg PUBLIC "-//W3C//DTD SVG 1.1//EN" "http://www.w3.org/Graphics/SVG/1.1/DTD/svg11.dtd"><svg t="1658458732655" class="icon" viewBox="0 0 1024 1024" version="1.1" xmlns="http://www.w3.org/2000/svg" p-id="15418" xmlns:xlink="http://www.w3.org/1999/xlink" width="200" height="200"><defs><style type="text/css">@font-face { font-family: feedback-iconfont; src: url("//at.alicdn.com/t/font_1031158_u69w8yhxdu.woff2?t=1630033759944") format("woff2"), url("//at.alicdn.com/t/font_1031158_u69w8yhxdu.woff?t=1630033759944") format("woff"), url("//at.alicdn.com/t/font_1031158_u69w8yhxdu.ttf?t=1630033759944") format("truetype"); }
</style></defs><path d="M841.142857 35.84a73.142857 73.142857 0 0 1 73.142857 73.142857l0.073143 365.714286a182.857143 182.857143 0 0 0-328.850286 97.645714L585.142857 584.411429v45.494857a182.857143 182.857143 0 0 0-78.043428 323.876571l10.24 7.314286 37.888 25.6H109.714286a73.142857 73.142857 0 0 1-73.142857-73.142857v-804.571429a73.142857 73.142857 0 0 1 73.142857-73.142857h731.428571z m-73.142857 490.057143a58.514286 58.514286 0 0 1 58.075429 51.2l0.438857 7.314286-0.073143 193.828571 46.518857-46.226286a58.514286 58.514286 0 0 1 88.283429 76.361143l-5.632 6.582857-146.944 146.285715a58.514286 58.514286 0 0 1-76.141715 5.485714l-6.582857-5.705143-145.700571-146.285714a58.514286 58.514286 0 0 1 76.361143-88.283429l6.582857 5.705143 46.226285 46.518857L709.485714 584.411429a58.514286 58.514286 0 0 1 58.514286-58.514286z m-337.554286-32.914286h-215.04l-7.460571 0.438857a54.857143 54.857143 0 0 0 0 108.763429l7.460571 0.512h215.04l7.460572-0.512a54.857143 54.857143 0 0 0-7.460572-109.202286z m215.04-256h-430.08l-7.460571 0.438857a54.857143 54.857143 0 0 0 0 108.763429l7.460571 0.512h430.08l7.387429-0.512a54.857143 54.857143 0 0 0-7.387429-109.202286z" fill="#5876EA" p-id="15419"></path></svg>