<?xml version="1.0" standalone="no"?><!DOCTYPE svg PUBLIC "-//W3C//DTD SVG 1.1//EN" "http://www.w3.org/Graphics/SVG/1.1/DTD/svg11.dtd"><svg class="icon" width="14px" height="14.00px" viewBox="0 0 1024 1024" version="1.1" xmlns="http://www.w3.org/2000/svg"><path d="M182.954667 322.423467h296.482133v82.944H182.8864V322.423467z m367.274666 1.024h284.0576V403.456h-283.989333V323.447467z m0 270.267733h284.0576v82.5344h-283.989333V593.7152z m0 121.2416h284.0576v79.189333h-283.989333v-79.189333z" fill="#5176EA" /><path d="M287.744 217.975467h86.152533v284.0576H287.744zM214.152533 622.933333l51.336534-52.155733 197.700266 194.628267-51.336533 52.155733z" fill="#5176EA" /><path d="M215.04 766.429867l195.7888-196.334934 51.8144 51.6096-195.857067 196.4032z" fill="#5176EA" /><path d="M841.1136 1024H182.954667A183.0912 183.0912 0 0 1 0 841.045333V182.8864A183.0912 183.0912 0 0 1 182.8864 0h658.2272A183.0912 183.0912 0 0 1 1024 182.818133v658.295467A183.022933 183.022933 0 0 1 841.1136 1024zM197.290667 103.8336c-50.517333 0-91.409067 40.96-91.477334 91.477333v635.767467c0.068267 50.517333 40.96 91.409067 91.477334 91.477333h628.736c50.517333-0.068267 91.477333-40.96 91.477333-91.477333V195.310933c0-50.449067-40.96-91.3408-91.477333-91.409066H197.290667z" fill="#5176EA" /></svg>