<?xml version="1.0" encoding="UTF-8"?>
<svg width="32px" height="31px" viewBox="0 0 32 31" version="1.1" xmlns="http://www.w3.org/2000/svg" xmlns:xlink="http://www.w3.org/1999/xlink">
    <title>配置</title>
    <defs>
        <filter x="-3.6%" y="-1.6%" width="107.2%" height="103.2%" filterUnits="objectBoundingBox" id="filter-1">
            <feOffset dx="-2" dy="0" in="SourceAlpha" result="shadowOffsetOuter1"></feOffset>
            <feGaussianBlur stdDeviation="2" in="shadowOffsetOuter1" result="shadowBlurOuter1"></feGaussianBlur>
            <feColorMatrix values="0 0 0 0 0   0 0 0 0 0   0 0 0 0 0  0 0 0 0.15 0" type="matrix" in="shadowBlurOuter1" result="shadowMatrixOuter1"></feColorMatrix>
            <feMerge>
                <feMergeNode in="shadowMatrixOuter1"></feMergeNode>
                <feMergeNode in="SourceGraphic"></feMergeNode>
            </feMerge>
        </filter>
    </defs>
    <g id="规范典型页面" stroke="none" stroke-width="1" fill="none" fill-rule="evenodd">
        <g id="典型页面备份-3" transform="translate(-1699.000000, -528.000000)" fill="#5876EA" fill-rule="nonzero">
            <g id="操作备份" filter="url(#filter-1)" transform="translate(1587.000000, 283.000000)">
                <g id="配置" transform="translate(121.000000, 254.000000)">
                    <path d="M7.37259459,3.20125104 L7.3993678,3.20125104 C7.77647729,3.70386499 8.36810401,3.99974497 8.99646391,4 C9.74780637,4.003431 10.4367992,3.58267083 10.7768821,2.91269757 C10.9241934,2.63033488 11.0007558,2.31643162 11,1.99795335 C11.0008859,1.68218719 10.9253584,1.37089366 10.7798569,1.09064608 C10.4403309,0.419015467 9.75052173,-0.00318709542 8.99795131,0 C8.26848775,-0.000733131263 7.59663983,0.396271365 7.24542187,1.0356127 C7.08410037,1.33069444 6.9996974,1.66165383 7,1.99795335 C7.00028162,2.33174391 7.08237683,2.66037761 7.23910042,2.95508816 L7.37259459,3.20125104 Z" id="路径"></path>
                    <path d="M12,3 L12.9041225,3 C13.5091436,2.99952591 13.9994804,2.55208826 14,2 C13.9992213,1.44800985 13.5090361,1.00071057 12.9041225,1 L12,1 L12.0584217,1.16809974 C12.1521594,1.43711255 12.1998349,1.71771572 12.1997644,2 C12.1999103,2.28228959 12.152233,2.56290324 12.0584217,2.83190026 L12,3 Z" id="路径"></path>
                    <path d="M0.935017389,3 L6,3 L5.94734027,2.82839983 C5.86413896,2.56126476 5.82205518,2.28150469 5.82272562,2 C5.82208351,1.71849768 5.86416657,1.43874245 5.94734027,1.17160017 L6,1 L0.935017389,1 C0.418900047,1.00070905 0.000669922421,1.44704888 0,1.99785501 C-0.000848892676,2.26317568 0.0972579962,2.51795454 0.27267625,2.70596769 C0.448094503,2.89398083 0.686404762,2.99977362 0.935017389,3 L0.935017389,3 Z" id="路径"></path>
                    <path d="M8.9972084,9 C8.26807308,8.99911873 7.59645605,9.39602812 7.24533085,10.0353422 C7.08402384,10.3305673 6.99965132,10.6616885 7,10.9981426 C7.00040257,11.3319487 7.08246007,11.6605836 7.23901175,11.9553647 L7.37394313,12.2011782 L7.40070637,12.2011782 C7.77767559,12.703838 8.36908224,12.9997449 8.9972084,13 C9.74827138,13.0034313 10.4370079,12.5826328 10.7769643,11.9125984 C10.9242183,11.6303424 11.0007539,11.3165312 11,10.9981426 C11.0009291,10.6823424 10.9254271,10.37101 10.779938,10.0907525 C10.4402985,9.41857971 9.75003343,8.99625481 8.9972084,9 L8.9972084,9 Z" id="路径"></path>
                    <path d="M12.9041225,10 L12,10 L12.0584217,10.1680997 C12.1521668,10.437111 12.1998424,10.7177152 12.1997644,11 C12.1998424,11.2822848 12.1521668,11.562889 12.0584217,11.8319003 L12,12 L12.9041225,12 C13.5091436,11.9995259 13.9994805,11.5520883 14,11 C13.9994804,10.4479117 13.5091436,10.0004741 12.9041225,10 L12.9041225,10 Z" id="路径"></path>
                    <path d="M6,10 L0.935012717,10 C0.418803182,10.0004741 0.000443293141,10.4479117 0,11 C0.000443281888,11.5520882 0.418803174,11.9995259 0.935012717,12 L6,12 L5.94734022,11.828031 C5.86416644,11.5603144 5.82208334,11.2799578 5.82272546,10.9978504 C5.82209042,10.7157435 5.86417334,10.4353882 5.94734022,10.1676698 L6,10 Z" id="路径"></path>
                    <path d="M6.76164327,5.5441681 L6.62666171,5.29874893 L6.60026035,5.29874893 C6.22326794,4.79619351 5.63177907,4.50031355 5.00353633,4.5 C4.25219398,4.496569 3.56320125,4.91732914 3.22311839,5.58730236 C3.0758096,5.86953254 2.99924557,6.18331509 3,6.50167471 C2.99908508,6.81744434 3.07461428,7.1287448 3.22014358,7.40898195 C3.55949959,8.08081826 4.24937174,8.5032034 5.00204893,8.5 C5.73123299,8.5007771 6.40282651,8.10389698 6.75383441,7.46475903 C6.91564117,7.16956633 7.00031181,6.83830457 7,6.50167471 C7.0002815,6.16778753 6.91842453,5.8389574 6.76164327,5.5441681 L6.76164327,5.5441681 Z" id="路径"></path>
                    <path d="M1.09587749,7.5 L2,7.5 L1.94157833,7.33190026 C1.84782585,7.0628906 1.80015004,6.78228534 1.80023556,6.5 C1.80015004,6.21771464 1.84782586,5.93710939 1.94157833,5.66809974 L2,5.5 L1.09587749,5.5 C0.490963908,5.50071058 0.000778706732,5.94800984 0,6.5 C0.000519546561,7.05208824 0.490856394,7.4995259 1.09587749,7.5 L1.09587749,7.5 Z" id="路径"></path>
                    <path d="M13.0649837,5.5 L8,5.5 L8.05265974,5.67160017 C8.13563499,5.93878263 8.1775806,6.21852643 8.17687246,6.5 C8.17761591,6.78147651 8.1356694,7.06122633 8.05265974,7.32839983 L8,7.5 L13.0649837,7.5 C13.5811929,7.49952693 13.9995525,7.05304902 14,6.50214499 C14.0007431,6.236859 13.9026017,5.98214646 13.7272066,5.79415815 C13.5518114,5.60616985 13.3135634,5.50034052 13.0649837,5.5 L13.0649837,5.5 Z" id="路径"></path>
                </g>
            </g>
        </g>
    </g>
</svg>