<?xml version="1.0" standalone="no"?><!DOCTYPE svg PUBLIC "-//W3C//DTD SVG 1.1//EN" "http://www.w3.org/Graphics/SVG/1.1/DTD/svg11.dtd"><svg class="icon" width="20px" height="11.15px" viewBox="0 0 1836 1024" version="1.1" xmlns="http://www.w3.org/2000/svg"><path d="M136.682132 72.784695l27.872689 27.872689-62.708145 62.243239c-2.486702 2.465079-5.719415 4.032782-9.189986 4.454441l-20.650441 2.529949a3.946288 3.946288 0 0 1-4.411194-4.292264l2.000174-21.082911c0.356788-3.675995 1.97855-7.103319 4.594993-9.698139l62.49191-62.027004z m48.620435 81.174612a7.892577 7.892577 0 1 1 0 15.774342h-55.183167a7.892577 7.892577 0 1 1 0-15.774342h55.183167z m-3.924664-103.371133l5.56805 5.568051c5.838345 5.838345 6.18432 15.179696 0.80007 21.439698l-0.843317 0.908187-11.157725 11.049608-27.872689-27.87269 11.244219-11.146913a15.76353 15.76353 0 0 1 22.25058 0.043247z" fill="#5176EA" /></svg>