<?xml version="1.0" encoding="UTF-8"?>
<svg width="160px" height="160px" viewBox="0 0 160 160" version="1.1" xmlns="http://www.w3.org/2000/svg" xmlns:xlink="http://www.w3.org/1999/xlink">
    <title>空态-无数据</title>
    <defs>
        <linearGradient x1="55.647854%" y1="21.7699098%" x2="45.0059063%" y2="112.994736%" id="linearGradient-1">
            <stop stop-color="#2A8BFD" offset="0%"></stop>
            <stop stop-color="#000000" stop-opacity="0.69" offset="8%"></stop>
            <stop stop-color="#000000" stop-opacity="0.32" offset="21%"></stop>
            <stop stop-color="#000000" stop-opacity="0" offset="100%"></stop>
        </linearGradient>
        <linearGradient x1="188.91186%" y1="-12.640428%" x2="-64.3308814%" y2="101.546088%" id="linearGradient-2">
            <stop stop-color="#000000" offset="0%"></stop>
            <stop stop-color="#000000" stop-opacity="0.69" offset="8%"></stop>
            <stop stop-color="#000000" stop-opacity="0.32" offset="21%"></stop>
            <stop stop-color="#000000" stop-opacity="0" offset="100%"></stop>
        </linearGradient>
        <linearGradient x1="-25.2942756%" y1="242.362715%" x2="178.132343%" y2="35.0607408%" id="linearGradient-3">
            <stop stop-color="#000000" offset="0%"></stop>
            <stop stop-color="#000000" stop-opacity="0.69" offset="11.6150504%"></stop>
            <stop stop-color="#000000" stop-opacity="0.32" offset="20.5126778%"></stop>
            <stop stop-color="#000000" stop-opacity="0" offset="100%"></stop>
        </linearGradient>
        <linearGradient x1="47.6592749%" y1="46.705351%" x2="53.5902851%" y2="55.0495098%" id="linearGradient-4">
            <stop stop-color="#000000" offset="1%"></stop>
            <stop stop-color="#000000" stop-opacity="0.69" offset="8%"></stop>
            <stop stop-color="#000000" stop-opacity="0.32" offset="21%"></stop>
            <stop stop-color="#000000" stop-opacity="0" offset="100%"></stop>
        </linearGradient>
        <linearGradient x1="46.8061051%" y1="42.8371519%" x2="54.8615037%" y2="60.9788508%" id="linearGradient-5">
            <stop stop-color="#000000" offset="1%"></stop>
            <stop stop-color="#000000" stop-opacity="0.69" offset="8%"></stop>
            <stop stop-color="#000000" stop-opacity="0.32" offset="21%"></stop>
            <stop stop-color="#000000" stop-opacity="0" offset="100%"></stop>
        </linearGradient>
    </defs>
    <g id="数据少-内页" stroke="none" stroke-width="1" fill="none" fill-rule="evenodd">
        <g id="3-数据少-列表无信息" transform="translate(-638.000000, -398.000000)">
            <g id="空态-无数据" transform="translate(638.000000, 398.000000)">
                <circle id="椭圆形" fill-opacity="0.1" fill="#5176EA" cx="80" cy="80" r="80"></circle>
                <g id="编组-3" transform="translate(28.592297, 35.548146)">
                    <path d="M10.3727599,84.1344358 L9.86062331,84.1024273 C8.18417625,83.9703921 7.05987644,84.8266204 5.64749981,85.6548413 C3.96705169,86.6431048 2.04653955,87.1872499 0.410103168,88.2235263 C0.166038084,88.3795679 -0.106034469,88.6676447 0.0420050082,88.9157109 C0.142031682,89.0797546 0.370092498,89.103761 0.566144779,89.1077621 C4.70724907,89.1877834 8.83635017,89.2037877 12.9694523,89.2037877 L87.9894577,89.2037877 C90.7245761,89.1926483 93.4561929,89.0068876 96.1676385,88.6476394 C96.570487,88.63547 96.9014178,88.3255997 96.9400123,87.9244196 C96.9786069,87.5232395 96.7128193,87.1559635 96.3196791,87.0672179 C93.9937255,86.2670045 91.6571024,85.518805 89.3098098,84.8226194 C83.3442189,83.0301414 76.6464329,83.8143505 70.5047951,83.9423846 C64.0390709,84.082422 57.5613435,84.2424647 51.0996204,83.8263537 C46.4463795,83.5262737 42.7934054,83.8263537 38.1241602,83.9783942 C34.7192523,84.0784209 31.3503539,84.3785009 27.9334427,84.3264871 L15.7982067,84.1784476 C13.9897244,84.1904508 12.1692389,84.2424647 10.3727599,84.1344358 Z" id="路径" fill="#5176EA" fill-rule="nonzero" opacity="0.383719308"></path>
                    <polygon id="路径" fill="#2A8BFD" fill-rule="nonzero" points="34.2551285 84.5905575 64.7392576 84.5905575 59.3458194 65.201387 38.8043416 65.201387"></polygon>
                    <polygon id="路径" fill="url(#linearGradient-1)" fill-rule="nonzero" points="34.2551285 84.5905575 64.7392576 84.5905575 59.3458194 65.201387 38.8043416 65.201387"></polygon>
                    <path d="M95.1593696,13.3955722 L95.1593696,63.408909 C95.1417412,66.4211438 92.6901812,68.8512303 89.6779079,68.8423822 L10.6888442,68.8423822 C7.6712679,68.8423822 5.22380053,66.3984746 5.21938564,63.3809016 L5.21938564,13.3955722 C5.21938564,10.3748736 7.66814563,7.92610041 10.6888442,7.92610041 L89.6779079,7.92610041 C91.1284996,7.92292669 92.5209444,8.49611737 93.5489186,9.51958953 C94.5768929,10.5430617 95.1561897,11.9329773 95.1593696,13.383569 L95.1593696,13.3955722 Z" id="路径" fill="#5176EA" fill-rule="nonzero"></path>
                    <path d="M95.1593696,13.3995732 L95.1593696,57.2392638 L5.21938564,57.2392638 L5.21938564,13.3995732 C5.21938564,10.3782268 7.66749854,7.92832222 10.6888442,7.92611217 L89.6779079,7.92611217 C91.1306209,7.92505209 92.5242562,8.50112223 93.5522298,9.5275951 C94.5802034,10.554068 95.1583089,11.9468602 95.1593696,13.3995732 L95.1593696,13.3995732 Z" id="路径" fill="#5176EA" fill-rule="nonzero"></path>
                    <path d="M93.807009,14.4278474 L93.807009,55.7748733 L6.58374947,55.7748733 L6.58374947,14.4278474 C6.60795241,11.5219576 8.97518512,9.18154396 11.8811621,9.19037395 L88.4975932,9.19037395 C91.4082455,9.17491457 93.7827947,11.5172544 93.807009,14.4278474 Z" id="路径" fill="#FFFFFF" fill-rule="nonzero"></path>
                    <path d="M93.807009,14.4278474 L93.807009,55.7748733 L6.58374947,55.7748733 L6.58374947,14.4278474 C6.60795241,11.5219576 8.97518512,9.18154396 11.8811621,9.19037395 L88.4975932,9.19037395 C91.4082455,9.17491457 93.7827947,11.5172544 93.807009,14.4278474 Z" id="路径" fill-opacity="0.1" fill="#5176EA" fill-rule="nonzero"></path>
                    <rect id="矩形" fill="url(#linearGradient-2)" fill-rule="nonzero" x="70.9729199" y="50.973593" width="31.0042678" height="25.3667645" rx="3.64897306"></rect>
                    <path d="M33.5269343,7.92611363 L33.5269343,25.0186716 C33.5269343,26.3312502 32.4628791,27.3953054 31.1503006,27.3953054 L5.21938564,27.3953054 L5.21938564,13.3915711 C5.22599452,10.3742626 7.67153161,7.93051445 10.6888442,7.92611363 L33.5269343,7.92611363 Z" id="路径" fill="url(#linearGradient-3)" fill-rule="nonzero"></path>
                    <line x1="80.183376" y1="31.9645239" x2="68.0801485" y2="25.3667645" id="路径"></line>
                    <path d="M31.1503006,28.6676447 L72.7613968,28.6676447 C74.3082066,28.6676447 75.5621437,29.9215818 75.5621437,31.4683916 L75.5621437,31.4683916 C75.5621437,33.0152014 74.3082066,34.2691384 72.7613968,34.2691384 L31.1503006,34.2691384 L31.1503006,28.6676447 Z" id="路径" fill="#5176EA" fill-rule="nonzero"></path>
                    <rect id="矩形" fill="#FFFFFF" fill-rule="nonzero" x="31.1503006" y="28.6676447" width="33.5929581" height="5.57748733"></rect>
                    <circle id="椭圆形" stroke="#FFFFFF" stroke-width="0.5" cx="69.724587" cy="31.1403041" r="1.3443585"></circle>
                    <line x1="70.9569157" y1="33.3288877" x2="70.4047684" y2="32.3006135" id="路径" stroke="#FFFFFF" stroke-width="0.5"></line>
                    <g id="编组-2" transform="translate(14.100082, 28.942490)" fill="#5176EA" fill-rule="nonzero">
                        <path d="M7.57144034,14.6787291 C5.54984861,14.6787291 3.35979091,12.5223307 2.09629609,9.19512768 C0.681181881,5.34568011 1.2960827,1.81631789 3.52825689,0.990834606 C5.76043108,0.165351319 8.51484981,2.4564886 9.93838731,6.30593618 L9.93838731,6.30593618 C11.3619248,10.163807 10.7807172,13.6931693 8.51484981,14.5186526 C8.21199554,14.626133 7.8927972,14.6802827 7.57144034,14.6787291 Z M4.47166636,2.64179645 C4.36295874,2.6414701 4.25489814,2.6585323 4.15158101,2.69234097 C3.10709195,3.07981272 2.7364668,5.67418876 3.80622575,8.58865016 C4.87598471,11.5031116 6.83861334,13.2130412 7.88310239,12.8002996 C8.92759145,12.3875579 9.2982166,9.81845179 8.23688094,6.90399039 L8.23688094,6.90399039 C7.26820158,4.32646095 5.55827191,2.64179645 4.47166636,2.64179645 Z" id="形状" transform="translate(6.024724, 7.750902) rotate(-12.000000) translate(-6.024724, -7.750902) "></path>
                        <path d="M16.8716671,22.9104545 C16.5949022,22.9096484 16.3327161,22.7862667 16.1556867,22.5735226 L9.41704763,14.0828373 C9.26686433,13.893144 9.19843294,13.6514386 9.22688581,13.41117 C9.25533867,13.1709013 9.37833162,12.9518647 9.56866701,12.8024959 L9.56866701,12.8024959 C9.95746634,12.4943628 10.5221814,12.5583638 10.8321618,12.945692 L10.8321618,12.945692 L17.5708009,21.4363772 C17.7884908,21.7074285 17.8308837,22.0795144 17.6797449,22.3925875 C17.5286062,22.7056606 17.2108847,22.9038982 16.8632438,22.9020312 L16.8716671,22.9104545 Z" id="路径"></path>
                    </g>
                    <rect id="矩形" fill="#FFFFFF" fill-rule="nonzero" x="69.6685721" y="49.6692451" width="31.0042678" height="25.3667645" rx="3.64897306"></rect>
                    <rect id="矩形" fill="#5176EA" fill-rule="nonzero" x="0.72218639" y="-7.10542736e-15" width="31.0042678" height="25.3667645" rx="2.38063484"></rect>
                    <polygon id="路径" fill="#C4C4C4" fill-rule="nonzero" points="96.2756673 71.1789811 74.2217863 71.1789811 74.2217863 54.8986396 74.621893 54.8986396 74.621893 70.7788744 96.2756673 70.7788744"></polygon>
                    <rect id="矩形" fill="#5176EA" fill-rule="nonzero" x="77.9147711" y="63.0248066" width="2.59269138" height="7.75406775"></rect>
                    <rect id="矩形" fill="#5176EA" fill-rule="nonzero" x="83.2041816" y="59.643905" width="2.59269138" height="11.1349693"></rect>
                    <rect id="矩形" fill="#5176EA" fill-rule="nonzero" x="89.0097297" y="57.2352627" width="2.59269138" height="13.5436116"></rect>
                    <rect id="矩形" fill="url(#linearGradient-4)" fill-rule="nonzero" x="4.78727041" y="5.25340091" width="22.7340624" height="1.4283809"></rect>
                    <rect id="矩形" fill="url(#linearGradient-5)" fill-rule="nonzero" x="4.78727041" y="9.53454254" width="14.1557749" height="1.4283809"></rect>
                    <rect id="矩形" fill="url(#linearGradient-4)" fill-rule="nonzero" x="4.78727041" y="13.8156842" width="22.7340624" height="1.4283809"></rect>
                    <rect id="矩形" fill="url(#linearGradient-5)" fill-rule="nonzero" x="4.78727041" y="18.0968258" width="14.1557749" height="1.4283809"></rect>
                </g>
            </g>
        </g>
    </g>
</svg>