<?xml version="1.0" standalone="no"?><!DOCTYPE svg PUBLIC "-//W3C//DTD SVG 1.1//EN" "http://www.w3.org/Graphics/SVG/1.1/DTD/svg11.dtd"><svg class="icon" width="14px" height="14.00px" viewBox="0 0 1024 1024" version="1.1" xmlns="http://www.w3.org/2000/svg"><path d="M169.910857 215.771429v586.678857c0 22.601143 16.896 45.129143 45.129143 45.129143h586.752a44.470857 44.470857 0 0 0 45.129143-45.129143V215.771429a44.470857 44.470857 0 0 0-45.129143-45.129143H215.04c-28.233143 0-45.129143 16.969143-45.129143 45.129143z" fill="#5176EA" /><path d="M903.314286 904.045714H717.165714v112.786286h203.117715c50.761143 0 90.258286-39.497143 90.258285-90.258286V723.456h-112.859428v180.589714h5.632zM925.988571 1.316571H722.797714v112.859429h186.148572v186.148571h112.859428V91.574857C1016.173714 40.813714 976.676571 1.316571 925.988571 1.316571zM113.371429 114.176h186.221714V1.316571H90.916571C40.155429 1.316571 0.658286 40.813714 0.658286 91.574857V294.765714H113.371429V114.176z m0 603.648H0.731429v203.117714c0 50.761143 39.497143 90.258286 90.258285 90.258286H294.034286v-112.786286H113.371429V717.824z" fill="#5176EA" /></svg>