<?xml version="1.0" encoding="UTF-8"?>
<svg width="33px" height="32px" viewBox="0 0 33 32" version="1.1" xmlns="http://www.w3.org/2000/svg" xmlns:xlink="http://www.w3.org/1999/xlink">
    <title>查看历史</title>
    <defs>
        <filter x="-3.6%" y="-1.6%" width="107.2%" height="103.2%" filterUnits="objectBoundingBox" id="filter-1">
            <feOffset dx="-2" dy="0" in="SourceAlpha" result="shadowOffsetOuter1"></feOffset>
            <feGaussianBlur stdDeviation="2" in="shadowOffsetOuter1" result="shadowBlurOuter1"></feGaussianBlur>
            <feColorMatrix values="0 0 0 0 0   0 0 0 0 0   0 0 0 0 0  0 0 0 0.15 0" type="matrix" in="shadowBlurOuter1" result="shadowMatrixOuter1"></feColorMatrix>
            <feMerge>
                <feMergeNode in="shadowMatrixOuter1"></feMergeNode>
                <feMergeNode in="SourceGraphic"></feMergeNode>
            </feMerge>
        </filter>
    </defs>
    <g id="规范典型页面" stroke="none" stroke-width="1" fill="none" fill-rule="evenodd">
        <g id="典型页面备份-3" transform="translate(-1676.000000, -528.000000)" fill="#21B96E">
            <g id="操作备份" filter="url(#filter-1)" transform="translate(1587.000000, 283.000000)">
                <g id="查看历史" transform="translate(98.010786, 254.000000)">
                    <path d="M10.2307692,6.46153846 C12.3124579,6.46153846 14,8.14908056 14,10.2307692 C14,12.3124579 12.3124579,14 10.2307692,14 C8.14908056,14 6.46153846,12.3124579 6.46153846,10.2307692 C6.46153846,8.14908056 8.14908056,6.46153846 10.2307692,6.46153846 Z M10.8461538,0 C11.3984386,-1.01453063e-16 11.8461538,0.44771525 11.8461538,1 L11.8467288,5.49766435 C11.3398244,5.32464566 10.7962598,5.23076923 10.2307692,5.23076923 C7.46934548,5.23076923 5.23076923,7.46934548 5.23076923,10.2307692 C5.23076923,11.4624401 5.67611276,12.5900955 6.41455815,13.4614936 L1,13.4615385 C0.44771525,13.4615385 2.8967998e-16,13.0138232 0,12.4615385 L0,1 C-6.76353751e-17,0.44771525 0.44771525,5.45542273e-16 1,0 L10.8461538,0 Z M9.73717949,8.07692308 C9.44722999,8.07692308 9.20668959,8.27219581 9.161481,8.52804336 L9.15384615,8.61538462 L9.15384615,10.7692308 L9.15584615,10.7869231 L9.15384615,10.8141026 C9.15384615,11.1040521 9.34911888,11.3445925 9.60496643,11.389801 L9.69230769,11.3974359 L11.8461538,11.3974359 L11.942943,11.3880376 C12.1941344,11.3386457 12.3846154,11.1004724 12.3846154,10.8141026 C12.3846154,10.5241531 12.1893427,10.2836127 11.9334951,10.2384041 L11.8461538,10.2307692 L10.3198462,10.2299231 L10.3205128,8.61538462 L10.3111145,8.51859547 C10.2617226,8.26740402 10.0235494,8.07692308 9.73717949,8.07692308 Z M4.53985392,7.26923077 L2.69230769,7.26923077 L2.58270863,7.27660405 C2.18847341,7.33008666 1.88461538,7.66801994 1.88461538,8.07692308 C1.88461538,8.48868567 2.19273803,8.82848237 2.59099249,8.87832231 L2.69230769,8.88461538 L4.53985392,8.88461538 L4.64945298,8.87724211 C5.0436882,8.8237595 5.34754622,8.48582621 5.34754622,8.07692308 C5.34754622,7.63084693 4.98593006,7.26923077 4.53985392,7.26923077 Z M9.15384615,2.96153846 L2.69230769,2.96153846 L2.58270863,2.96891174 C2.18847341,3.02239435 1.88461538,3.36032764 1.88461538,3.76923077 C1.88461538,4.18099336 2.19273803,4.52079006 2.59099249,4.57063001 L2.69230769,4.57692308 L9.15384615,4.57692308 L9.26344522,4.5695498 C9.65768044,4.51606719 9.96153846,4.1781339 9.96153846,3.76923077 C9.96153846,3.32315463 9.5999223,2.96153846 9.15384615,2.96153846 Z" id="形状结合"></path>
                </g>
            </g>
        </g>
    </g>
</svg>