<?xml version="1.0" standalone="no"?><!DOCTYPE svg PUBLIC "-//W3C//DTD SVG 1.1//EN" "http://www.w3.org/Graphics/SVG/1.1/DTD/svg11.dtd"><svg t="1669173963555" class="icon" viewBox="0 0 1024 1024" version="1.1" xmlns="http://www.w3.org/2000/svg" p-id="7415" xmlns:xlink="http://www.w3.org/1999/xlink" width="200" height="200"><path d="M896 832a128 128 0 0 0 128-128V128a128 128 0 0 0-128-128H320a128 128 0 0 0-128 128h576a128 128 0 0 1 128 128v576z" fill="#5176EA" p-id="7416"></path><path d="M832 512v384a128 128 0 0 1-128 128H128a128 128 0 0 1-128-128V512h832z m-128-320a128 128 0 0 1 128 128v128H0V320a128 128 0 0 1 128-128h576zM512 297.728H160.128l-5.76 0.512a32 32 0 0 0 5.76 63.488H512l5.76-0.512A32 32 0 0 0 512 297.728z m160-3.328a32 32 0 1 0 0 64 32 32 0 0 0 0-64z" fill="#5176EA" p-id="7417"></path></svg>