<?xml version="1.0" standalone="no"?><!DOCTYPE svg PUBLIC "-//W3C//DTD SVG 1.1//EN" "http://www.w3.org/Graphics/SVG/1.1/DTD/svg11.dtd"><svg class="icon" width="14px" height="14.00px" viewBox="0 0 1024 1024" version="1.1" xmlns="http://www.w3.org/2000/svg"><path d="M870.817584 149.86083a510.799431 510.799431 0 1 0 136.183927 488.272766h-136.183927A383.465266 383.465266 0 1 1 509.805844 128.06555a377.979877 377.979877 0 0 1 272.440991 110.29289L577.897807 442.707468h442.707469V0l-149.787692 149.86083z" fill="#2A8BFD" /><path d="M870.817584 149.86083a510.799431 510.799431 0 1 0 136.183927 488.272766h-136.183927A383.465266 383.465266 0 1 1 509.805844 128.06555a377.979877 377.979877 0 0 1 272.440991 110.29289L577.897807 442.707468h442.707469V0l-149.787692 149.86083z" fill="#5176EA" /></svg>