<?xml version="1.0" standalone="no"?><!DOCTYPE svg PUBLIC "-//W3C//DTD SVG 1.1//EN" "http://www.w3.org/Graphics/SVG/1.1/DTD/svg11.dtd"><svg class="icon" width="16px" height="16.00px" viewBox="0 0 1024 1024" version="1.1" xmlns="http://www.w3.org/2000/svg"><path d="M1012.352 382.72c-5.568-29.184-23.04-48-44.416-47.36h-4.288a132.928 132.928 0 0 1-132.864-132.864c0-24.192 11.52-50.56 11.52-50.816a60.16 60.16 0 0 0-20.16-72.704l-1.28-0.768-127.808-71.04-1.28-0.512A67.072 67.072 0 0 0 619.52 21.12c-15.616 16.128-64.832 57.984-104.512 57.984-40.064 0-89.6-42.688-105.216-59.008a66.816 66.816 0 0 0-72.32-14.912l-1.664 0.448L203.52 78.336l-1.28 0.896a60.032 60.032 0 0 0-20.48 72.576c0.192 0.192 11.52 26.816 11.52 50.88 0 73.28-59.52 132.864-132.8 132.864H56.064c-21.312-0.64-38.784 18.24-44.416 47.424-0.448 2.432-10.688 57.216-10.688 100.224 0 43.136 10.24 97.92 10.688 100.16 5.504 28.928 22.528 47.616 43.584 47.616h5.248c73.28 0 132.864 59.52 132.864 132.8 0 24.192-11.52 50.56-11.52 50.816a60.16 60.16 0 0 0 20.16 72.704l1.28 0.768 125.44 70.208 1.28 0.576a66.048 66.048 0 0 0 72.704-15.168c14.656-16 65.792-61.632 106.752-61.632 41.28 0 91.648 45.248 107.52 62.72a65.728 65.728 0 0 0 72.448 15.744l1.344-0.576 129.792-72.192 1.28-0.896a60.16 60.16 0 0 0 20.224-72.576c-0.064-0.256-11.52-26.88-11.52-50.944 0-73.216 59.584-132.8 132.864-132.8h4.48c21.312 0.448 38.784-18.24 44.352-47.488 0.448-2.304 10.752-57.024 10.752-100.16 0-43.072-10.176-97.792-10.624-100.096z m-502.656 276.544a177.28 177.28 0 0 1-177.024-176.96A177.28 177.28 0 0 1 509.696 305.28a177.28 177.28 0 0 1 176.96 177.024A177.28 177.28 0 0 1 509.696 659.2z" fill="#5176EA" /><path d="M508.16 378.24c-56.32 0-102.4 45.952-102.4 102.4 0 56.448 45.952 102.4 102.4 102.4 56.448 0 102.4-45.824 102.4-102.4a102.528 102.528 0 0 0-102.4-102.4z" fill="#5176EA" /></svg>