<?xml version="1.0" standalone="no"?><!DOCTYPE svg PUBLIC "-//W3C//DTD SVG 1.1//EN" "http://www.w3.org/Graphics/SVG/1.1/DTD/svg11.dtd"><svg class="icon" width="14px" height="14.00px" viewBox="0 0 1024 1024" version="1.1" xmlns="http://www.w3.org/2000/svg"><path d="M443.465143 0A444.050286 444.050286 0 0 0 0 443.465143a444.050286 444.050286 0 0 0 443.465143 443.538286c90.989714 0 176.274286-28.452571 247.369143-73.874286 48.274286-31.305143 88.137143-73.947429 122.221714-119.442286a439.149714 439.149714 0 0 0 76.8-247.369143C884.150857 199.021714 687.981714 0 443.465143 0z m39.862857 275.748571A208.676571 208.676571 0 0 0 275.748571 483.328c0 39.789714-34.084571 73.874286-73.874285 73.874286s-73.874286-31.232-73.874286-73.874286a355.474286 355.474286 0 0 1 355.328-355.401143c39.789714 0 73.874286 34.157714 73.874286 73.874286 0 39.862857-31.232 73.947429-73.874286 73.947428z" fill="#5176EA" /><path d="M926.793143 1023.488a108.178286 108.178286 0 0 1-48.274286-22.747429L562.834286 687.981714c-34.084571-34.084571-34.084571-88.137143 0-119.369143 34.084571-34.157714 88.137143-34.157714 119.369143 0l315.611428 312.685715c34.084571 34.157714 34.084571 88.137143 0 119.442285a93.622857 93.622857 0 0 1-71.094857 22.674286z" fill="#5176EA" /></svg>