<?xml version="1.0" standalone="no"?><!DOCTYPE svg PUBLIC "-//W3C//DTD SVG 1.1//EN" "http://www.w3.org/Graphics/SVG/1.1/DTD/svg11.dtd"><svg t="1665715216376" class="icon" viewBox="0 0 1102 1024" version="1.1" xmlns="http://www.w3.org/2000/svg" p-id="7127" xmlns:xlink="http://www.w3.org/1999/xlink" width="215.234375" height="200"><path d="M1102.769231 0v866.697846l-50.884923-45.134769c17.486769-39.227077 27.254154-82.707692 27.254154-128.393846 0-85.858462-34.343385-163.761231-90.112-220.553846H1024V315.076923h-236.307692l0.078769 63.881846a319.566769 319.566769 0 0 0-78.769231 3.938462L708.923077 315.076923H393.846154v157.538462h145.250461c-22.685538 23.079385-41.747692 49.624615-56.477538 78.76923H393.846154v157.538462h55.532308c1.339077 27.332923 6.144 53.799385 14.020923 78.769231H393.846154v157.538461l181.326769 0.157539A313.659077 313.659077 0 0 0 764.061538 1008.246154c41.275077 0 80.659692-7.876923 116.81477-22.370462l43.008 38.124308H0V0h1102.769231zM771.938462 456.861538a236.307692 236.307692 0 0 1 190.148923 376.674462l87.906461 84.204308a49.624615 49.624615 0 0 1 0 67.820307 44.110769 44.110769 0 0 1-59.549538 4.647385l-5.12-4.647385-93.105231-89.00923A236.307692 236.307692 0 1 1 771.938462 456.861538zM315.076923 787.692308H78.769231v157.538461h236.307692v-157.538461z m456.861539-252.061539a157.538462 157.538462 0 1 0 0 315.076923 157.538462 157.538462 0 0 0 0-315.076923zM315.076923 551.384615H78.769231v157.538462h236.307692V551.384615z m0-236.307692H78.769231v157.538462h236.307692V315.076923z" fill="#2A8BFD" p-id="7128"></path></svg>