<?xml version="1.0" standalone="no"?><!DOCTYPE svg PUBLIC "-//W3C//DTD SVG 1.1//EN" "http://www.w3.org/Graphics/SVG/1.1/DTD/svg11.dtd"><svg t="1668753420018" class="icon" viewBox="0 0 1024 1024" version="1.1" xmlns="http://www.w3.org/2000/svg" p-id="7009" xmlns:xlink="http://www.w3.org/1999/xlink" width="32" height="32"><path d="M212.333714 0c3.730286 0 6.875429 3.072 6.875429 6.875429v59.538285c0 3.803429 3.072 6.875429 6.802286 6.875429h125.805714c7.606857 0 13.750857 6.144 13.750857 13.750857v52.443429c0 3.803429 3.072 6.875429 6.875429 6.875428h59.392a6.875429 6.875429 0 0 0 6.875428-6.875428v-52.589715c0-7.533714 6.144-13.750857 13.677714-13.750857h556.763429c7.533714 0 13.677714 6.217143 13.677714 13.750857V279.405714a13.750857 13.750857 0 0 1-13.677714 13.750857H452.388571a13.750857 13.750857 0 0 1-13.677714-13.750857v-53.028571a6.875429 6.875429 0 0 0-6.875428-6.875429h-59.392a6.875429 6.875429 0 0 0-6.875429 6.875429v242.761143c0 3.730286 3.072 6.875429 6.875429 6.875428h59.830857a6.875429 6.875429 0 0 0 6.875428-6.875428v-52.662857c0-7.460571 6.144-13.677714 13.677715-13.677715h556.763428c7.533714 0 13.750857 6.217143 13.750857 13.750857v192.365715a13.750857 13.750857 0 0 1-13.750857 13.750857H452.827429a13.750857 13.750857 0 0 1-13.677715-13.677714V555.885714a6.875429 6.875429 0 0 0-6.875428-6.875428h-59.830857a6.875429 6.875429 0 0 0-6.875429 6.875428v241.956572c0 3.803429 3.072 6.875429 6.875429 6.875428h59.392a6.875429 6.875429 0 0 0 6.875428-6.875428V746.057143c0-7.533714 6.144-13.750857 13.677714-13.750857h557.933715c7.533714 0 13.677714 6.217143 13.677714 13.750857v192.512a13.750857 13.750857 0 0 1-13.677714 13.750857h-558.08a13.750857 13.750857 0 0 1-13.677715-13.750857v-53.833143a6.875429 6.875429 0 0 0-6.875428-6.875429H372.297143a6.875429 6.875429 0 0 0-6.875429 6.875429v52.516571A13.750857 13.750857 0 0 1 351.817143 950.857143H226.011429a6.875429 6.875429 0 0 0-6.802286 6.875428v59.318858a6.875429 6.875429 0 0 1-6.875429 6.875428H152.868571a6.875429 6.875429 0 0 1-6.802285-6.875428v-59.318858A6.875429 6.875429 0 0 0 139.190857 950.857143H13.677714A13.750857 13.750857 0 0 1 0 937.252571V87.04c0-7.606857 6.144-13.750857 13.677714-13.750857h125.513143a6.875429 6.875429 0 0 0 6.875429-6.875429V6.875429c0-3.803429 3.072-6.875429 6.802285-6.875429z m0 219.648H152.868571a6.875429 6.875429 0 0 0-6.802285 6.875429v569.636571c0 3.730286 3.072 6.802286 6.802285 6.802286h59.465143a6.875429 6.875429 0 0 0 6.875429-6.802286V226.523429a6.729143 6.729143 0 0 0-6.875429-6.875429z" fill="#5876EA" p-id="7010"></path></svg>