<?xml version="1.0" standalone="no"?><!DOCTYPE svg PUBLIC "-//W3C//DTD SVG 1.1//EN" "http://www.w3.org/Graphics/SVG/1.1/DTD/svg11.dtd"><svg t="1670393728584" class="icon" viewBox="0 0 1088 1024" version="1.1" xmlns="http://www.w3.org/2000/svg" p-id="7183" xmlns:xlink="http://www.w3.org/1999/xlink" width="34" height="32"><path d="M192 592a48 48 0 0 1 47.552 41.472L240 640v128c0 41.408 31.488 75.52 71.808 79.616L320 848h192a48 48 0 0 1 6.528 95.552L512 944H320a176 176 0 0 1-175.68-165.248L144 768v-128A48 48 0 0 1 192 592z" fill="#5876EA" p-id="7184"></path><path d="M152.704 526.464a48 48 0 0 1 74.24-5.376l4.416 5.44 104.704 150.016a48 48 0 0 1-74.24 60.416l-4.48-5.504-65.472-93.76-65.792 93.888a48 48 0 0 1-60.8 15.36l-6.08-3.648a48 48 0 0 1-15.36-60.8l3.648-6.08 105.216-149.952zM928 427.2a48 48 0 0 1-47.552-41.472l-0.448-6.528v-128a80 80 0 0 0-71.808-79.552l-8.192-0.448H640a48 48 0 0 1-6.528-95.552L640 75.2h160a176 176 0 0 1 175.68 165.312l0.32 10.688v128a48 48 0 0 1-48 48z" fill="#5876EA" p-id="7185"></path><path d="M576 0a64 64 0 0 1 64 64v320a64 64 0 0 1-64 64H128a64 64 0 0 1-64-64V64a64 64 0 0 1 64-64h448zM428.8 126.464H343.04v23.296h81.152v58.112h-62.72l-18.432 18.176V294.4l18.432 16.384h85.76v-23.296H366.336v-56.32H428.8l18.432-18.688V145.152L428.8 126.464z m-146.944-0.256h-23.808v23.296h18.944v137.984h-18.944v23.296h57.344v-23.296h-15.104V144.64l-18.432-18.432zM1024 576a64 64 0 0 1 64 64v320a64 64 0 0 1-64 64H576a64 64 0 0 1-64-64v-320a64 64 0 0 1 64-64h448z m-259.712 126.464h-86.016v23.296h81.408v57.856h-79.104v23.296h79.104v56.832h-81.408v23.04h86.016l18.432-18.432v-61.44l-11.52-11.52 11.52-11.776v-62.72l-18.432-18.432z m75.264 0h-23.296v104.704l18.688 18.688h62.72v60.928h23.296v-184.32h-23.296v100.096h-58.112v-100.096z" fill="#5876EA" p-id="7186"></path><path d="M963.2 491.136a48 48 0 0 1-74.24 5.376l-4.48-5.44-104.64-150.016a48 48 0 0 1 74.24-60.416l4.48 5.504 65.536 93.696 65.728-93.824a48 48 0 0 1 60.736-15.36l6.08 3.648a48 48 0 0 1 15.36 60.8l-3.584 6.08-105.216 149.952z" fill="#5876EA" p-id="7187"></path></svg>