<?xml version="1.0" standalone="no"?><!DOCTYPE svg PUBLIC "-//W3C//DTD SVG 1.1//EN" "http://www.w3.org/Graphics/SVG/1.1/DTD/svg11.dtd"><svg class="icon" width="16px" height="16.00px" viewBox="0 0 1024 1024" version="1.1" xmlns="http://www.w3.org/2000/svg"><path d="M0 0m64 0l896 0q64 0 64 64l0 896q0 64-64 64l-896 0q-64 0-64-64l0-896q0-64 64-64Z" fill="#5176EA" /><path d="M530.176 536.8h-240c-2.24 0-4 3.2-4 7.104v49.792c0 3.904 1.792 7.104 4 7.104h240c2.176 0 4-3.2 4-7.104v-49.792c0-3.904-1.824-7.104-4-7.104z m4-109.184c0-3.936-1.824-7.136-4-7.136h-240c-2.24 0-4 3.2-4 7.136v49.76c0 3.904 1.792 7.104 4 7.104h240c2.176 0 4-3.2 4-7.104v-49.76zM289.92 716h434.336c2.464 0 4.48-3.2 4.48-7.104v-49.792c0-3.904-2.016-7.104-4.48-7.104H289.92c-2.464 0-4.48 3.2-4.48 7.104v49.792c0 3.904 2.016 7.104 4.48 7.104z m0-344h434.336c2.464 0 4.48-3.2 4.48-7.104V315.104c0-3.904-2.016-7.104-4.48-7.104H289.92c-2.464 0-4.48 3.2-4.48 7.104v49.792c0 3.904 2.016 7.104 4.48 7.104z m433.76 134.976l-114.944-89.568c-4.256-3.36-10.56-0.352-10.56 5.024v179.136c0 5.376 6.24 8.384 10.56 5.024l114.944-89.6a6.304 6.304 0 0 0 0-10.016z" fill="#FFFFFF" /></svg>