<?xml version="1.0" encoding="UTF-8"?>
<svg width="32px" height="32px" viewBox="0 0 32 32" version="1.1" xmlns="http://www.w3.org/2000/svg" xmlns:xlink="http://www.w3.org/1999/xlink">
    <title>上传</title>
    <defs>
        <filter x="-3.6%" y="-1.6%" width="107.2%" height="103.2%" filterUnits="objectBoundingBox" id="filter-1">
            <feOffset dx="-2" dy="0" in="SourceAlpha" result="shadowOffsetOuter1"></feOffset>
            <feGaussianBlur stdDeviation="2" in="shadowOffsetOuter1" result="shadowBlurOuter1"></feGaussianBlur>
            <feColorMatrix values="0 0 0 0 0   0 0 0 0 0   0 0 0 0 0  0 0 0 0.15 0" type="matrix" in="shadowBlurOuter1" result="shadowMatrixOuter1"></feColorMatrix>
            <feMerge>
                <feMergeNode in="shadowMatrixOuter1"></feMergeNode>
                <feMergeNode in="SourceGraphic"></feMergeNode>
            </feMerge>
        </filter>
    </defs>
    <g id="规范典型页面" stroke="none" stroke-width="1" fill="none" fill-rule="evenodd">
        <g id="典型页面备份-3" transform="translate(-1603.000000, -528.000000)" fill-rule="nonzero">
            <g id="操作备份" filter="url(#filter-1)" transform="translate(1587.000000, 283.000000)">
                <g id="上传" transform="translate(25.000000, 254.000000)">
                    <path d="M14,1.72676991 L14,9.55272861 C14,10.0792773 13.5646568,10.5 13.0257869,10.5 L0.974213121,10.5 C0.432688661,10.5 0,10.0766962 0,9.55272861 L0,0.947271386 C0,0.420722714 0.435343193,0 0.974213121,0 L3.61547213,0.0103244838 C3.80394388,0.0103244838 3.98445203,0.0800147493 4.12248768,0.201327434 L4.52863102,0.565265487 C4.70117558,0.727876106 4.93477436,0.815634218 5.17633675,0.815634218 L13.0576413,0.815634218 C13.5752749,0.810471976 14,1.22345133 14,1.72676991 Z" id="路径" fill="#009CF5"></path>
                    <path d="M12.3447395,8.16666667 L1.65526047,8.16666667 C1.38593803,8.16666667 1.16666667,7.95148356 1.16666667,7.68718257 L1.16666667,2.81281743 C1.16666667,2.54851644 1.38593803,2.33333333 1.65526047,2.33333333 L12.3447395,2.33333333 C12.614062,2.33333333 12.8333333,2.54851644 12.8333333,2.81281743 L12.8333333,7.68718257 C12.8333333,7.95148356 12.614062,8.16666667 12.3447395,8.16666667 Z" id="路径" fill="#FFFFFF"></path>
                    <path d="M14,4.17594418 L14,12.4144039 C14,12.97152 13.5646568,13.4166667 13.0257869,13.4166667 L0.974213121,13.4166667 C0.432688661,13.4166667 0,12.968789 0,12.4144039 L0,4.17594418 L14,4.17594418 Z" id="路径" fill="#009CF5"></path>
                    <g id="编组-4" transform="translate(7.000000, 8.792551) scale(1, -1) translate(-7.000000, -8.792551) translate(5.000000, 6.500000)" fill="#FFFFFF">
                        <path d="M2,-0.8 C2.40784105,-0.8 2.74440158,-0.494811853 2.79376686,-0.1003503 L2.8,0 L2.8,3.58510194 C2.8,4.02692974 2.4418278,4.38510194 2,4.38510194 C1.59215895,4.38510194 1.25559842,4.07991379 1.20623314,3.68545224 L1.2,3.58510194 L1.2,0 C1.2,-0.4418278 1.5581722,-0.8 2,-0.8 Z" id="直线-2"></path>
                        <path d="M3.43547439,2.01825907 C3.74853305,1.70648019 4.25506398,1.70751765 4.56684286,2.02057632 C4.85027822,2.30517511 4.87518765,2.74966832 4.64216859,3.06237731 L4.56452561,3.1519448 L2.55631607,5.1519448 C2.27171559,5.43538184 1.82721919,5.46028966 1.51451022,5.22726692 L1.42494284,5.14962277 L-0.566847619,3.14962277 C-0.878623869,2.83656148 -0.877582134,2.33003057 -0.564520839,2.01825432 C-0.279919661,1.73482136 0.164573761,1.70991567 0.477280783,1.94293737 L0.566847619,2.0205811 L1.994,3.453 L3.43547439,2.01825907 Z" id="路径-6"></path>
                    </g>
                </g>
            </g>
        </g>
    </g>
</svg>