<?xml version="1.0" encoding="UTF-8"?>
<svg width="16px" height="16px" viewBox="0 0 16 16" version="1.1" xmlns="http://www.w3.org/2000/svg" xmlns:xlink="http://www.w3.org/1999/xlink">
    <title>部门预算编制-灰</title>
    <g id="0824设计侧修改" stroke="none" stroke-width="1" fill="none" fill-rule="evenodd">
        <g id="左侧图标修改" transform="translate(-166.000000, -624.000000)">
            <g id="编组-4" transform="translate(0.000000, 108.000000)">
                <g id="13" transform="translate(0.000000, 504.000000)">
                    <g id="政府预算编制-灰" transform="translate(166.000000, 12.000000)">
                        <rect id="矩形" x="0" y="0" width="16" height="16"></rect>
                        <g id="政府" transform="translate(1.000000, 1.000000)" fill="#FFFFFF" fill-rule="nonzero" stroke="#FFFFFF">
                            <g stroke-width="0.3">
                                <path d="M6.89770594,0.0526643786 C7.01424617,0.0862987717 7.12370546,0.142208574 7.22136322,0.214050458 L12.583246,4.11564005 C12.6456467,4.16092847 12.709375,4.20547929 12.7638096,4.26050397 C12.9617805,4.45124639 13.0768455,4.72577974 13.0705022,5.00090318 C13.0682894,5.25006322 12.9743196,5.49730552 12.809098,5.68406491 C12.6351481,5.88671515 12.3757352,6.00764328 12.1105717,6.02582003 L12.1099551,6.12229548 C12.1099551,6.31696078 11.9521477,6.47476818 11.7574824,6.47476818 C11.5628171,6.47476818 11.4050096,6.31696078 11.4050096,6.12229548 L11.4050096,5.97123575 C11.4050096,5.9443218 11.4080262,5.91811239 11.4137395,5.89292717 L11.4143034,5.66429733 L11.4143034,5.66429733 C11.4171062,5.50364884 11.5522339,5.36085019 11.7111121,5.34388548 C11.8435844,5.33193642 11.9775319,5.34963873 12.1098567,5.33444424 C12.3025169,5.30213752 12.4265806,5.08203878 12.3718509,4.89822977 C12.3475103,4.79526132 12.2598838,4.72710742 12.177273,4.67016498 C10.3919948,3.37155287 8.6070117,2.07249819 6.82202856,0.773443521 C6.74399087,0.712075506 6.63998978,0.68301421 6.54188947,0.702634273 C6.47919378,0.712665583 6.42387406,0.745709899 6.37416006,0.783622351 C4.57309732,2.09492112 2.77173954,3.40592486 0.970381763,4.71707611 C0.907833593,4.76324964 0.855759292,4.82771556 0.837466903,4.9045731 C0.794243757,5.06669677 0.884230511,5.25611151 1.04222365,5.31718449 C1.12822738,5.35126144 1.22219715,5.33754215 1.31233143,5.3401975 C1.4017281,5.3425578 1.49525532,5.32957611 1.58052145,5.36350554 C1.70974833,5.40997411 1.80121028,5.54244641 1.79988261,5.67963933 C1.79929253,7.57290161 1.8139689,10.2390682 1.81308378,12.132478 C1.81057595,12.2979947 1.66910498,12.445809 1.50403092,12.4570204 C1.34648034,12.4648389 1.18833968,12.4571679 1.03049407,12.4605609 C0.893891224,12.4676418 0.770565117,12.568545 0.730144837,12.6982144 C0.689282,12.8202129 0.727194452,12.963159 0.821606783,13.0501954 C0.888137973,13.1153989 0.982107747,13.1465255 1.07445481,13.1459354 L5.99284209,13.1455239 L5.99284209,13.1465239 L6.13702977,13.1471553 C6.32474274,13.1471553 6.47691417,13.2993267 6.47691417,13.4870397 C6.47691417,13.6747527 6.32474274,13.8269241 6.13702977,13.8269241 L5.99284209,13.8265239 L5.99284209,13.8315239 L1.13305684,13.832361 C1.07375409,13.8323057 1.01448823,13.8310886 0.955406759,13.8257042 C0.727194452,13.8046089 0.507243224,13.7035582 0.342906759,13.5437949 C0.144493344,13.3549702 0.0275105646,13.0836823 0.0279531224,12.8095915 C0.0247076985,12.5943609 0.0927140809,12.3789827 0.217957939,12.2040249 C0.360314033,12.0022185 0.578790068,11.8561744 0.818951436,11.7996746 C0.919854616,11.7745963 1.02415074,11.7717934 1.12770926,11.7738587 C1.12711919,10.1157421 1.11391801,7.68472122 1.11377049,6.02675217 C0.901047707,6.01362295 0.691275308,5.93720797 0.525316132,5.80252288 C0.305807461,5.6250572 0.165516638,5.35494942 0.144126344,5.07363018 C0.110196912,4.73138548 0.270107799,4.38028962 0.545673791,4.17597543 C2.36163598,2.85420279 4.17745065,1.53228263 5.99356035,0.210805034 C6.24803109,0.0200626204 6.59352121,-0.0385025289 6.89770594,0.0526643786 Z" id="形状结合"></path>
                                <path d="M6.63954721,3.07607177 C6.8661368,3.10646074 7.07089355,3.25958574 7.16619099,3.46714535 C7.33288776,3.82310934 7.49914198,4.17922086 7.66495364,4.53562741 C8.04068521,4.59360248 8.41671183,4.64995484 8.79229588,4.70837247 C9.05443762,4.75085802 9.27822435,4.96107298 9.33929733,5.21908418 C9.39786248,5.44464114 9.33088873,5.69822676 9.16655226,5.86403842 C8.89260898,6.14771797 8.61512524,6.42785706 8.341477,6.71183165 C8.40741811,7.10910104 8.47129395,7.50666546 8.53708755,7.90393485 C8.56010055,8.05042148 8.53959538,8.20487416 8.4693762,8.33631382 C8.39119099,8.48943882 8.2526704,8.61055214 8.09010417,8.66675698 C7.905115,8.73432081 7.69150711,8.71647098 7.52038475,8.61881322 C7.19348206,8.43898724 6.86731696,8.25783357 6.54041426,8.07800759 C6.25983261,8.23393545 5.97836585,8.38853565 5.69748916,8.54402095 C5.60233923,8.59476758 5.51102481,8.65672567 5.40510597,8.68283658 C5.2031521,8.73977902 4.97700506,8.69567076 4.81001325,8.56954179 C4.61145231,8.42394027 4.5049434,8.16519147 4.54256081,7.9219322 C4.60791185,7.51861452 4.674148,7.11544436 4.74023663,6.71227421 C4.48665101,6.44762464 4.22849229,6.18725313 3.97328396,5.92407876 C3.92563524,5.87421724 3.87444605,5.82671604 3.83756623,5.76770833 C3.73002469,5.60883008 3.69801301,5.40407334 3.74300638,5.2184941 C3.80378432,4.96018786 4.0287512,4.7499729 4.29104046,4.70822495 C4.66618196,4.64951228 5.04191354,4.59404504 5.41705503,4.53518485 C5.55542811,4.23970376 5.69424374,3.94437018 5.83305937,3.64903661 C5.89265715,3.529546 5.93676541,3.39869641 6.0285224,3.29853083 C6.17795942,3.12844111 6.41576048,3.0425849 6.63954721,3.07607177 Z M4.41643184,5.38666606 C4.57649025,5.55837849 4.74451469,5.72241992 4.90634333,5.89236211 C5.09767582,6.08546484 5.28487777,6.28240306 5.47709538,6.47476818 C5.39359947,6.9878402 5.30995605,7.50105973 5.22675518,8.01413174 C5.66532996,7.7733803 6.10272459,7.52997351 6.54129937,7.28922206 C6.9794316,7.53085862 7.41712127,7.77308526 7.85540101,8.01442678 C7.77220014,7.50223988 7.68885176,6.99020051 7.60550337,6.47816113 C7.95763186,6.11260838 8.3138909,5.75089114 8.66808466,5.38725614 C8.17832069,5.31261139 7.6884092,5.23870424 7.19864523,5.16317437 C6.97957912,4.69745605 6.76169316,4.23129516 6.54277457,3.76542931 C6.32193822,4.2308526 6.10331467,4.69745605 5.88365848,5.16332189 C5.39463211,5.23796664 4.90560573,5.31275891 4.41643184,5.38666606 Z M3.38143666,10.3458213 C3.44383731,10.3338722 3.50756563,10.3377077 3.57055636,10.3374127 C5.58670219,10.3375602 4.28529525,10.3372652 6.30129356,10.3374127 C6.38493699,10.3371177 6.46990809,10.363081 6.53422649,10.4178107 C6.6277537,10.4940782 6.67392723,10.6224199 6.6522419,10.7410254 C6.62834378,10.894593 6.48672528,11.0229347 6.3299123,11.0233773 L3.43778902,11.0233773 C3.3197736,11.0227872 3.20662632,10.9513879 3.15101156,10.8481244 C3.09259393,10.7425006 3.09451168,10.6060453 3.15824,10.5032243 C3.20603625,10.4223838 3.28953215,10.3644087 3.38143666,10.3458213 Z" id="形状"></path>
                            </g>
                            <path d="M12.0920467,7.22696391 C12.2424053,7.228227 12.3636277,7.35043017 12.3636224,7.50073692 L12.3636224,9.13647312 C12.3642362,9.20886986 12.335895,9.27851243 12.284898,9.32992204 C12.233901,9.38133166 12.1644736,9.41024872 12.0920467,9.41024612 L11.2727168,9.41024612 L11.2727168,10.2181137 L13.1111324,10.2181137 C13.1835567,10.2175002 13.2532258,10.2458305 13.3046549,10.2968081 C13.3560841,10.3477857 13.3850122,10.4171868 13.3850096,10.4895861 L13.3850096,11.6214745 L13.9304624,11.6214745 C14.0804495,11.6214745 14.2021004,11.7430169 14.2021004,11.8929469 L14.2021004,13.5286831 C14.2026518,13.6010799 14.1743106,13.6707224 14.1233137,13.722132 C14.0723167,13.7735417 14.0028892,13.8024561 13.9304624,13.8024561 L12.0294328,13.8024561 C11.9570059,13.8024561 11.8875785,13.7735417 11.8365815,13.722132 C11.7855845,13.6707224 11.7572433,13.6010799 11.7578571,13.5286831 L11.7578571,11.8929469 C11.7578571,11.7430169 11.8794457,11.6214745 12.0294328,11.6214745 L12.8487627,11.6214745 L12.8487627,10.7541567 L9.39009911,10.7541567 L9.39009911,11.6122721 L9.93555191,11.6122721 C10.0791801,11.6256085 10.1873192,11.7488604 10.1818112,11.8929469 L10.1818112,13.5286831 C10.1818112,13.6798838 10.0591922,13.8024561 9.90793405,13.8024561 L8.00920595,13.8024561 C7.85794778,13.8024561 7.73532881,13.6798838 7.73532881,13.5286831 L7.73532881,11.8929469 C7.73532881,11.8205476 7.76425428,11.7511466 7.81568345,11.700169 C7.86711262,11.6491914 7.93678168,11.620861 8.00920595,11.6214745 L8.8285359,11.6214745 C8.82740438,11.6123068 8.82740438,11.6030349 8.8285359,11.5938672 L8.8285359,10.4895861 C8.82853329,10.4171868 8.85746136,10.3477857 8.90889053,10.2968081 C8.9603197,10.2458305 9.02998876,10.2175002 9.10241304,10.2181137 L10.7295655,10.2181137 L10.7295655,9.41024612 L10.1818112,9.41024612 C10.1093843,9.41024872 10.0399569,9.38133166 9.9889599,9.32992204 C9.93796291,9.27851243 9.90962175,9.20886986 9.91023554,9.13647312 L9.91023554,7.50073692 C9.91023023,7.35043017 10.0314526,7.228227 10.1818112,7.22696391 L12.0920467,7.22696391 Z M13.6473793,12.1667199 L12.284898,12.1667199 L12.284898,13.2572107 L13.6473793,13.2572107 L13.6473793,12.1667199 Z M9.63635839,12.1667199 L8.27157565,12.1667199 L8.27157565,13.2572107 L9.63635839,13.2572107 L9.63635839,12.1667199 Z M11.8273755,7.77450993 L10.4464824,7.77450993 L10.4464824,8.86500072 L11.8273755,8.86500072 L11.8273755,7.77450993 Z" id="形状结合" stroke-width="0.4"></path>
                        </g>
                    </g>
                </g>
            </g>
        </g>
    </g>
</svg>