<?xml version="1.0" encoding="UTF-8"?>
<svg width="16px" height="16px" viewBox="0 0 16 16" version="1.1" xmlns="http://www.w3.org/2000/svg" xmlns:xlink="http://www.w3.org/1999/xlink">
    <title>决算和报告-灰</title>
    <g id="0824设计侧修改" stroke="none" stroke-width="1" fill="none" fill-rule="evenodd">
        <g id="左侧图标修改" transform="translate(-16.000000, -504.000000)">
            <g id="编组-4" transform="translate(0.000000, 108.000000)">
                <g id="10" transform="translate(0.000000, 384.000000)">
                    <g id="决算和报告-灰" transform="translate(16.000000, 12.000000)">
                        <rect id="矩形" x="0" y="0" width="16" height="16"></rect>
                        <g id="编组-5" transform="translate(1.000000, 1.000000)" fill="#FFFFFF" fill-rule="nonzero">
                            <path d="M8.6,0 C8.87614237,0 9.1,0.218651632 9.1,0.48837209 C9.1,0.758092547 8.87614237,0.97674418 8.6,0.97674418 L8.6,0.97674418 L1.83333333,0.97674418 C1.37309604,0.97674418 1,1.34116357 1,1.79069767 L1,1.79069767 L1,12.2093023 C1,12.6588364 1.37309604,13.0232558 1.83333333,13.0232558 L1.83333333,13.0232558 L11.1666667,13.0232558 C11.626904,13.0232558 12,12.6588364 12,12.2093023 L12,12.2093023 L12,4.39534884 C12,4.12562838 12.2238576,3.90697675 12.5,3.90697675 C12.7761424,3.90697675 13,4.12562838 13,4.39534884 L13,4.39534884 L13,12.2093023 C12.9981654,13.1975342 12.1784278,13.9982081 11.1666667,14 L11.1666667,14 L1.83333333,14 C0.821572169,13.9982081 0.00183457049,13.1975342 0,12.2093023 L0,12.2093023 L0,1.79069767 C0.00183457049,0.80246584 0.821572169,0.00179190606 1.83333333,0 L1.83333333,0 Z M10.4,10.744186 C10.6761424,10.744186 10.9,10.9628377 10.9,11.2325581 C10.9,11.5022786 10.6761424,11.7209302 10.4,11.7209302 L10.4,11.7209302 L6.06666666,11.7209302 C5.79052428,11.7209302 5.56666666,11.5022786 5.56666666,11.2325581 C5.56666666,10.9628377 5.79052428,10.744186 6.06666666,10.744186 L6.06666666,10.744186 Z M4.06666667,10.744186 C4.34280905,10.744186 4.56666668,10.9628377 4.56666668,11.2325581 C4.56666668,11.5022786 4.34280905,11.7209302 4.06666667,11.7209302 L4.06666667,11.7209302 L2.39999999,11.7209302 C2.12385762,11.7209302 1.89999999,11.5022786 1.89999999,11.2325581 C1.89999999,10.9628377 2.12385762,10.744186 2.39999999,10.744186 L2.39999999,10.744186 Z M10.4,8.13953488 C10.6761424,8.13953488 10.9,8.35818652 10.9,8.62790698 C10.9,8.89762744 10.6761424,9.11627907 10.4,9.11627907 L10.4,9.11627907 L6.06666666,9.11627907 C5.79052428,9.11627907 5.56666666,8.89762744 5.56666666,8.62790698 C5.56666666,8.35818652 5.79052428,8.13953488 6.06666666,8.13953488 L6.06666666,8.13953488 Z M4.06666667,8.04186046 C4.34280905,8.04186046 4.56666668,8.2605121 4.56666668,8.53023256 C4.56666668,8.79995302 4.34280905,9.01860466 4.06666667,9.01860466 L4.06666667,9.01860466 L2.39999999,9.01860466 C2.12385762,9.01860466 1.89999999,8.79995302 1.89999999,8.53023256 C1.89999999,8.2605121 2.12385762,8.04186046 2.39999999,8.04186046 L2.39999999,8.04186046 Z M4.06666667,5.30697675 C4.34280905,5.30697675 4.56666667,5.52562838 4.56666667,5.79534884 C4.56666667,6.06506929 4.34280905,6.28372093 4.06666667,6.28372093 L4.06666667,6.28372093 L2.4,6.28372093 C2.12385763,6.28372093 1.9,6.06506929 1.9,5.79534884 C1.9,5.52562838 2.12385763,5.30697675 2.4,5.30697675 L2.4,5.30697675 Z M4.06666667,2.60465116 C4.34280905,2.60465116 4.56666667,2.8233028 4.56666667,3.09302325 C4.56666667,3.36274371 4.34280905,3.58139534 4.06666667,3.58139534 L4.06666667,3.58139534 L2.4,3.58139534 C2.12385763,3.58139534 1.9,3.36274371 1.9,3.09302325 C1.9,2.8233028 2.12385763,2.60465116 2.4,2.60465116 L2.4,2.60465116 Z" id="形状结合"></path>
                            <path d="M7.3854985,2.27024708 L8.26284596,3.19228296 L9.14094404,2.27024708 C9.27163711,2.13296159 9.48327077,2.13296159 9.61322127,2.27024708 C9.74391434,2.40753257 9.74391434,2.62984146 9.61322127,2.76634692 L8.59684596,3.83328296 L8.59684596,3.83628296 L9.76405525,3.83654973 C9.94895624,3.83654973 10.0982137,3.993336 10.0982137,4.18756377 C10.0982137,4.38179154 9.94895624,4.53857781 9.76405525,4.53857781 L8.59684596,4.53828296 L8.59684596,5.14628296 L9.76405525,5.14700215 C9.94895624,5.14700215 10.0982137,5.30378842 10.0982137,5.49801619 C10.0982137,5.69224396 9.94895624,5.84903023 9.76405525,5.84903023 L8.59684596,5.84828296 L8.59737968,6.81626892 C8.59737968,7.01049669 8.44812226,7.16728296 8.26322127,7.16728296 C8.07832028,7.16728296 7.92906285,7.01049669 7.92906285,6.81626892 L7.92884596,5.84828296 L6.68300438,5.84903023 C6.49810339,5.84903023 6.34884596,5.69224396 6.34884596,5.49801619 C6.34884596,5.30378842 6.49810339,5.14700215 6.68300438,5.14700215 L7.92884596,5.14628296 L7.92884596,4.53828296 L6.68300438,4.53857781 C6.49810339,4.53857781 6.34884596,4.38179154 6.34884596,4.18756377 C6.34884596,3.993336 6.49810339,3.83654973 6.68300438,3.83654973 L7.92884596,3.83628296 L7.92884596,3.83328296 L6.91322127,2.76634692 C6.7825282,2.62906143 6.7825282,2.40675254 6.91322127,2.27024708 C7.04391434,2.13296159 7.255548,2.13296159 7.3854985,2.27024708 Z" id="形状结合" stroke="#FFFFFF" stroke-width="0.3"></path>
                        </g>
                    </g>
                </g>
            </g>
        </g>
    </g>
</svg>