<?xml version="1.0" standalone="no"?><!DOCTYPE svg PUBLIC "-//W3C//DTD SVG 1.1//EN" "http://www.w3.org/Graphics/SVG/1.1/DTD/svg11.dtd"><svg t="1637631946139" class="icon" viewBox="0 0 1024 1024" version="1.1" xmlns="http://www.w3.org/2000/svg" p-id="2054" width="200" height="200" xmlns:xlink="http://www.w3.org/1999/xlink"><defs><style type="text/css"></style></defs><path d="M926.948 405.276H619.52V170.894c0-31.402-25.486-56.889-56.889-56.889H98.304c-31.403 0-56.889 25.487-56.889 56.89V562.29c0 31.402 25.486 56.889 56.889 56.889h307.541V853.56c0 31.403 25.487 56.889 56.89 56.889H927.06c31.403 0 56.89-25.486 56.89-56.89V462.166c-0.115-31.402-25.6-56.889-57.003-56.889zM109.682 550.912v-368.64h441.571v223.004H462.62c-31.402 0-56.888 25.487-56.888 56.89v88.746h-296.05zM915.57 842.183H473.998v-368.64H915.57v368.64z" p-id="2055" fill="#ffffff"></path><path d="M550.912 580.494h118.329c9.443 0 17.067-7.623 17.067-17.066s-7.624-17.067-17.067-17.067H550.912c-9.444 0-17.067 7.623-17.067 17.067s7.623 17.066 17.067 17.066z m0 94.436H838.77c9.443 0 17.066-7.623 17.066-17.067s-7.623-17.067-17.066-17.067H550.912c-9.444 0-17.067 7.624-17.067 17.067s7.623 17.067 17.067 17.067z m0 94.435H838.77c9.443 0 17.066-7.623 17.066-17.066s-7.623-17.067-17.066-17.067H550.912c-9.444 0-17.067 7.623-17.067 17.067s7.623 17.066 17.067 17.066zM304.811 255.09H186.48c-9.443 0-17.066 7.623-17.066 17.066s7.623 17.067 17.067 17.067H304.81c9.443 0 17.066-7.623 17.066-17.067s-7.623-17.066-17.066-17.066z m0 94.435H186.48c-9.443 0-17.066 7.623-17.066 17.067s7.623 17.067 17.067 17.067H304.81c9.443 0 17.066-7.623 17.066-17.067s-7.623-17.067-17.066-17.067z m0 94.436H186.48c-9.443 0-17.066 7.623-17.066 17.067s7.623 17.066 17.067 17.066H304.81c9.443 0 17.066-7.623 17.066-17.066s-7.623-17.067-17.066-17.067z m386.161-242.005l108.544 62.691c15.133 8.761 34.134-2.162 34.134-19.683v-28.559h81.578v79.645c0 18.887 15.247 34.133 34.134 34.133s34.133-15.246 34.133-34.133V182.272c0-18.887-15.246-34.133-34.133-34.133H833.764V119.58c0-17.521-19.001-28.444-34.134-19.683l-108.544 62.691c-15.246 8.761-15.246 30.607-0.114 39.368zM333.938 822.272L225.394 759.58c-15.133-8.76-34.134 2.162-34.134 19.684v28.558h-81.578v-79.644c0-18.887-15.246-34.134-34.134-34.134s-34.133 15.247-34.133 34.134v113.778c0 18.887 15.246 34.133 34.133 34.133H191.26v28.558c0 17.522 19.001 28.445 34.134 19.684l108.544-62.692c15.132-8.647 15.132-30.606 0-39.367z" p-id="2056" fill="#ffffff"></path></svg>