<?xml version="1.0" encoding="UTF-8"?>
<svg width="16px" height="16px" viewBox="0 0 16 16" version="1.1" xmlns="http://www.w3.org/2000/svg" xmlns:xlink="http://www.w3.org/1999/xlink">
    <title>配置管理-灰</title>
    <g id="0824设计侧修改" stroke="none" stroke-width="1" fill="none" fill-rule="evenodd">
        <g id="左侧图标修改" transform="translate(-16.000000, -864.000000)">
            <g id="编组-4" transform="translate(0.000000, 108.000000)">
                <g id="18备份" transform="translate(0.000000, 744.000000)">
                    <g id="配置管理-灰" transform="translate(16.000000, 12.000000)">
                        <rect id="矩形" x="0" y="0" width="16" height="16"></rect>
                        <g id="编组-25" transform="translate(0.996421, 1.000000)" fill="#FFFFFF">
                            <path d="M11.6666556,0.710829041 L11.6666556,-1.77635684e-15 L10.5897325,-1.77635684e-15 L10.5897325,0.710829041 L1,0.710829041 L1,1.82149941 L10.5897325,1.82149941 L10.5897325,2.53232844 L11.6666556,2.53232844 L11.6666556,1.82149941 L13.0035787,1.82149941 L13.0035787,0.710829041 L11.6666556,0.710829041 Z M3.37973251,5.90321301 L2.30280943,5.90321301 L2.30280943,6.61404205 L1,6.61404205 L1,7.72471242 L2.30280943,7.72471242 L2.30280943,8.43554145 L3.37973251,8.43554145 L3.37973251,7.72471242 L13.0035787,7.72471242 L13.0035787,6.61404205 L3.37973251,6.61404205 L3.37973251,5.90321301 Z M10.5897325,11.4676716 L10.5897325,12.1785006 L1,12.1785006 L1,13.289171 L10.5897325,13.289171 L10.5897325,14 L11.6666556,14 L11.6666556,13.289171 L13.0035787,13.289171 L13.0035787,12.1785006 L11.6666556,12.1785006 L11.6666556,11.4676716 L10.5897325,11.4676716 Z" id="形状" fill-rule="nonzero"></path>
                            <path d="M1.44286975,12.176758 C1.75056429,12.176758 2,12.4261937 2,12.7338882 C2,13.0415828 1.75056429,13.2910185 1.44286975,13.2910185 L0.557130248,13.2910185 C0.249435708,13.2910185 3.76817133e-17,13.0415828 0,12.7338882 C-3.76817133e-17,12.4261937 0.249435708,12.176758 0.557130248,12.176758 L1.44286975,12.176758 Z M1.44286975,6.61402959 C1.75056429,6.61402959 2,6.86346529 2,7.17115983 C2,7.47885437 1.75056429,7.72829008 1.44286975,7.72829008 L0.557130248,7.72829008 C0.249435708,7.72829008 3.76817133e-17,7.47885437 0,7.17115983 C-3.76817133e-17,6.86346529 0.249435708,6.61402959 0.557130248,6.61402959 L1.44286975,6.61402959 Z M1.44286975,0.707238913 C1.75056429,0.707238913 2,0.956674621 2,1.26436916 C2,1.5720637 1.75056429,1.82149941 1.44286975,1.82149941 L0.557130248,1.82149941 C0.249435708,1.82149941 3.76817133e-17,1.5720637 0,1.26436916 C-3.76817133e-17,0.956674621 0.249435708,0.707238913 0.557130248,0.707238913 L1.44286975,0.707238913 Z" id="形状结合"></path>
                            <path d="M13.4464484,12.176758 C13.754143,12.176758 14.0035787,12.4261937 14.0035787,12.7338882 C14.0035787,13.0415828 13.754143,13.2910185 13.4464484,13.2910185 L12.5607089,13.2910185 C12.2530144,13.2910185 12.0035787,13.0415828 12.0035787,12.7338882 C12.0035787,12.4261937 12.2530144,12.176758 12.5607089,12.176758 L13.4464484,12.176758 Z M13.4464484,6.61402959 C13.754143,6.61402959 14.0035787,6.86346529 14.0035787,7.17115983 C14.0035787,7.47885437 13.754143,7.72829008 13.4464484,7.72829008 L12.5607089,7.72829008 C12.2530144,7.72829008 12.0035787,7.47885437 12.0035787,7.17115983 C12.0035787,6.86346529 12.2530144,6.61402959 12.5607089,6.61402959 L13.4464484,6.61402959 Z M13.4464484,0.707238913 C13.754143,0.707238913 14.0035787,0.956674621 14.0035787,1.26436916 C14.0035787,1.5720637 13.754143,1.82149941 13.4464484,1.82149941 L12.5607089,1.82149941 C12.2530144,1.82149941 12.0035787,1.5720637 12.0035787,1.26436916 C12.0035787,0.956674621 12.2530144,0.707238913 12.5607089,0.707238913 L13.4464484,0.707238913 Z" id="形状结合备份-2"></path>
                        </g>
                    </g>
                </g>
            </g>
        </g>
    </g>
</svg>