<?xml version="1.0" encoding="UTF-8"?>
<svg width="16px" height="16px" viewBox="0 0 16 16" version="1.1" xmlns="http://www.w3.org/2000/svg" xmlns:xlink="http://www.w3.org/1999/xlink">
    <title>数据对接-灰</title>
    <g id="0824设计侧修改" stroke="none" stroke-width="1" fill="none" fill-rule="evenodd">
        <g id="左侧图标修改" transform="translate(-16.000000, -984.000000)">
            <g id="编组-4" transform="translate(0.000000, 108.000000)">
                <g id="18备份-5" transform="translate(0.000000, 864.000000)">
                    <g id="数据对接-灰" transform="translate(16.000000, 12.000000)">
                        <rect id="矩形" x="0" y="0" width="16" height="16"></rect>
                        <path d="M3.94428807,5.68308561 C4.50592409,4.67826352 5.7543177,4.33273842 6.72717001,4.91288528 L6.72717001,4.91288528 L9.0409755,6.29270896 C9.51223946,6.57374454 9.84933128,7.02749956 9.9901661,7.57040843 C10.1310009,8.1133173 10.05873,8.68039033 9.78664526,9.16714038 L9.78664526,9.16714038 L9.36918374,9.91398719 C9.2677406,10.0954685 9.04306281,10.1576468 8.86734491,10.0528664 C8.69162701,9.94810333 8.63142906,9.71601699 8.73287221,9.53453568 L8.73287221,9.53453568 L9.15033372,8.78768887 C9.32428158,8.47648689 9.37050292,8.11393822 9.28044812,7.76682633 C9.19041002,7.41973168 8.97488299,7.12960651 8.67359267,6.94993622 L8.67359267,6.94993622 L6.35978718,5.57011255 C6.05849686,5.39044226 5.70749522,5.34271761 5.3714387,5.43571772 C5.03538218,5.52871784 4.75451407,5.75133514 4.58056621,6.06253712 L4.58056621,6.06253712 L1.90881252,10.8423843 C1.54971212,11.484813 1.76358601,12.3092231 2.38555357,12.680137 L2.38555357,12.680137 L4.69935906,14.0599606 C5.00064938,14.2396309 5.35166772,14.2873556 5.68770754,14.1943555 C6.02376406,14.1013553 6.30463217,13.878738 6.47858003,13.5675361 L6.47858003,13.5675361 L7.23001075,12.2232083 C7.3314706,12.041727 7.55616509,11.9795487 7.73184959,12.0843291 C7.90756749,12.1891095 7.96776544,12.4211785 7.86632229,12.6026599 L7.86632229,12.6026599 L7.11489157,13.9469876 C6.84280685,14.4337376 6.40350375,14.7819361 5.87788631,14.927404 C5.70240218,14.9759566 5.52424631,15 5.34730942,15 C4.99427057,15 4.64594068,14.9043955 4.33200962,14.7171879 L4.33200962,14.7171879 L2.01820413,13.3373642 C1.04536852,12.7572346 0.710881654,11.4677549 1.27253438,10.4629328 L1.27253438,10.4629328 Z M10.1221173,2.07260449 C10.6477682,1.92713658 11.1967301,2.00178504 11.667994,2.28282063 L11.667994,2.28282063 L13.9817995,3.6626443 C14.9546184,4.24279117 15.289122,5.53225363 14.7274693,6.53707573 L14.7274693,6.53707573 L12.0557156,11.3169229 C11.6788313,11.9911737 10.9925747,12.3686245 10.2880165,12.3686245 C9.94259218,12.3686245 9.59287632,12.2779701 9.27283363,12.0871232 L9.27283363,12.0871232 L6.95902814,10.7072996 C6.48776418,10.426264 6.15067236,9.97250896 6.00983754,9.42960009 C5.86900273,8.88669122 5.94127366,8.31961819 6.21335838,7.83286814 L6.21335838,7.83286814 L6.63081989,7.08602133 C6.73227974,6.90454002 6.95697423,6.84236172 7.13265873,6.94714208 C7.30837663,7.05190519 7.36857458,7.28399153 7.26713143,7.46547284 L7.26713143,7.46547284 L6.84966992,8.21231965 C6.67572205,8.52352163 6.62950072,8.8860703 6.71955551,9.23318219 C6.80959361,9.58027684 7.02512064,9.87040201 7.32641097,10.0500723 L7.32641097,10.0500723 L9.64021646,11.429896 C9.94152348,11.6095663 10.2925418,11.6573082 10.6285649,11.5642908 C10.9646215,11.4712907 11.2454896,11.2486734 11.4194374,10.9374714 L11.4194374,10.9374714 L14.0911911,6.15762422 C14.4502915,5.51519556 14.2364176,4.69078542 13.6144501,4.31987156 L13.6144501,4.31987156 L11.3006446,2.94004789 C10.9993376,2.7603776 10.6483192,2.71265295 10.3122961,2.80565307 C9.97623958,2.89865318 9.69537147,3.12127048 9.52142361,3.43247247 L9.52142361,3.43247247 L8.76999288,4.77680017 C8.66854974,4.95828148 8.44385525,5.02047703 8.26815405,4.91567943 C8.09243615,4.81091631 8.0322382,4.57882997 8.13368134,4.39734866 L8.13368134,4.39734866 L8.88511207,3.05302096 C9.15719679,2.56627091 9.59649989,2.2180724 10.1221173,2.07260449 Z" id="形状结合" stroke="#979797" stroke-width="0.5" fill="#FFFFFF" fill-rule="nonzero"></path>
                    </g>
                </g>
            </g>
        </g>
    </g>
</svg>