<?xml version="1.0" encoding="UTF-8"?>
<svg width="16px" height="16px" viewBox="0 0 16 16" version="1.1" xmlns="http://www.w3.org/2000/svg" xmlns:xlink="http://www.w3.org/1999/xlink">
    <title>首页管理-灰</title>
    <g id="0824设计侧修改" stroke="none" stroke-width="1" fill="none" fill-rule="evenodd">
        <g id="左侧图标修改" transform="translate(-16.000000, -824.000000)">
            <g id="编组-4" transform="translate(0.000000, 108.000000)">
                <g id="18" transform="translate(0.000000, 704.000000)">
                    <g id="首页管理-灰" transform="translate(16.000000, 12.000000)">
                        <rect id="矩形" x="0" y="0" width="16" height="16"></rect>
                        <g id="首页" transform="translate(1.000000, 1.000000)" fill="#FFFFFF" fill-rule="nonzero">
                            <path d="M7.0888024,0.194830514 L12.4467101,3.83461513 C12.7452332,4.03750744 12.9242178,4.37803051 12.9242178,4.74246128 L12.9262459,5.59696476 L12.9285947,5.62488206 L12.9285947,5.62488206 L12.929387,6.52628565 C12.929387,6.80136594 12.7063904,7.02436257 12.4313101,7.02436257 C12.1562298,7.02436257 11.9332332,6.80136594 11.9332332,6.52628565 L11.9324793,5.71175672 L11.9224793,5.71275672 L11.9226793,5.40929205 C11.9226793,5.06359974 11.7643716,4.7366459 11.4942793,4.52535359 L11.4348332,4.48206128 L6.65652548,1.2338459 C6.54856413,1.16079652 6.40974323,1.15118015 6.29274086,1.2086459 L6.25009471,1.2338459 L1.42655625,4.48335359 C1.1416024,4.67526128 0.960679326,4.99187667 0.937417788,5.33821513 L0.934833172,5.41252282 L0.934833172,12.5057536 C0.934833172,12.6944305 1.07375625,12.8527382 1.25855625,12.8747074 L1.3012024,12.8772921 L7.11497803,12.8751674 C7.13031301,12.8737838 7.14584319,12.8730769 7.16153846,12.8730769 L7.48461538,12.8730769 C7.76713028,12.8730769 7.99615385,13.1021005 7.99615385,13.3846154 C7.99615385,13.6671303 7.76713028,13.8961538 7.48461538,13.8961538 L7.4549111,13.8961538 L11.8684576,13.8973822 L1.08732548,13.897569 C0.492863941,13.897569 0.011479326,13.4084305 0.011479326,12.8049228 L0.011479326,4.7450459 C0.011479326,4.37932282 0.191756249,4.03750744 0.492217788,3.83461513 L5.8947101,0.193538206 C6.25655625,-0.0507079474 6.7276024,-0.0500617936 7.0888024,0.194830514 Z M8.10297245,6.23590745 C8.4047263,6.23590745 8.64897245,6.47627668 8.64897245,6.77350745 C8.64897245,7.07073822 8.4047263,7.31175361 8.10297245,7.31175361 L7.53730196,7.31175361 L7.5368024,7.31325066 L4.80615625,7.31325066 C4.5044024,7.31325066 4.26015625,7.07288143 4.26015625,6.77565066 C4.26015625,6.47841989 4.5044024,6.23740451 4.80615625,6.23740451 L7.5368024,6.23740451 L7.53730196,6.23590745 L8.10297245,6.23590745 Z" id="形状结合"></path>
                            <path d="M10.6575308,8.36836229 C10.7445446,8.45934029 10.9786532,8.64915348 11.1406647,8.64915349 C11.30019,8.64915349 11.5330556,8.46347566 11.6200694,8.37291119 C11.7555624,8.23933895 11.9577659,8.19922592 12.1338653,8.27076771 L12.8357768,8.65825129 C13.0180915,8.78396634 13.0819016,9.01058428 12.9990313,9.19419442 C12.9692939,9.26648851 12.9517912,9.34320911 12.9472374,9.42122588 C12.9480661,9.75164144 13.2165658,10.0191995 13.5480471,10.019613 L13.5720795,10.019613 C13.744864,10.019613 13.8799426,10.1556665 13.9201347,10.365743 C13.9259357,10.3971717 13.979387,10.6878878 13.979387,10.9223629 C13.979387,11.168417 13.9201348,11.4760881 13.9209634,11.4785693 C13.8816,11.6878187 13.7461071,11.8234587 13.5770517,11.8234587 L13.5488758,11.8234587 C13.2173946,11.8242857 12.9488948,12.0922573 12.9480661,12.4230864 C12.9526239,12.5016583 12.9708554,12.5789896 13.0011031,12.6513585 C13.0819016,12.839104 13.0201632,13.0570376 12.8531796,13.1748955 L12.8366055,13.186061 L12.1392519,13.5689957 C12.0796077,13.5975152 12.0143711,13.6124858 11.9482358,13.6128305 C11.8173007,13.6128305 11.6880231,13.5578302 11.6059815,13.4664386 C11.5160672,13.3692576 11.2782294,13.1682789 11.1108314,13.1682789 C10.9471625,13.1682789 10.7051812,13.3692576 10.6206535,13.4610627 C10.4864219,13.5988973 10.2816453,13.6413114 10.1035428,13.5681686 L9.41406188,13.1856475 C9.23257591,13.0599324 9.16918013,12.8341415 9.25163608,12.6505314 C9.26613838,12.6166214 9.30425872,12.5091019 9.30425872,12.4239135 C9.30425872,12.0934979 9.03368718,11.8242857 8.7026203,11.8242857 L8.67900226,11.8242857 C8.50580332,11.8242857 8.37113908,11.6882323 8.33094698,11.4785693 C8.32473171,11.446727 8.27169471,11.156011 8.27169471,10.9227764 C8.27169471,10.6887149 8.32473171,10.3971717 8.33094698,10.3661565 C8.37113908,10.1569071 8.50580332,10.0204401 8.67485874,10.0204401 L8.70303465,10.0204401 C9.03451587,10.0204401 9.30384437,9.75288206 9.30467308,9.42205296 C9.30044791,9.34315016 9.28235537,9.26560325 9.25122172,9.19295381 C9.17093969,9.00513808 9.23290672,8.78687131 9.39997392,8.66900323 L9.41654799,8.65907836 L10.1313044,8.26704589 L10.144978,8.26166991 C10.3218252,8.19163497 10.5234799,8.23361117 10.6575308,8.36836229 Z M10.3098899,8.79016938 L9.79029306,9.07509594 C9.81929767,9.16111151 9.85203144,9.28806718 9.85203144,9.42122588 C9.85153769,9.9957859 9.42464155,10.4810904 8.85385861,10.5559697 C8.83409219,10.6771823 8.82260199,10.7995953 8.81946743,10.9223629 C8.82278225,11.0447697 8.83396974,11.1667629 8.85385861,11.2879291 C9.42500888,11.3621213 9.85226783,11.8478383 9.85203144,12.4226729 C9.85203144,12.5550045 9.81805461,12.6827872 9.78987871,12.7692163 L10.2705265,13.0371879 C10.3355797,12.9751574 10.4039477,12.9172624 10.4760448,12.8639162 C10.6964799,12.703464 10.9106996,12.6207568 11.110417,12.6207568 C11.3130349,12.6207568 11.5289121,12.7051182 11.7514188,12.8692921 C11.8239304,12.9234654 11.8931271,12.9826011 11.9581803,13.0458722 L12.461203,12.7692163 C12.4230263,12.6576932 12.4024771,12.5409185 12.4002933,12.4230864 C12.3998198,11.8484596 12.8267241,11.3627426 13.3976375,11.2883426 C13.4117254,11.1936428 13.4320286,11.0406343 13.4320286,10.9215358 C13.4320286,10.8020238 13.4117254,10.6498424 13.3976375,10.5547291 C12.8272207,10.4800262 12.4006013,9.99498714 12.4002933,9.42081235 C12.4023651,9.30254095 12.4230827,9.18592369 12.4616174,9.07426887 L11.9648099,8.79885366 C11.9000769,8.85833606 11.8315666,8.91358896 11.7597059,8.9642682 C11.5425857,9.11644958 11.3354099,9.19336734 11.1406647,9.19336735 C10.943019,9.19336735 10.7333571,9.11644958 10.5154082,8.96013284 C10.4427689,8.90864965 10.3740727,8.851838 10.3098899,8.79016938 Z M11.1120793,9.89744591 C11.688067,9.89744591 12.1594495,10.3564499 12.1755409,10.9329811 C12.1743977,11.5205563 11.6988719,11.9965307 11.1120793,11.9974459 C10.5252868,11.9965307 10.0497609,11.5205563 10.0486178,10.9329811 C10.0647092,10.3564499 10.5360916,9.89744591 11.1120793,9.89744591 Z M11.1120793,10.4381713 C10.8355212,10.4381713 10.6079629,10.6568855 10.5963358,10.9333969 C10.6042555,11.2127956 10.8327329,11.4351764 11.1118717,11.4351764 C11.3910105,11.4351764 11.6194879,11.2127956 11.6274076,10.9333969 C11.6158396,10.6567492 11.3886003,10.4383744 11.1120793,10.4381713 Z" id="形状结合" stroke="#FFFFFF" stroke-width="0.3"></path>
                        </g>
                    </g>
                </g>
            </g>
        </g>
    </g>
</svg>