<?xml version="1.0" encoding="UTF-8"?>
<svg width="16px" height="16px" viewBox="0 0 16 16" version="1.1" xmlns="http://www.w3.org/2000/svg" xmlns:xlink="http://www.w3.org/1999/xlink">
    <title>统一用户管理-灰</title>
    <g id="0824设计侧修改" stroke="none" stroke-width="1" fill="none" fill-rule="evenodd">
        <g id="左侧图标修改" transform="translate(-16.000000, -1144.000000)">
            <g id="编组-4" transform="translate(0.000000, 108.000000)">
                <g id="18备份-9" transform="translate(0.000000, 1024.000000)">
                    <g id="统一用户管理-灰" transform="translate(16.000000, 12.000000)">
                        <rect id="矩形" x="0" y="0" width="16" height="16"></rect>
                        <path d="M7.99850559,5.15507246 C9.46751263,5.15507246 10.6615479,6.31449275 10.6615479,7.73768116 C10.6615479,8.65217391 10.1668975,9.45507246 9.42566909,9.91449275 C10.8453605,10.1884058 12.1425102,10.8724638 13.1736545,11.9057971 C13.4396598,12.1724638 13.4396598,12.6057971 13.1736545,12.8724638 C11.8047731,14.2449275 9.96814066,15 8,15 C6.03185934,15 4.19522693,14.2449275 2.82485109,12.8724638 C2.55884574,12.6057971 2.55884574,12.1724638 2.82485109,11.9057971 C3.8559954,10.8724638 5.15314505,10.1884058 6.57134208,9.91449275 C5.83011371,9.45507246 5.33546332,8.65217391 5.33546332,7.73768116 C5.33546332,6.31304348 6.52949855,5.15507246 7.99850559,5.15507246 Z M8,10.773913 C6.41592323,10.773913 4.93047766,11.3449275 3.78426362,12.3884058 C4.93047766,13.4318841 6.41592323,14.0028986 8,14.0028986 C9.58407677,14.0028986 11.0695223,13.4318841 12.2157364,12.3884058 C11.0680279,11.3449275 9.58407677,10.773913 8,10.773913 Z M8,6.15217391 C7.09886954,6.15217391 6.36511322,6.86376812 6.36511322,7.73768116 C6.36511322,8.61304348 7.09886954,9.32318841 8,9.32318841 C8.90113046,9.32318841 9.63488678,8.6115942 9.63488678,7.73768116 C9.63488678,6.86376812 8.90113046,6.15217391 8,6.15217391 Z M8,1 C11.6837257,1 14.7128989,3.76521739 14.9983316,7.26666667 C15.0222422,7.55797101 14.7861251,7.80869565 14.4842539,7.80869565 C14.2182485,7.80869565 13.9955811,7.61014493 13.9746594,7.35362319 C13.734059,4.36086957 11.1472318,1.99710145 8,1.99710145 C4.85276823,1.99710145 2.26594098,4.36086957 2.02534064,7.35362319 C2.00441887,7.6115942 1.78175148,7.80869565 1.51574614,7.80869565 C1.2138749,7.80869565 0.977757799,7.55797101 1.00166839,7.26666667 C1.28710109,3.76521739 4.31627431,1 8,1 Z" id="形状结合" fill="#FFFFFF" fill-rule="nonzero"></path>
                    </g>
                </g>
            </g>
        </g>
    </g>
</svg>