<?xml version="1.0" encoding="UTF-8"?>
<svg width="16px" height="16px" viewBox="0 0 16 16" version="1.1" xmlns="http://www.w3.org/2000/svg" xmlns:xlink="http://www.w3.org/1999/xlink">
    <title>项目库-灰</title>
    <g id="0824设计侧修改" stroke="none" stroke-width="1" fill="none" fill-rule="evenodd">
        <g id="左侧图标修改" transform="translate(-16.000000, -304.000000)">
            <g id="编组-4" transform="translate(0.000000, 108.000000)">
                <g id="5" transform="translate(0.000000, 184.000000)">
                    <g id="项目库-灰" transform="translate(16.000000, 12.000000)">
                        <rect id="矩形" x="0" y="0" width="16" height="16"></rect>
                        <g id="管理" transform="translate(1.000000, 1.000000)" fill="#FFFFFF" fill-rule="nonzero">
                            <path d="M6.89424355,0.0155214134 C6.78730161,0.0155214134 6.68180484,0.0372016129 6.58353387,0.0791112903 L0.484953226,2.6919629 C0.199713342,2.8105683 0.0147406119,3.09013444 0.0170977836,3.39904117 C0.0195003458,3.7079479 0.208758509,3.98463091 0.495791935,4.09882742 L6.59437258,6.59678871 C6.78657903,6.67627258 7.00263065,6.67627258 7.19411452,6.59678871 L13.2926952,4.09882742 C13.5793861,3.98469803 13.7685177,3.70844415 13.7712425,3.39988307 C13.7739088,3.09132198 13.5896323,2.81180606 13.304979,2.69268548 L7.20639839,0.0791112903 C7.10751028,0.0368752641 7.00105077,0.0152391522 6.89352097,0.0155214134 L6.89424355,0.0155214134 Z M6.89352097,1.12468548 L12.17125,3.3863629 L6.89424355,5.54832419 L1.61651452,3.3863629 L6.89352097,1.12468548 Z M0.0817532258,6.61051774 C0.139429865,6.47885475 0.24705097,6.37549905 0.38093756,6.32319113 C0.514824149,6.27088321 0.664007094,6.27390859 0.795662903,6.33160161 L7.11101774,9.09691774 C7.38517902,9.21703789 7.51005402,9.53666614 7.38993387,9.81082742 C7.26981372,10.0849887 6.95018547,10.2098637 6.67602419,10.0897435 L0.360669355,7.32442742 C0.229006367,7.26675078 0.125650663,7.15912967 0.0733427442,7.02524309 C0.0210348256,6.8913565 0.0240602024,6.74217355 0.0817532258,6.61051774 L0.0817532258,6.61051774 Z" id="形状"></path>
                            <path d="M6.67819194,9.10558871 L12.9935468,6.33955 C13.1717023,6.25728511 13.3804109,6.27775396 13.5391896,6.39306326 C13.6979683,6.50837256 13.7820094,6.7005063 13.7589045,6.8953731 C13.7357996,7.09023991 13.6091588,7.25739364 13.4278177,7.33237581 L7.1124629,10.0984145 C6.93430737,10.1806794 6.72559873,10.1602106 6.56682004,10.0449013 C6.40804136,9.92959196 6.32400032,9.73745822 6.34710518,9.54259141 C6.37021004,9.34772461 6.49685087,9.18057088 6.67819194,9.10558871 L6.67819194,9.10558871 Z M0.773985484,9.24287903 L7.08934032,12.0081952 C7.26669158,12.0858993 7.38911624,12.2523166 7.41049813,12.4447593 C7.43188003,12.6372021 7.34897072,12.8264336 7.19300136,12.9411723 C7.03703199,13.0559109 6.83169802,13.0787251 6.65434677,13.001021 L0.338991935,10.2357048 C0.161640687,10.1580007 0.0392160258,9.9915834 0.0178341376,9.79914066 C-0.00354775061,9.60669791 0.0793615513,9.41746638 0.235330912,9.30272775 C0.391300272,9.18798912 0.596634235,9.16517492 0.773985484,9.24287903 L0.773985484,9.24287903 Z" id="形状"></path>
                            <path d="M13.4162565,10.2364274 L7.10090161,13.0017435 C6.82826423,13.1144756 6.51553862,12.9884101 6.39730776,12.7181119 C6.27907689,12.4478137 6.39878255,12.132599 6.66663065,12.0089177 L12.9819855,9.24360161 C13.2546229,9.1308696 13.5673485,9.25693505 13.6855793,9.52723323 C13.8038102,9.79753142 13.6841045,10.1127462 13.4162565,10.2364274 L13.4162565,10.2364274 Z" id="路径"></path>
                        </g>
                    </g>
                </g>
            </g>
        </g>
    </g>
</svg>