<?xml version="1.0" encoding="UTF-8"?>
<svg width="16px" height="16px" viewBox="0 0 16 16" version="1.1" xmlns="http://www.w3.org/2000/svg" xmlns:xlink="http://www.w3.org/1999/xlink">
    <title>预算批复-灰</title>
    <g id="0824设计侧修改" stroke="none" stroke-width="1" fill="none" fill-rule="evenodd">
        <g id="左侧图标修改" transform="translate(-16.000000, -384.000000)">
            <g id="编组-4" transform="translate(0.000000, 108.000000)">
                <g id="7" transform="translate(0.000000, 264.000000)">
                    <g id="预算批复-灰" transform="translate(16.000000, 12.000000)">
                        <rect id="矩形" x="0" y="0" width="16" height="16"></rect>
                        <g id="编组-3" transform="translate(1.000000, 1.000000)" fill="#FFFFFF">
                            <path d="M9.496875,13 L1.5,13 C1.2234375,13 1,12.7765625 1,12.5 L1,1.5 C1,1.2234375 1.2234375,1 1.5,1 L7.4984375,1 L7.4984375,3.5 C7.4984375,4.0515625 7.9453125,4.5 8.4984375,4.5 L10.996875,4.5 L10.996875,7.5 C10.996875,7.7765625 11.2203125,8 11.496875,8 C11.7734375,8 11.996875,7.7765625 11.996875,7.5 L11.996875,3.221875 C11.996875,3.0890625 11.9453125,2.9625 11.8515625,2.86875 L9.14375,0.146875 C9.05,0.053125 8.921875,0 8.7890625,0 L1,0 C0.4484375,0 0,0.4484375 0,1 L0,13 C0,13.5515625 0.446875,14 1,14 L9.4984375,14 C9.775,14 9.9984375,13.7765625 9.9984375,13.5 C9.996875,13.2234375 9.7734375,13 9.496875,13 Z M8.996875,3.5 C8.7203125,3.5 8.496875,3.2765625 8.496875,3 L8.496875,1 L10.9953125,3.5 L8.996875,3.5 Z" id="形状" fill-rule="nonzero"></path>
                            <path d="M7.496875,9.5 L2.484375,9.5 C2.2078125,9.5 1.984375,9.7234375 1.984375,10 C1.984375,10.2765625 2.2078125,10.5 2.484375,10.5 L7.4984375,10.5 C7.775,10.5 7.9984375,10.2765625 7.9984375,10 C7.996875,9.7234375 7.7734375,9.5 7.496875,9.5 Z M8.48125,6.5 L2.484375,6.5 C2.2078125,6.5 1.984375,6.7234375 1.984375,7 C1.984375,7.2765625 2.2078125,7.5 2.484375,7.5 L8.4828125,7.5 C8.759375,7.5 8.9828125,7.2765625 8.9828125,7 C8.98125,6.7234375 8.7578125,6.5 8.48125,6.5 Z M2.484375,4.5 L5.4828125,4.5 C5.759375,4.5 5.9828125,4.2765625 5.9828125,4 C5.9828125,3.7234375 5.759375,3.5 5.4828125,3.5 L2.484375,3.5 C2.2078125,3.5 1.984375,3.7234375 1.984375,4 C1.984375,4.2765625 2.2078125,4.5 2.484375,4.5 Z" id="形状" fill-rule="nonzero"></path>
                            <path d="M13.7786465,9.32341194 L11.4480316,12.049147 C11.368245,12.11984 11.260276,12.1596893 11.1476001,12.1600162 C11.0297054,12.1590137 10.9209022,12.1173351 10.8417763,12.0443557 L9.3375988,10.9143333 C9.17224616,10.7629231 9.17568913,10.5212486 9.34530217,10.3736057 C9.42617301,10.3029422 9.53546519,10.2639146 9.64887963,10.2651999 C9.76229408,10.2664853 9.87043037,10.3079771 9.94924644,10.3804504 L11.12449,11.259274 L13.1777835,8.77857754 C13.2582758,8.70742647 13.3674048,8.66777018 13.4809428,8.66840505 C13.5944809,8.66905529 13.7030325,8.70994353 13.7824982,8.78199986 C13.9489017,8.93315785 13.9471802,9.17482197 13.7786465,9.32341194 Z" id="路径" stroke="#FFFFFF" stroke-width="0.2"></path>
                        </g>
                    </g>
                </g>
            </g>
        </g>
    </g>
</svg>