<?xml version="1.0" encoding="UTF-8"?>
<svg width="16px" height="16px" viewBox="0 0 16 16" version="1.1" xmlns="http://www.w3.org/2000/svg" xmlns:xlink="http://www.w3.org/1999/xlink">
    <title>预算配置管理-灰</title>
    <g id="0824设计侧修改" stroke="none" stroke-width="1" fill="none" fill-rule="evenodd">
        <g id="左侧图标修改" transform="translate(-16.000000, -904.000000)">
            <g id="编组-4" transform="translate(0.000000, 108.000000)">
                <g id="18备份-2" transform="translate(0.000000, 784.000000)">
                    <g id="预算配置管理-灰" transform="translate(16.000000, 12.000000)">
                        <rect id="矩形" x="0" y="0" width="16" height="16"></rect>
                        <g id="配置管理" transform="translate(1.000000, 1.000000)" fill="#FFFFFF" fill-rule="nonzero">
                            <path d="M13.7350643,9.98334099 L8.12212776,9.98334099 C7.99632353,9.98334099 7.89119945,9.8816636 7.8894761,9.75585938 L7.8894761,9.21645221 C7.89119945,9.09064798 7.99460018,8.98724724 8.12212776,8.98897059 L13.7350643,8.98897059 C13.8608686,8.98897059 13.9642693,9.09064798 13.9659926,9.21645221 L13.9659926,9.75585938 C13.9642693,9.8816636 13.8625919,9.98506434 13.7350643,9.98334099 Z M13.7350643,11.9772518 L8.12212776,11.9772518 C7.99632353,11.9772518 7.89119945,11.8755744 7.8894761,11.7497702 L7.8894761,11.2103631 C7.89119945,11.0845588 7.99460018,10.9811581 8.12212776,10.9828814 L13.7350643,10.9828814 C13.8608686,10.9828814 13.9642693,11.0845588 13.9659926,11.2103631 L13.9659926,11.7480469 C13.9642693,11.8738511 13.8625919,11.9772518 13.7350643,11.9772518 Z M13.7350643,13.9711627 L8.12212776,13.9711627 C7.99632353,13.9711627 7.89119945,13.8694853 7.8894761,13.7436811 L7.8894761,13.2042739 C7.89119945,13.0784697 7.99460018,12.9750689 8.12212776,12.9767923 L13.7350643,12.9767923 C13.8608686,12.9767923 13.9642693,13.0784697 13.9659926,13.2042739 L13.9659926,13.7419577 C13.9642693,13.8694853 13.8625919,13.9694393 13.7350643,13.9711627 Z M6.8761489,8.89935662 L6.8761489,9.91096048 C5.24069393,9.91096048 3.91027114,8.60121783 3.91027114,6.99161305 C3.91027114,5.38200827 5.24069393,4.07226562 6.8761489,4.07226562 C8.51160386,4.07226562 9.84202665,5.38200827 9.84202665,6.99161305 C9.84202665,7.33283548 9.7834329,7.67061121 9.66452206,7.98943015 L8.52366728,7.98943015 C8.71323529,7.69129136 8.81318934,7.3448989 8.81318934,6.99161305 C8.81318934,5.94209559 7.94289982,5.08731618 6.87442555,5.08731618 C5.80767463,5.08731618 4.93738511,5.94209559 4.93738511,6.99161305 C4.93910846,8.04457721 5.80767463,8.89935662 6.8761489,8.89935662 L6.8761489,8.89935662 Z M6.63143382,12.9561121 C6.69519761,12.9543888 6.75723805,12.980239 6.80549173,13.025046 C6.85029871,13.0698529 6.87787224,13.1336167 6.87787224,13.1973805 L6.87787224,13.728171 C6.8761489,13.8608686 6.76757813,13.9694943 6.63315717,13.9694943 L5.66636029,13.9694943 C5.20622702,13.9746094 4.82192096,13.6144301 4.79779412,13.1560202 L4.65647978,12.1323529 C4.23253676,11.9548483 3.83272059,11.7290901 3.46392463,11.4568015 L2.49540441,11.8462776 C2.08352482,12.0548024 1.5803079,11.9100414 1.34420956,11.5136719 L0.129250919,9.45082721 C-0.103400735,9.05618107 0.0206801471,8.54607077 0.411879596,8.30307904 L1.24253217,7.67061121 C1.18221485,7.22110909 1.18221485,6.7655637 1.24253217,6.31606158 L0.413602941,5.68359375 C0.0258501838,5.44232537 -0.0999540441,4.93566176 0.129250919,4.54101562 L1.34248621,2.47472426 C1.57858456,2.07835478 2.08007812,1.93359375 2.49195772,2.14039522 L3.46220129,2.52987132 C3.8292739,2.25585937 4.23253676,2.0301011 4.65475643,1.85431985 L4.79607077,0.832375919 C4.82019761,0.372242647 5.20278033,0.0120634191 5.6629136,0.0171784908 L8.08766085,0.0171784908 C8.55296415,0.0171784908 8.93382353,0.373965993 8.95450368,0.830652574 L9.09581801,1.85431985 C9.51976103,2.0301011 9.92130055,2.25758272 10.2900965,2.52987132 L11.2603401,2.14211857 C11.6722197,1.93704044 12.1737132,2.08007812 12.4098116,2.47472426 L13.6196002,4.53929228 C13.8522518,4.93393842 13.7298943,5.44232537 13.3386949,5.68704044 L12.511489,6.31778493 C12.5700827,6.76757812 12.5700827,7.22426471 12.511489,7.67233456 L12.9302619,7.99115349 L11.4154412,7.99115349 L11.4516314,7.79986213 C11.5533088,7.26907169 11.5533088,6.71932445 11.4516314,6.18681066 L11.3964844,5.88694853 L12.66142,4.92359835 L11.579159,3.07789522 L10.1143153,3.69657629 L9.87477022,3.49494485 C9.45255055,3.1451057 8.97173713,2.8728171 8.45473346,2.69186581 L8.16348805,2.58674173 L7.94462316,1.03056066 L5.80595129,1.03056066 L5.59053309,2.59018842 L5.29928768,2.6953125 C4.78056066,2.87798713 4.29974724,3.15027574 3.87752757,3.50011489 L3.63970588,3.69829963 L2.16107537,3.10202206 L1.09087776,4.921875 L2.35581342,5.88522518 L2.30066636,6.18681066 C2.25068934,6.45220588 2.22483915,6.72104779 2.22311581,6.99161305 C2.22483915,7.26217831 2.25068934,7.53274357 2.29894301,7.79813879 L2.35236673,8.09972426 L1.08915441,9.06307445 L2.17486213,10.9087776 L3.63798254,10.2900965 L3.87925092,10.4900046 C4.30147059,10.8398437 4.78228401,11.1121324 5.29928768,11.2930836 L5.59053309,11.3982077 L5.80595129,12.9578355 L6.63143382,12.9578355 L6.63143382,12.9561121 Z" id="形状"></path>
                        </g>
                    </g>
                </g>
            </g>
        </g>
    </g>
</svg>