<?xml version="1.0" encoding="UTF-8"?>
<svg width="16px" height="16px" viewBox="0 0 16 16" version="1.1" xmlns="http://www.w3.org/2000/svg" xmlns:xlink="http://www.w3.org/1999/xlink">
    <title>预算执行-灰</title>
    <g id="0824设计侧修改" stroke="none" stroke-width="1" fill="none" fill-rule="evenodd">
        <g id="左侧图标修改" transform="translate(-16.000000, -1024.000000)">
            <g id="编组-4" transform="translate(0.000000, 108.000000)">
                <g id="18备份-6" transform="translate(0.000000, 904.000000)">
                    <g id="预算执行-灰" transform="translate(16.000000, 12.000000)">
                        <rect id="矩形" x="0" y="0" width="16" height="16"></rect>
                        <path d="M11.8888889,1 C12.3166667,1 12.6666667,1.3483871 12.6666667,1.77419355 L12.6666667,1.77419355 L12.6666667,2.5483871 C13.95,2.5483871 15,3.59354839 15,4.87096774 L15,4.87096774 L15,12.6774194 C15,13.9548387 13.95,15 12.6666667,15 L12.6666667,15 L3.33333333,15 C2.05,15 1,13.9548387 1,12.6774194 L1,12.6774194 L1,4.87096774 C1,3.59354839 2.05,2.5483871 3.33333333,2.5483871 L3.33333333,2.5483871 L3.33333333,1.77419355 C3.33333333,1.3483871 3.68333333,1 4.11111111,1 C4.53888889,1 4.88888889,1.3483871 4.88888889,1.77419355 L4.88888889,1.77419355 L4.88888889,2.5483871 L11.1111111,2.5483871 L11.1111111,1.77419355 C11.1111111,1.3483871 11.4611111,1 11.8888889,1 Z M12.6666667,4.09677419 L3.33333333,4.09677419 C2.90555556,4.09677419 2.55555556,4.44516129 2.55555556,4.87096774 L2.55555556,4.87096774 L2.55555556,12.6774194 C2.55555556,13.1032258 2.90555556,13.4516129 3.33333333,13.4516129 L3.33333333,13.4516129 L12.6666667,13.4516129 C13.0944444,13.4516129 13.4444444,13.1032258 13.4444444,12.6774194 L13.4444444,12.6774194 L13.4444444,4.87096774 C13.4444444,4.44516129 13.0944444,4.09677419 12.6666667,4.09677419 L12.6666667,4.09677419 Z M5.08333333,7.19354839 C5.51111111,7.19354839 5.86111111,7.54193548 5.86111111,7.96774194 C5.86111111,8.39354839 5.51111111,8.74193548 5.08333333,8.74193548 L5.08333333,8.74193548 L4.11111111,8.74193548 C3.68333333,8.74193548 3.33333333,8.39354839 3.33333333,7.96774194 C3.33333333,7.54193548 3.68333333,7.19354839 4.11111111,7.19354839 L4.11111111,7.19354839 Z M8.58333333,7.19354839 C9.01111111,7.19354839 9.36111111,7.54193548 9.36111111,7.96774194 C9.36111111,8.39354839 9.01111111,8.74193548 8.58333333,8.74193548 L8.58333333,8.74193548 L7.41666667,8.74193548 C6.98888889,8.74193548 6.63888889,8.39354839 6.63888889,7.96774194 C6.63888889,7.54193548 6.98888889,7.19354839 7.41666667,7.19354839 L7.41666667,7.19354839 Z M11.8888889,7.19354839 C12.3166667,7.19354839 12.6666667,7.54193548 12.6666667,7.96774194 C12.6666667,8.39354839 12.3166667,8.74193548 11.8888889,8.74193548 L11.8888889,8.74193548 L10.9166667,8.74193548 C10.4888889,8.74193548 10.1388889,8.39354839 10.1388889,7.96774194 C10.1388889,7.54193548 10.4888889,7.19354839 10.9166667,7.19354839 L10.9166667,7.19354839 Z M11.8888889,4.87096774 C12.3166667,4.87096774 12.6666667,5.21935484 12.6666667,5.64516129 C12.6666667,6.07096774 12.3166667,6.41935484 11.8888889,6.41935484 L11.8888889,6.41935484 L4.11111111,6.41935484 C3.68333333,6.41935484 3.33333333,6.07096774 3.33333333,5.64516129 C3.33333333,5.21935484 3.68333333,4.87096774 4.11111111,4.87096774 L4.11111111,4.87096774 Z" id="形状结合" stroke="#FFFFFF" stroke-width="0.4" fill="#FFFFFF" fill-rule="nonzero"></path>
                    </g>
                </g>
            </g>
        </g>
    </g>
</svg>