<?xml version="1.0" encoding="UTF-8"?>
<svg width="16px" height="16px" viewBox="0 0 16 16" version="1.1" xmlns="http://www.w3.org/2000/svg" xmlns:xlink="http://www.w3.org/1999/xlink">
    <title>指标管理-灰</title>
    <g id="0824设计侧修改" stroke="none" stroke-width="1" fill="none" fill-rule="evenodd">
        <g id="左侧图标修改" transform="translate(-16.000000, -544.000000)">
            <g id="编组-4" transform="translate(0.000000, 108.000000)">
                <g id="11" transform="translate(0.000000, 424.000000)">
                    <g id="指标管理-灰" transform="translate(16.000000, 12.000000)">
                        <rect id="矩形" x="0" y="0" width="16" height="16"></rect>
                        <path d="M12.7369863,1 C13.3123288,1 13.8876712,1.23013699 14.309589,1.65205479 C14.7315068,2.0739726 14.9616438,2.64931507 15,3.22465753 L15,3.22465753 L15,12.7753425 C15,13.3890411 14.769863,13.9260274 14.3479452,14.3479452 C13.9260274,14.769863 13.3506849,15 12.7753425,15 L12.7753425,15 L3.22465753,15 C1.99726027,15 1,14.0027397 1,12.7753425 L1,12.7753425 L1,11.8547945 C1.03835616,11.5863014 1.26849315,11.3945205 1.5369863,11.3945205 C1.80547945,11.3945205 2.03561644,11.5863014 2.0739726,11.8547945 L2.0739726,11.8547945 L2.0739726,12.7753425 C2.0739726,13.3890411 2.57260274,13.8876712 3.18630137,13.8876712 L3.18630137,13.8876712 L12.7369863,13.8876712 C13.3506849,13.8876712 13.8493151,13.3890411 13.8493151,12.7753425 L13.8493151,12.7753425 L13.8493151,3.22465753 C13.8493151,2.6109589 13.3506849,2.11232877 12.7369863,2.11232877 L12.7369863,2.11232877 L3.18630137,2.11232877 C2.57260274,2.11232877 2.0739726,2.6109589 2.0739726,3.22465753 L2.0739726,3.22465753 L2.0739726,7.75068493 C1.99726027,7.98082192 1.76712329,8.13424658 1.5369863,8.13424658 C1.30684932,8.13424658 1.07671233,7.98082192 1,7.75068493 L1,7.75068493 L1,3.22465753 C1,1.99726027 1.95890411,1 3.18630137,1 L3.18630137,1 Z M9.32328767,7.09863014 L9.74520548,7.52054795 L10.1287671,7.86575342 L7.25205479,10.7424658 C6.98356164,11.0109589 6.48493151,11.0109589 6.21643836,10.7424658 L6.21643836,10.7424658 L5.94794521,10.4739726 L6.75342466,9.66849315 L9.32328767,7.09863014 Z M1.92054795,10.3205479 C1.72876712,10.5506849 1.38356164,10.5506849 1.15342466,10.3205479 C1.07671233,10.2054795 1,10.090411 1,9.9369863 C1,9.78356164 1.03835616,9.66849315 1.15342466,9.55342466 L1.15342466,9.55342466 L2.0739726,8.59452055 L3.10958904,7.59726027 L3.33972603,7.36712329 C3.49315068,7.21369863 3.68493151,7.1369863 3.87671233,7.1369863 C4.06849315,7.1369863 4.26027397,7.21369863 4.37534247,7.32876712 L4.37534247,7.32876712 L6.71506849,9.66849315 L5.94794521,10.4356164 L3.87671233,8.36438356 Z M11.4712329,5.25753425 C11.5863014,5.25753425 11.739726,5.29589041 11.8164384,5.37260274 C11.9315068,5.44931507 11.969863,5.60273973 11.9315068,5.71780822 L11.9315068,5.71780822 L11.3178082,8.24931507 C11.2794521,8.36438356 11.1643836,8.47945205 11.0493151,8.51780822 C10.9342466,8.55616438 10.7808219,8.51780822 10.7041096,8.44109589 L10.7041096,8.44109589 L8.74794521,6.48493151 C8.67123288,6.40821918 8.63287671,6.25479452 8.67123288,6.13972603 C8.70958904,5.98630137 8.82465753,5.90958904 8.93972603,5.87123288 L8.93972603,5.87123288 Z" id="形状结合" fill="#FFFFFF" fill-rule="nonzero"></path>
                    </g>
                </g>
            </g>
        </g>
    </g>
</svg>