<?xml version="1.0" standalone="no"?><!DOCTYPE svg PUBLIC "-//W3C//DTD SVG 1.1//EN" "http://www.w3.org/Graphics/SVG/1.1/DTD/svg11.dtd"><svg class="icon" width="200px" height="200.00px" viewBox="0 0 1024 1024" version="1.1" xmlns="http://www.w3.org/2000/svg"><path fill="#ffffff" d="M814.545455 46.545455H209.454545a93.090909 93.090909 0 0 0-93.090909 93.090909v744.727272a93.090909 93.090909 0 0 0 93.090909 93.090909h197.818182a34.909091 34.909091 0 0 0 34.909091-34.90909 34.909091 34.909091 0 0 0-34.909091-34.909091H209.454545a23.272727 23.272727 0 0 1-23.272727-23.272728V139.636364a23.272727 23.272727 0 0 1 23.272727-23.272728h605.09091a23.272727 23.272727 0 0 1 23.272727 23.272728v384a34.909091 34.909091 0 0 0 34.909091 34.909091 34.909091 34.909091 0 0 0 34.909091-34.909091V139.636364a93.090909 93.090909 0 0 0-93.090909-93.090909zM663.272727 372.363636h-325.818182a34.909091 34.909091 0 0 1 0-69.818181h325.818182a34.909091 34.909091 0 0 1 0 69.818181zM523.636364 581.818182h-186.181819a34.909091 34.909091 0 0 1 0-69.818182h186.181819a34.909091 34.909091 0 0 1 0 69.818182zM653.265455 977.454545h-89.6a34.909091 34.909091 0 0 1-34.909091-34.90909v-89.6a33.978182 33.978182 0 0 1 10.24-24.669091l219.461818-219.461819a34.676364 34.676364 0 0 1 49.338182 0L897.396364 698.181818a34.909091 34.909091 0 0 1 0 49.338182l-219.461819 219.461818a34.909091 34.909091 0 0 1-24.66909 10.472727z m-54.69091-69.818181h40.261819l184.552727-184.552728-40.261818-40.261818-184.552728 184.552727z" /></svg>