<?xml version="1.0" encoding="UTF-8"?>
<svg width="16px" height="16px" viewBox="0 0 16 16" version="1.1" xmlns="http://www.w3.org/2000/svg" xmlns:xlink="http://www.w3.org/1999/xlink">
    <title>转移支付提前下达-灰</title>
    <g id="0824设计侧修改" stroke="none" stroke-width="1" fill="none" fill-rule="evenodd">
        <g id="左侧图标修改" transform="translate(-16.000000, -744.000000)">
            <g id="编组-4" transform="translate(0.000000, 108.000000)">
                <g id="16" transform="translate(0.000000, 624.000000)">
                    <g id="转移支付提前下达-灰" transform="translate(16.000000, 12.000000)">
                        <rect id="矩形" x="0" y="0" width="16" height="16"></rect>
                        <g id="任务下达与接收" transform="translate(1.000000, 1.000000)" fill="#FFFFFF">
                            <path d="M2.0850909,10.9323016 C2.0850909,11.2083383 2.30810361,11.431351 2.58414033,11.431351 L10.3303232,11.431351 C10.6063599,11.431351 10.8293726,11.2083383 10.8293726,10.9323016 C10.8293726,10.6562649 10.6063599,10.4332521 10.3303232,10.4332521 L2.58414033,10.4332521 C2.30810361,10.4332521 2.0850909,10.6562649 2.0850909,10.9323016 Z M5.96208115,8.43705442 L2.58414033,8.43705442 C2.30810361,8.43705442 2.0850909,8.66006713 2.0850909,8.93610385 C2.0850909,9.21214057 2.30810361,9.43515328 2.58414033,9.43515328 L5.96208115,9.43515328 C6.23811787,9.43515328 6.46113058,9.21214057 6.46113058,8.93610385 C6.46113058,8.66006713 6.23811787,8.43705442 5.96208115,8.43705442 L5.96208115,8.43705442 Z" id="形状" fill-rule="nonzero"></path>
                            <path d="M11.9459957,12.9893209 L11.9444362,12.9908805 L0.999658389,12.9908805 L0.998098859,12.9893209 L0.998098859,1.01525368 L8.02218437,1.01369415 L8.02218437,0.0155952947 L0.998098859,0.0155952947 C0.449144487,0.0155952947 0,0.464739781 0,1.01369415 L0,12.9908805 C0,13.5398348 0.449144487,13.9889793 0.998098859,13.9889793 L11.9459957,13.9889793 C12.4949501,13.9889793 12.9440946,13.5398348 12.9440946,12.9908805 L12.9440946,5.99948311 L11.9459957,5.99948311 L11.9459957,12.9893209 Z" id="路径" fill-rule="nonzero"></path>
                            <path d="M7.99700684,0.0155952947 L7.99983888,0.0155952947 C8.27519921,0.0155952947 8.49842286,0.238818948 8.49842286,0.514179278 C8.49842286,0.789539609 8.27519921,1.01276326 7.99983888,1.01276326 L7.99700684,1.01276326 C7.72164651,1.01276326 7.49842286,0.789539609 7.49842286,0.514179278 C7.49842286,0.238818948 7.72164651,0.0155952947 7.99700684,0.0155952947 Z" id="矩形"></path>
                            <path d="M12.4426786,5.5289546 L12.4455106,5.5289546 C12.7208709,5.5289546 12.9440946,5.75217826 12.9440946,6.02753859 C12.9440946,6.30289892 12.7208709,6.52612257 12.4455106,6.52612257 L12.4426786,6.52612257 C12.1673182,6.52612257 11.9440946,6.30289892 11.9440946,6.02753859 C11.9440946,5.75217826 12.1673182,5.5289546 12.4426786,5.5289546 Z" id="矩形备份-9"></path>
                            <path d="M13.2965482,1.773185 L11.6793162,0.157512476 C11.484375,-0.0374287072 11.1677905,-0.0374287072 10.9728493,0.157512476 L8.52750713,2.60441421 L7.86782616,1.94473325 C7.72902804,1.80593512 7.52005109,1.76070877 7.33602662,1.83244712 C7.15200214,1.90262595 7.02723978,2.07573372 7.01632308,2.27223443 L6.8322986,5.90593809 C6.82450095,6.04629575 6.87752495,6.18353434 6.97733484,6.28334423 C7.07090661,6.37691599 7.19878802,6.42994 7.3297885,6.42994 L7.35474097,6.42994 L10.9884446,6.24591552 C11.1849453,6.23655834 11.3580531,6.11023645 11.4282319,5.92621198 C11.4984108,5.7421875 11.4547439,5.53321055 11.3159458,5.39441243 L10.848087,4.92655359 L13.2965482,2.47965185 C13.39012,2.38608009 13.443144,2.2597582 13.443144,2.12719819 C13.443144,1.99463819 13.39012,1.86675677 13.2965482,1.773185 Z M9.790726,4.57409993 C9.69715423,4.6676717 9.64413023,4.79399358 9.64413023,4.92655359 C9.64413023,5.05911359 9.69715423,5.18543548 9.790726,5.27900725 L9.817238,5.30551925 L7.85690946,5.40532913 L7.95671934,3.44500059 L8.17505347,3.66333472 C8.26862524,3.75690649 8.39494712,3.80993049 8.52750713,3.80993049 C8.66006713,3.80993049 8.78638902,3.75690649 8.87996079,3.66333472 L11.3268625,1.21643298 L12.2376277,2.12719819 L9.790726,4.57409993 Z" id="形状" fill-rule="nonzero"></path>
                            <path d="M3.03665253,2.10296412 L3.914,3.025 L4.79209808,2.10296412 C4.92279115,1.96567863 5.13442481,1.96567863 5.26437531,2.10296412 C5.39506837,2.24024961 5.39506837,2.4625585 5.26437531,2.59906396 L4.248,3.666 L4.248,3.669 L5.41520929,3.66926677 C5.60011028,3.66926677 5.7493677,3.82605304 5.7493677,4.02028081 C5.7493677,4.21450858 5.60011028,4.37129485 5.41520929,4.37129485 L4.248,4.371 L4.248,4.979 L5.41520929,4.97971919 C5.60011028,4.97971919 5.7493677,5.13650546 5.7493677,5.33073323 C5.7493677,5.524961 5.60011028,5.68174727 5.41520929,5.68174727 L4.248,5.681 L4.24853372,6.64898596 C4.24853372,6.84321373 4.0992763,7 3.91437531,7 C3.72947432,7 3.58021689,6.84321373 3.58021689,6.64898596 L3.58,5.681 L2.33415842,5.68174727 C2.14925743,5.68174727 2,5.524961 2,5.33073323 C2,5.13650546 2.14925743,4.97971919 2.33415842,4.97971919 L3.58,4.979 L3.58,4.371 L2.33415842,4.37129485 C2.14925743,4.37129485 2,4.21450858 2,4.02028081 C2,3.82605304 2.14925743,3.66926677 2.33415842,3.66926677 L3.58,3.669 L3.58,3.666 L2.56437531,2.59906396 C2.43368224,2.46177847 2.43368224,2.23946958 2.56437531,2.10296412 C2.69506837,1.96567863 2.90670204,1.96567863 3.03665253,2.10296412 Z" id="形状结合" stroke="#FFFFFF" stroke-width="0.3" fill-rule="nonzero"></path>
                        </g>
                    </g>
                </g>
            </g>
        </g>
    </g>
</svg>