<?xml version="1.0" encoding="UTF-8"?>
<svg width="16px" height="16px" viewBox="0 0 16 16" version="1.1" xmlns="http://www.w3.org/2000/svg" xmlns:xlink="http://www.w3.org/1999/xlink">
    <title>转移支付预算编制-灰</title>
    <g id="0824设计侧修改" stroke="none" stroke-width="1" fill="none" fill-rule="evenodd">
        <g id="左侧图标修改" transform="translate(-16.000000, -664.000000)">
            <g id="编组-4" transform="translate(0.000000, 108.000000)">
                <g id="14" transform="translate(0.000000, 544.000000)">
                    <g id="转移支付预算编制-灰" transform="translate(16.000000, 12.000000)">
                        <rect id="矩形" x="0" y="0" width="16" height="16"></rect>
                        <g id="编组-7" transform="translate(1.000000, 1.000000)" fill="#FFFFFF" fill-rule="nonzero">
                            <path d="M0.500792599,6.3099252 C0.470622811,6.3099252 0.440453024,6.30679915 0.410283236,6.30211008 C0.138755148,6.25365636 -0.0422635777,5.99575751 0.00854869611,5.72848052 C0.627823284,2.40861896 3.56858363,0 7,0 C10.4314164,0 13.3721767,2.40861896 13.9914513,5.72691749 C14.0184453,5.87071564 13.9787482,6.01920286 13.8834752,6.13174054 C13.7882022,6.24427822 13.6468806,6.30836217 13.4992074,6.30836217 L11.6572625,6.30836217 C11.3809707,6.30836217 11.1570792,6.08797588 11.1570792,5.81600982 C11.1570792,5.54404376 11.3809707,5.32365747 11.6572625,5.32365747 L12.8672297,5.32365747 C12.1209245,2.77749246 9.74386279,0.986267724 7,0.986267724 C4.05130023,0.986267724 1.52497749,3.05571062 0.993036502,5.90666518 C0.948575762,6.1426817 0.738975133,6.3099252 0.500792599,6.3099252 Z M7,14 C3.56858363,14 0.627823284,11.591381 0.00854869611,8.27308251 C-0.0184453244,8.12928436 0.0212517646,7.98079714 0.116524778,7.86825946 C0.211797791,7.75572178 0.353119428,7.6900748 0.500792599,7.6900748 L2.34273753,7.6900748 C2.61902926,7.6900748 2.84292085,7.91046109 2.84292085,8.18242715 C2.84292085,8.45439321 2.61902926,8.6747795 2.34273753,8.6747795 L1.13277025,8.6747795 C1.87907553,11.2209445 4.25613721,13.0121693 7,13.0121693 C9.94869977,13.0121693 12.4750225,10.9427264 13.0069635,8.0917718 C13.0561879,7.82449481 13.3166008,7.64631015 13.5897168,7.6963269 C13.8612449,7.74478062 14.0422636,8.00267947 13.9914513,8.26995646 C13.3721767,11.589818 10.4314164,14 7,14 L7,14 Z" id="形状"></path>
                            <path d="M8.58061474,2.82231094 C8.76662285,2.82384766 8.9165866,2.9725248 8.91658003,3.15539385 L8.91658003,5.14549423 C8.91733934,5.23357493 8.88227859,5.31830479 8.81919039,5.38085173 C8.75610219,5.44339867 8.67021378,5.4785803 8.58061474,5.47857714 L7.56702456,5.47857714 L7.56702456,6.25432796 L9.33974755,6.25432796 C9.42934337,6.25358148 9.51553072,6.28804933 9.57915357,6.35007067 C9.64277641,6.41209201 9.67856322,6.49652799 9.67856,6.58461185 L9.67856,7.68791204 L10.3533377,7.68791204 C10.5388862,7.68791204 10.6893268,7.83578517 10.6893268,8.01819593 L10.6893268,10.0082963 C10.6900623,10.096377 10.6550016,10.1811069 10.5919134,10.2436538 C10.5288252,10.3062007 10.4429368,10.3413792 10.3533377,10.3413792 L8.00158073,10.3413792 C7.9119817,10.3413792 7.82609328,10.3062007 7.76300508,10.2436538 C7.69991688,10.1811069 7.66485613,10.096377 7.66561545,10.0082963 L7.66561545,8.01819593 C7.66561545,7.83578517 7.81603223,7.68791204 8.00158073,7.68791204 L9.01517092,7.68791204 L9.01517092,6.90649869 L5.66134192,6.90649869 L5.66134192,7.67671598 L6.33611965,7.67671598 C6.51380156,7.6929416 6.64758009,7.8428947 6.64076614,8.01819593 L6.64076614,10.0082963 C6.64076614,10.1922529 6.48907464,10.3413792 6.30195369,10.3413792 L3.95304385,10.3413792 C3.7659229,10.3413792 3.6142314,10.1922529 3.6142314,10.0082963 L3.6142314,8.01819593 C3.6142314,7.93011207 3.65001499,7.84567609 3.71363784,7.78365475 C3.77726068,7.72163342 3.86344803,7.68716557 3.95304385,7.68791204 L4.96663403,7.68791204 C4.96523424,7.67675826 4.96523424,7.66547763 4.96663403,7.65432385 L4.96663403,6.58461185 C4.96663082,6.49652799 5.00241763,6.41209201 5.06604047,6.35007067 C5.12966332,6.28804933 5.21585066,6.25358148 5.30544648,6.25432796 L6.89509398,6.25432796 L6.89509398,5.47857714 L5.89004529,5.47857714 C5.80044625,5.4785803 5.71455784,5.44339867 5.65146964,5.38085173 C5.58838144,5.31830479 5.55332069,5.23357493 5.55408,5.14549423 L5.55408,3.15539385 C5.55407343,2.9725248 5.70403718,2.82384766 5.89004529,2.82231094 L8.58061474,2.82231094 Z M10.0031366,8.35127883 L8.31761588,8.35127883 L8.31761588,9.67801242 L10.0031366,9.67801242 L10.0031366,8.35127883 Z M5.9659884,8.35127883 L4.27762048,8.35127883 L4.27762048,9.67801242 L5.9659884,9.67801242 L5.9659884,8.35127883 Z M8.25319095,3.48847675 L6.21746908,3.48847675 L6.21746908,4.81521034 L8.25319095,4.81521034 L8.25319095,3.48847675 Z" id="形状结合" stroke="#FFFFFF" stroke-width="0.3"></path>
                        </g>
                    </g>
                </g>
            </g>
        </g>
    </g>
</svg>