<?xml version="1.0" encoding="UTF-8"?>
<svg width="14px" height="14px" viewBox="0 0 14 14" version="1.1" xmlns="http://www.w3.org/2000/svg" xmlns:xlink="http://www.w3.org/1999/xlink">
    <title>icon-未固定钉@1x</title>
    <g id="屏保+驾驶舱+菜单" stroke="none" stroke-width="1" fill="none" fill-rule="evenodd" opacity="0.5">
        <g id="1-首页1-菜单-固定钉子" transform="translate(-302.000000, -332.000000)">
            <g id="icon-未固定钉" transform="translate(302.000000, 332.000000)">
                <rect id="矩形" transform="translate(7.000000, 7.000000) rotate(-90.000000) translate(-7.000000, -7.000000) " x="0" y="0" width="14" height="14"></rect>
                <path d="M9.45565826,1.98495398 L11.9896929,4.49462292 C12.1823948,4.66195061 12.2655928,4.92283911 12.2053388,5.17083511 C12.1450847,5.41883111 11.9514553,5.61246055 11.7034593,5.67271461 C11.4554633,5.73296866 11.1945748,5.64977064 11.0272471,5.45706877 L10.771407,5.2560516 L8.1825495,8.91090927 L8.99270962,9.72106939 C9.22754718,9.99151857 9.2132577,10.3975232 8.95998765,10.6507933 C8.7067176,10.9040633 8.30071295,10.9183528 8.03026377,10.6835152 L3.2606745,5.88346883 C3.02583694,5.61301966 3.04012642,5.207015 3.29339648,4.95374495 C3.54666653,4.7004749 3.95267118,4.68618542 4.22312036,4.92102298 L5.02718905,5.7311831 L8.68204672,3.14232558 L8.49321241,2.94739984 C8.30051054,2.78007214 8.21731252,2.51918364 8.27756657,2.27118764 C8.33782063,2.02319165 8.53145007,1.8295622 8.77944607,1.76930814 C9.02744206,1.70905409 9.28833057,1.79225212 9.45565826,1.98495398 Z M5.63024056,9.25202932 L4.67997757,8.31394919 C3.91245746,9.23984646 2.700263,10.5860524 2.48097153,10.8662581 C2.16062714,11.2643971 1.91316457,11.7160163 1.75,12.2002812 C2.23383636,12.0389708 2.68542851,11.7935851 3.08402305,11.4754011 C3.36422881,11.2561096 4.71043472,10.0439152 5.63024056,9.26421218 L5.63024056,9.25202932 Z" id="形状" fill="#212121" fill-rule="nonzero"></path>
            </g>
        </g>
    </g>
</svg>