<?xml version="1.0" encoding="UTF-8"?>
<svg width="16px" height="16px" viewBox="0 0 16 16" version="1.1" xmlns="http://www.w3.org/2000/svg" xmlns:xlink="http://www.w3.org/1999/xlink">
    <!-- Generator: Sketch 59.1 (86144) - https://sketch.com -->
    <title>icon-展开条件</title>
    <desc>Created with Sketch.</desc>
    <g id="20200923" stroke="none" stroke-width="1" fill="none" fill-rule="evenodd">
        <g id="1920-新改内页1-2" transform="translate(-1776.000000, -135.000000)" fill-rule="nonzero">
            <g id="状态" transform="translate(24.000000, 120.000000)">
                <g id="按钮" transform="translate(1423.000000, 7.000000)">
                    <g id="展开条件" transform="translate(317.000000, 0.000000)">
                        <g id="icon-展开条件" transform="translate(12.000000, 8.000000)">
                            <rect id="矩形" fill="#000000" opacity="0" x="0" y="0" width="16" height="16"></rect>
                            <g id="综合展示" transform="translate(1.000000, 1.000000)" fill="#2A8BFD">
                                <path d="M5.81,6.265 L0.7,6.265 C0.315,6.265 0,5.95 0,5.565 L0,0.7 C0,0.315 0.315,0 0.7,0 L5.81,0 C6.195,0 6.51,0.315 6.51,0.7 L6.51,5.565 C6.51,5.95 6.195,6.265 5.81,6.265 Z M5.81,14 L0.7,14 C0.315,14 0,13.685 0,13.3 L0,8.435 C0,8.05 0.315,7.735 0.7,7.735 L5.81,7.735 C6.195,7.735 6.51,8.05 6.51,8.435 L6.51,13.3 C6.51,13.685 6.195,14 5.81,14 Z M13.265,14 L8.155,14 C7.77,14 7.455,13.685 7.455,13.3 L7.455,8.435 C7.455,8.05 7.77,7.735 8.155,7.735 L13.265,7.735 C13.65,7.735 13.965,8.05 13.965,8.435 L13.965,13.3 C13.965,13.685 13.65,14 13.265,14 Z M9.835,4.76 C8.53989226,4.76 7.49,3.71010774 7.49,2.415 C7.49,1.11989226 8.53989226,0.07 9.835,0.07 C11.1301077,0.07 12.18,1.11989226 12.18,2.415 C12.18,3.71010774 11.1301077,4.76 9.835,4.76 Z M9.835,1.12 C9.135,1.12 8.54,1.68 8.54,2.415 C8.54,3.15 9.1,3.71 9.835,3.71 C10.57,3.71 11.13,3.115 11.13,2.415 C11.13,1.715 10.535,1.12 9.835,1.12 Z" id="形状"></path>
                                <path d="M13.755,6.02 C13.545,6.265 13.16,6.265 12.915,6.055 L10.955,4.235 C10.71,4.025 10.71,3.64 10.92,3.395 C11.13,3.15 11.515,3.15 11.76,3.36 L13.72,5.18 C13.965,5.425 14,5.775 13.755,6.02 Z" id="路径"></path>
                            </g>
                        </g>
                    </g>
                </g>
            </g>
        </g>
    </g>
</svg>