<?xml version="1.0" encoding="UTF-8"?>
<svg width="16px" height="16px" viewBox="0 0 16 16" version="1.1" xmlns="http://www.w3.org/2000/svg" xmlns:xlink="http://www.w3.org/1999/xlink">
    <title>红灯备份 8</title>
    <defs>
        <linearGradient x1="35.5535508%" y1="-6.76542156e-15%" x2="74.5%" y2="100%" id="linearGradient-1">
            <stop stop-color="#FFBA53" offset="0%"></stop>
            <stop stop-color="#F8930B" offset="100%"></stop>
        </linearGradient>
    </defs>
    <g id="页面-1" stroke="none" stroke-width="1" fill="none" fill-rule="evenodd">
        <g id="红灯备份-8">
            <rect id="矩形" fill="#FFFFFF" opacity="0" x="0" y="0" width="16" height="16"></rect>
            <g id="预警-(1)" transform="translate(1.000000, 1.000000)" fill-rule="nonzero">
                <path d="M3.5,13.125 L10.5,13.125 L10.5,6.79166666 C10.5,4.76666666 8.93295455,3.125 7,3.125 C5.06704545,3.125 3.5,4.76666666 3.5,6.79166666 L3.5,13.125 Z" id="路径" fill="url(#linearGradient-1)"></path>
                <path d="M11.7727273,12.7272727 L13.3636364,12.7272727 C13.7150903,12.7272727 14,13.0121824 14,13.3636364 C14,13.7150903 13.7150903,14 13.3636364,14 L0.636363638,14 C0.284909705,14 0,13.7150903 0,13.3636364 C0,13.0121824 0.284909705,12.7272727 0.636363638,12.7272727 L2.22727274,12.7272727 L2.22727274,6.68181818 C2.22727274,4.04599999 4.36418182,1.90909091 7,1.90909091 C9.63581818,1.90909091 11.7727273,4.04599999 11.7727273,6.68181818 L11.7727273,12.7272727 L11.7727273,12.7272727 Z M10.5,12.7272727 L10.5,6.68181818 C10.5,4.74886363 8.93295456,3.18181818 7,3.18181818 C5.06704544,3.18181818 3.5,4.74886363 3.5,6.68181818 L3.5,12.7272727 L10.5,12.7272727 Z M5.72727272,0 L8.27272728,0 L8.27272728,1.27272728 L5.72727272,1.27272728 L5.72727272,0 Z M11.0498182,1.15022727 L12.8497727,2.95018182 L11.9499545,3.85 L10.15,2.05004545 L11.0498182,1.15022727 Z M14,5.72727272 L14,8.27272728 L12.7272727,8.27272728 L12.7272727,5.72727272 L14,5.72727272 Z M8.07883538e-09,8.27272728 L8.07883538e-09,5.72727272 L1.27272728,5.72727272 L1.27272728,8.27272728 L8.07883538e-09,8.27272728 Z M1.15022728,2.95018182 L2.95018183,1.15022727 L3.85,2.05004545 L2.05004545,3.85 L1.15022728,2.95018182 Z" id="形状" fill="#F69109"></path>
                <polygon id="路径" fill="#FFFFFF" points="5.13036364 8.90018183 6.40404546 5.50390909 7.59563636 5.95063636 6.96022728 7.64527273 8.87154546 7.66404545 7.59499999 11.0431364 6.40436364 10.5932273 7.0369091 8.91863636 5.13036364 8.90018183"></polygon>
            </g>
        </g>
    </g>
</svg>