<?xml version="1.0" standalone="no"?><!DOCTYPE svg PUBLIC "-//W3C//DTD SVG 1.1//EN" "http://www.w3.org/Graphics/SVG/1.1/DTD/svg11.dtd"><svg class="icon" width="18px" height="18px" viewBox="0 0 1024 1024" version="1.1" xmlns="http://www.w3.org/2000/svg"><path d="M981.333333 21.333333h-405.333333A21.390222 21.390222 0 0 0 554.666667 42.666667v405.333333c0 11.719111 9.614222 21.333333 21.333333 21.333333h405.333333a21.390222 21.390222 0 0 0 21.333334-21.333333V42.666667a21.390222 21.390222 0 0 0-21.333334-21.333334z m0 533.333334h-405.333333a21.390222 21.390222 0 0 0-21.333333 21.333333v405.333333c0 11.719111 9.614222 21.333333 21.333333 21.333334h405.333333a21.390222 21.390222 0 0 0 21.333334-21.333334v-405.333333a21.390222 21.390222 0 0 0-21.333334-21.333333zM448 21.333333H42.666667A21.390222 21.390222 0 0 0 21.333333 42.666667v405.333333c0 11.719111 9.614222 21.333333 21.333334 21.333333h405.333333a21.390222 21.390222 0 0 0 21.333333-21.333333V42.666667a21.390222 21.390222 0 0 0-21.333333-21.333334z m0 533.333334H42.666667a21.390222 21.390222 0 0 0-21.333334 21.333333v405.333333c0 11.719111 9.614222 21.333333 21.333334 21.333334h405.333333a21.390222 21.390222 0 0 0 21.333333-21.333334v-405.333333a21.390222 21.390222 0 0 0-21.333333-21.333333z" fill="#5176EA" /></svg>