<?xml version="1.0" encoding="UTF-8"?>
<svg width="14px" height="14px" viewBox="0 0 14 14" version="1.1" xmlns="http://www.w3.org/2000/svg" xmlns:xlink="http://www.w3.org/1999/xlink">
    <title>icon-固定钉@1x</title>
    <g id="屏保+驾驶舱+菜单" stroke="none" stroke-width="1" fill="none" fill-rule="evenodd">
        <g id="1-首页1-菜单-固定钉子" transform="translate(-302.000000, -372.000000)">
            <g id="icon-固定钉" transform="translate(302.000000, 372.000000)">
                <rect id="矩形" transform="translate(7.000000, 7.000000) rotate(-90.000000) translate(-7.000000, -7.000000) " x="0" y="0" width="14" height="14"></rect>
                <path d="M8.84108992,0.436663078 C9.10400658,0.418553239 9.3550829,0.548549364 9.49204962,0.773700994 C9.62901634,0.998852624 9.62901634,1.28158626 9.49204962,1.50673789 C9.3550829,1.73188952 9.10400658,1.86188565 8.84108992,1.84377581 L8.50091815,1.89017002 L9.28757519,6.44584531 L10.4704859,6.44584531 C10.8304687,6.48335547 11.1036161,6.78728503 11.1026263,7.14921542 C11.1016203,7.51114582 10.8268013,7.81356461 10.4666171,7.84908924 L3.47942928,7.82008892 C3.10967758,7.79456002 2.82278123,7.48717238 2.82278123,7.11654042 C2.82278123,6.74590847 3.10967758,6.43852082 3.47942928,6.41299192 L4.65071789,6.42458261 L5.43737493,1.86503851 L5.15712247,1.85921957 C4.89415708,1.87741831 4.642994,1.747446 4.50597454,1.52226241 C4.36895507,1.29707881 4.36895507,1.01427907 4.50597454,0.789095468 C4.642994,0.563911869 4.89415708,0.43393956 5.15712247,0.452138298 L8.84108992,0.436663078 Z M7.67175143,8.56036748 L6.29172034,8.56808937 C6.40769013,9.80511621 6.5062503,11.674158 6.5507101,12.039477 C6.60619672,12.5609081 6.75273833,13.0685606 6.98367029,13.5393467 C7.21550573,13.0700037 7.36334382,12.5636815 7.42048355,12.0433301 C7.46494335,11.6780268 7.56351925,9.80896929 7.66596395,8.56617069 L7.67175143,8.56036748 Z" id="形状" fill="#FFFFFF" fill-rule="nonzero"></path>
            </g>
        </g>
    </g>
</svg>