<?xml version="1.0" standalone="no"?><!DOCTYPE svg PUBLIC "-//W3C//DTD SVG 1.1//EN" "http://www.w3.org/Graphics/SVG/1.1/DTD/svg11.dtd"><svg class="icon" width="16px" height="16.00px" viewBox="0 0 1024 1024" version="1.1" xmlns="http://www.w3.org/2000/svg"><path d="M435.84 464.96H108.8a44.928 44.928 0 0 1-44.8-44.8V108.8c0-24.64 20.16-44.8 44.8-44.8h327.04c24.64 0 44.8 20.16 44.8 44.8v311.36c0 24.64-20.16 44.8-44.8 44.8z m0 495.04H108.8a44.928 44.928 0 0 1-44.8-44.8V603.84c0-24.64 20.16-44.8 44.8-44.8h327.04c24.64 0 44.8 20.16 44.8 44.8V915.2c0 24.64-20.16 44.8-44.8 44.8z m477.12 0h-327.04a44.928 44.928 0 0 1-44.8-44.8V603.84c0-24.64 20.16-44.8 44.8-44.8h327.04c24.64 0 44.8 20.16 44.8 44.8V915.2c0 24.64-20.16 44.8-44.8 44.8z m-219.52-591.36a150.08 150.08 0 1 1 0-300.16 150.08 150.08 0 0 1 0 300.16z m0-232.96c-44.8 0-82.88 35.84-82.88 82.88 0 47.04 35.84 82.88 82.88 82.88 47.04 0 82.88-38.08 82.88-82.88s-38.08-82.88-82.88-82.88z" fill="#5176EA" /><path d="M944.32 449.28c-13.44 15.68-38.08 15.68-53.76 2.24l-125.44-116.48c-15.68-13.44-15.68-38.08-2.24-53.76s38.08-15.68 53.76-2.24l125.44 116.48c15.68 15.68 17.92 38.08 2.24 53.76z" fill="#2A8BFD" /></svg>