<?xml version="1.0" standalone="no"?><!DOCTYPE svg PUBLIC "-//W3C//DTD SVG 1.1//EN" "http://www.w3.org/Graphics/SVG/1.1/DTD/svg11.dtd"><svg class="icon" width="16px" height="16.00px" viewBox="0 0 1024 1024" version="1.1" xmlns="http://www.w3.org/2000/svg"><path d="M452.032 64A388.544 388.544 0 0 0 64 452.032a388.544 388.544 0 0 0 388.032 388.096c79.616 0 154.24-24.896 216.448-64.64 42.24-27.392 77.12-64.704 106.944-104.512a384.256 384.256 0 0 0 67.2-216.448C837.632 238.144 665.984 64 452.032 64z m34.88 241.28A182.592 182.592 0 0 0 305.28 486.912c0 34.816-29.824 64.64-64.64 64.64s-64.64-27.328-64.64-64.64a311.04 311.04 0 0 1 310.912-310.976c34.816 0 64.64 29.888 64.64 64.64 0 34.88-27.328 64.704-64.64 64.704z" fill="#5176EA" /><path d="M874.944 959.552a94.656 94.656 0 0 1-42.24-19.904l-276.16-273.664c-29.824-29.824-29.824-77.12 0-104.448 29.824-29.888 77.12-29.888 104.448 0l276.16 273.6c29.824 29.888 29.824 77.12 0 104.512a81.92 81.92 0 0 1-62.208 19.84z" fill="#5176EA" /></svg>